<?xml version="1.0" encoding="UTF-8" standalone="no"?>
<!-- Created with Inkscape (http://www.inkscape.org/) -->

<svg
   xmlns:dc="http://purl.org/dc/elements/1.1/"
   xmlns:cc="http://creativecommons.org/ns#"
   xmlns:rdf="http://www.w3.org/1999/02/22-rdf-syntax-ns#"
   xmlns:svg="http://www.w3.org/2000/svg"
   xmlns="http://www.w3.org/2000/svg"
   xmlns:sodipodi="http://sodipodi.sourceforge.net/DTD/sodipodi-0.dtd"
   xmlns:inkscape="http://www.inkscape.org/namespaces/inkscape"
   width="2160"
   height="1080"
   id="svg2"
   version="1.1"
   inkscape:version="0.47 r22583"
   sodipodi:docname="vpl_parts.pdf">
  <defs
     id="defs4">
    <inkscape:perspective
       sodipodi:type="inkscape:persp3d"
       inkscape:vp_x="0 : 526.18109 : 1"
       inkscape:vp_y="0 : 1000 : 0"
       inkscape:vp_z="744.09448 : 526.18109 : 1"
       inkscape:persp3d-origin="372.04724 : 350.78739 : 1"
       id="perspective10" />
    <inkscape:perspective
       id="perspective3008"
       inkscape:persp3d-origin="11.924964 : 3.4039132 : 1"
       inkscape:vp_z="23.849928 : 5.1058698 : 1"
       inkscape:vp_y="0 : 1000 : 0"
       inkscape:vp_x="0 : 5.1058698 : 1"
       sodipodi:type="inkscape:persp3d" />
    <inkscape:perspective
       id="perspective4042"
       inkscape:persp3d-origin="16.376343 : 6.1195819 : 1"
       inkscape:vp_z="32.752686 : 9.1793728 : 1"
       inkscape:vp_y="0 : 1000 : 0"
       inkscape:vp_x="0 : 9.1793728 : 1"
       sodipodi:type="inkscape:persp3d" />
  </defs>
  <sodipodi:namedview
     id="base"
     pagecolor="#ffffff"
     bordercolor="#666666"
     borderopacity="1.0"
     inkscape:pageopacity="0.0"
     inkscape:pageshadow="2"
     inkscape:zoom="0.7"
     inkscape:cx="375"
     inkscape:cy="648.07928"
     inkscape:document-units="px"
     inkscape:current-layer="layer1"
     showgrid="false"
     inkscape:window-width="1680"
     inkscape:window-height="975"
     inkscape:window-x="0"
     inkscape:window-y="24"
     inkscape:window-maximized="1"
     units="in" />
  <metadata
     id="metadata7">
    <rdf:RDF>
      <cc:Work
         rdf:about="">
        <dc:format>image/svg+xml</dc:format>
        <dc:type
           rdf:resource="http://purl.org/dc/dcmitype/StillImage" />
        <dc:title></dc:title>
      </cc:Work>
    </rdf:RDF>
  </metadata>
  <g
     inkscape:label="Layer 1"
     inkscape:groupmode="layer"
     id="layer1"
     transform="translate(0,27.64025)">
    <g
       id="g3011"
       transform="matrix(0,89.999995,-89.999995,0,-797.74749,-2.3101458)"
       style="stroke:#000000;stroke-width:0.00282222;stroke-miterlimit:4;stroke-opacity:1;stroke-dasharray:none">
      <g
         id="g2936"
         transform="matrix(1,0,0,-1,-2.487934,-4.55951)"
         style="stroke:#000000;stroke-width:0.00282222;stroke-miterlimit:4;stroke-opacity:1;stroke-dasharray:none">
        <path
           style="fill:none;stroke:#000000;stroke-width:0.00282222;stroke-miterlimit:4;stroke-opacity:1;stroke-dasharray:none"
           d="m 9.152924,4.94149 0,2.5"
           id="Sketch" />
      </g>
      <g
         id="g2939"
         transform="matrix(1,0,0,-1,-2.487934,-4.55951)"
         style="stroke:#000000;stroke-width:0.00282222;stroke-miterlimit:4;stroke-opacity:1;stroke-dasharray:none">
        <path
           style="fill:none;stroke:#000000;stroke-width:0.00282222;stroke-miterlimit:4;stroke-opacity:1;stroke-dasharray:none"
           d="m 2.902924,5.40124 -0.0625,0"
           id="Sketch001" />
      </g>
      <g
         id="g2942"
         transform="matrix(1,0,0,-1,-2.487934,-4.55951)"
         style="stroke:#000000;stroke-width:0.00282222;stroke-miterlimit:4;stroke-opacity:1;stroke-dasharray:none">
        <path
           style="fill:none;stroke:#000000;stroke-width:0.00282222;stroke-miterlimit:4;stroke-opacity:1;stroke-dasharray:none"
           d="m 2.902924,7.15124 -0.0625,0"
           id="Sketch008" />
      </g>
      <g
         id="g2945"
         transform="matrix(1,0,0,-1,-2.487934,-4.55951)"
         style="stroke:#000000;stroke-width:0.00282222;stroke-miterlimit:4;stroke-opacity:1;stroke-dasharray:none">
        <path
           style="fill:none;stroke:#000000;stroke-width:0.00282222;stroke-miterlimit:4;stroke-opacity:1;stroke-dasharray:none"
           d="m 2.803924,4.69149 6.099,0"
           id="Sketch007" />
      </g>
      <g
         id="g2948"
         transform="matrix(1,0,0,-1,-2.487934,-4.55951)"
         style="stroke:#000000;stroke-width:0.00282222;stroke-miterlimit:4;stroke-opacity:1;stroke-dasharray:none">
        <path
           style="fill:none;stroke:#000000;stroke-width:0.00282222;stroke-miterlimit:4;stroke-opacity:1;stroke-dasharray:none"
           d="m 8.866424,5.23174 a 0.08475,0.08475 0 0 1 0,0.1695"
           id="Sketch013" />
      </g>
      <g
         id="g2951"
         transform="matrix(1,0,0,-1,-2.487934,-4.55951)"
         style="stroke:#000000;stroke-width:0.00282222;stroke-miterlimit:4;stroke-opacity:1;stroke-dasharray:none">
        <path
           style="fill:none;stroke:#000000;stroke-width:0.00282222;stroke-miterlimit:4;stroke-opacity:1;stroke-dasharray:none"
           d="m 2.840424,5.40124 a 0.08475,0.08475 0 0 1 0,-0.1695"
           id="Sketch011" />
      </g>
      <g
         id="g2954"
         transform="matrix(1,0,0,-1,-2.487934,-4.55951)"
         style="stroke:#000000;stroke-width:0.00282222;stroke-miterlimit:4;stroke-opacity:1;stroke-dasharray:none">
        <path
           style="fill:none;stroke:#000000;stroke-width:0.00282222;stroke-miterlimit:4;stroke-opacity:1;stroke-dasharray:none"
           d="m 8.803924,5.40124 a 0.08475,0.08475 0 0 1 0,-0.1695"
           id="Sketch012" />
      </g>
      <g
         id="g2957"
         transform="matrix(1,0,0,-1,-2.487934,-4.55951)"
         style="stroke:#000000;stroke-width:0.00282222;stroke-miterlimit:4;stroke-opacity:1;stroke-dasharray:none">
        <path
           style="fill:none;stroke:#000000;stroke-width:0.00282222;stroke-miterlimit:4;stroke-opacity:1;stroke-dasharray:none"
           d="m 2.840424,5.23174 0.0625,0"
           id="Sketch010" />
      </g>
      <g
         id="g2960"
         transform="matrix(1,0,0,-1,-2.487934,-4.55951)"
         style="stroke:#000000;stroke-width:0.00282222;stroke-miterlimit:4;stroke-opacity:1;stroke-dasharray:none">
        <path
           style="fill:none;stroke:#000000;stroke-width:0.00282222;stroke-miterlimit:4;stroke-opacity:1;stroke-dasharray:none"
           d="m 9.152924,7.44149 -6.599,0"
           id="Sketch009" />
      </g>
      <g
         id="g2963"
         transform="matrix(1,0,0,-1,-2.487934,-4.55951)"
         style="stroke:#000000;stroke-width:0.00282222;stroke-miterlimit:4;stroke-opacity:1;stroke-dasharray:none">
        <path
           style="fill:none;stroke:#000000;stroke-width:0.00282222;stroke-miterlimit:4;stroke-opacity:1;stroke-dasharray:none"
           d="m 8.866424,6.98174 -0.0625,0"
           id="Sketch004" />
      </g>
      <g
         id="g2966"
         transform="matrix(1,0,0,-1,-2.487934,-4.55951)"
         style="stroke:#000000;stroke-width:0.00282222;stroke-miterlimit:4;stroke-opacity:1;stroke-dasharray:none">
        <path
           style="fill:none;stroke:#000000;stroke-width:0.00282222;stroke-miterlimit:4;stroke-opacity:1;stroke-dasharray:none"
           d="m 8.902924,4.69149 a 0.25,0.25 0 0 1 0.25,0.25"
           id="Sketch005" />
      </g>
      <g
         id="g2969"
         transform="matrix(1,0,0,-1,-2.487934,-4.55951)"
         style="stroke:#000000;stroke-width:0.00282222;stroke-miterlimit:4;stroke-opacity:1;stroke-dasharray:none">
        <path
           style="fill:none;stroke:#000000;stroke-width:0.00282222;stroke-miterlimit:4;stroke-opacity:1;stroke-dasharray:none"
           d="m 2.553924,4.94149 a 0.25,0.25 0 0 1 0.25,-0.25"
           id="Sketch006" />
      </g>
      <g
         id="g2972"
         transform="matrix(1,0,0,-1,-2.487934,-4.55951)"
         style="stroke:#000000;stroke-width:0.00282222;stroke-miterlimit:4;stroke-opacity:1;stroke-dasharray:none">
        <path
           style="fill:none;stroke:#000000;stroke-width:0.00282222;stroke-miterlimit:4;stroke-opacity:1;stroke-dasharray:none"
           d="m 2.840424,6.98174 0.0625,0"
           id="Sketch003" />
      </g>
      <g
         id="g2975"
         transform="matrix(1,0,0,-1,-2.487934,-4.55951)"
         style="stroke:#000000;stroke-width:0.00282222;stroke-miterlimit:4;stroke-opacity:1;stroke-dasharray:none">
        <path
           style="fill:none;stroke:#000000;stroke-width:0.00282222;stroke-miterlimit:4;stroke-opacity:1;stroke-dasharray:none"
           d="m 2.902924,6.98174 a 0.08475,0.08475 0 0 1 0,0.1695"
           id="Sketch019" />
      </g>
      <g
         id="g2978"
         transform="matrix(1,0,0,-1,-2.487934,-4.55951)"
         style="stroke:#000000;stroke-width:0.00282222;stroke-miterlimit:4;stroke-opacity:1;stroke-dasharray:none">
        <path
           style="fill:none;stroke:#000000;stroke-width:0.00282222;stroke-miterlimit:4;stroke-opacity:1;stroke-dasharray:none"
           d="m 2.553924,7.44149 0,-2.5"
           id="Sketch016" />
      </g>
      <g
         id="g2981"
         transform="matrix(1,0,0,-1,-2.487934,-4.55951)"
         style="stroke:#000000;stroke-width:0.00282222;stroke-miterlimit:4;stroke-opacity:1;stroke-dasharray:none">
        <path
           style="fill:none;stroke:#000000;stroke-width:0.00282222;stroke-miterlimit:4;stroke-opacity:1;stroke-dasharray:none"
           d="m 8.803924,7.15124 a 0.08475,0.08475 0 0 1 0,-0.1695"
           id="Sketch020" />
      </g>
      <g
         id="g2984"
         transform="matrix(1,0,0,-1,-2.487934,-4.55951)"
         style="stroke:#000000;stroke-width:0.00282222;stroke-miterlimit:4;stroke-opacity:1;stroke-dasharray:none">
        <path
           style="fill:none;stroke:#000000;stroke-width:0.00282222;stroke-miterlimit:4;stroke-opacity:1;stroke-dasharray:none"
           d="m 8.803924,5.40124 0.0625,0"
           id="Sketch021" />
      </g>
      <g
         id="g2987"
         transform="matrix(1,0,0,-1,-2.487934,-4.55951)"
         style="stroke:#000000;stroke-width:0.00282222;stroke-miterlimit:4;stroke-opacity:1;stroke-dasharray:none">
        <path
           style="fill:none;stroke:#000000;stroke-width:0.00282222;stroke-miterlimit:4;stroke-opacity:1;stroke-dasharray:none"
           d="m 8.866424,6.98174 a 0.08475,0.08475 0 0 1 0,0.1695"
           id="Sketch018" />
      </g>
      <g
         id="g2990"
         transform="matrix(1,0,0,-1,-2.487934,-4.55951)"
         style="stroke:#000000;stroke-width:0.00282222;stroke-miterlimit:4;stroke-opacity:1;stroke-dasharray:none">
        <path
           style="fill:none;stroke:#000000;stroke-width:0.00282222;stroke-miterlimit:4;stroke-opacity:1;stroke-dasharray:none"
           d="m 8.866424,5.23174 -0.0625,0"
           id="Sketch002" />
      </g>
      <g
         id="g2993"
         transform="matrix(1,0,0,-1,-2.487934,-4.55951)"
         style="stroke:#000000;stroke-width:0.00282222;stroke-miterlimit:4;stroke-opacity:1;stroke-dasharray:none">
        <path
           style="fill:none;stroke:#000000;stroke-width:0.00282222;stroke-miterlimit:4;stroke-opacity:1;stroke-dasharray:none"
           d="m 2.902924,5.23174 a 0.08475,0.08475 0 0 1 0,0.1695"
           id="Sketch015" />
      </g>
      <g
         id="g2996"
         transform="matrix(1,0,0,-1,-2.487934,-4.55951)"
         style="stroke:#000000;stroke-width:0.00282222;stroke-miterlimit:4;stroke-opacity:1;stroke-dasharray:none">
        <path
           style="fill:none;stroke:#000000;stroke-width:0.00282222;stroke-miterlimit:4;stroke-opacity:1;stroke-dasharray:none"
           d="m 8.803924,7.15124 0.0625,0"
           id="Sketch014" />
      </g>
      <g
         id="g2999"
         transform="matrix(1,0,0,-1,-2.487934,-4.55951)"
         style="stroke:#000000;stroke-width:0.00282222;stroke-miterlimit:4;stroke-opacity:1;stroke-dasharray:none">
        <path
           style="fill:none;stroke:#000000;stroke-width:0.00282222;stroke-miterlimit:4;stroke-opacity:1;stroke-dasharray:none"
           d="m 2.840424,7.15124 a 0.08475,0.08475 0 0 1 0,-0.1695"
           id="Sketch017" />
      </g>
    </g>
    <g
       id="g4045"
       transform="matrix(89.999998,0,0,89.999998,300.46946,1073.998)"
       style="stroke:#000000;stroke-width:0.00282222;stroke-miterlimit:4;stroke-opacity:1;stroke-dasharray:none">
      <g
         id="g3970"
         transform="matrix(1,0,0,-1,-1.4524361,-3.3641432)"
         style="stroke:#000000;stroke-width:0.00282222;stroke-miterlimit:4;stroke-opacity:1;stroke-dasharray:none">
        <path
           style="fill:none;stroke:#000000;stroke-width:0.00282222;stroke-miterlimit:4;stroke-opacity:1;stroke-dasharray:none"
           d="m 10.605349,3.795389 0,4.75"
           id="Line" />
      </g>
      <g
         id="g3973"
         transform="matrix(1,0,0,-1,-1.4524361,-3.3641432)"
         style="stroke:#000000;stroke-width:0.00282222;stroke-miterlimit:4;stroke-opacity:1;stroke-dasharray:none">
        <path
           style="fill:none;stroke:#000000;stroke-width:0.00282222;stroke-miterlimit:4;stroke-opacity:1;stroke-dasharray:none"
           d="m 1.543059,8.545389 0,-4.75"
           id="Line002" />
      </g>
      <g
         id="g3976"
         transform="matrix(1,0,0,-1,-1.4524361,-3.3641432)"
         style="stroke:#000000;stroke-width:0.00282222;stroke-miterlimit:4;stroke-opacity:1;stroke-dasharray:none">
        <path
           style="fill:none;stroke:#000000;stroke-width:0.00282222;stroke-miterlimit:4;stroke-opacity:1;stroke-dasharray:none"
           d="m 1.954559,6.335639 a 0.08475,0.08475 0 0 1 0,0.1695"
           id="Arc005" />
      </g>
      <g
         id="g3979"
         transform="matrix(1,0,0,-1,-1.4524361,-3.3641432)"
         style="stroke:#000000;stroke-width:0.00282222;stroke-miterlimit:4;stroke-opacity:1;stroke-dasharray:none">
        <path
           style="fill:none;stroke:#000000;stroke-width:0.00282222;stroke-miterlimit:4;stroke-opacity:1;stroke-dasharray:none"
           d="m 1.892059,6.505139 a 0.08475,0.08475 0 0 1 0,-0.1695"
           id="Arc004" />
      </g>
      <g
         id="g3982"
         transform="matrix(1,0,0,-1,-1.4524361,-3.3641432)"
         style="stroke:#000000;stroke-width:0.00282222;stroke-miterlimit:4;stroke-opacity:1;stroke-dasharray:none">
        <path
           style="fill:none;stroke:#000000;stroke-width:0.00282222;stroke-miterlimit:4;stroke-opacity:1;stroke-dasharray:none"
           d="m 1.892059,8.085639 0.0625,0"
           id="Line005" />
      </g>
      <g
         id="g3985"
         transform="matrix(1,0,0,-1,-1.4524361,-3.3641432)"
         style="stroke:#000000;stroke-width:0.00282222;stroke-miterlimit:4;stroke-opacity:1;stroke-dasharray:none">
        <path
           style="fill:none;stroke:#000000;stroke-width:0.00282222;stroke-miterlimit:4;stroke-opacity:1;stroke-dasharray:none"
           d="m 1.543059,3.795389 a 0.25,0.25 0 0 1 0.25,-0.25"
           id="Arc" />
      </g>
      <g
         id="g3988"
         transform="matrix(1,0,0,-1,-1.4524361,-3.3641432)"
         style="stroke:#000000;stroke-width:0.00282222;stroke-miterlimit:4;stroke-opacity:1;stroke-dasharray:none">
        <path
           style="fill:none;stroke:#000000;stroke-width:0.00282222;stroke-miterlimit:4;stroke-opacity:1;stroke-dasharray:none"
           d="m 1.892059,8.255139 a 0.08475,0.08475 0 0 1 0,-0.1695"
           id="Arc002" />
      </g>
      <g
         id="g3991"
         transform="matrix(1,0,0,-1,-1.4524361,-3.3641432)"
         style="stroke:#000000;stroke-width:0.00282222;stroke-miterlimit:4;stroke-opacity:1;stroke-dasharray:none">
        <path
           style="fill:none;stroke:#000000;stroke-width:0.00282222;stroke-miterlimit:4;stroke-opacity:1;stroke-dasharray:none"
           d="m 1.954559,8.085639 a 0.08475,0.08475 0 0 1 0,0.1695"
           id="Arc003" />
      </g>
      <g
         id="g3994"
         transform="matrix(1,0,0,-1,-1.4524361,-3.3641432)"
         style="stroke:#000000;stroke-width:0.00282222;stroke-miterlimit:4;stroke-opacity:1;stroke-dasharray:none">
        <path
           style="fill:none;stroke:#000000;stroke-width:0.00282222;stroke-miterlimit:4;stroke-opacity:1;stroke-dasharray:none"
           d="m 10.355349,3.545389 a 0.25,0.25 0 0 1 0.25,0.25"
           id="Arc001" />
      </g>
      <g
         id="g3997"
         transform="matrix(1,0,0,-1,-1.4524361,-3.3641432)"
         style="stroke:#000000;stroke-width:0.00282222;stroke-miterlimit:4;stroke-opacity:1;stroke-dasharray:none">
        <path
           style="fill:none;stroke:#000000;stroke-width:0.00282222;stroke-miterlimit:4;stroke-opacity:1;stroke-dasharray:none"
           d="m 10.193849,8.255139 0.0625,0"
           id="Line008" />
      </g>
      <g
         id="g4000"
         transform="matrix(1,0,0,-1,-1.4524361,-3.3641432)"
         style="stroke:#000000;stroke-width:0.00282222;stroke-miterlimit:4;stroke-opacity:1;stroke-dasharray:none">
        <path
           style="fill:none;stroke:#000000;stroke-width:0.00282222;stroke-miterlimit:4;stroke-opacity:1;stroke-dasharray:none"
           d="m 10.256349,6.335639 -0.0625,0"
           id="Line011" />
      </g>
      <g
         id="g4003"
         transform="matrix(1,0,0,-1,-1.4524361,-3.3641432)"
         style="stroke:#000000;stroke-width:0.00282222;stroke-miterlimit:4;stroke-opacity:1;stroke-dasharray:none">
        <path
           style="fill:none;stroke:#000000;stroke-width:0.00282222;stroke-miterlimit:4;stroke-opacity:1;stroke-dasharray:none"
           d="m 1.892059,6.335639 0.0625,0"
           id="Line007" />
      </g>
      <g
         id="g4006"
         transform="matrix(1,0,0,-1,-1.4524361,-3.3641432)"
         style="stroke:#000000;stroke-width:0.00282222;stroke-miterlimit:4;stroke-opacity:1;stroke-dasharray:none">
        <path
           style="fill:none;stroke:#000000;stroke-width:0.00282222;stroke-miterlimit:4;stroke-opacity:1;stroke-dasharray:none"
           d="m 10.193849,6.505139 0.0625,0"
           id="Line010" />
      </g>
      <g
         id="g4009"
         transform="matrix(1,0,0,-1,-1.4524361,-3.3641432)"
         style="stroke:#000000;stroke-width:0.00282222;stroke-miterlimit:4;stroke-opacity:1;stroke-dasharray:none">
        <path
           style="fill:none;stroke:#000000;stroke-width:0.00282222;stroke-miterlimit:4;stroke-opacity:1;stroke-dasharray:none"
           d="m 1.793059,3.545389 8.56229,0"
           id="Line003" />
      </g>
      <g
         id="g4012"
         transform="matrix(1,0,0,-1,-1.4524361,-3.3641432)"
         style="stroke:#000000;stroke-width:0.00282222;stroke-miterlimit:4;stroke-opacity:1;stroke-dasharray:none">
        <path
           style="fill:none;stroke:#000000;stroke-width:0.00282222;stroke-miterlimit:4;stroke-opacity:1;stroke-dasharray:none"
           d="m 1.954559,8.255139 -0.0625,0"
           id="Line004" />
      </g>
      <g
         id="g4015"
         transform="matrix(1,0,0,-1,-1.4524361,-3.3641432)"
         style="stroke:#000000;stroke-width:0.00282222;stroke-miterlimit:4;stroke-opacity:1;stroke-dasharray:none">
        <path
           style="fill:none;stroke:#000000;stroke-width:0.00282222;stroke-miterlimit:4;stroke-opacity:1;stroke-dasharray:none"
           d="m 10.256349,8.085639 -0.0625,0"
           id="Line009" />
      </g>
      <g
         id="g4018"
         transform="matrix(1,0,0,-1,-1.4524361,-3.3641432)"
         style="stroke:#000000;stroke-width:0.00282222;stroke-miterlimit:4;stroke-opacity:1;stroke-dasharray:none">
        <path
           style="fill:none;stroke:#000000;stroke-width:0.00282222;stroke-miterlimit:4;stroke-opacity:1;stroke-dasharray:none"
           d="m 1.954559,6.505139 -0.0625,0"
           id="Line006" />
      </g>
      <g
         id="g4021"
         transform="matrix(1,0,0,-1,-1.4524361,-3.3641432)"
         style="stroke:#000000;stroke-width:0.00282222;stroke-miterlimit:4;stroke-opacity:1;stroke-dasharray:none">
        <path
           style="fill:none;stroke:#000000;stroke-width:0.00282222;stroke-miterlimit:4;stroke-opacity:1;stroke-dasharray:none"
           d="m 10.193849,8.255139 a 0.08475,0.08475 0 0 1 0,-0.1695"
           id="Arc006" />
      </g>
      <g
         id="g4024"
         transform="matrix(1,0,0,-1,-1.4524361,-3.3641432)"
         style="stroke:#000000;stroke-width:0.00282222;stroke-miterlimit:4;stroke-opacity:1;stroke-dasharray:none">
        <path
           style="fill:none;stroke:#000000;stroke-width:0.00282222;stroke-miterlimit:4;stroke-opacity:1;stroke-dasharray:none"
           d="m 10.256349,8.085639 a 0.08475,0.08475 0 0 1 0,0.1695"
           id="Arc007" />
      </g>
      <g
         id="g4027"
         transform="matrix(1,0,0,-1,-1.4524361,-3.3641432)"
         style="stroke:#000000;stroke-width:0.00282222;stroke-miterlimit:4;stroke-opacity:1;stroke-dasharray:none">
        <path
           style="fill:none;stroke:#000000;stroke-width:0.00282222;stroke-miterlimit:4;stroke-opacity:1;stroke-dasharray:none"
           d="m 10.256349,6.335639 a 0.08475,0.08475 0 0 1 0,0.1695"
           id="Arc009" />
      </g>
      <g
         id="g4030"
         transform="matrix(1,0,0,-1,-1.4524361,-3.3641432)"
         style="stroke:#000000;stroke-width:0.00282222;stroke-miterlimit:4;stroke-opacity:1;stroke-dasharray:none">
        <path
           style="fill:none;stroke:#000000;stroke-width:0.00282222;stroke-miterlimit:4;stroke-opacity:1;stroke-dasharray:none"
           d="m 10.193849,6.505139 a 0.08475,0.08475 0 0 1 0,-0.1695"
           id="Arc008" />
      </g>
      <g
         id="g4033"
         transform="matrix(1,0,0,-1,-1.4524361,-3.3641432)"
         style="stroke:#000000;stroke-width:0.00282222;stroke-miterlimit:4;stroke-opacity:1;stroke-dasharray:none">
        <path
           style="fill:none;stroke:#000000;stroke-width:0.00282222;stroke-miterlimit:4;stroke-opacity:1;stroke-dasharray:none"
           d="m 10.605349,8.545389 -9.06229,0"
           id="Line001" />
      </g>
    </g>
  </g>
</svg>
