  0
SECTION
  2
HEADER
  9
$ACADVER
  1
AC1009
  9
$EXTMIN
 10
0.0
 20
0.0
 30
0.0
  9
$EXTMAX
 10
1000.0
 20
1000.0
 30
0.0
  9
$FILLMODE
 70
 0
  9
$SPLFRAME
 70
 1
  0
ENDSEC
  0
SECTION
  2
TABLES
  0
TABLE
  2
LAYER
 70
1
  0
LAYER
  2
0
 70
     0
 62
     7
  6
CONTINUOUS
  0
ENDTAB
  0
ENDSEC
  0
SECTION
  2
ENTITIES
  0
POLYLINE
  8
0
 62
     0
 66
     1
 10
0
 20
0
 30
0.0
 40
0.8
 41
0.8
  0
VERTEX
  8
0
 10
0.00553386
 20
4.4094
 30
0.0
 40
0.0111111
 41
0.0111111
  0
VERTEX
  8
0
 10
0.00553386
 20
7.87397
 30
0.0
 40
0.0111111
 41
0.0111111
  0
SEQEND
 8
0
  0
POLYLINE
  8
0
 62
     0
 66
     1
 10
0
 20
0
 30
0.0
 40
0.8
 41
0.8
  0
VERTEX
  8
0
 10
0.00553386
 20
7.87397
 30
0.0
 40
0.0111111
 41
0.0111111
  0
VERTEX
  8
0
 10
0.00651042
 20
7.88872
 30
0.0
 40
0.0111111
 41
0.0111111
  0
SEQEND
 8
0
  0
POLYLINE
  8
0
 62
     0
 66
     1
 10
0
 20
0
 30
0.0
 40
0.8
 41
0.8
  0
VERTEX
  8
0
 10
0.00651042
 20
7.88872
 30
0.0
 40
0.0111111
 41
0.0111111
  0
VERTEX
  8
0
 10
0.00927735
 20
7.90332
 30
0.0
 40
0.0111111
 41
0.0111111
  0
SEQEND
 8
0
  0
POLYLINE
  8
0
 62
     0
 66
     1
 10
0
 20
0
 30
0.0
 40
0.8
 41
0.8
  0
VERTEX
  8
0
 10
0.00927735
 20
7.90332
 30
0.0
 40
0.0111111
 41
0.0111111
  0
VERTEX
  8
0
 10
0.0138889
 20
7.91743
 30
0.0
 40
0.0111111
 41
0.0111111
  0
SEQEND
 8
0
  0
POLYLINE
  8
0
 62
     0
 66
     1
 10
0
 20
0
 30
0.0
 40
0.8
 41
0.8
  0
VERTEX
  8
0
 10
0.0138889
 20
7.91743
 30
0.0
 40
0.0111111
 41
0.0111111
  0
VERTEX
  8
0
 10
0.0201822
 20
7.93083
 30
0.0
 40
0.0111111
 41
0.0111111
  0
SEQEND
 8
0
  0
POLYLINE
  8
0
 62
     0
 66
     1
 10
0
 20
0
 30
0.0
 40
0.8
 41
0.8
  0
VERTEX
  8
0
 10
0.0201822
 20
7.93083
 30
0.0
 40
0.0111111
 41
0.0111111
  0
VERTEX
  8
0
 10
0.0281033
 20
7.94336
 30
0.0
 40
0.0111111
 41
0.0111111
  0
SEQEND
 8
0
  0
POLYLINE
  8
0
 62
     0
 66
     1
 10
0
 20
0
 30
0.0
 40
0.8
 41
0.8
  0
VERTEX
  8
0
 10
0.0281033
 20
7.94336
 30
0.0
 40
0.0111111
 41
0.0111111
  0
VERTEX
  8
0
 10
0.0375433
 20
7.95481
 30
0.0
 40
0.0111111
 41
0.0111111
  0
SEQEND
 8
0
  0
POLYLINE
  8
0
 62
     0
 66
     1
 10
0
 20
0
 30
0.0
 40
0.8
 41
0.8
  0
VERTEX
  8
0
 10
0.0375433
 20
7.95481
 30
0.0
 40
0.0111111
 41
0.0111111
  0
VERTEX
  8
0
 10
0.0483942
 20
7.96496
 30
0.0
 40
0.0111111
 41
0.0111111
  0
SEQEND
 8
0
  0
POLYLINE
  8
0
 62
     0
 66
     1
 10
0
 20
0
 30
0.0
 40
0.8
 41
0.8
  0
VERTEX
  8
0
 10
0.0483942
 20
7.96496
 30
0.0
 40
0.0111111
 41
0.0111111
  0
VERTEX
  8
0
 10
0.0603842
 20
7.97368
 30
0.0
 40
0.0111111
 41
0.0111111
  0
SEQEND
 8
0
  0
POLYLINE
  8
0
 62
     0
 66
     1
 10
0
 20
0
 30
0.0
 40
0.8
 41
0.8
  0
VERTEX
  8
0
 10
0.0603842
 20
7.97368
 30
0.0
 40
0.0111111
 41
0.0111111
  0
VERTEX
  8
0
 10
0.073405
 20
7.98079
 30
0.0
 40
0.0111111
 41
0.0111111
  0
SEQEND
 8
0
  0
POLYLINE
  8
0
 62
     0
 66
     1
 10
0
 20
0
 30
0.0
 40
0.8
 41
0.8
  0
VERTEX
  8
0
 10
0.073405
 20
7.98079
 30
0.0
 40
0.0111111
 41
0.0111111
  0
VERTEX
  8
0
 10
0.0871853
 20
7.98628
 30
0.0
 40
0.0111111
 41
0.0111111
  0
SEQEND
 8
0
  0
POLYLINE
  8
0
 62
     0
 66
     1
 10
0
 20
0
 30
0.0
 40
0.8
 41
0.8
  0
VERTEX
  8
0
 10
0.0871853
 20
7.98628
 30
0.0
 40
0.0111111
 41
0.0111111
  0
VERTEX
  8
0
 10
0.101563
 20
7.98996
 30
0.0
 40
0.0111111
 41
0.0111111
  0
SEQEND
 8
0
  0
POLYLINE
  8
0
 62
     0
 66
     1
 10
0
 20
0
 30
0.0
 40
0.8
 41
0.8
  0
VERTEX
  8
0
 10
0.101563
 20
7.98996
 30
0.0
 40
0.0111111
 41
0.0111111
  0
VERTEX
  8
0
 10
0.116265
 20
7.99181
 30
0.0
 40
0.0111111
 41
0.0111111
  0
SEQEND
 8
0
  0
POLYLINE
  8
0
 62
     0
 66
     1
 10
0
 20
0
 30
0.0
 40
0.8
 41
0.8
  0
VERTEX
  8
0
 10
0.116265
 20
7.99181
 30
0.0
 40
0.0111111
 41
0.0111111
  0
VERTEX
  8
0
 10
0.123644
 20
7.99181
 30
0.0
 40
0.0111111
 41
0.0111111
  0
SEQEND
 8
0
  0
POLYLINE
  8
0
 62
     0
 66
     1
 10
0
 20
0
 30
0.0
 40
0.8
 41
0.8
  0
VERTEX
  8
0
 10
0.123644
 20
7.99181
 30
0.0
 40
0.0111111
 41
0.0111111
  0
VERTEX
  8
0
 10
0.123644
 20
7.99208
 30
0.0
 40
0.0111111
 41
0.0111111
  0
SEQEND
 8
0
  0
POLYLINE
  8
0
 62
     0
 66
     1
 10
0
 20
0
 30
0.0
 40
0.8
 41
0.8
  0
VERTEX
  8
0
 10
0.123644
 20
7.99208
 30
0.0
 40
0.0111111
 41
0.0111111
  0
VERTEX
  8
0
 10
4.57249
 20
7.99208
 30
0.0
 40
0.0111111
 41
0.0111111
  0
SEQEND
 8
0
  0
POLYLINE
  8
0
 62
     0
 66
     1
 10
0
 20
0
 30
0.0
 40
0.8
 41
0.8
  0
VERTEX
  8
0
 10
4.57249
 20
7.99208
 30
0.0
 40
0.0111111
 41
0.0111111
  0
VERTEX
  8
0
 10
4.57249
 20
7.99181
 30
0.0
 40
0.0111111
 41
0.0111111
  0
SEQEND
 8
0
  0
POLYLINE
  8
0
 62
     0
 66
     1
 10
0
 20
0
 30
0.0
 40
0.8
 41
0.8
  0
VERTEX
  8
0
 10
4.57249
 20
7.99181
 30
0.0
 40
0.0111111
 41
0.0111111
  0
VERTEX
  8
0
 10
4.57986
 20
7.99181
 30
0.0
 40
0.0111111
 41
0.0111111
  0
SEQEND
 8
0
  0
POLYLINE
  8
0
 62
     0
 66
     1
 10
0
 20
0
 30
0.0
 40
0.8
 41
0.8
  0
VERTEX
  8
0
 10
4.57986
 20
7.99181
 30
0.0
 40
0.0111111
 41
0.0111111
  0
VERTEX
  8
0
 10
4.59461
 20
7.98996
 30
0.0
 40
0.0111111
 41
0.0111111
  0
SEQEND
 8
0
  0
POLYLINE
  8
0
 62
     0
 66
     1
 10
0
 20
0
 30
0.0
 40
0.8
 41
0.8
  0
VERTEX
  8
0
 10
4.59461
 20
7.98996
 30
0.0
 40
0.0111111
 41
0.0111111
  0
VERTEX
  8
0
 10
4.609
 20
7.98628
 30
0.0
 40
0.0111111
 41
0.0111111
  0
SEQEND
 8
0
  0
POLYLINE
  8
0
 62
     0
 66
     1
 10
0
 20
0
 30
0.0
 40
0.8
 41
0.8
  0
VERTEX
  8
0
 10
4.609
 20
7.98628
 30
0.0
 40
0.0111111
 41
0.0111111
  0
VERTEX
  8
0
 10
4.62278
 20
7.98079
 30
0.0
 40
0.0111111
 41
0.0111111
  0
SEQEND
 8
0
  0
POLYLINE
  8
0
 62
     0
 66
     1
 10
0
 20
0
 30
0.0
 40
0.8
 41
0.8
  0
VERTEX
  8
0
 10
4.62278
 20
7.98079
 30
0.0
 40
0.0111111
 41
0.0111111
  0
VERTEX
  8
0
 10
4.63574
 20
7.97368
 30
0.0
 40
0.0111111
 41
0.0111111
  0
SEQEND
 8
0
  0
POLYLINE
  8
0
 62
     0
 66
     1
 10
0
 20
0
 30
0.0
 40
0.8
 41
0.8
  0
VERTEX
  8
0
 10
4.63574
 20
7.97368
 30
0.0
 40
0.0111111
 41
0.0111111
  0
VERTEX
  8
0
 10
4.64779
 20
7.96496
 30
0.0
 40
0.0111111
 41
0.0111111
  0
SEQEND
 8
0
  0
POLYLINE
  8
0
 62
     0
 66
     1
 10
0
 20
0
 30
0.0
 40
0.8
 41
0.8
  0
VERTEX
  8
0
 10
4.64779
 20
7.96496
 30
0.0
 40
0.0111111
 41
0.0111111
  0
VERTEX
  8
0
 10
4.65858
 20
7.95481
 30
0.0
 40
0.0111111
 41
0.0111111
  0
SEQEND
 8
0
  0
POLYLINE
  8
0
 62
     0
 66
     1
 10
0
 20
0
 30
0.0
 40
0.8
 41
0.8
  0
VERTEX
  8
0
 10
4.65858
 20
7.95481
 30
0.0
 40
0.0111111
 41
0.0111111
  0
VERTEX
  8
0
 10
4.66803
 20
7.94336
 30
0.0
 40
0.0111111
 41
0.0111111
  0
SEQEND
 8
0
  0
POLYLINE
  8
0
 62
     0
 66
     1
 10
0
 20
0
 30
0.0
 40
0.8
 41
0.8
  0
VERTEX
  8
0
 10
4.66803
 20
7.94336
 30
0.0
 40
0.0111111
 41
0.0111111
  0
VERTEX
  8
0
 10
4.676
 20
7.93083
 30
0.0
 40
0.0111111
 41
0.0111111
  0
SEQEND
 8
0
  0
POLYLINE
  8
0
 62
     0
 66
     1
 10
0
 20
0
 30
0.0
 40
0.8
 41
0.8
  0
VERTEX
  8
0
 10
4.676
 20
7.93083
 30
0.0
 40
0.0111111
 41
0.0111111
  0
VERTEX
  8
0
 10
4.68229
 20
7.91743
 30
0.0
 40
0.0111111
 41
0.0111111
  0
SEQEND
 8
0
  0
POLYLINE
  8
0
 62
     0
 66
     1
 10
0
 20
0
 30
0.0
 40
0.8
 41
0.8
  0
VERTEX
  8
0
 10
4.68229
 20
7.91743
 30
0.0
 40
0.0111111
 41
0.0111111
  0
VERTEX
  8
0
 10
4.6869
 20
7.90332
 30
0.0
 40
0.0111111
 41
0.0111111
  0
SEQEND
 8
0
  0
POLYLINE
  8
0
 62
     0
 66
     1
 10
0
 20
0
 30
0.0
 40
0.8
 41
0.8
  0
VERTEX
  8
0
 10
4.6869
 20
7.90332
 30
0.0
 40
0.0111111
 41
0.0111111
  0
VERTEX
  8
0
 10
4.68967
 20
7.88872
 30
0.0
 40
0.0111111
 41
0.0111111
  0
SEQEND
 8
0
  0
POLYLINE
  8
0
 62
     0
 66
     1
 10
0
 20
0
 30
0.0
 40
0.8
 41
0.8
  0
VERTEX
  8
0
 10
4.68967
 20
7.88872
 30
0.0
 40
0.0111111
 41
0.0111111
  0
VERTEX
  8
0
 10
4.6906
 20
7.87397
 30
0.0
 40
0.0111111
 41
0.0111111
  0
SEQEND
 8
0
  0
POLYLINE
  8
0
 62
     0
 66
     1
 10
0
 20
0
 30
0.0
 40
0.8
 41
0.8
  0
VERTEX
  8
0
 10
4.6906
 20
7.87397
 30
0.0
 40
0.0111111
 41
0.0111111
  0
VERTEX
  8
0
 10
4.6906
 20
4.4094
 30
0.0
 40
0.0111111
 41
0.0111111
  0
SEQEND
 8
0
  0
POLYLINE
  8
0
 62
     0
 66
     1
 10
0
 20
0
 30
0.0
 40
0.8
 41
0.8
  0
VERTEX
  8
0
 10
4.6906
 20
4.4094
 30
0.0
 40
0.0111111
 41
0.0111111
  0
VERTEX
  8
0
 10
4.68967
 20
4.39458
 30
0.0
 40
0.0111111
 41
0.0111111
  0
SEQEND
 8
0
  0
POLYLINE
  8
0
 62
     0
 66
     1
 10
0
 20
0
 30
0.0
 40
0.8
 41
0.8
  0
VERTEX
  8
0
 10
4.68967
 20
4.39458
 30
0.0
 40
0.0111111
 41
0.0111111
  0
VERTEX
  8
0
 10
4.6869
 20
4.37999
 30
0.0
 40
0.0111111
 41
0.0111111
  0
SEQEND
 8
0
  0
POLYLINE
  8
0
 62
     0
 66
     1
 10
0
 20
0
 30
0.0
 40
0.8
 41
0.8
  0
VERTEX
  8
0
 10
4.6869
 20
4.37999
 30
0.0
 40
0.0111111
 41
0.0111111
  0
VERTEX
  8
0
 10
4.68229
 20
4.36594
 30
0.0
 40
0.0111111
 41
0.0111111
  0
SEQEND
 8
0
  0
POLYLINE
  8
0
 62
     0
 66
     1
 10
0
 20
0
 30
0.0
 40
0.8
 41
0.8
  0
VERTEX
  8
0
 10
4.68229
 20
4.36594
 30
0.0
 40
0.0111111
 41
0.0111111
  0
VERTEX
  8
0
 10
4.676
 20
4.35249
 30
0.0
 40
0.0111111
 41
0.0111111
  0
SEQEND
 8
0
  0
POLYLINE
  8
0
 62
     0
 66
     1
 10
0
 20
0
 30
0.0
 40
0.8
 41
0.8
  0
VERTEX
  8
0
 10
4.676
 20
4.35249
 30
0.0
 40
0.0111111
 41
0.0111111
  0
VERTEX
  8
0
 10
4.66803
 20
4.33996
 30
0.0
 40
0.0111111
 41
0.0111111
  0
SEQEND
 8
0
  0
POLYLINE
  8
0
 62
     0
 66
     1
 10
0
 20
0
 30
0.0
 40
0.8
 41
0.8
  0
VERTEX
  8
0
 10
4.66803
 20
4.33996
 30
0.0
 40
0.0111111
 41
0.0111111
  0
VERTEX
  8
0
 10
4.65858
 20
4.3285
 30
0.0
 40
0.0111111
 41
0.0111111
  0
SEQEND
 8
0
  0
POLYLINE
  8
0
 62
     0
 66
     1
 10
0
 20
0
 30
0.0
 40
0.8
 41
0.8
  0
VERTEX
  8
0
 10
4.65858
 20
4.3285
 30
0.0
 40
0.0111111
 41
0.0111111
  0
VERTEX
  8
0
 10
4.64779
 20
4.31836
 30
0.0
 40
0.0111111
 41
0.0111111
  0
SEQEND
 8
0
  0
POLYLINE
  8
0
 62
     0
 66
     1
 10
0
 20
0
 30
0.0
 40
0.8
 41
0.8
  0
VERTEX
  8
0
 10
4.64779
 20
4.31836
 30
0.0
 40
0.0111111
 41
0.0111111
  0
VERTEX
  8
0
 10
4.63574
 20
4.30968
 30
0.0
 40
0.0111111
 41
0.0111111
  0
SEQEND
 8
0
  0
POLYLINE
  8
0
 62
     0
 66
     1
 10
0
 20
0
 30
0.0
 40
0.8
 41
0.8
  0
VERTEX
  8
0
 10
4.63574
 20
4.30968
 30
0.0
 40
0.0111111
 41
0.0111111
  0
VERTEX
  8
0
 10
4.62278
 20
4.30251
 30
0.0
 40
0.0111111
 41
0.0111111
  0
SEQEND
 8
0
  0
POLYLINE
  8
0
 62
     0
 66
     1
 10
0
 20
0
 30
0.0
 40
0.8
 41
0.8
  0
VERTEX
  8
0
 10
4.62278
 20
4.30251
 30
0.0
 40
0.0111111
 41
0.0111111
  0
VERTEX
  8
0
 10
4.609
 20
4.29704
 30
0.0
 40
0.0111111
 41
0.0111111
  0
SEQEND
 8
0
  0
POLYLINE
  8
0
 62
     0
 66
     1
 10
0
 20
0
 30
0.0
 40
0.8
 41
0.8
  0
VERTEX
  8
0
 10
4.609
 20
4.29704
 30
0.0
 40
0.0111111
 41
0.0111111
  0
VERTEX
  8
0
 10
4.59461
 20
4.29335
 30
0.0
 40
0.0111111
 41
0.0111111
  0
SEQEND
 8
0
  0
POLYLINE
  8
0
 62
     0
 66
     1
 10
0
 20
0
 30
0.0
 40
0.8
 41
0.8
  0
VERTEX
  8
0
 10
4.59461
 20
4.29335
 30
0.0
 40
0.0111111
 41
0.0111111
  0
VERTEX
  8
0
 10
4.57986
 20
4.2915
 30
0.0
 40
0.0111111
 41
0.0111111
  0
SEQEND
 8
0
  0
POLYLINE
  8
0
 62
     0
 66
     1
 10
0
 20
0
 30
0.0
 40
0.8
 41
0.8
  0
VERTEX
  8
0
 10
4.57986
 20
4.2915
 30
0.0
 40
0.0111111
 41
0.0111111
  0
VERTEX
  8
0
 10
4.57249
 20
4.2915
 30
0.0
 40
0.0111111
 41
0.0111111
  0
SEQEND
 8
0
  0
POLYLINE
  8
0
 62
     0
 66
     1
 10
0
 20
0
 30
0.0
 40
0.8
 41
0.8
  0
VERTEX
  8
0
 10
4.57249
 20
4.2915
 30
0.0
 40
0.0111111
 41
0.0111111
  0
VERTEX
  8
0
 10
4.57249
 20
4.29129
 30
0.0
 40
0.0111111
 41
0.0111111
  0
SEQEND
 8
0
  0
POLYLINE
  8
0
 62
     0
 66
     1
 10
0
 20
0
 30
0.0
 40
0.8
 41
0.8
  0
VERTEX
  8
0
 10
4.57249
 20
4.29129
 30
0.0
 40
0.0111111
 41
0.0111111
  0
VERTEX
  8
0
 10
0.123644
 20
4.29129
 30
0.0
 40
0.0111111
 41
0.0111111
  0
SEQEND
 8
0
  0
POLYLINE
  8
0
 62
     0
 66
     1
 10
0
 20
0
 30
0.0
 40
0.8
 41
0.8
  0
VERTEX
  8
0
 10
0.123644
 20
4.29129
 30
0.0
 40
0.0111111
 41
0.0111111
  0
VERTEX
  8
0
 10
0.123644
 20
4.2915
 30
0.0
 40
0.0111111
 41
0.0111111
  0
SEQEND
 8
0
  0
POLYLINE
  8
0
 62
     0
 66
     1
 10
0
 20
0
 30
0.0
 40
0.8
 41
0.8
  0
VERTEX
  8
0
 10
0.123644
 20
4.2915
 30
0.0
 40
0.0111111
 41
0.0111111
  0
VERTEX
  8
0
 10
0.116265
 20
4.2915
 30
0.0
 40
0.0111111
 41
0.0111111
  0
SEQEND
 8
0
  0
POLYLINE
  8
0
 62
     0
 66
     1
 10
0
 20
0
 30
0.0
 40
0.8
 41
0.8
  0
VERTEX
  8
0
 10
0.116265
 20
4.2915
 30
0.0
 40
0.0111111
 41
0.0111111
  0
VERTEX
  8
0
 10
0.101563
 20
4.29335
 30
0.0
 40
0.0111111
 41
0.0111111
  0
SEQEND
 8
0
  0
POLYLINE
  8
0
 62
     0
 66
     1
 10
0
 20
0
 30
0.0
 40
0.8
 41
0.8
  0
VERTEX
  8
0
 10
0.101563
 20
4.29335
 30
0.0
 40
0.0111111
 41
0.0111111
  0
VERTEX
  8
0
 10
0.0871853
 20
4.29704
 30
0.0
 40
0.0111111
 41
0.0111111
  0
SEQEND
 8
0
  0
POLYLINE
  8
0
 62
     0
 66
     1
 10
0
 20
0
 30
0.0
 40
0.8
 41
0.8
  0
VERTEX
  8
0
 10
0.0871853
 20
4.29704
 30
0.0
 40
0.0111111
 41
0.0111111
  0
VERTEX
  8
0
 10
0.073405
 20
4.30251
 30
0.0
 40
0.0111111
 41
0.0111111
  0
SEQEND
 8
0
  0
POLYLINE
  8
0
 62
     0
 66
     1
 10
0
 20
0
 30
0.0
 40
0.8
 41
0.8
  0
VERTEX
  8
0
 10
0.073405
 20
4.30251
 30
0.0
 40
0.0111111
 41
0.0111111
  0
VERTEX
  8
0
 10
0.0603842
 20
4.30968
 30
0.0
 40
0.0111111
 41
0.0111111
  0
SEQEND
 8
0
  0
POLYLINE
  8
0
 62
     0
 66
     1
 10
0
 20
0
 30
0.0
 40
0.8
 41
0.8
  0
VERTEX
  8
0
 10
0.0603842
 20
4.30968
 30
0.0
 40
0.0111111
 41
0.0111111
  0
VERTEX
  8
0
 10
0.0483942
 20
4.31836
 30
0.0
 40
0.0111111
 41
0.0111111
  0
SEQEND
 8
0
  0
POLYLINE
  8
0
 62
     0
 66
     1
 10
0
 20
0
 30
0.0
 40
0.8
 41
0.8
  0
VERTEX
  8
0
 10
0.0483942
 20
4.31836
 30
0.0
 40
0.0111111
 41
0.0111111
  0
VERTEX
  8
0
 10
0.0375433
 20
4.3285
 30
0.0
 40
0.0111111
 41
0.0111111
  0
SEQEND
 8
0
  0
POLYLINE
  8
0
 62
     0
 66
     1
 10
0
 20
0
 30
0.0
 40
0.8
 41
0.8
  0
VERTEX
  8
0
 10
0.0375433
 20
4.3285
 30
0.0
 40
0.0111111
 41
0.0111111
  0
VERTEX
  8
0
 10
0.0281033
 20
4.33996
 30
0.0
 40
0.0111111
 41
0.0111111
  0
SEQEND
 8
0
  0
POLYLINE
  8
0
 62
     0
 66
     1
 10
0
 20
0
 30
0.0
 40
0.8
 41
0.8
  0
VERTEX
  8
0
 10
0.0281033
 20
4.33996
 30
0.0
 40
0.0111111
 41
0.0111111
  0
VERTEX
  8
0
 10
0.0201822
 20
4.35249
 30
0.0
 40
0.0111111
 41
0.0111111
  0
SEQEND
 8
0
  0
POLYLINE
  8
0
 62
     0
 66
     1
 10
0
 20
0
 30
0.0
 40
0.8
 41
0.8
  0
VERTEX
  8
0
 10
0.0201822
 20
4.35249
 30
0.0
 40
0.0111111
 41
0.0111111
  0
VERTEX
  8
0
 10
0.0138889
 20
4.36594
 30
0.0
 40
0.0111111
 41
0.0111111
  0
SEQEND
 8
0
  0
POLYLINE
  8
0
 62
     0
 66
     1
 10
0
 20
0
 30
0.0
 40
0.8
 41
0.8
  0
VERTEX
  8
0
 10
0.0138889
 20
4.36594
 30
0.0
 40
0.0111111
 41
0.0111111
  0
VERTEX
  8
0
 10
0.00927735
 20
4.37999
 30
0.0
 40
0.0111111
 41
0.0111111
  0
SEQEND
 8
0
  0
POLYLINE
  8
0
 62
     0
 66
     1
 10
0
 20
0
 30
0.0
 40
0.8
 41
0.8
  0
VERTEX
  8
0
 10
0.00927735
 20
4.37999
 30
0.0
 40
0.0111111
 41
0.0111111
  0
VERTEX
  8
0
 10
0.00651042
 20
4.39458
 30
0.0
 40
0.0111111
 41
0.0111111
  0
SEQEND
 8
0
  0
POLYLINE
  8
0
 62
     0
 66
     1
 10
0
 20
0
 30
0.0
 40
0.8
 41
0.8
  0
VERTEX
  8
0
 10
0.00651042
 20
4.39458
 30
0.0
 40
0.0111111
 41
0.0111111
  0
VERTEX
  8
0
 10
0.00553386
 20
4.4094
 30
0.0
 40
0.0111111
 41
0.0111111
  0
SEQEND
 8
0
  0
POLYLINE
  8
0
 62
     0
 66
     1
 10
0
 20
0
 30
0.0
 40
0.8
 41
0.8
  0
VERTEX
  8
0
 10
0.576443
 20
4.60622
 30
0.0
 40
0.0111111
 41
0.0111111
  0
VERTEX
  8
0
 10
0.576443
 20
4.66531
 30
0.0
 40
0.0111111
 41
0.0111111
  0
SEQEND
 8
0
  0
POLYLINE
  8
0
 62
     0
 66
     1
 10
0
 20
0
 30
0.0
 40
0.8
 41
0.8
  0
VERTEX
  8
0
 10
0.576443
 20
4.66531
 30
0.0
 40
0.0111111
 41
0.0111111
  0
VERTEX
  8
0
 10
0.970107
 20
4.66531
 30
0.0
 40
0.0111111
 41
0.0111111
  0
SEQEND
 8
0
  0
POLYLINE
  8
0
 62
     0
 66
     1
 10
0
 20
0
 30
0.0
 40
0.8
 41
0.8
  0
VERTEX
  8
0
 10
0.970107
 20
4.66531
 30
0.0
 40
0.0111111
 41
0.0111111
  0
VERTEX
  8
0
 10
0.970107
 20
4.60622
 30
0.0
 40
0.0111111
 41
0.0111111
  0
SEQEND
 8
0
  0
POLYLINE
  8
0
 62
     0
 66
     1
 10
0
 20
0
 30
0.0
 40
0.8
 41
0.8
  0
VERTEX
  8
0
 10
0.970107
 20
4.60622
 30
0.0
 40
0.0111111
 41
0.0111111
  0
VERTEX
  8
0
 10
0.576443
 20
4.60622
 30
0.0
 40
0.0111111
 41
0.0111111
  0
SEQEND
 8
0
  0
POLYLINE
  8
0
 62
     0
 66
     1
 10
0
 20
0
 30
0.0
 40
0.8
 41
0.8
  0
VERTEX
  8
0
 10
0.576443
 20
7.61806
 30
0.0
 40
0.0111111
 41
0.0111111
  0
VERTEX
  8
0
 10
0.576443
 20
7.67708
 30
0.0
 40
0.0111111
 41
0.0111111
  0
SEQEND
 8
0
  0
POLYLINE
  8
0
 62
     0
 66
     1
 10
0
 20
0
 30
0.0
 40
0.8
 41
0.8
  0
VERTEX
  8
0
 10
0.576443
 20
7.67708
 30
0.0
 40
0.0111111
 41
0.0111111
  0
VERTEX
  8
0
 10
0.970107
 20
7.67708
 30
0.0
 40
0.0111111
 41
0.0111111
  0
SEQEND
 8
0
  0
POLYLINE
  8
0
 62
     0
 66
     1
 10
0
 20
0
 30
0.0
 40
0.8
 41
0.8
  0
VERTEX
  8
0
 10
0.970107
 20
7.67708
 30
0.0
 40
0.0111111
 41
0.0111111
  0
VERTEX
  8
0
 10
0.970107
 20
7.61806
 30
0.0
 40
0.0111111
 41
0.0111111
  0
SEQEND
 8
0
  0
POLYLINE
  8
0
 62
     0
 66
     1
 10
0
 20
0
 30
0.0
 40
0.8
 41
0.8
  0
VERTEX
  8
0
 10
0.970107
 20
7.61806
 30
0.0
 40
0.0111111
 41
0.0111111
  0
VERTEX
  8
0
 10
0.576443
 20
7.61806
 30
0.0
 40
0.0111111
 41
0.0111111
  0
SEQEND
 8
0
  0
POLYLINE
  8
0
 62
     0
 66
     1
 10
0
 20
0
 30
0.0
 40
0.8
 41
0.8
  0
VERTEX
  8
0
 10
2.15121
 20
4.60622
 30
0.0
 40
0.0111111
 41
0.0111111
  0
VERTEX
  8
0
 10
2.15121
 20
4.66531
 30
0.0
 40
0.0111111
 41
0.0111111
  0
SEQEND
 8
0
  0
POLYLINE
  8
0
 62
     0
 66
     1
 10
0
 20
0
 30
0.0
 40
0.8
 41
0.8
  0
VERTEX
  8
0
 10
2.15121
 20
4.66531
 30
0.0
 40
0.0111111
 41
0.0111111
  0
VERTEX
  8
0
 10
2.54492
 20
4.66531
 30
0.0
 40
0.0111111
 41
0.0111111
  0
SEQEND
 8
0
  0
POLYLINE
  8
0
 62
     0
 66
     1
 10
0
 20
0
 30
0.0
 40
0.8
 41
0.8
  0
VERTEX
  8
0
 10
2.54492
 20
4.66531
 30
0.0
 40
0.0111111
 41
0.0111111
  0
VERTEX
  8
0
 10
2.54492
 20
4.60622
 30
0.0
 40
0.0111111
 41
0.0111111
  0
SEQEND
 8
0
  0
POLYLINE
  8
0
 62
     0
 66
     1
 10
0
 20
0
 30
0.0
 40
0.8
 41
0.8
  0
VERTEX
  8
0
 10
2.54492
 20
4.60622
 30
0.0
 40
0.0111111
 41
0.0111111
  0
VERTEX
  8
0
 10
2.15121
 20
4.60622
 30
0.0
 40
0.0111111
 41
0.0111111
  0
SEQEND
 8
0
  0
POLYLINE
  8
0
 62
     0
 66
     1
 10
0
 20
0
 30
0.0
 40
0.8
 41
0.8
  0
VERTEX
  8
0
 10
2.15121
 20
7.61806
 30
0.0
 40
0.0111111
 41
0.0111111
  0
VERTEX
  8
0
 10
2.15121
 20
7.67708
 30
0.0
 40
0.0111111
 41
0.0111111
  0
SEQEND
 8
0
  0
POLYLINE
  8
0
 62
     0
 66
     1
 10
0
 20
0
 30
0.0
 40
0.8
 41
0.8
  0
VERTEX
  8
0
 10
2.15121
 20
7.67708
 30
0.0
 40
0.0111111
 41
0.0111111
  0
VERTEX
  8
0
 10
2.54492
 20
7.67708
 30
0.0
 40
0.0111111
 41
0.0111111
  0
SEQEND
 8
0
  0
POLYLINE
  8
0
 62
     0
 66
     1
 10
0
 20
0
 30
0.0
 40
0.8
 41
0.8
  0
VERTEX
  8
0
 10
2.54492
 20
7.67708
 30
0.0
 40
0.0111111
 41
0.0111111
  0
VERTEX
  8
0
 10
2.54492
 20
7.61806
 30
0.0
 40
0.0111111
 41
0.0111111
  0
SEQEND
 8
0
  0
POLYLINE
  8
0
 62
     0
 66
     1
 10
0
 20
0
 30
0.0
 40
0.8
 41
0.8
  0
VERTEX
  8
0
 10
2.54492
 20
7.61806
 30
0.0
 40
0.0111111
 41
0.0111111
  0
VERTEX
  8
0
 10
2.15121
 20
7.61806
 30
0.0
 40
0.0111111
 41
0.0111111
  0
SEQEND
 8
0
  0
POLYLINE
  8
0
 62
     0
 66
     1
 10
0
 20
0
 30
0.0
 40
0.8
 41
0.8
  0
VERTEX
  8
0
 10
2.31853
 20
5.2066
 30
0.0
 40
0.0111111
 41
0.0111111
  0
VERTEX
  8
0
 10
2.31853
 20
5.60032
 30
0.0
 40
0.0111111
 41
0.0111111
  0
SEQEND
 8
0
  0
POLYLINE
  8
0
 62
     0
 66
     1
 10
0
 20
0
 30
0.0
 40
0.8
 41
0.8
  0
VERTEX
  8
0
 10
2.31853
 20
5.60032
 30
0.0
 40
0.0111111
 41
0.0111111
  0
VERTEX
  8
0
 10
2.37761
 20
5.60032
 30
0.0
 40
0.0111111
 41
0.0111111
  0
SEQEND
 8
0
  0
POLYLINE
  8
0
 62
     0
 66
     1
 10
0
 20
0
 30
0.0
 40
0.8
 41
0.8
  0
VERTEX
  8
0
 10
2.37761
 20
5.60032
 30
0.0
 40
0.0111111
 41
0.0111111
  0
VERTEX
  8
0
 10
2.37761
 20
5.2066
 30
0.0
 40
0.0111111
 41
0.0111111
  0
SEQEND
 8
0
  0
POLYLINE
  8
0
 62
     0
 66
     1
 10
0
 20
0
 30
0.0
 40
0.8
 41
0.8
  0
VERTEX
  8
0
 10
2.37761
 20
5.2066
 30
0.0
 40
0.0111111
 41
0.0111111
  0
VERTEX
  8
0
 10
2.31853
 20
5.2066
 30
0.0
 40
0.0111111
 41
0.0111111
  0
SEQEND
 8
0
  0
POLYLINE
  8
0
 62
     0
 66
     1
 10
0
 20
0
 30
0.0
 40
0.8
 41
0.8
  0
VERTEX
  8
0
 10
2.31853
 20
6.683
 30
0.0
 40
0.0111111
 41
0.0111111
  0
VERTEX
  8
0
 10
2.31853
 20
7.07671
 30
0.0
 40
0.0111111
 41
0.0111111
  0
SEQEND
 8
0
  0
POLYLINE
  8
0
 62
     0
 66
     1
 10
0
 20
0
 30
0.0
 40
0.8
 41
0.8
  0
VERTEX
  8
0
 10
2.31853
 20
7.07671
 30
0.0
 40
0.0111111
 41
0.0111111
  0
VERTEX
  8
0
 10
2.37761
 20
7.07671
 30
0.0
 40
0.0111111
 41
0.0111111
  0
SEQEND
 8
0
  0
POLYLINE
  8
0
 62
     0
 66
     1
 10
0
 20
0
 30
0.0
 40
0.8
 41
0.8
  0
VERTEX
  8
0
 10
2.37761
 20
7.07671
 30
0.0
 40
0.0111111
 41
0.0111111
  0
VERTEX
  8
0
 10
2.37761
 20
6.683
 30
0.0
 40
0.0111111
 41
0.0111111
  0
SEQEND
 8
0
  0
POLYLINE
  8
0
 62
     0
 66
     1
 10
0
 20
0
 30
0.0
 40
0.8
 41
0.8
  0
VERTEX
  8
0
 10
2.37761
 20
6.683
 30
0.0
 40
0.0111111
 41
0.0111111
  0
VERTEX
  8
0
 10
2.31853
 20
6.683
 30
0.0
 40
0.0111111
 41
0.0111111
  0
SEQEND
 8
0
  0
POLYLINE
  8
0
 62
     0
 66
     1
 10
0
 20
0
 30
0.0
 40
0.8
 41
0.8
  0
VERTEX
  8
0
 10
3.72601
 20
4.60622
 30
0.0
 40
0.0111111
 41
0.0111111
  0
VERTEX
  8
0
 10
3.72601
 20
4.66531
 30
0.0
 40
0.0111111
 41
0.0111111
  0
SEQEND
 8
0
  0
POLYLINE
  8
0
 62
     0
 66
     1
 10
0
 20
0
 30
0.0
 40
0.8
 41
0.8
  0
VERTEX
  8
0
 10
3.72601
 20
4.66531
 30
0.0
 40
0.0111111
 41
0.0111111
  0
VERTEX
  8
0
 10
4.11974
 20
4.66531
 30
0.0
 40
0.0111111
 41
0.0111111
  0
SEQEND
 8
0
  0
POLYLINE
  8
0
 62
     0
 66
     1
 10
0
 20
0
 30
0.0
 40
0.8
 41
0.8
  0
VERTEX
  8
0
 10
4.11974
 20
4.66531
 30
0.0
 40
0.0111111
 41
0.0111111
  0
VERTEX
  8
0
 10
4.11974
 20
4.60622
 30
0.0
 40
0.0111111
 41
0.0111111
  0
SEQEND
 8
0
  0
POLYLINE
  8
0
 62
     0
 66
     1
 10
0
 20
0
 30
0.0
 40
0.8
 41
0.8
  0
VERTEX
  8
0
 10
4.11974
 20
4.60622
 30
0.0
 40
0.0111111
 41
0.0111111
  0
VERTEX
  8
0
 10
3.72601
 20
4.60622
 30
0.0
 40
0.0111111
 41
0.0111111
  0
SEQEND
 8
0
  0
POLYLINE
  8
0
 62
     0
 66
     1
 10
0
 20
0
 30
0.0
 40
0.8
 41
0.8
  0
VERTEX
  8
0
 10
3.72601
 20
7.61806
 30
0.0
 40
0.0111111
 41
0.0111111
  0
VERTEX
  8
0
 10
3.72601
 20
7.67708
 30
0.0
 40
0.0111111
 41
0.0111111
  0
SEQEND
 8
0
  0
POLYLINE
  8
0
 62
     0
 66
     1
 10
0
 20
0
 30
0.0
 40
0.8
 41
0.8
  0
VERTEX
  8
0
 10
3.72601
 20
7.67708
 30
0.0
 40
0.0111111
 41
0.0111111
  0
VERTEX
  8
0
 10
4.11974
 20
7.67708
 30
0.0
 40
0.0111111
 41
0.0111111
  0
SEQEND
 8
0
  0
POLYLINE
  8
0
 62
     0
 66
     1
 10
0
 20
0
 30
0.0
 40
0.8
 41
0.8
  0
VERTEX
  8
0
 10
4.11974
 20
7.67708
 30
0.0
 40
0.0111111
 41
0.0111111
  0
VERTEX
  8
0
 10
4.11974
 20
7.61806
 30
0.0
 40
0.0111111
 41
0.0111111
  0
SEQEND
 8
0
  0
POLYLINE
  8
0
 62
     0
 66
     1
 10
0
 20
0
 30
0.0
 40
0.8
 41
0.8
  0
VERTEX
  8
0
 10
4.11974
 20
7.61806
 30
0.0
 40
0.0111111
 41
0.0111111
  0
VERTEX
  8
0
 10
3.72601
 20
7.61806
 30
0.0
 40
0.0111111
 41
0.0111111
  0
SEQEND
 8
0
  0
POLYLINE
  8
0
 62
     0
 66
     1
 10
0
 20
0
 30
0.0
 40
0.8
 41
0.8
  0
VERTEX
  8
0
 10
0.132541
 20
0.155436
 30
0.0
 40
0.0111111
 41
0.0111111
  0
VERTEX
  8
0
 10
0.132541
 20
3.61996
 30
0.0
 40
0.0111111
 41
0.0111111
  0
SEQEND
 8
0
  0
POLYLINE
  8
0
 62
     0
 66
     1
 10
0
 20
0
 30
0.0
 40
0.8
 41
0.8
  0
VERTEX
  8
0
 10
0.132541
 20
3.61996
 30
0.0
 40
0.0111111
 41
0.0111111
  0
VERTEX
  8
0
 10
0.133464
 20
3.63476
 30
0.0
 40
0.0111111
 41
0.0111111
  0
SEQEND
 8
0
  0
POLYLINE
  8
0
 62
     0
 66
     1
 10
0
 20
0
 30
0.0
 40
0.8
 41
0.8
  0
VERTEX
  8
0
 10
0.133464
 20
3.63476
 30
0.0
 40
0.0111111
 41
0.0111111
  0
VERTEX
  8
0
 10
0.13623
 20
3.64936
 30
0.0
 40
0.0111111
 41
0.0111111
  0
SEQEND
 8
0
  0
POLYLINE
  8
0
 62
     0
 66
     1
 10
0
 20
0
 30
0.0
 40
0.8
 41
0.8
  0
VERTEX
  8
0
 10
0.13623
 20
3.64936
 30
0.0
 40
0.0111111
 41
0.0111111
  0
VERTEX
  8
0
 10
0.140842
 20
3.66347
 30
0.0
 40
0.0111111
 41
0.0111111
  0
SEQEND
 8
0
  0
POLYLINE
  8
0
 62
     0
 66
     1
 10
0
 20
0
 30
0.0
 40
0.8
 41
0.8
  0
VERTEX
  8
0
 10
0.140842
 20
3.66347
 30
0.0
 40
0.0111111
 41
0.0111111
  0
VERTEX
  8
0
 10
0.147136
 20
3.67686
 30
0.0
 40
0.0111111
 41
0.0111111
  0
SEQEND
 8
0
  0
POLYLINE
  8
0
 62
     0
 66
     1
 10
0
 20
0
 30
0.0
 40
0.8
 41
0.8
  0
VERTEX
  8
0
 10
0.147136
 20
3.67686
 30
0.0
 40
0.0111111
 41
0.0111111
  0
VERTEX
  8
0
 10
0.155111
 20
3.6894
 30
0.0
 40
0.0111111
 41
0.0111111
  0
SEQEND
 8
0
  0
POLYLINE
  8
0
 62
     0
 66
     1
 10
0
 20
0
 30
0.0
 40
0.8
 41
0.8
  0
VERTEX
  8
0
 10
0.155111
 20
3.6894
 30
0.0
 40
0.0111111
 41
0.0111111
  0
VERTEX
  8
0
 10
0.164551
 20
3.70085
 30
0.0
 40
0.0111111
 41
0.0111111
  0
SEQEND
 8
0
  0
POLYLINE
  8
0
 62
     0
 66
     1
 10
0
 20
0
 30
0.0
 40
0.8
 41
0.8
  0
VERTEX
  8
0
 10
0.164551
 20
3.70085
 30
0.0
 40
0.0111111
 41
0.0111111
  0
VERTEX
  8
0
 10
0.175347
 20
3.71099
 30
0.0
 40
0.0111111
 41
0.0111111
  0
SEQEND
 8
0
  0
POLYLINE
  8
0
 62
     0
 66
     1
 10
0
 20
0
 30
0.0
 40
0.8
 41
0.8
  0
VERTEX
  8
0
 10
0.175347
 20
3.71099
 30
0.0
 40
0.0111111
 41
0.0111111
  0
VERTEX
  8
0
 10
0.187392
 20
3.71972
 30
0.0
 40
0.0111111
 41
0.0111111
  0
SEQEND
 8
0
  0
POLYLINE
  8
0
 62
     0
 66
     1
 10
0
 20
0
 30
0.0
 40
0.8
 41
0.8
  0
VERTEX
  8
0
 10
0.187392
 20
3.71972
 30
0.0
 40
0.0111111
 41
0.0111111
  0
VERTEX
  8
0
 10
0.200358
 20
3.72683
 30
0.0
 40
0.0111111
 41
0.0111111
  0
SEQEND
 8
0
  0
POLYLINE
  8
0
 62
     0
 66
     1
 10
0
 20
0
 30
0.0
 40
0.8
 41
0.8
  0
VERTEX
  8
0
 10
0.200358
 20
3.72683
 30
0.0
 40
0.0111111
 41
0.0111111
  0
VERTEX
  8
0
 10
0.214139
 20
3.73232
 30
0.0
 40
0.0111111
 41
0.0111111
  0
SEQEND
 8
0
  0
POLYLINE
  8
0
 62
     0
 66
     1
 10
0
 20
0
 30
0.0
 40
0.8
 41
0.8
  0
VERTEX
  8
0
 10
0.214139
 20
3.73232
 30
0.0
 40
0.0111111
 41
0.0111111
  0
VERTEX
  8
0
 10
0.228515
 20
3.736
 30
0.0
 40
0.0111111
 41
0.0111111
  0
SEQEND
 8
0
  0
POLYLINE
  8
0
 62
     0
 66
     1
 10
0
 20
0
 30
0.0
 40
0.8
 41
0.8
  0
VERTEX
  8
0
 10
0.228515
 20
3.736
 30
0.0
 40
0.0111111
 41
0.0111111
  0
VERTEX
  8
0
 10
0.243272
 20
3.73785
 30
0.0
 40
0.0111111
 41
0.0111111
  0
SEQEND
 8
0
  0
POLYLINE
  8
0
 62
     0
 66
     1
 10
0
 20
0
 30
0.0
 40
0.8
 41
0.8
  0
VERTEX
  8
0
 10
0.243272
 20
3.73785
 30
0.0
 40
0.0111111
 41
0.0111111
  0
VERTEX
  8
0
 10
0.250651
 20
3.73785
 30
0.0
 40
0.0111111
 41
0.0111111
  0
SEQEND
 8
0
  0
POLYLINE
  8
0
 62
     0
 66
     1
 10
0
 20
0
 30
0.0
 40
0.8
 41
0.8
  0
VERTEX
  8
0
 10
0.250651
 20
3.73785
 30
0.0
 40
0.0111111
 41
0.0111111
  0
VERTEX
  8
0
 10
0.250651
 20
3.73807
 30
0.0
 40
0.0111111
 41
0.0111111
  0
SEQEND
 8
0
  0
POLYLINE
  8
0
 62
     0
 66
     1
 10
0
 20
0
 30
0.0
 40
0.8
 41
0.8
  0
VERTEX
  8
0
 10
0.250651
 20
3.73807
 30
0.0
 40
0.0111111
 41
0.0111111
  0
VERTEX
  8
0
 10
0.447483
 20
3.73807
 30
0.0
 40
0.0111111
 41
0.0111111
  0
SEQEND
 8
0
  0
POLYLINE
  8
0
 62
     0
 66
     1
 10
0
 20
0
 30
0.0
 40
0.8
 41
0.8
  0
VERTEX
  8
0
 10
0.447483
 20
3.73807
 30
0.0
 40
0.0111111
 41
0.0111111
  0
VERTEX
  8
0
 10
0.447483
 20
0.352268
 30
0.0
 40
0.0111111
 41
0.0111111
  0
SEQEND
 8
0
  0
POLYLINE
  8
0
 62
     0
 66
     1
 10
0
 20
0
 30
0.0
 40
0.8
 41
0.8
  0
VERTEX
  8
0
 10
0.447483
 20
0.352268
 30
0.0
 40
0.0111111
 41
0.0111111
  0
VERTEX
  8
0
 10
0.506565
 20
0.352268
 30
0.0
 40
0.0111111
 41
0.0111111
  0
SEQEND
 8
0
  0
POLYLINE
  8
0
 62
     0
 66
     1
 10
0
 20
0
 30
0.0
 40
0.8
 41
0.8
  0
VERTEX
  8
0
 10
0.506565
 20
0.352268
 30
0.0
 40
0.0111111
 41
0.0111111
  0
VERTEX
  8
0
 10
0.506565
 20
3.73807
 30
0.0
 40
0.0111111
 41
0.0111111
  0
SEQEND
 8
0
  0
POLYLINE
  8
0
 62
     0
 66
     1
 10
0
 20
0
 30
0.0
 40
0.8
 41
0.8
  0
VERTEX
  8
0
 10
0.506565
 20
3.73807
 30
0.0
 40
0.0111111
 41
0.0111111
  0
VERTEX
  8
0
 10
4.44358
 20
3.73807
 30
0.0
 40
0.0111111
 41
0.0111111
  0
SEQEND
 8
0
  0
POLYLINE
  8
0
 62
     0
 66
     1
 10
0
 20
0
 30
0.0
 40
0.8
 41
0.8
  0
VERTEX
  8
0
 10
4.44358
 20
3.73807
 30
0.0
 40
0.0111111
 41
0.0111111
  0
VERTEX
  8
0
 10
4.44358
 20
0.352268
 30
0.0
 40
0.0111111
 41
0.0111111
  0
SEQEND
 8
0
  0
POLYLINE
  8
0
 62
     0
 66
     1
 10
0
 20
0
 30
0.0
 40
0.8
 41
0.8
  0
VERTEX
  8
0
 10
4.44358
 20
0.352268
 30
0.0
 40
0.0111111
 41
0.0111111
  0
VERTEX
  8
0
 10
4.50261
 20
0.352268
 30
0.0
 40
0.0111111
 41
0.0111111
  0
SEQEND
 8
0
  0
POLYLINE
  8
0
 62
     0
 66
     1
 10
0
 20
0
 30
0.0
 40
0.8
 41
0.8
  0
VERTEX
  8
0
 10
4.50261
 20
0.352268
 30
0.0
 40
0.0111111
 41
0.0111111
  0
VERTEX
  8
0
 10
4.50261
 20
3.73807
 30
0.0
 40
0.0111111
 41
0.0111111
  0
SEQEND
 8
0
  0
POLYLINE
  8
0
 62
     0
 66
     1
 10
0
 20
0
 30
0.0
 40
0.8
 41
0.8
  0
VERTEX
  8
0
 10
4.50261
 20
3.73807
 30
0.0
 40
0.0111111
 41
0.0111111
  0
VERTEX
  8
0
 10
4.69949
 20
3.73807
 30
0.0
 40
0.0111111
 41
0.0111111
  0
SEQEND
 8
0
  0
POLYLINE
  8
0
 62
     0
 66
     1
 10
0
 20
0
 30
0.0
 40
0.8
 41
0.8
  0
VERTEX
  8
0
 10
4.69949
 20
3.73807
 30
0.0
 40
0.0111111
 41
0.0111111
  0
VERTEX
  8
0
 10
4.69949
 20
3.73785
 30
0.0
 40
0.0111111
 41
0.0111111
  0
SEQEND
 8
0
  0
POLYLINE
  8
0
 62
     0
 66
     1
 10
0
 20
0
 30
0.0
 40
0.8
 41
0.8
  0
VERTEX
  8
0
 10
4.69949
 20
3.73785
 30
0.0
 40
0.0111111
 41
0.0111111
  0
VERTEX
  8
0
 10
4.70687
 20
3.73785
 30
0.0
 40
0.0111111
 41
0.0111111
  0
SEQEND
 8
0
  0
POLYLINE
  8
0
 62
     0
 66
     1
 10
0
 20
0
 30
0.0
 40
0.8
 41
0.8
  0
VERTEX
  8
0
 10
4.70687
 20
3.73785
 30
0.0
 40
0.0111111
 41
0.0111111
  0
VERTEX
  8
0
 10
4.72157
 20
3.736
 30
0.0
 40
0.0111111
 41
0.0111111
  0
SEQEND
 8
0
  0
POLYLINE
  8
0
 62
     0
 66
     1
 10
0
 20
0
 30
0.0
 40
0.8
 41
0.8
  0
VERTEX
  8
0
 10
4.72157
 20
3.736
 30
0.0
 40
0.0111111
 41
0.0111111
  0
VERTEX
  8
0
 10
4.73594
 20
3.73232
 30
0.0
 40
0.0111111
 41
0.0111111
  0
SEQEND
 8
0
  0
POLYLINE
  8
0
 62
     0
 66
     1
 10
0
 20
0
 30
0.0
 40
0.8
 41
0.8
  0
VERTEX
  8
0
 10
4.73594
 20
3.73232
 30
0.0
 40
0.0111111
 41
0.0111111
  0
VERTEX
  8
0
 10
4.74972
 20
3.72683
 30
0.0
 40
0.0111111
 41
0.0111111
  0
SEQEND
 8
0
  0
POLYLINE
  8
0
 62
     0
 66
     1
 10
0
 20
0
 30
0.0
 40
0.8
 41
0.8
  0
VERTEX
  8
0
 10
4.74972
 20
3.72683
 30
0.0
 40
0.0111111
 41
0.0111111
  0
VERTEX
  8
0
 10
4.76275
 20
3.71972
 30
0.0
 40
0.0111111
 41
0.0111111
  0
SEQEND
 8
0
  0
POLYLINE
  8
0
 62
     0
 66
     1
 10
0
 20
0
 30
0.0
 40
0.8
 41
0.8
  0
VERTEX
  8
0
 10
4.76275
 20
3.71972
 30
0.0
 40
0.0111111
 41
0.0111111
  0
VERTEX
  8
0
 10
4.77474
 20
3.71099
 30
0.0
 40
0.0111111
 41
0.0111111
  0
SEQEND
 8
0
  0
POLYLINE
  8
0
 62
     0
 66
     1
 10
0
 20
0
 30
0.0
 40
0.8
 41
0.8
  0
VERTEX
  8
0
 10
4.77474
 20
3.71099
 30
0.0
 40
0.0111111
 41
0.0111111
  0
VERTEX
  8
0
 10
4.78558
 20
3.70085
 30
0.0
 40
0.0111111
 41
0.0111111
  0
SEQEND
 8
0
  0
POLYLINE
  8
0
 62
     0
 66
     1
 10
0
 20
0
 30
0.0
 40
0.8
 41
0.8
  0
VERTEX
  8
0
 10
4.78558
 20
3.70085
 30
0.0
 40
0.0111111
 41
0.0111111
  0
VERTEX
  8
0
 10
4.79503
 20
3.6894
 30
0.0
 40
0.0111111
 41
0.0111111
  0
SEQEND
 8
0
  0
POLYLINE
  8
0
 62
     0
 66
     1
 10
0
 20
0
 30
0.0
 40
0.8
 41
0.8
  0
VERTEX
  8
0
 10
4.79503
 20
3.6894
 30
0.0
 40
0.0111111
 41
0.0111111
  0
VERTEX
  8
0
 10
4.80294
 20
3.67686
 30
0.0
 40
0.0111111
 41
0.0111111
  0
SEQEND
 8
0
  0
POLYLINE
  8
0
 62
     0
 66
     1
 10
0
 20
0
 30
0.0
 40
0.8
 41
0.8
  0
VERTEX
  8
0
 10
4.80294
 20
3.67686
 30
0.0
 40
0.0111111
 41
0.0111111
  0
VERTEX
  8
0
 10
4.80925
 20
3.66347
 30
0.0
 40
0.0111111
 41
0.0111111
  0
SEQEND
 8
0
  0
POLYLINE
  8
0
 62
     0
 66
     1
 10
0
 20
0
 30
0.0
 40
0.8
 41
0.8
  0
VERTEX
  8
0
 10
4.80925
 20
3.66347
 30
0.0
 40
0.0111111
 41
0.0111111
  0
VERTEX
  8
0
 10
4.81386
 20
3.64936
 30
0.0
 40
0.0111111
 41
0.0111111
  0
SEQEND
 8
0
  0
POLYLINE
  8
0
 62
     0
 66
     1
 10
0
 20
0
 30
0.0
 40
0.8
 41
0.8
  0
VERTEX
  8
0
 10
4.81386
 20
3.64936
 30
0.0
 40
0.0111111
 41
0.0111111
  0
VERTEX
  8
0
 10
4.81662
 20
3.63476
 30
0.0
 40
0.0111111
 41
0.0111111
  0
SEQEND
 8
0
  0
POLYLINE
  8
0
 62
     0
 66
     1
 10
0
 20
0
 30
0.0
 40
0.8
 41
0.8
  0
VERTEX
  8
0
 10
4.81662
 20
3.63476
 30
0.0
 40
0.0111111
 41
0.0111111
  0
VERTEX
  8
0
 10
4.8176
 20
3.61996
 30
0.0
 40
0.0111111
 41
0.0111111
  0
SEQEND
 8
0
  0
POLYLINE
  8
0
 62
     0
 66
     1
 10
0
 20
0
 30
0.0
 40
0.8
 41
0.8
  0
VERTEX
  8
0
 10
4.8176
 20
3.61996
 30
0.0
 40
0.0111111
 41
0.0111111
  0
VERTEX
  8
0
 10
4.8176
 20
0.155436
 30
0.0
 40
0.0111111
 41
0.0111111
  0
SEQEND
 8
0
  0
POLYLINE
  8
0
 62
     0
 66
     1
 10
0
 20
0
 30
0.0
 40
0.8
 41
0.8
  0
VERTEX
  8
0
 10
4.8176
 20
0.155436
 30
0.0
 40
0.0111111
 41
0.0111111
  0
VERTEX
  8
0
 10
4.81662
 20
0.140625
 30
0.0
 40
0.0111111
 41
0.0111111
  0
SEQEND
 8
0
  0
POLYLINE
  8
0
 62
     0
 66
     1
 10
0
 20
0
 30
0.0
 40
0.8
 41
0.8
  0
VERTEX
  8
0
 10
4.81662
 20
0.140625
 30
0.0
 40
0.0111111
 41
0.0111111
  0
VERTEX
  8
0
 10
4.81386
 20
0.126031
 30
0.0
 40
0.0111111
 41
0.0111111
  0
SEQEND
 8
0
  0
POLYLINE
  8
0
 62
     0
 66
     1
 10
0
 20
0
 30
0.0
 40
0.8
 41
0.8
  0
VERTEX
  8
0
 10
4.81386
 20
0.126031
 30
0.0
 40
0.0111111
 41
0.0111111
  0
VERTEX
  8
0
 10
4.80925
 20
0.111925
 30
0.0
 40
0.0111111
 41
0.0111111
  0
SEQEND
 8
0
  0
POLYLINE
  8
0
 62
     0
 66
     1
 10
0
 20
0
 30
0.0
 40
0.8
 41
0.8
  0
VERTEX
  8
0
 10
4.80925
 20
0.111925
 30
0.0
 40
0.0111111
 41
0.0111111
  0
VERTEX
  8
0
 10
4.80294
 20
0.0985243
 30
0.0
 40
0.0111111
 41
0.0111111
  0
SEQEND
 8
0
  0
POLYLINE
  8
0
 62
     0
 66
     1
 10
0
 20
0
 30
0.0
 40
0.8
 41
0.8
  0
VERTEX
  8
0
 10
4.80294
 20
0.0985243
 30
0.0
 40
0.0111111
 41
0.0111111
  0
VERTEX
  8
0
 10
4.79503
 20
0.0859918
 30
0.0
 40
0.0111111
 41
0.0111111
  0
SEQEND
 8
0
  0
POLYLINE
  8
0
 62
     0
 66
     1
 10
0
 20
0
 30
0.0
 40
0.8
 41
0.8
  0
VERTEX
  8
0
 10
4.79503
 20
0.0859918
 30
0.0
 40
0.0111111
 41
0.0111111
  0
VERTEX
  8
0
 10
4.78558
 20
0.0745443
 30
0.0
 40
0.0111111
 41
0.0111111
  0
SEQEND
 8
0
  0
POLYLINE
  8
0
 62
     0
 66
     1
 10
0
 20
0
 30
0.0
 40
0.8
 41
0.8
  0
VERTEX
  8
0
 10
4.78558
 20
0.0745443
 30
0.0
 40
0.0111111
 41
0.0111111
  0
VERTEX
  8
0
 10
4.77474
 20
0.0643989
 30
0.0
 40
0.0111111
 41
0.0111111
  0
SEQEND
 8
0
  0
POLYLINE
  8
0
 62
     0
 66
     1
 10
0
 20
0
 30
0.0
 40
0.8
 41
0.8
  0
VERTEX
  8
0
 10
4.77474
 20
0.0643989
 30
0.0
 40
0.0111111
 41
0.0111111
  0
VERTEX
  8
0
 10
4.76275
 20
0.055664
 30
0.0
 40
0.0111111
 41
0.0111111
  0
SEQEND
 8
0
  0
POLYLINE
  8
0
 62
     0
 66
     1
 10
0
 20
0
 30
0.0
 40
0.8
 41
0.8
  0
VERTEX
  8
0
 10
4.76275
 20
0.055664
 30
0.0
 40
0.0111111
 41
0.0111111
  0
VERTEX
  8
0
 10
4.74972
 20
0.0485568
 30
0.0
 40
0.0111111
 41
0.0111111
  0
SEQEND
 8
0
  0
POLYLINE
  8
0
 62
     0
 66
     1
 10
0
 20
0
 30
0.0
 40
0.8
 41
0.8
  0
VERTEX
  8
0
 10
4.74972
 20
0.0485568
 30
0.0
 40
0.0111111
 41
0.0111111
  0
VERTEX
  8
0
 10
4.73594
 20
0.0430772
 30
0.0
 40
0.0111111
 41
0.0111111
  0
SEQEND
 8
0
  0
POLYLINE
  8
0
 62
     0
 66
     1
 10
0
 20
0
 30
0.0
 40
0.8
 41
0.8
  0
VERTEX
  8
0
 10
4.73594
 20
0.0430772
 30
0.0
 40
0.0111111
 41
0.0111111
  0
VERTEX
  8
0
 10
4.72157
 20
0.0393881
 30
0.0
 40
0.0111111
 41
0.0111111
  0
SEQEND
 8
0
  0
POLYLINE
  8
0
 62
     0
 66
     1
 10
0
 20
0
 30
0.0
 40
0.8
 41
0.8
  0
VERTEX
  8
0
 10
4.72157
 20
0.0393881
 30
0.0
 40
0.0111111
 41
0.0111111
  0
VERTEX
  8
0
 10
4.70687
 20
0.0375433
 30
0.0
 40
0.0111111
 41
0.0111111
  0
SEQEND
 8
0
  0
POLYLINE
  8
0
 62
     0
 66
     1
 10
0
 20
0
 30
0.0
 40
0.8
 41
0.8
  0
VERTEX
  8
0
 10
4.70687
 20
0.0375433
 30
0.0
 40
0.0111111
 41
0.0111111
  0
VERTEX
  8
0
 10
4.69949
 20
0.0375433
 30
0.0
 40
0.0111111
 41
0.0111111
  0
SEQEND
 8
0
  0
POLYLINE
  8
0
 62
     0
 66
     1
 10
0
 20
0
 30
0.0
 40
0.8
 41
0.8
  0
VERTEX
  8
0
 10
4.69949
 20
0.0375433
 30
0.0
 40
0.0111111
 41
0.0111111
  0
VERTEX
  8
0
 10
4.69949
 20
0.0373264
 30
0.0
 40
0.0111111
 41
0.0111111
  0
SEQEND
 8
0
  0
POLYLINE
  8
0
 62
     0
 66
     1
 10
0
 20
0
 30
0.0
 40
0.8
 41
0.8
  0
VERTEX
  8
0
 10
4.69949
 20
0.0373264
 30
0.0
 40
0.0111111
 41
0.0111111
  0
VERTEX
  8
0
 10
0.250651
 20
0.0373264
 30
0.0
 40
0.0111111
 41
0.0111111
  0
SEQEND
 8
0
  0
POLYLINE
  8
0
 62
     0
 66
     1
 10
0
 20
0
 30
0.0
 40
0.8
 41
0.8
  0
VERTEX
  8
0
 10
0.250651
 20
0.0373264
 30
0.0
 40
0.0111111
 41
0.0111111
  0
VERTEX
  8
0
 10
0.250651
 20
0.0375433
 30
0.0
 40
0.0111111
 41
0.0111111
  0
SEQEND
 8
0
  0
POLYLINE
  8
0
 62
     0
 66
     1
 10
0
 20
0
 30
0.0
 40
0.8
 41
0.8
  0
VERTEX
  8
0
 10
0.250651
 20
0.0375433
 30
0.0
 40
0.0111111
 41
0.0111111
  0
VERTEX
  8
0
 10
0.243272
 20
0.0375433
 30
0.0
 40
0.0111111
 41
0.0111111
  0
SEQEND
 8
0
  0
POLYLINE
  8
0
 62
     0
 66
     1
 10
0
 20
0
 30
0.0
 40
0.8
 41
0.8
  0
VERTEX
  8
0
 10
0.243272
 20
0.0375433
 30
0.0
 40
0.0111111
 41
0.0111111
  0
VERTEX
  8
0
 10
0.228515
 20
0.0393881
 30
0.0
 40
0.0111111
 41
0.0111111
  0
SEQEND
 8
0
  0
POLYLINE
  8
0
 62
     0
 66
     1
 10
0
 20
0
 30
0.0
 40
0.8
 41
0.8
  0
VERTEX
  8
0
 10
0.228515
 20
0.0393881
 30
0.0
 40
0.0111111
 41
0.0111111
  0
VERTEX
  8
0
 10
0.214139
 20
0.0430772
 30
0.0
 40
0.0111111
 41
0.0111111
  0
SEQEND
 8
0
  0
POLYLINE
  8
0
 62
     0
 66
     1
 10
0
 20
0
 30
0.0
 40
0.8
 41
0.8
  0
VERTEX
  8
0
 10
0.214139
 20
0.0430772
 30
0.0
 40
0.0111111
 41
0.0111111
  0
VERTEX
  8
0
 10
0.200358
 20
0.0485568
 30
0.0
 40
0.0111111
 41
0.0111111
  0
SEQEND
 8
0
  0
POLYLINE
  8
0
 62
     0
 66
     1
 10
0
 20
0
 30
0.0
 40
0.8
 41
0.8
  0
VERTEX
  8
0
 10
0.200358
 20
0.0485568
 30
0.0
 40
0.0111111
 41
0.0111111
  0
VERTEX
  8
0
 10
0.187392
 20
0.055664
 30
0.0
 40
0.0111111
 41
0.0111111
  0
SEQEND
 8
0
  0
POLYLINE
  8
0
 62
     0
 66
     1
 10
0
 20
0
 30
0.0
 40
0.8
 41
0.8
  0
VERTEX
  8
0
 10
0.187392
 20
0.055664
 30
0.0
 40
0.0111111
 41
0.0111111
  0
VERTEX
  8
0
 10
0.175347
 20
0.0643989
 30
0.0
 40
0.0111111
 41
0.0111111
  0
SEQEND
 8
0
  0
POLYLINE
  8
0
 62
     0
 66
     1
 10
0
 20
0
 30
0.0
 40
0.8
 41
0.8
  0
VERTEX
  8
0
 10
0.175347
 20
0.0643989
 30
0.0
 40
0.0111111
 41
0.0111111
  0
VERTEX
  8
0
 10
0.164551
 20
0.0745443
 30
0.0
 40
0.0111111
 41
0.0111111
  0
SEQEND
 8
0
  0
POLYLINE
  8
0
 62
     0
 66
     1
 10
0
 20
0
 30
0.0
 40
0.8
 41
0.8
  0
VERTEX
  8
0
 10
0.164551
 20
0.0745443
 30
0.0
 40
0.0111111
 41
0.0111111
  0
VERTEX
  8
0
 10
0.155111
 20
0.0859918
 30
0.0
 40
0.0111111
 41
0.0111111
  0
SEQEND
 8
0
  0
POLYLINE
  8
0
 62
     0
 66
     1
 10
0
 20
0
 30
0.0
 40
0.8
 41
0.8
  0
VERTEX
  8
0
 10
0.155111
 20
0.0859918
 30
0.0
 40
0.0111111
 41
0.0111111
  0
VERTEX
  8
0
 10
0.147136
 20
0.0985243
 30
0.0
 40
0.0111111
 41
0.0111111
  0
SEQEND
 8
0
  0
POLYLINE
  8
0
 62
     0
 66
     1
 10
0
 20
0
 30
0.0
 40
0.8
 41
0.8
  0
VERTEX
  8
0
 10
0.147136
 20
0.0985243
 30
0.0
 40
0.0111111
 41
0.0111111
  0
VERTEX
  8
0
 10
0.140842
 20
0.111925
 30
0.0
 40
0.0111111
 41
0.0111111
  0
SEQEND
 8
0
  0
POLYLINE
  8
0
 62
     0
 66
     1
 10
0
 20
0
 30
0.0
 40
0.8
 41
0.8
  0
VERTEX
  8
0
 10
0.140842
 20
0.111925
 30
0.0
 40
0.0111111
 41
0.0111111
  0
VERTEX
  8
0
 10
0.13623
 20
0.126031
 30
0.0
 40
0.0111111
 41
0.0111111
  0
SEQEND
 8
0
  0
POLYLINE
  8
0
 62
     0
 66
     1
 10
0
 20
0
 30
0.0
 40
0.8
 41
0.8
  0
VERTEX
  8
0
 10
0.13623
 20
0.126031
 30
0.0
 40
0.0111111
 41
0.0111111
  0
VERTEX
  8
0
 10
0.133464
 20
0.140625
 30
0.0
 40
0.0111111
 41
0.0111111
  0
SEQEND
 8
0
  0
POLYLINE
  8
0
 62
     0
 66
     1
 10
0
 20
0
 30
0.0
 40
0.8
 41
0.8
  0
VERTEX
  8
0
 10
0.133464
 20
0.140625
 30
0.0
 40
0.0111111
 41
0.0111111
  0
VERTEX
  8
0
 10
0.132541
 20
0.155436
 30
0.0
 40
0.0111111
 41
0.0111111
  0
SEQEND
 8
0
  0
POLYLINE
  8
0
 62
     0
 66
     1
 10
0
 20
0
 30
0.0
 40
0.8
 41
0.8
  0
VERTEX
  8
0
 10
0.703396
 20
0.352268
 30
0.0
 40
0.0111111
 41
0.0111111
  0
VERTEX
  8
0
 10
0.703396
 20
0.411296
 30
0.0
 40
0.0111111
 41
0.0111111
  0
SEQEND
 8
0
  0
POLYLINE
  8
0
 62
     0
 66
     1
 10
0
 20
0
 30
0.0
 40
0.8
 41
0.8
  0
VERTEX
  8
0
 10
0.703396
 20
0.411296
 30
0.0
 40
0.0111111
 41
0.0111111
  0
VERTEX
  8
0
 10
1.09711
 20
0.411296
 30
0.0
 40
0.0111111
 41
0.0111111
  0
SEQEND
 8
0
  0
POLYLINE
  8
0
 62
     0
 66
     1
 10
0
 20
0
 30
0.0
 40
0.8
 41
0.8
  0
VERTEX
  8
0
 10
1.09711
 20
0.411296
 30
0.0
 40
0.0111111
 41
0.0111111
  0
VERTEX
  8
0
 10
1.09711
 20
0.352268
 30
0.0
 40
0.0111111
 41
0.0111111
  0
SEQEND
 8
0
  0
POLYLINE
  8
0
 62
     0
 66
     1
 10
0
 20
0
 30
0.0
 40
0.8
 41
0.8
  0
VERTEX
  8
0
 10
1.09711
 20
0.352268
 30
0.0
 40
0.0111111
 41
0.0111111
  0
VERTEX
  8
0
 10
0.703396
 20
0.352268
 30
0.0
 40
0.0111111
 41
0.0111111
  0
SEQEND
 8
0
  0
POLYLINE
  8
0
 62
     0
 66
     1
 10
0
 20
0
 30
0.0
 40
0.8
 41
0.8
  0
VERTEX
  8
0
 10
0.703396
 20
3.3641
 30
0.0
 40
0.0111111
 41
0.0111111
  0
VERTEX
  8
0
 10
0.703396
 20
3.42312
 30
0.0
 40
0.0111111
 41
0.0111111
  0
SEQEND
 8
0
  0
POLYLINE
  8
0
 62
     0
 66
     1
 10
0
 20
0
 30
0.0
 40
0.8
 41
0.8
  0
VERTEX
  8
0
 10
0.703396
 20
3.42312
 30
0.0
 40
0.0111111
 41
0.0111111
  0
VERTEX
  8
0
 10
1.09711
 20
3.42312
 30
0.0
 40
0.0111111
 41
0.0111111
  0
SEQEND
 8
0
  0
POLYLINE
  8
0
 62
     0
 66
     1
 10
0
 20
0
 30
0.0
 40
0.8
 41
0.8
  0
VERTEX
  8
0
 10
1.09711
 20
3.42312
 30
0.0
 40
0.0111111
 41
0.0111111
  0
VERTEX
  8
0
 10
1.09711
 20
3.3641
 30
0.0
 40
0.0111111
 41
0.0111111
  0
SEQEND
 8
0
  0
POLYLINE
  8
0
 62
     0
 66
     1
 10
0
 20
0
 30
0.0
 40
0.8
 41
0.8
  0
VERTEX
  8
0
 10
1.09711
 20
3.3641
 30
0.0
 40
0.0111111
 41
0.0111111
  0
VERTEX
  8
0
 10
0.703396
 20
3.3641
 30
0.0
 40
0.0111111
 41
0.0111111
  0
SEQEND
 8
0
  0
POLYLINE
  8
0
 62
     0
 66
     1
 10
0
 20
0
 30
0.0
 40
0.8
 41
0.8
  0
VERTEX
  8
0
 10
2.27821
 20
0.352268
 30
0.0
 40
0.0111111
 41
0.0111111
  0
VERTEX
  8
0
 10
2.27821
 20
0.411296
 30
0.0
 40
0.0111111
 41
0.0111111
  0
SEQEND
 8
0
  0
POLYLINE
  8
0
 62
     0
 66
     1
 10
0
 20
0
 30
0.0
 40
0.8
 41
0.8
  0
VERTEX
  8
0
 10
2.27821
 20
0.411296
 30
0.0
 40
0.0111111
 41
0.0111111
  0
VERTEX
  8
0
 10
2.67193
 20
0.411296
 30
0.0
 40
0.0111111
 41
0.0111111
  0
SEQEND
 8
0
  0
POLYLINE
  8
0
 62
     0
 66
     1
 10
0
 20
0
 30
0.0
 40
0.8
 41
0.8
  0
VERTEX
  8
0
 10
2.67193
 20
0.411296
 30
0.0
 40
0.0111111
 41
0.0111111
  0
VERTEX
  8
0
 10
2.67193
 20
0.352268
 30
0.0
 40
0.0111111
 41
0.0111111
  0
SEQEND
 8
0
  0
POLYLINE
  8
0
 62
     0
 66
     1
 10
0
 20
0
 30
0.0
 40
0.8
 41
0.8
  0
VERTEX
  8
0
 10
2.67193
 20
0.352268
 30
0.0
 40
0.0111111
 41
0.0111111
  0
VERTEX
  8
0
 10
2.27821
 20
0.352268
 30
0.0
 40
0.0111111
 41
0.0111111
  0
SEQEND
 8
0
  0
POLYLINE
  8
0
 62
     0
 66
     1
 10
0
 20
0
 30
0.0
 40
0.8
 41
0.8
  0
VERTEX
  8
0
 10
2.27821
 20
3.3641
 30
0.0
 40
0.0111111
 41
0.0111111
  0
VERTEX
  8
0
 10
2.27821
 20
3.42312
 30
0.0
 40
0.0111111
 41
0.0111111
  0
SEQEND
 8
0
  0
POLYLINE
  8
0
 62
     0
 66
     1
 10
0
 20
0
 30
0.0
 40
0.8
 41
0.8
  0
VERTEX
  8
0
 10
2.27821
 20
3.42312
 30
0.0
 40
0.0111111
 41
0.0111111
  0
VERTEX
  8
0
 10
2.67193
 20
3.42312
 30
0.0
 40
0.0111111
 41
0.0111111
  0
SEQEND
 8
0
  0
POLYLINE
  8
0
 62
     0
 66
     1
 10
0
 20
0
 30
0.0
 40
0.8
 41
0.8
  0
VERTEX
  8
0
 10
2.67193
 20
3.42312
 30
0.0
 40
0.0111111
 41
0.0111111
  0
VERTEX
  8
0
 10
2.67193
 20
3.3641
 30
0.0
 40
0.0111111
 41
0.0111111
  0
SEQEND
 8
0
  0
POLYLINE
  8
0
 62
     0
 66
     1
 10
0
 20
0
 30
0.0
 40
0.8
 41
0.8
  0
VERTEX
  8
0
 10
2.67193
 20
3.3641
 30
0.0
 40
0.0111111
 41
0.0111111
  0
VERTEX
  8
0
 10
2.27821
 20
3.3641
 30
0.0
 40
0.0111111
 41
0.0111111
  0
SEQEND
 8
0
  0
POLYLINE
  8
0
 62
     0
 66
     1
 10
0
 20
0
 30
0.0
 40
0.8
 41
0.8
  0
VERTEX
  8
0
 10
2.44553
 20
0.952636
 30
0.0
 40
0.0111111
 41
0.0111111
  0
VERTEX
  8
0
 10
2.44553
 20
1.34635
 30
0.0
 40
0.0111111
 41
0.0111111
  0
SEQEND
 8
0
  0
POLYLINE
  8
0
 62
     0
 66
     1
 10
0
 20
0
 30
0.0
 40
0.8
 41
0.8
  0
VERTEX
  8
0
 10
2.44553
 20
1.34635
 30
0.0
 40
0.0111111
 41
0.0111111
  0
VERTEX
  8
0
 10
2.50461
 20
1.34635
 30
0.0
 40
0.0111111
 41
0.0111111
  0
SEQEND
 8
0
  0
POLYLINE
  8
0
 62
     0
 66
     1
 10
0
 20
0
 30
0.0
 40
0.8
 41
0.8
  0
VERTEX
  8
0
 10
2.50461
 20
1.34635
 30
0.0
 40
0.0111111
 41
0.0111111
  0
VERTEX
  8
0
 10
2.50461
 20
0.952636
 30
0.0
 40
0.0111111
 41
0.0111111
  0
SEQEND
 8
0
  0
POLYLINE
  8
0
 62
     0
 66
     1
 10
0
 20
0
 30
0.0
 40
0.8
 41
0.8
  0
VERTEX
  8
0
 10
2.50461
 20
0.952636
 30
0.0
 40
0.0111111
 41
0.0111111
  0
VERTEX
  8
0
 10
2.44553
 20
0.952636
 30
0.0
 40
0.0111111
 41
0.0111111
  0
SEQEND
 8
0
  0
POLYLINE
  8
0
 62
     0
 66
     1
 10
0
 20
0
 30
0.0
 40
0.8
 41
0.8
  0
VERTEX
  8
0
 10
2.44553
 20
2.42904
 30
0.0
 40
0.0111111
 41
0.0111111
  0
VERTEX
  8
0
 10
2.44553
 20
2.82275
 30
0.0
 40
0.0111111
 41
0.0111111
  0
SEQEND
 8
0
  0
POLYLINE
  8
0
 62
     0
 66
     1
 10
0
 20
0
 30
0.0
 40
0.8
 41
0.8
  0
VERTEX
  8
0
 10
2.44553
 20
2.82275
 30
0.0
 40
0.0111111
 41
0.0111111
  0
VERTEX
  8
0
 10
2.50461
 20
2.82275
 30
0.0
 40
0.0111111
 41
0.0111111
  0
SEQEND
 8
0
  0
POLYLINE
  8
0
 62
     0
 66
     1
 10
0
 20
0
 30
0.0
 40
0.8
 41
0.8
  0
VERTEX
  8
0
 10
2.50461
 20
2.82275
 30
0.0
 40
0.0111111
 41
0.0111111
  0
VERTEX
  8
0
 10
2.50461
 20
2.42904
 30
0.0
 40
0.0111111
 41
0.0111111
  0
SEQEND
 8
0
  0
POLYLINE
  8
0
 62
     0
 66
     1
 10
0
 20
0
 30
0.0
 40
0.8
 41
0.8
  0
VERTEX
  8
0
 10
2.50461
 20
2.42904
 30
0.0
 40
0.0111111
 41
0.0111111
  0
VERTEX
  8
0
 10
2.44553
 20
2.42904
 30
0.0
 40
0.0111111
 41
0.0111111
  0
SEQEND
 8
0
  0
POLYLINE
  8
0
 62
     0
 66
     1
 10
0
 20
0
 30
0.0
 40
0.8
 41
0.8
  0
VERTEX
  8
0
 10
3.85303
 20
0.352268
 30
0.0
 40
0.0111111
 41
0.0111111
  0
VERTEX
  8
0
 10
3.85303
 20
0.411296
 30
0.0
 40
0.0111111
 41
0.0111111
  0
SEQEND
 8
0
  0
POLYLINE
  8
0
 62
     0
 66
     1
 10
0
 20
0
 30
0.0
 40
0.8
 41
0.8
  0
VERTEX
  8
0
 10
3.85303
 20
0.411296
 30
0.0
 40
0.0111111
 41
0.0111111
  0
VERTEX
  8
0
 10
4.24669
 20
0.411296
 30
0.0
 40
0.0111111
 41
0.0111111
  0
SEQEND
 8
0
  0
POLYLINE
  8
0
 62
     0
 66
     1
 10
0
 20
0
 30
0.0
 40
0.8
 41
0.8
  0
VERTEX
  8
0
 10
4.24669
 20
0.411296
 30
0.0
 40
0.0111111
 41
0.0111111
  0
VERTEX
  8
0
 10
4.24669
 20
0.352268
 30
0.0
 40
0.0111111
 41
0.0111111
  0
SEQEND
 8
0
  0
POLYLINE
  8
0
 62
     0
 66
     1
 10
0
 20
0
 30
0.0
 40
0.8
 41
0.8
  0
VERTEX
  8
0
 10
4.24669
 20
0.352268
 30
0.0
 40
0.0111111
 41
0.0111111
  0
VERTEX
  8
0
 10
3.85303
 20
0.352268
 30
0.0
 40
0.0111111
 41
0.0111111
  0
SEQEND
 8
0
  0
POLYLINE
  8
0
 62
     0
 66
     1
 10
0
 20
0
 30
0.0
 40
0.8
 41
0.8
  0
VERTEX
  8
0
 10
3.85303
 20
3.3641
 30
0.0
 40
0.0111111
 41
0.0111111
  0
VERTEX
  8
0
 10
3.85303
 20
3.42312
 30
0.0
 40
0.0111111
 41
0.0111111
  0
SEQEND
 8
0
  0
POLYLINE
  8
0
 62
     0
 66
     1
 10
0
 20
0
 30
0.0
 40
0.8
 41
0.8
  0
VERTEX
  8
0
 10
3.85303
 20
3.42312
 30
0.0
 40
0.0111111
 41
0.0111111
  0
VERTEX
  8
0
 10
4.24669
 20
3.42312
 30
0.0
 40
0.0111111
 41
0.0111111
  0
SEQEND
 8
0
  0
POLYLINE
  8
0
 62
     0
 66
     1
 10
0
 20
0
 30
0.0
 40
0.8
 41
0.8
  0
VERTEX
  8
0
 10
4.24669
 20
3.42312
 30
0.0
 40
0.0111111
 41
0.0111111
  0
VERTEX
  8
0
 10
4.24669
 20
3.3641
 30
0.0
 40
0.0111111
 41
0.0111111
  0
SEQEND
 8
0
  0
POLYLINE
  8
0
 62
     0
 66
     1
 10
0
 20
0
 30
0.0
 40
0.8
 41
0.8
  0
VERTEX
  8
0
 10
4.24669
 20
3.3641
 30
0.0
 40
0.0111111
 41
0.0111111
  0
VERTEX
  8
0
 10
3.85303
 20
3.3641
 30
0.0
 40
0.0111111
 41
0.0111111
  0
SEQEND
 8
0
  0
POLYLINE
  8
0
 62
     0
 66
     1
 10
0
 20
0
 30
0.0
 40
0.8
 41
0.8
  0
VERTEX
  8
0
 10
5.18018
 20
4.37765
 30
0.0
 40
0.0111111
 41
0.0111111
  0
VERTEX
  8
0
 10
5.18018
 20
7.84218
 30
0.0
 40
0.0111111
 41
0.0111111
  0
SEQEND
 8
0
  0
POLYLINE
  8
0
 62
     0
 66
     1
 10
0
 20
0
 30
0.0
 40
0.8
 41
0.8
  0
VERTEX
  8
0
 10
5.18018
 20
7.84218
 30
0.0
 40
0.0111111
 41
0.0111111
  0
VERTEX
  8
0
 10
5.1811
 20
7.85699
 30
0.0
 40
0.0111111
 41
0.0111111
  0
SEQEND
 8
0
  0
POLYLINE
  8
0
 62
     0
 66
     1
 10
0
 20
0
 30
0.0
 40
0.8
 41
0.8
  0
VERTEX
  8
0
 10
5.1811
 20
7.85699
 30
0.0
 40
0.0111111
 41
0.0111111
  0
VERTEX
  8
0
 10
5.18386
 20
7.87158
 30
0.0
 40
0.0111111
 41
0.0111111
  0
SEQEND
 8
0
  0
POLYLINE
  8
0
 62
     0
 66
     1
 10
0
 20
0
 30
0.0
 40
0.8
 41
0.8
  0
VERTEX
  8
0
 10
5.18386
 20
7.87158
 30
0.0
 40
0.0111111
 41
0.0111111
  0
VERTEX
  8
0
 10
5.18847
 20
7.88569
 30
0.0
 40
0.0111111
 41
0.0111111
  0
SEQEND
 8
0
  0
POLYLINE
  8
0
 62
     0
 66
     1
 10
0
 20
0
 30
0.0
 40
0.8
 41
0.8
  0
VERTEX
  8
0
 10
5.18847
 20
7.88569
 30
0.0
 40
0.0111111
 41
0.0111111
  0
VERTEX
  8
0
 10
5.19476
 20
7.89908
 30
0.0
 40
0.0111111
 41
0.0111111
  0
SEQEND
 8
0
  0
POLYLINE
  8
0
 62
     0
 66
     1
 10
0
 20
0
 30
0.0
 40
0.8
 41
0.8
  0
VERTEX
  8
0
 10
5.19476
 20
7.89908
 30
0.0
 40
0.0111111
 41
0.0111111
  0
VERTEX
  8
0
 10
5.20269
 20
7.91163
 30
0.0
 40
0.0111111
 41
0.0111111
  0
SEQEND
 8
0
  0
POLYLINE
  8
0
 62
     0
 66
     1
 10
0
 20
0
 30
0.0
 40
0.8
 41
0.8
  0
VERTEX
  8
0
 10
5.20269
 20
7.91163
 30
0.0
 40
0.0111111
 41
0.0111111
  0
VERTEX
  8
0
 10
5.21218
 20
7.92307
 30
0.0
 40
0.0111111
 41
0.0111111
  0
SEQEND
 8
0
  0
POLYLINE
  8
0
 62
     0
 66
     1
 10
0
 20
0
 30
0.0
 40
0.8
 41
0.8
  0
VERTEX
  8
0
 10
5.21218
 20
7.92307
 30
0.0
 40
0.0111111
 41
0.0111111
  0
VERTEX
  8
0
 10
5.22299
 20
7.93321
 30
0.0
 40
0.0111111
 41
0.0111111
  0
SEQEND
 8
0
  0
POLYLINE
  8
0
 62
     0
 66
     1
 10
0
 20
0
 30
0.0
 40
0.8
 41
0.8
  0
VERTEX
  8
0
 10
5.22299
 20
7.93321
 30
0.0
 40
0.0111111
 41
0.0111111
  0
VERTEX
  8
0
 10
5.23503
 20
7.94194
 30
0.0
 40
0.0111111
 41
0.0111111
  0
SEQEND
 8
0
  0
POLYLINE
  8
0
 62
     0
 66
     1
 10
0
 20
0
 30
0.0
 40
0.8
 41
0.8
  0
VERTEX
  8
0
 10
5.23503
 20
7.94194
 30
0.0
 40
0.0111111
 41
0.0111111
  0
VERTEX
  8
0
 10
5.24799
 20
7.94906
 30
0.0
 40
0.0111111
 41
0.0111111
  0
SEQEND
 8
0
  0
POLYLINE
  8
0
 62
     0
 66
     1
 10
0
 20
0
 30
0.0
 40
0.8
 41
0.8
  0
VERTEX
  8
0
 10
5.24799
 20
7.94906
 30
0.0
 40
0.0111111
 41
0.0111111
  0
VERTEX
  8
0
 10
5.26178
 20
7.95454
 30
0.0
 40
0.0111111
 41
0.0111111
  0
SEQEND
 8
0
  0
POLYLINE
  8
0
 62
     0
 66
     1
 10
0
 20
0
 30
0.0
 40
0.8
 41
0.8
  0
VERTEX
  8
0
 10
5.26178
 20
7.95454
 30
0.0
 40
0.0111111
 41
0.0111111
  0
VERTEX
  8
0
 10
5.27615
 20
7.95822
 30
0.0
 40
0.0111111
 41
0.0111111
  0
SEQEND
 8
0
  0
POLYLINE
  8
0
 62
     0
 66
     1
 10
0
 20
0
 30
0.0
 40
0.8
 41
0.8
  0
VERTEX
  8
0
 10
5.27615
 20
7.95822
 30
0.0
 40
0.0111111
 41
0.0111111
  0
VERTEX
  8
0
 10
5.29085
 20
7.96007
 30
0.0
 40
0.0111111
 41
0.0111111
  0
SEQEND
 8
0
  0
POLYLINE
  8
0
 62
     0
 66
     1
 10
0
 20
0
 30
0.0
 40
0.8
 41
0.8
  0
VERTEX
  8
0
 10
5.29085
 20
7.96007
 30
0.0
 40
0.0111111
 41
0.0111111
  0
VERTEX
  8
0
 10
5.29829
 20
7.96007
 30
0.0
 40
0.0111111
 41
0.0111111
  0
SEQEND
 8
0
  0
POLYLINE
  8
0
 62
     0
 66
     1
 10
0
 20
0
 30
0.0
 40
0.8
 41
0.8
  0
VERTEX
  8
0
 10
5.29829
 20
7.96007
 30
0.0
 40
0.0111111
 41
0.0111111
  0
VERTEX
  8
0
 10
5.29829
 20
7.96029
 30
0.0
 40
0.0111111
 41
0.0111111
  0
SEQEND
 8
0
  0
POLYLINE
  8
0
 62
     0
 66
     1
 10
0
 20
0
 30
0.0
 40
0.8
 41
0.8
  0
VERTEX
  8
0
 10
5.29829
 20
7.96029
 30
0.0
 40
0.0111111
 41
0.0111111
  0
VERTEX
  8
0
 10
9.74707
 20
7.96029
 30
0.0
 40
0.0111111
 41
0.0111111
  0
SEQEND
 8
0
  0
POLYLINE
  8
0
 62
     0
 66
     1
 10
0
 20
0
 30
0.0
 40
0.8
 41
0.8
  0
VERTEX
  8
0
 10
9.74707
 20
7.96029
 30
0.0
 40
0.0111111
 41
0.0111111
  0
VERTEX
  8
0
 10
9.74707
 20
7.96007
 30
0.0
 40
0.0111111
 41
0.0111111
  0
SEQEND
 8
0
  0
POLYLINE
  8
0
 62
     0
 66
     1
 10
0
 20
0
 30
0.0
 40
0.8
 41
0.8
  0
VERTEX
  8
0
 10
9.74707
 20
7.96007
 30
0.0
 40
0.0111111
 41
0.0111111
  0
VERTEX
  8
0
 10
9.7545
 20
7.96007
 30
0.0
 40
0.0111111
 41
0.0111111
  0
SEQEND
 8
0
  0
POLYLINE
  8
0
 62
     0
 66
     1
 10
0
 20
0
 30
0.0
 40
0.8
 41
0.8
  0
VERTEX
  8
0
 10
9.7545
 20
7.96007
 30
0.0
 40
0.0111111
 41
0.0111111
  0
VERTEX
  8
0
 10
9.76921
 20
7.95822
 30
0.0
 40
0.0111111
 41
0.0111111
  0
SEQEND
 8
0
  0
POLYLINE
  8
0
 62
     0
 66
     1
 10
0
 20
0
 30
0.0
 40
0.8
 41
0.8
  0
VERTEX
  8
0
 10
9.76921
 20
7.95822
 30
0.0
 40
0.0111111
 41
0.0111111
  0
VERTEX
  8
0
 10
9.78358
 20
7.95454
 30
0.0
 40
0.0111111
 41
0.0111111
  0
SEQEND
 8
0
  0
POLYLINE
  8
0
 62
     0
 66
     1
 10
0
 20
0
 30
0.0
 40
0.8
 41
0.8
  0
VERTEX
  8
0
 10
9.78358
 20
7.95454
 30
0.0
 40
0.0111111
 41
0.0111111
  0
VERTEX
  8
0
 10
9.79736
 20
7.94906
 30
0.0
 40
0.0111111
 41
0.0111111
  0
SEQEND
 8
0
  0
POLYLINE
  8
0
 62
     0
 66
     1
 10
0
 20
0
 30
0.0
 40
0.8
 41
0.8
  0
VERTEX
  8
0
 10
9.79736
 20
7.94906
 30
0.0
 40
0.0111111
 41
0.0111111
  0
VERTEX
  8
0
 10
9.81033
 20
7.94194
 30
0.0
 40
0.0111111
 41
0.0111111
  0
SEQEND
 8
0
  0
POLYLINE
  8
0
 62
     0
 66
     1
 10
0
 20
0
 30
0.0
 40
0.8
 41
0.8
  0
VERTEX
  8
0
 10
9.81033
 20
7.94194
 30
0.0
 40
0.0111111
 41
0.0111111
  0
VERTEX
  8
0
 10
9.82238
 20
7.93321
 30
0.0
 40
0.0111111
 41
0.0111111
  0
SEQEND
 8
0
  0
POLYLINE
  8
0
 62
     0
 66
     1
 10
0
 20
0
 30
0.0
 40
0.8
 41
0.8
  0
VERTEX
  8
0
 10
9.82238
 20
7.93321
 30
0.0
 40
0.0111111
 41
0.0111111
  0
VERTEX
  8
0
 10
9.83317
 20
7.92307
 30
0.0
 40
0.0111111
 41
0.0111111
  0
SEQEND
 8
0
  0
POLYLINE
  8
0
 62
     0
 66
     1
 10
0
 20
0
 30
0.0
 40
0.8
 41
0.8
  0
VERTEX
  8
0
 10
9.83317
 20
7.92307
 30
0.0
 40
0.0111111
 41
0.0111111
  0
VERTEX
  8
0
 10
9.84267
 20
7.91163
 30
0.0
 40
0.0111111
 41
0.0111111
  0
SEQEND
 8
0
  0
POLYLINE
  8
0
 62
     0
 66
     1
 10
0
 20
0
 30
0.0
 40
0.8
 41
0.8
  0
VERTEX
  8
0
 10
9.84267
 20
7.91163
 30
0.0
 40
0.0111111
 41
0.0111111
  0
VERTEX
  8
0
 10
9.85058
 20
7.89908
 30
0.0
 40
0.0111111
 41
0.0111111
  0
SEQEND
 8
0
  0
POLYLINE
  8
0
 62
     0
 66
     1
 10
0
 20
0
 30
0.0
 40
0.8
 41
0.8
  0
VERTEX
  8
0
 10
9.85058
 20
7.89908
 30
0.0
 40
0.0111111
 41
0.0111111
  0
VERTEX
  8
0
 10
9.85688
 20
7.88569
 30
0.0
 40
0.0111111
 41
0.0111111
  0
SEQEND
 8
0
  0
POLYLINE
  8
0
 62
     0
 66
     1
 10
0
 20
0
 30
0.0
 40
0.8
 41
0.8
  0
VERTEX
  8
0
 10
9.85688
 20
7.88569
 30
0.0
 40
0.0111111
 41
0.0111111
  0
VERTEX
  8
0
 10
9.86149
 20
7.87158
 30
0.0
 40
0.0111111
 41
0.0111111
  0
SEQEND
 8
0
  0
POLYLINE
  8
0
 62
     0
 66
     1
 10
0
 20
0
 30
0.0
 40
0.8
 41
0.8
  0
VERTEX
  8
0
 10
9.86149
 20
7.87158
 30
0.0
 40
0.0111111
 41
0.0111111
  0
VERTEX
  8
0
 10
9.86426
 20
7.85699
 30
0.0
 40
0.0111111
 41
0.0111111
  0
SEQEND
 8
0
  0
POLYLINE
  8
0
 62
     0
 66
     1
 10
0
 20
0
 30
0.0
 40
0.8
 41
0.8
  0
VERTEX
  8
0
 10
9.86426
 20
7.85699
 30
0.0
 40
0.0111111
 41
0.0111111
  0
VERTEX
  8
0
 10
9.86518
 20
7.84218
 30
0.0
 40
0.0111111
 41
0.0111111
  0
SEQEND
 8
0
  0
POLYLINE
  8
0
 62
     0
 66
     1
 10
0
 20
0
 30
0.0
 40
0.8
 41
0.8
  0
VERTEX
  8
0
 10
9.86518
 20
7.84218
 30
0.0
 40
0.0111111
 41
0.0111111
  0
VERTEX
  8
0
 10
9.86518
 20
4.37765
 30
0.0
 40
0.0111111
 41
0.0111111
  0
SEQEND
 8
0
  0
POLYLINE
  8
0
 62
     0
 66
     1
 10
0
 20
0
 30
0.0
 40
0.8
 41
0.8
  0
VERTEX
  8
0
 10
9.86518
 20
4.37765
 30
0.0
 40
0.0111111
 41
0.0111111
  0
VERTEX
  8
0
 10
9.86426
 20
4.36285
 30
0.0
 40
0.0111111
 41
0.0111111
  0
SEQEND
 8
0
  0
POLYLINE
  8
0
 62
     0
 66
     1
 10
0
 20
0
 30
0.0
 40
0.8
 41
0.8
  0
VERTEX
  8
0
 10
9.86426
 20
4.36285
 30
0.0
 40
0.0111111
 41
0.0111111
  0
VERTEX
  8
0
 10
9.86149
 20
4.34825
 30
0.0
 40
0.0111111
 41
0.0111111
  0
SEQEND
 8
0
  0
POLYLINE
  8
0
 62
     0
 66
     1
 10
0
 20
0
 30
0.0
 40
0.8
 41
0.8
  0
VERTEX
  8
0
 10
9.86149
 20
4.34825
 30
0.0
 40
0.0111111
 41
0.0111111
  0
VERTEX
  8
0
 10
9.85688
 20
4.33415
 30
0.0
 40
0.0111111
 41
0.0111111
  0
SEQEND
 8
0
  0
POLYLINE
  8
0
 62
     0
 66
     1
 10
0
 20
0
 30
0.0
 40
0.8
 41
0.8
  0
VERTEX
  8
0
 10
9.85688
 20
4.33415
 30
0.0
 40
0.0111111
 41
0.0111111
  0
VERTEX
  8
0
 10
9.85058
 20
4.32075
 30
0.0
 40
0.0111111
 41
0.0111111
  0
SEQEND
 8
0
  0
POLYLINE
  8
0
 62
     0
 66
     1
 10
0
 20
0
 30
0.0
 40
0.8
 41
0.8
  0
VERTEX
  8
0
 10
9.85058
 20
4.32075
 30
0.0
 40
0.0111111
 41
0.0111111
  0
VERTEX
  8
0
 10
9.84267
 20
4.30821
 30
0.0
 40
0.0111111
 41
0.0111111
  0
SEQEND
 8
0
  0
POLYLINE
  8
0
 62
     0
 66
     1
 10
0
 20
0
 30
0.0
 40
0.8
 41
0.8
  0
VERTEX
  8
0
 10
9.84267
 20
4.30821
 30
0.0
 40
0.0111111
 41
0.0111111
  0
VERTEX
  8
0
 10
9.83317
 20
4.29676
 30
0.0
 40
0.0111111
 41
0.0111111
  0
SEQEND
 8
0
  0
POLYLINE
  8
0
 62
     0
 66
     1
 10
0
 20
0
 30
0.0
 40
0.8
 41
0.8
  0
VERTEX
  8
0
 10
9.83317
 20
4.29676
 30
0.0
 40
0.0111111
 41
0.0111111
  0
VERTEX
  8
0
 10
9.82238
 20
4.28662
 30
0.0
 40
0.0111111
 41
0.0111111
  0
SEQEND
 8
0
  0
POLYLINE
  8
0
 62
     0
 66
     1
 10
0
 20
0
 30
0.0
 40
0.8
 41
0.8
  0
VERTEX
  8
0
 10
9.82238
 20
4.28662
 30
0.0
 40
0.0111111
 41
0.0111111
  0
VERTEX
  8
0
 10
9.81033
 20
4.27789
 30
0.0
 40
0.0111111
 41
0.0111111
  0
SEQEND
 8
0
  0
POLYLINE
  8
0
 62
     0
 66
     1
 10
0
 20
0
 30
0.0
 40
0.8
 41
0.8
  0
VERTEX
  8
0
 10
9.81033
 20
4.27789
 30
0.0
 40
0.0111111
 41
0.0111111
  0
VERTEX
  8
0
 10
9.79736
 20
4.27078
 30
0.0
 40
0.0111111
 41
0.0111111
  0
SEQEND
 8
0
  0
POLYLINE
  8
0
 62
     0
 66
     1
 10
0
 20
0
 30
0.0
 40
0.8
 41
0.8
  0
VERTEX
  8
0
 10
9.79736
 20
4.27078
 30
0.0
 40
0.0111111
 41
0.0111111
  0
VERTEX
  8
0
 10
9.78358
 20
4.26531
 30
0.0
 40
0.0111111
 41
0.0111111
  0
SEQEND
 8
0
  0
POLYLINE
  8
0
 62
     0
 66
     1
 10
0
 20
0
 30
0.0
 40
0.8
 41
0.8
  0
VERTEX
  8
0
 10
9.78358
 20
4.26531
 30
0.0
 40
0.0111111
 41
0.0111111
  0
VERTEX
  8
0
 10
9.76921
 20
4.26161
 30
0.0
 40
0.0111111
 41
0.0111111
  0
SEQEND
 8
0
  0
POLYLINE
  8
0
 62
     0
 66
     1
 10
0
 20
0
 30
0.0
 40
0.8
 41
0.8
  0
VERTEX
  8
0
 10
9.76921
 20
4.26161
 30
0.0
 40
0.0111111
 41
0.0111111
  0
VERTEX
  8
0
 10
9.7545
 20
4.25976
 30
0.0
 40
0.0111111
 41
0.0111111
  0
SEQEND
 8
0
  0
POLYLINE
  8
0
 62
     0
 66
     1
 10
0
 20
0
 30
0.0
 40
0.8
 41
0.8
  0
VERTEX
  8
0
 10
9.7545
 20
4.25976
 30
0.0
 40
0.0111111
 41
0.0111111
  0
VERTEX
  8
0
 10
9.74707
 20
4.25976
 30
0.0
 40
0.0111111
 41
0.0111111
  0
SEQEND
 8
0
  0
POLYLINE
  8
0
 62
     0
 66
     1
 10
0
 20
0
 30
0.0
 40
0.8
 41
0.8
  0
VERTEX
  8
0
 10
9.74707
 20
4.25976
 30
0.0
 40
0.0111111
 41
0.0111111
  0
VERTEX
  8
0
 10
9.74707
 20
4.25956
 30
0.0
 40
0.0111111
 41
0.0111111
  0
SEQEND
 8
0
  0
POLYLINE
  8
0
 62
     0
 66
     1
 10
0
 20
0
 30
0.0
 40
0.8
 41
0.8
  0
VERTEX
  8
0
 10
9.74707
 20
4.25956
 30
0.0
 40
0.0111111
 41
0.0111111
  0
VERTEX
  8
0
 10
5.29829
 20
4.25956
 30
0.0
 40
0.0111111
 41
0.0111111
  0
SEQEND
 8
0
  0
POLYLINE
  8
0
 62
     0
 66
     1
 10
0
 20
0
 30
0.0
 40
0.8
 41
0.8
  0
VERTEX
  8
0
 10
5.29829
 20
4.25956
 30
0.0
 40
0.0111111
 41
0.0111111
  0
VERTEX
  8
0
 10
5.29829
 20
4.25976
 30
0.0
 40
0.0111111
 41
0.0111111
  0
SEQEND
 8
0
  0
POLYLINE
  8
0
 62
     0
 66
     1
 10
0
 20
0
 30
0.0
 40
0.8
 41
0.8
  0
VERTEX
  8
0
 10
5.29829
 20
4.25976
 30
0.0
 40
0.0111111
 41
0.0111111
  0
VERTEX
  8
0
 10
5.29085
 20
4.25976
 30
0.0
 40
0.0111111
 41
0.0111111
  0
SEQEND
 8
0
  0
POLYLINE
  8
0
 62
     0
 66
     1
 10
0
 20
0
 30
0.0
 40
0.8
 41
0.8
  0
VERTEX
  8
0
 10
5.29085
 20
4.25976
 30
0.0
 40
0.0111111
 41
0.0111111
  0
VERTEX
  8
0
 10
5.27615
 20
4.26161
 30
0.0
 40
0.0111111
 41
0.0111111
  0
SEQEND
 8
0
  0
POLYLINE
  8
0
 62
     0
 66
     1
 10
0
 20
0
 30
0.0
 40
0.8
 41
0.8
  0
VERTEX
  8
0
 10
5.27615
 20
4.26161
 30
0.0
 40
0.0111111
 41
0.0111111
  0
VERTEX
  8
0
 10
5.26178
 20
4.26531
 30
0.0
 40
0.0111111
 41
0.0111111
  0
SEQEND
 8
0
  0
POLYLINE
  8
0
 62
     0
 66
     1
 10
0
 20
0
 30
0.0
 40
0.8
 41
0.8
  0
VERTEX
  8
0
 10
5.26178
 20
4.26531
 30
0.0
 40
0.0111111
 41
0.0111111
  0
VERTEX
  8
0
 10
5.24799
 20
4.27078
 30
0.0
 40
0.0111111
 41
0.0111111
  0
SEQEND
 8
0
  0
POLYLINE
  8
0
 62
     0
 66
     1
 10
0
 20
0
 30
0.0
 40
0.8
 41
0.8
  0
VERTEX
  8
0
 10
5.24799
 20
4.27078
 30
0.0
 40
0.0111111
 41
0.0111111
  0
VERTEX
  8
0
 10
5.23503
 20
4.27789
 30
0.0
 40
0.0111111
 41
0.0111111
  0
SEQEND
 8
0
  0
POLYLINE
  8
0
 62
     0
 66
     1
 10
0
 20
0
 30
0.0
 40
0.8
 41
0.8
  0
VERTEX
  8
0
 10
5.23503
 20
4.27789
 30
0.0
 40
0.0111111
 41
0.0111111
  0
VERTEX
  8
0
 10
5.22299
 20
4.28662
 30
0.0
 40
0.0111111
 41
0.0111111
  0
SEQEND
 8
0
  0
POLYLINE
  8
0
 62
     0
 66
     1
 10
0
 20
0
 30
0.0
 40
0.8
 41
0.8
  0
VERTEX
  8
0
 10
5.22299
 20
4.28662
 30
0.0
 40
0.0111111
 41
0.0111111
  0
VERTEX
  8
0
 10
5.21218
 20
4.29676
 30
0.0
 40
0.0111111
 41
0.0111111
  0
SEQEND
 8
0
  0
POLYLINE
  8
0
 62
     0
 66
     1
 10
0
 20
0
 30
0.0
 40
0.8
 41
0.8
  0
VERTEX
  8
0
 10
5.21218
 20
4.29676
 30
0.0
 40
0.0111111
 41
0.0111111
  0
VERTEX
  8
0
 10
5.20269
 20
4.30821
 30
0.0
 40
0.0111111
 41
0.0111111
  0
SEQEND
 8
0
  0
POLYLINE
  8
0
 62
     0
 66
     1
 10
0
 20
0
 30
0.0
 40
0.8
 41
0.8
  0
VERTEX
  8
0
 10
5.20269
 20
4.30821
 30
0.0
 40
0.0111111
 41
0.0111111
  0
VERTEX
  8
0
 10
5.19476
 20
4.32075
 30
0.0
 40
0.0111111
 41
0.0111111
  0
SEQEND
 8
0
  0
POLYLINE
  8
0
 62
     0
 66
     1
 10
0
 20
0
 30
0.0
 40
0.8
 41
0.8
  0
VERTEX
  8
0
 10
5.19476
 20
4.32075
 30
0.0
 40
0.0111111
 41
0.0111111
  0
VERTEX
  8
0
 10
5.18847
 20
4.33415
 30
0.0
 40
0.0111111
 41
0.0111111
  0
SEQEND
 8
0
  0
POLYLINE
  8
0
 62
     0
 66
     1
 10
0
 20
0
 30
0.0
 40
0.8
 41
0.8
  0
VERTEX
  8
0
 10
5.18847
 20
4.33415
 30
0.0
 40
0.0111111
 41
0.0111111
  0
VERTEX
  8
0
 10
5.18386
 20
4.34825
 30
0.0
 40
0.0111111
 41
0.0111111
  0
SEQEND
 8
0
  0
POLYLINE
  8
0
 62
     0
 66
     1
 10
0
 20
0
 30
0.0
 40
0.8
 41
0.8
  0
VERTEX
  8
0
 10
5.18386
 20
4.34825
 30
0.0
 40
0.0111111
 41
0.0111111
  0
VERTEX
  8
0
 10
5.1811
 20
4.36285
 30
0.0
 40
0.0111111
 41
0.0111111
  0
SEQEND
 8
0
  0
POLYLINE
  8
0
 62
     0
 66
     1
 10
0
 20
0
 30
0.0
 40
0.8
 41
0.8
  0
VERTEX
  8
0
 10
5.1811
 20
4.36285
 30
0.0
 40
0.0111111
 41
0.0111111
  0
VERTEX
  8
0
 10
5.18018
 20
4.37765
 30
0.0
 40
0.0111111
 41
0.0111111
  0
SEQEND
 8
0
  0
POLYLINE
  8
0
 62
     0
 66
     1
 10
0
 20
0
 30
0.0
 40
0.8
 41
0.8
  0
VERTEX
  8
0
 10
5.75103
 20
4.57449
 30
0.0
 40
0.0111111
 41
0.0111111
  0
VERTEX
  8
0
 10
5.75103
 20
4.63351
 30
0.0
 40
0.0111111
 41
0.0111111
  0
SEQEND
 8
0
  0
POLYLINE
  8
0
 62
     0
 66
     1
 10
0
 20
0
 30
0.0
 40
0.8
 41
0.8
  0
VERTEX
  8
0
 10
5.75103
 20
4.63351
 30
0.0
 40
0.0111111
 41
0.0111111
  0
VERTEX
  8
0
 10
6.14475
 20
4.63351
 30
0.0
 40
0.0111111
 41
0.0111111
  0
SEQEND
 8
0
  0
POLYLINE
  8
0
 62
     0
 66
     1
 10
0
 20
0
 30
0.0
 40
0.8
 41
0.8
  0
VERTEX
  8
0
 10
6.14475
 20
4.63351
 30
0.0
 40
0.0111111
 41
0.0111111
  0
VERTEX
  8
0
 10
6.14475
 20
4.57449
 30
0.0
 40
0.0111111
 41
0.0111111
  0
SEQEND
 8
0
  0
POLYLINE
  8
0
 62
     0
 66
     1
 10
0
 20
0
 30
0.0
 40
0.8
 41
0.8
  0
VERTEX
  8
0
 10
6.14475
 20
4.57449
 30
0.0
 40
0.0111111
 41
0.0111111
  0
VERTEX
  8
0
 10
5.75103
 20
4.57449
 30
0.0
 40
0.0111111
 41
0.0111111
  0
SEQEND
 8
0
  0
POLYLINE
  8
0
 62
     0
 66
     1
 10
0
 20
0
 30
0.0
 40
0.8
 41
0.8
  0
VERTEX
  8
0
 10
5.75103
 20
7.58632
 30
0.0
 40
0.0111111
 41
0.0111111
  0
VERTEX
  8
0
 10
5.75103
 20
7.64535
 30
0.0
 40
0.0111111
 41
0.0111111
  0
SEQEND
 8
0
  0
POLYLINE
  8
0
 62
     0
 66
     1
 10
0
 20
0
 30
0.0
 40
0.8
 41
0.8
  0
VERTEX
  8
0
 10
5.75103
 20
7.64535
 30
0.0
 40
0.0111111
 41
0.0111111
  0
VERTEX
  8
0
 10
6.14475
 20
7.64535
 30
0.0
 40
0.0111111
 41
0.0111111
  0
SEQEND
 8
0
  0
POLYLINE
  8
0
 62
     0
 66
     1
 10
0
 20
0
 30
0.0
 40
0.8
 41
0.8
  0
VERTEX
  8
0
 10
6.14475
 20
7.64535
 30
0.0
 40
0.0111111
 41
0.0111111
  0
VERTEX
  8
0
 10
6.14475
 20
7.58632
 30
0.0
 40
0.0111111
 41
0.0111111
  0
SEQEND
 8
0
  0
POLYLINE
  8
0
 62
     0
 66
     1
 10
0
 20
0
 30
0.0
 40
0.8
 41
0.8
  0
VERTEX
  8
0
 10
6.14475
 20
7.58632
 30
0.0
 40
0.0111111
 41
0.0111111
  0
VERTEX
  8
0
 10
5.75103
 20
7.58632
 30
0.0
 40
0.0111111
 41
0.0111111
  0
SEQEND
 8
0
  0
POLYLINE
  8
0
 62
     0
 66
     1
 10
0
 20
0
 30
0.0
 40
0.8
 41
0.8
  0
VERTEX
  8
0
 10
7.32585
 20
4.57449
 30
0.0
 40
0.0111111
 41
0.0111111
  0
VERTEX
  8
0
 10
7.32585
 20
4.63351
 30
0.0
 40
0.0111111
 41
0.0111111
  0
SEQEND
 8
0
  0
POLYLINE
  8
0
 62
     0
 66
     1
 10
0
 20
0
 30
0.0
 40
0.8
 41
0.8
  0
VERTEX
  8
0
 10
7.32585
 20
4.63351
 30
0.0
 40
0.0111111
 41
0.0111111
  0
VERTEX
  8
0
 10
7.71951
 20
4.63351
 30
0.0
 40
0.0111111
 41
0.0111111
  0
SEQEND
 8
0
  0
POLYLINE
  8
0
 62
     0
 66
     1
 10
0
 20
0
 30
0.0
 40
0.8
 41
0.8
  0
VERTEX
  8
0
 10
7.71951
 20
4.63351
 30
0.0
 40
0.0111111
 41
0.0111111
  0
VERTEX
  8
0
 10
7.71951
 20
4.57449
 30
0.0
 40
0.0111111
 41
0.0111111
  0
SEQEND
 8
0
  0
POLYLINE
  8
0
 62
     0
 66
     1
 10
0
 20
0
 30
0.0
 40
0.8
 41
0.8
  0
VERTEX
  8
0
 10
7.71951
 20
4.57449
 30
0.0
 40
0.0111111
 41
0.0111111
  0
VERTEX
  8
0
 10
7.32585
 20
4.57449
 30
0.0
 40
0.0111111
 41
0.0111111
  0
SEQEND
 8
0
  0
POLYLINE
  8
0
 62
     0
 66
     1
 10
0
 20
0
 30
0.0
 40
0.8
 41
0.8
  0
VERTEX
  8
0
 10
7.32585
 20
7.58632
 30
0.0
 40
0.0111111
 41
0.0111111
  0
VERTEX
  8
0
 10
7.32585
 20
7.64535
 30
0.0
 40
0.0111111
 41
0.0111111
  0
SEQEND
 8
0
  0
POLYLINE
  8
0
 62
     0
 66
     1
 10
0
 20
0
 30
0.0
 40
0.8
 41
0.8
  0
VERTEX
  8
0
 10
7.32585
 20
7.64535
 30
0.0
 40
0.0111111
 41
0.0111111
  0
VERTEX
  8
0
 10
7.71951
 20
7.64535
 30
0.0
 40
0.0111111
 41
0.0111111
  0
SEQEND
 8
0
  0
POLYLINE
  8
0
 62
     0
 66
     1
 10
0
 20
0
 30
0.0
 40
0.8
 41
0.8
  0
VERTEX
  8
0
 10
7.71951
 20
7.64535
 30
0.0
 40
0.0111111
 41
0.0111111
  0
VERTEX
  8
0
 10
7.71951
 20
7.58632
 30
0.0
 40
0.0111111
 41
0.0111111
  0
SEQEND
 8
0
  0
POLYLINE
  8
0
 62
     0
 66
     1
 10
0
 20
0
 30
0.0
 40
0.8
 41
0.8
  0
VERTEX
  8
0
 10
7.71951
 20
7.58632
 30
0.0
 40
0.0111111
 41
0.0111111
  0
VERTEX
  8
0
 10
7.32585
 20
7.58632
 30
0.0
 40
0.0111111
 41
0.0111111
  0
SEQEND
 8
0
  0
POLYLINE
  8
0
 62
     0
 66
     1
 10
0
 20
0
 30
0.0
 40
0.8
 41
0.8
  0
VERTEX
  8
0
 10
7.49317
 20
5.17486
 30
0.0
 40
0.0111111
 41
0.0111111
  0
VERTEX
  8
0
 10
7.49317
 20
5.56858
 30
0.0
 40
0.0111111
 41
0.0111111
  0
SEQEND
 8
0
  0
POLYLINE
  8
0
 62
     0
 66
     1
 10
0
 20
0
 30
0.0
 40
0.8
 41
0.8
  0
VERTEX
  8
0
 10
7.49317
 20
5.56858
 30
0.0
 40
0.0111111
 41
0.0111111
  0
VERTEX
  8
0
 10
7.55219
 20
5.56858
 30
0.0
 40
0.0111111
 41
0.0111111
  0
SEQEND
 8
0
  0
POLYLINE
  8
0
 62
     0
 66
     1
 10
0
 20
0
 30
0.0
 40
0.8
 41
0.8
  0
VERTEX
  8
0
 10
7.55219
 20
5.56858
 30
0.0
 40
0.0111111
 41
0.0111111
  0
VERTEX
  8
0
 10
7.55219
 20
5.17486
 30
0.0
 40
0.0111111
 41
0.0111111
  0
SEQEND
 8
0
  0
POLYLINE
  8
0
 62
     0
 66
     1
 10
0
 20
0
 30
0.0
 40
0.8
 41
0.8
  0
VERTEX
  8
0
 10
7.55219
 20
5.17486
 30
0.0
 40
0.0111111
 41
0.0111111
  0
VERTEX
  8
0
 10
7.49317
 20
5.17486
 30
0.0
 40
0.0111111
 41
0.0111111
  0
SEQEND
 8
0
  0
POLYLINE
  8
0
 62
     0
 66
     1
 10
0
 20
0
 30
0.0
 40
0.8
 41
0.8
  0
VERTEX
  8
0
 10
7.49317
 20
6.65126
 30
0.0
 40
0.0111111
 41
0.0111111
  0
VERTEX
  8
0
 10
7.49317
 20
7.04497
 30
0.0
 40
0.0111111
 41
0.0111111
  0
SEQEND
 8
0
  0
POLYLINE
  8
0
 62
     0
 66
     1
 10
0
 20
0
 30
0.0
 40
0.8
 41
0.8
  0
VERTEX
  8
0
 10
7.49317
 20
7.04497
 30
0.0
 40
0.0111111
 41
0.0111111
  0
VERTEX
  8
0
 10
7.55219
 20
7.04497
 30
0.0
 40
0.0111111
 41
0.0111111
  0
SEQEND
 8
0
  0
POLYLINE
  8
0
 62
     0
 66
     1
 10
0
 20
0
 30
0.0
 40
0.8
 41
0.8
  0
VERTEX
  8
0
 10
7.55219
 20
7.04497
 30
0.0
 40
0.0111111
 41
0.0111111
  0
VERTEX
  8
0
 10
7.55219
 20
6.65126
 30
0.0
 40
0.0111111
 41
0.0111111
  0
SEQEND
 8
0
  0
POLYLINE
  8
0
 62
     0
 66
     1
 10
0
 20
0
 30
0.0
 40
0.8
 41
0.8
  0
VERTEX
  8
0
 10
7.55219
 20
6.65126
 30
0.0
 40
0.0111111
 41
0.0111111
  0
VERTEX
  8
0
 10
7.49317
 20
6.65126
 30
0.0
 40
0.0111111
 41
0.0111111
  0
SEQEND
 8
0
  0
POLYLINE
  8
0
 62
     0
 66
     1
 10
0
 20
0
 30
0.0
 40
0.8
 41
0.8
  0
VERTEX
  8
0
 10
8.90061
 20
4.57449
 30
0.0
 40
0.0111111
 41
0.0111111
  0
VERTEX
  8
0
 10
8.90061
 20
4.63351
 30
0.0
 40
0.0111111
 41
0.0111111
  0
SEQEND
 8
0
  0
POLYLINE
  8
0
 62
     0
 66
     1
 10
0
 20
0
 30
0.0
 40
0.8
 41
0.8
  0
VERTEX
  8
0
 10
8.90061
 20
4.63351
 30
0.0
 40
0.0111111
 41
0.0111111
  0
VERTEX
  8
0
 10
9.29432
 20
4.63351
 30
0.0
 40
0.0111111
 41
0.0111111
  0
SEQEND
 8
0
  0
POLYLINE
  8
0
 62
     0
 66
     1
 10
0
 20
0
 30
0.0
 40
0.8
 41
0.8
  0
VERTEX
  8
0
 10
9.29432
 20
4.63351
 30
0.0
 40
0.0111111
 41
0.0111111
  0
VERTEX
  8
0
 10
9.29432
 20
4.57449
 30
0.0
 40
0.0111111
 41
0.0111111
  0
SEQEND
 8
0
  0
POLYLINE
  8
0
 62
     0
 66
     1
 10
0
 20
0
 30
0.0
 40
0.8
 41
0.8
  0
VERTEX
  8
0
 10
9.29432
 20
4.57449
 30
0.0
 40
0.0111111
 41
0.0111111
  0
VERTEX
  8
0
 10
8.90061
 20
4.57449
 30
0.0
 40
0.0111111
 41
0.0111111
  0
SEQEND
 8
0
  0
POLYLINE
  8
0
 62
     0
 66
     1
 10
0
 20
0
 30
0.0
 40
0.8
 41
0.8
  0
VERTEX
  8
0
 10
8.90061
 20
7.58632
 30
0.0
 40
0.0111111
 41
0.0111111
  0
VERTEX
  8
0
 10
8.90061
 20
7.64535
 30
0.0
 40
0.0111111
 41
0.0111111
  0
SEQEND
 8
0
  0
POLYLINE
  8
0
 62
     0
 66
     1
 10
0
 20
0
 30
0.0
 40
0.8
 41
0.8
  0
VERTEX
  8
0
 10
8.90061
 20
7.64535
 30
0.0
 40
0.0111111
 41
0.0111111
  0
VERTEX
  8
0
 10
9.29432
 20
7.64535
 30
0.0
 40
0.0111111
 41
0.0111111
  0
SEQEND
 8
0
  0
POLYLINE
  8
0
 62
     0
 66
     1
 10
0
 20
0
 30
0.0
 40
0.8
 41
0.8
  0
VERTEX
  8
0
 10
9.29432
 20
7.64535
 30
0.0
 40
0.0111111
 41
0.0111111
  0
VERTEX
  8
0
 10
9.29432
 20
7.58632
 30
0.0
 40
0.0111111
 41
0.0111111
  0
SEQEND
 8
0
  0
POLYLINE
  8
0
 62
     0
 66
     1
 10
0
 20
0
 30
0.0
 40
0.8
 41
0.8
  0
VERTEX
  8
0
 10
9.29432
 20
7.58632
 30
0.0
 40
0.0111111
 41
0.0111111
  0
VERTEX
  8
0
 10
8.90061
 20
7.58632
 30
0.0
 40
0.0111111
 41
0.0111111
  0
SEQEND
 8
0
  0
POLYLINE
  8
0
 62
     0
 66
     1
 10
0
 20
0
 30
0.0
 40
0.8
 41
0.8
  0
VERTEX
  8
0
 10
5.33886
 20
0.123644
 30
0.0
 40
0.0111111
 41
0.0111111
  0
VERTEX
  8
0
 10
5.33886
 20
3.58822
 30
0.0
 40
0.0111111
 41
0.0111111
  0
SEQEND
 8
0
  0
POLYLINE
  8
0
 62
     0
 66
     1
 10
0
 20
0
 30
0.0
 40
0.8
 41
0.8
  0
VERTEX
  8
0
 10
5.33886
 20
3.58822
 30
0.0
 40
0.0111111
 41
0.0111111
  0
VERTEX
  8
0
 10
5.33985
 20
3.60303
 30
0.0
 40
0.0111111
 41
0.0111111
  0
SEQEND
 8
0
  0
POLYLINE
  8
0
 62
     0
 66
     1
 10
0
 20
0
 30
0.0
 40
0.8
 41
0.8
  0
VERTEX
  8
0
 10
5.33985
 20
3.60303
 30
0.0
 40
0.0111111
 41
0.0111111
  0
VERTEX
  8
0
 10
5.34261
 20
3.61762
 30
0.0
 40
0.0111111
 41
0.0111111
  0
SEQEND
 8
0
  0
POLYLINE
  8
0
 62
     0
 66
     1
 10
0
 20
0
 30
0.0
 40
0.8
 41
0.8
  0
VERTEX
  8
0
 10
5.34261
 20
3.61762
 30
0.0
 40
0.0111111
 41
0.0111111
  0
VERTEX
  8
0
 10
5.34722
 20
3.63167
 30
0.0
 40
0.0111111
 41
0.0111111
  0
SEQEND
 8
0
  0
POLYLINE
  8
0
 62
     0
 66
     1
 10
0
 20
0
 30
0.0
 40
0.8
 41
0.8
  0
VERTEX
  8
0
 10
5.34722
 20
3.63167
 30
0.0
 40
0.0111111
 41
0.0111111
  0
VERTEX
  8
0
 10
5.35351
 20
3.64513
 30
0.0
 40
0.0111111
 41
0.0111111
  0
SEQEND
 8
0
  0
POLYLINE
  8
0
 62
     0
 66
     1
 10
0
 20
0
 30
0.0
 40
0.8
 41
0.8
  0
VERTEX
  8
0
 10
5.35351
 20
3.64513
 30
0.0
 40
0.0111111
 41
0.0111111
  0
VERTEX
  8
0
 10
5.36143
 20
3.65767
 30
0.0
 40
0.0111111
 41
0.0111111
  0
SEQEND
 8
0
  0
POLYLINE
  8
0
 62
     0
 66
     1
 10
0
 20
0
 30
0.0
 40
0.8
 41
0.8
  0
VERTEX
  8
0
 10
5.36143
 20
3.65767
 30
0.0
 40
0.0111111
 41
0.0111111
  0
VERTEX
  8
0
 10
5.37088
 20
3.66911
 30
0.0
 40
0.0111111
 41
0.0111111
  0
SEQEND
 8
0
  0
POLYLINE
  8
0
 62
     0
 66
     1
 10
0
 20
0
 30
0.0
 40
0.8
 41
0.8
  0
VERTEX
  8
0
 10
5.37088
 20
3.66911
 30
0.0
 40
0.0111111
 41
0.0111111
  0
VERTEX
  8
0
 10
5.38172
 20
3.67925
 30
0.0
 40
0.0111111
 41
0.0111111
  0
SEQEND
 8
0
  0
POLYLINE
  8
0
 62
     0
 66
     1
 10
0
 20
0
 30
0.0
 40
0.8
 41
0.8
  0
VERTEX
  8
0
 10
5.38172
 20
3.67925
 30
0.0
 40
0.0111111
 41
0.0111111
  0
VERTEX
  8
0
 10
5.39372
 20
3.68793
 30
0.0
 40
0.0111111
 41
0.0111111
  0
SEQEND
 8
0
  0
POLYLINE
  8
0
 62
     0
 66
     1
 10
0
 20
0
 30
0.0
 40
0.8
 41
0.8
  0
VERTEX
  8
0
 10
5.39372
 20
3.68793
 30
0.0
 40
0.0111111
 41
0.0111111
  0
VERTEX
  8
0
 10
5.40674
 20
3.6951
 30
0.0
 40
0.0111111
 41
0.0111111
  0
SEQEND
 8
0
  0
POLYLINE
  8
0
 62
     0
 66
     1
 10
0
 20
0
 30
0.0
 40
0.8
 41
0.8
  0
VERTEX
  8
0
 10
5.40674
 20
3.6951
 30
0.0
 40
0.0111111
 41
0.0111111
  0
VERTEX
  8
0
 10
5.42051
 20
3.70057
 30
0.0
 40
0.0111111
 41
0.0111111
  0
SEQEND
 8
0
  0
POLYLINE
  8
0
 62
     0
 66
     1
 10
0
 20
0
 30
0.0
 40
0.8
 41
0.8
  0
VERTEX
  8
0
 10
5.42051
 20
3.70057
 30
0.0
 40
0.0111111
 41
0.0111111
  0
VERTEX
  8
0
 10
5.43489
 20
3.70426
 30
0.0
 40
0.0111111
 41
0.0111111
  0
SEQEND
 8
0
  0
POLYLINE
  8
0
 62
     0
 66
     1
 10
0
 20
0
 30
0.0
 40
0.8
 41
0.8
  0
VERTEX
  8
0
 10
5.43489
 20
3.70426
 30
0.0
 40
0.0111111
 41
0.0111111
  0
VERTEX
  8
0
 10
5.4496
 20
3.70611
 30
0.0
 40
0.0111111
 41
0.0111111
  0
SEQEND
 8
0
  0
POLYLINE
  8
0
 62
     0
 66
     1
 10
0
 20
0
 30
0.0
 40
0.8
 41
0.8
  0
VERTEX
  8
0
 10
5.4496
 20
3.70611
 30
0.0
 40
0.0111111
 41
0.0111111
  0
VERTEX
  8
0
 10
5.45697
 20
3.70611
 30
0.0
 40
0.0111111
 41
0.0111111
  0
SEQEND
 8
0
  0
POLYLINE
  8
0
 62
     0
 66
     1
 10
0
 20
0
 30
0.0
 40
0.8
 41
0.8
  0
VERTEX
  8
0
 10
5.45697
 20
3.70611
 30
0.0
 40
0.0111111
 41
0.0111111
  0
VERTEX
  8
0
 10
5.45697
 20
3.70632
 30
0.0
 40
0.0111111
 41
0.0111111
  0
SEQEND
 8
0
  0
POLYLINE
  8
0
 62
     0
 66
     1
 10
0
 20
0
 30
0.0
 40
0.8
 41
0.8
  0
VERTEX
  8
0
 10
5.45697
 20
3.70632
 30
0.0
 40
0.0111111
 41
0.0111111
  0
VERTEX
  8
0
 10
5.65386
 20
3.70632
 30
0.0
 40
0.0111111
 41
0.0111111
  0
SEQEND
 8
0
  0
POLYLINE
  8
0
 62
     0
 66
     1
 10
0
 20
0
 30
0.0
 40
0.8
 41
0.8
  0
VERTEX
  8
0
 10
5.65386
 20
3.70632
 30
0.0
 40
0.0111111
 41
0.0111111
  0
VERTEX
  8
0
 10
5.65386
 20
0.320529
 30
0.0
 40
0.0111111
 41
0.0111111
  0
SEQEND
 8
0
  0
POLYLINE
  8
0
 62
     0
 66
     1
 10
0
 20
0
 30
0.0
 40
0.8
 41
0.8
  0
VERTEX
  8
0
 10
5.65386
 20
0.320529
 30
0.0
 40
0.0111111
 41
0.0111111
  0
VERTEX
  8
0
 10
5.71289
 20
0.320529
 30
0.0
 40
0.0111111
 41
0.0111111
  0
SEQEND
 8
0
  0
POLYLINE
  8
0
 62
     0
 66
     1
 10
0
 20
0
 30
0.0
 40
0.8
 41
0.8
  0
VERTEX
  8
0
 10
5.71289
 20
0.320529
 30
0.0
 40
0.0111111
 41
0.0111111
  0
VERTEX
  8
0
 10
5.71289
 20
3.70632
 30
0.0
 40
0.0111111
 41
0.0111111
  0
SEQEND
 8
0
  0
POLYLINE
  8
0
 62
     0
 66
     1
 10
0
 20
0
 30
0.0
 40
0.8
 41
0.8
  0
VERTEX
  8
0
 10
5.71289
 20
3.70632
 30
0.0
 40
0.0111111
 41
0.0111111
  0
VERTEX
  8
0
 10
9.6499
 20
3.70632
 30
0.0
 40
0.0111111
 41
0.0111111
  0
SEQEND
 8
0
  0
POLYLINE
  8
0
 62
     0
 66
     1
 10
0
 20
0
 30
0.0
 40
0.8
 41
0.8
  0
VERTEX
  8
0
 10
9.6499
 20
3.70632
 30
0.0
 40
0.0111111
 41
0.0111111
  0
VERTEX
  8
0
 10
9.6499
 20
0.320529
 30
0.0
 40
0.0111111
 41
0.0111111
  0
SEQEND
 8
0
  0
POLYLINE
  8
0
 62
     0
 66
     1
 10
0
 20
0
 30
0.0
 40
0.8
 41
0.8
  0
VERTEX
  8
0
 10
9.6499
 20
0.320529
 30
0.0
 40
0.0111111
 41
0.0111111
  0
VERTEX
  8
0
 10
9.70899
 20
0.320529
 30
0.0
 40
0.0111111
 41
0.0111111
  0
SEQEND
 8
0
  0
POLYLINE
  8
0
 62
     0
 66
     1
 10
0
 20
0
 30
0.0
 40
0.8
 41
0.8
  0
VERTEX
  8
0
 10
9.70899
 20
0.320529
 30
0.0
 40
0.0111111
 41
0.0111111
  0
VERTEX
  8
0
 10
9.70899
 20
3.70632
 30
0.0
 40
0.0111111
 41
0.0111111
  0
SEQEND
 8
0
  0
POLYLINE
  8
0
 62
     0
 66
     1
 10
0
 20
0
 30
0.0
 40
0.8
 41
0.8
  0
VERTEX
  8
0
 10
9.70899
 20
3.70632
 30
0.0
 40
0.0111111
 41
0.0111111
  0
VERTEX
  8
0
 10
9.90582
 20
3.70632
 30
0.0
 40
0.0111111
 41
0.0111111
  0
SEQEND
 8
0
  0
POLYLINE
  8
0
 62
     0
 66
     1
 10
0
 20
0
 30
0.0
 40
0.8
 41
0.8
  0
VERTEX
  8
0
 10
9.90582
 20
3.70632
 30
0.0
 40
0.0111111
 41
0.0111111
  0
VERTEX
  8
0
 10
9.90582
 20
3.70611
 30
0.0
 40
0.0111111
 41
0.0111111
  0
SEQEND
 8
0
  0
POLYLINE
  8
0
 62
     0
 66
     1
 10
0
 20
0
 30
0.0
 40
0.8
 41
0.8
  0
VERTEX
  8
0
 10
9.90582
 20
3.70611
 30
0.0
 40
0.0111111
 41
0.0111111
  0
VERTEX
  8
0
 10
9.91319
 20
3.70611
 30
0.0
 40
0.0111111
 41
0.0111111
  0
SEQEND
 8
0
  0
POLYLINE
  8
0
 62
     0
 66
     1
 10
0
 20
0
 30
0.0
 40
0.8
 41
0.8
  0
VERTEX
  8
0
 10
9.91319
 20
3.70611
 30
0.0
 40
0.0111111
 41
0.0111111
  0
VERTEX
  8
0
 10
9.92794
 20
3.70426
 30
0.0
 40
0.0111111
 41
0.0111111
  0
SEQEND
 8
0
  0
POLYLINE
  8
0
 62
     0
 66
     1
 10
0
 20
0
 30
0.0
 40
0.8
 41
0.8
  0
VERTEX
  8
0
 10
9.92794
 20
3.70426
 30
0.0
 40
0.0111111
 41
0.0111111
  0
VERTEX
  8
0
 10
9.94233
 20
3.70057
 30
0.0
 40
0.0111111
 41
0.0111111
  0
SEQEND
 8
0
  0
POLYLINE
  8
0
 62
     0
 66
     1
 10
0
 20
0
 30
0.0
 40
0.8
 41
0.8
  0
VERTEX
  8
0
 10
9.94233
 20
3.70057
 30
0.0
 40
0.0111111
 41
0.0111111
  0
VERTEX
  8
0
 10
9.95611
 20
3.6951
 30
0.0
 40
0.0111111
 41
0.0111111
  0
SEQEND
 8
0
  0
POLYLINE
  8
0
 62
     0
 66
     1
 10
0
 20
0
 30
0.0
 40
0.8
 41
0.8
  0
VERTEX
  8
0
 10
9.95611
 20
3.6951
 30
0.0
 40
0.0111111
 41
0.0111111
  0
VERTEX
  8
0
 10
9.96907
 20
3.68793
 30
0.0
 40
0.0111111
 41
0.0111111
  0
SEQEND
 8
0
  0
POLYLINE
  8
0
 62
     0
 66
     1
 10
0
 20
0
 30
0.0
 40
0.8
 41
0.8
  0
VERTEX
  8
0
 10
9.96907
 20
3.68793
 30
0.0
 40
0.0111111
 41
0.0111111
  0
VERTEX
  8
0
 10
9.98112
 20
3.67925
 30
0.0
 40
0.0111111
 41
0.0111111
  0
SEQEND
 8
0
  0
POLYLINE
  8
0
 62
     0
 66
     1
 10
0
 20
0
 30
0.0
 40
0.8
 41
0.8
  0
VERTEX
  8
0
 10
9.98112
 20
3.67925
 30
0.0
 40
0.0111111
 41
0.0111111
  0
VERTEX
  8
0
 10
9.99192
 20
3.66911
 30
0.0
 40
0.0111111
 41
0.0111111
  0
SEQEND
 8
0
  0
POLYLINE
  8
0
 62
     0
 66
     1
 10
0
 20
0
 30
0.0
 40
0.8
 41
0.8
  0
VERTEX
  8
0
 10
9.99192
 20
3.66911
 30
0.0
 40
0.0111111
 41
0.0111111
  0
VERTEX
  8
0
 10
10.0014
 20
3.65767
 30
0.0
 40
0.0111111
 41
0.0111111
  0
SEQEND
 8
0
  0
POLYLINE
  8
0
 62
     0
 66
     1
 10
0
 20
0
 30
0.0
 40
0.8
 41
0.8
  0
VERTEX
  8
0
 10
10.0014
 20
3.65767
 30
0.0
 40
0.0111111
 41
0.0111111
  0
VERTEX
  8
0
 10
10.0093
 20
3.64513
 30
0.0
 40
0.0111111
 41
0.0111111
  0
SEQEND
 8
0
  0
POLYLINE
  8
0
 62
     0
 66
     1
 10
0
 20
0
 30
0.0
 40
0.8
 41
0.8
  0
VERTEX
  8
0
 10
10.0093
 20
3.64513
 30
0.0
 40
0.0111111
 41
0.0111111
  0
VERTEX
  8
0
 10
10.0156
 20
3.63167
 30
0.0
 40
0.0111111
 41
0.0111111
  0
SEQEND
 8
0
  0
POLYLINE
  8
0
 62
     0
 66
     1
 10
0
 20
0
 30
0.0
 40
0.8
 41
0.8
  0
VERTEX
  8
0
 10
10.0156
 20
3.63167
 30
0.0
 40
0.0111111
 41
0.0111111
  0
VERTEX
  8
0
 10
10.0202
 20
3.61762
 30
0.0
 40
0.0111111
 41
0.0111111
  0
SEQEND
 8
0
  0
POLYLINE
  8
0
 62
     0
 66
     1
 10
0
 20
0
 30
0.0
 40
0.8
 41
0.8
  0
VERTEX
  8
0
 10
10.0202
 20
3.61762
 30
0.0
 40
0.0111111
 41
0.0111111
  0
VERTEX
  8
0
 10
10.023
 20
3.60303
 30
0.0
 40
0.0111111
 41
0.0111111
  0
SEQEND
 8
0
  0
POLYLINE
  8
0
 62
     0
 66
     1
 10
0
 20
0
 30
0.0
 40
0.8
 41
0.8
  0
VERTEX
  8
0
 10
10.023
 20
3.60303
 30
0.0
 40
0.0111111
 41
0.0111111
  0
VERTEX
  8
0
 10
10.0239
 20
3.58822
 30
0.0
 40
0.0111111
 41
0.0111111
  0
SEQEND
 8
0
  0
POLYLINE
  8
0
 62
     0
 66
     1
 10
0
 20
0
 30
0.0
 40
0.8
 41
0.8
  0
VERTEX
  8
0
 10
10.0239
 20
3.58822
 30
0.0
 40
0.0111111
 41
0.0111111
  0
VERTEX
  8
0
 10
10.0239
 20
0.123644
 30
0.0
 40
0.0111111
 41
0.0111111
  0
SEQEND
 8
0
  0
POLYLINE
  8
0
 62
     0
 66
     1
 10
0
 20
0
 30
0.0
 40
0.8
 41
0.8
  0
VERTEX
  8
0
 10
10.0239
 20
0.123644
 30
0.0
 40
0.0111111
 41
0.0111111
  0
VERTEX
  8
0
 10
10.023
 20
0.108887
 30
0.0
 40
0.0111111
 41
0.0111111
  0
SEQEND
 8
0
  0
POLYLINE
  8
0
 62
     0
 66
     1
 10
0
 20
0
 30
0.0
 40
0.8
 41
0.8
  0
VERTEX
  8
0
 10
10.023
 20
0.108887
 30
0.0
 40
0.0111111
 41
0.0111111
  0
VERTEX
  8
0
 10
10.0202
 20
0.0942925
 30
0.0
 40
0.0111111
 41
0.0111111
  0
SEQEND
 8
0
  0
POLYLINE
  8
0
 62
     0
 66
     1
 10
0
 20
0
 30
0.0
 40
0.8
 41
0.8
  0
VERTEX
  8
0
 10
10.0202
 20
0.0942925
 30
0.0
 40
0.0111111
 41
0.0111111
  0
VERTEX
  8
0
 10
10.0156
 20
0.0801867
 30
0.0
 40
0.0111111
 41
0.0111111
  0
SEQEND
 8
0
  0
POLYLINE
  8
0
 62
     0
 66
     1
 10
0
 20
0
 30
0.0
 40
0.8
 41
0.8
  0
VERTEX
  8
0
 10
10.0156
 20
0.0801867
 30
0.0
 40
0.0111111
 41
0.0111111
  0
VERTEX
  8
0
 10
10.0093
 20
0.066786
 30
0.0
 40
0.0111111
 41
0.0111111
  0
SEQEND
 8
0
  0
POLYLINE
  8
0
 62
     0
 66
     1
 10
0
 20
0
 30
0.0
 40
0.8
 41
0.8
  0
VERTEX
  8
0
 10
10.0093
 20
0.066786
 30
0.0
 40
0.0111111
 41
0.0111111
  0
VERTEX
  8
0
 10
10.0014
 20
0.0542535
 30
0.0
 40
0.0111111
 41
0.0111111
  0
SEQEND
 8
0
  0
POLYLINE
  8
0
 62
     0
 66
     1
 10
0
 20
0
 30
0.0
 40
0.8
 41
0.8
  0
VERTEX
  8
0
 10
10.0014
 20
0.0542535
 30
0.0
 40
0.0111111
 41
0.0111111
  0
VERTEX
  8
0
 10
9.99192
 20
0.042806
 30
0.0
 40
0.0111111
 41
0.0111111
  0
SEQEND
 8
0
  0
POLYLINE
  8
0
 62
     0
 66
     1
 10
0
 20
0
 30
0.0
 40
0.8
 41
0.8
  0
VERTEX
  8
0
 10
9.99192
 20
0.042806
 30
0.0
 40
0.0111111
 41
0.0111111
  0
VERTEX
  8
0
 10
9.98112
 20
0.0326606
 30
0.0
 40
0.0111111
 41
0.0111111
  0
SEQEND
 8
0
  0
POLYLINE
  8
0
 62
     0
 66
     1
 10
0
 20
0
 30
0.0
 40
0.8
 41
0.8
  0
VERTEX
  8
0
 10
9.98112
 20
0.0326606
 30
0.0
 40
0.0111111
 41
0.0111111
  0
VERTEX
  8
0
 10
9.96907
 20
0.0239258
 30
0.0
 40
0.0111111
 41
0.0111111
  0
SEQEND
 8
0
  0
POLYLINE
  8
0
 62
     0
 66
     1
 10
0
 20
0
 30
0.0
 40
0.8
 41
0.8
  0
VERTEX
  8
0
 10
9.96907
 20
0.0239258
 30
0.0
 40
0.0111111
 41
0.0111111
  0
VERTEX
  8
0
 10
9.95611
 20
0.0168186
 30
0.0
 40
0.0111111
 41
0.0111111
  0
SEQEND
 8
0
  0
POLYLINE
  8
0
 62
     0
 66
     1
 10
0
 20
0
 30
0.0
 40
0.8
 41
0.8
  0
VERTEX
  8
0
 10
9.95611
 20
0.0168186
 30
0.0
 40
0.0111111
 41
0.0111111
  0
VERTEX
  8
0
 10
9.94233
 20
0.011339
 30
0.0
 40
0.0111111
 41
0.0111111
  0
SEQEND
 8
0
  0
POLYLINE
  8
0
 62
     0
 66
     1
 10
0
 20
0
 30
0.0
 40
0.8
 41
0.8
  0
VERTEX
  8
0
 10
9.94233
 20
0.011339
 30
0.0
 40
0.0111111
 41
0.0111111
  0
VERTEX
  8
0
 10
9.92794
 20
0.00764974
 30
0.0
 40
0.0111111
 41
0.0111111
  0
SEQEND
 8
0
  0
POLYLINE
  8
0
 62
     0
 66
     1
 10
0
 20
0
 30
0.0
 40
0.8
 41
0.8
  0
VERTEX
  8
0
 10
9.92794
 20
0.00764974
 30
0.0
 40
0.0111111
 41
0.0111111
  0
VERTEX
  8
0
 10
9.91319
 20
0.00580512
 30
0.0
 40
0.0111111
 41
0.0111111
  0
SEQEND
 8
0
  0
POLYLINE
  8
0
 62
     0
 66
     1
 10
0
 20
0
 30
0.0
 40
0.8
 41
0.8
  0
VERTEX
  8
0
 10
9.91319
 20
0.00580512
 30
0.0
 40
0.0111111
 41
0.0111111
  0
VERTEX
  8
0
 10
9.90582
 20
0.00580512
 30
0.0
 40
0.0111111
 41
0.0111111
  0
SEQEND
 8
0
  0
POLYLINE
  8
0
 62
     0
 66
     1
 10
0
 20
0
 30
0.0
 40
0.8
 41
0.8
  0
VERTEX
  8
0
 10
9.90582
 20
0.00580512
 30
0.0
 40
0.0111111
 41
0.0111111
  0
VERTEX
  8
0
 10
9.90582
 20
0.00553386
 30
0.0
 40
0.0111111
 41
0.0111111
  0
SEQEND
 8
0
  0
POLYLINE
  8
0
 62
     0
 66
     1
 10
0
 20
0
 30
0.0
 40
0.8
 41
0.8
  0
VERTEX
  8
0
 10
9.90582
 20
0.00553386
 30
0.0
 40
0.0111111
 41
0.0111111
  0
VERTEX
  8
0
 10
5.45697
 20
0.00553386
 30
0.0
 40
0.0111111
 41
0.0111111
  0
SEQEND
 8
0
  0
POLYLINE
  8
0
 62
     0
 66
     1
 10
0
 20
0
 30
0.0
 40
0.8
 41
0.8
  0
VERTEX
  8
0
 10
5.45697
 20
0.00553386
 30
0.0
 40
0.0111111
 41
0.0111111
  0
VERTEX
  8
0
 10
5.45697
 20
0.00580512
 30
0.0
 40
0.0111111
 41
0.0111111
  0
SEQEND
 8
0
  0
POLYLINE
  8
0
 62
     0
 66
     1
 10
0
 20
0
 30
0.0
 40
0.8
 41
0.8
  0
VERTEX
  8
0
 10
5.45697
 20
0.00580512
 30
0.0
 40
0.0111111
 41
0.0111111
  0
VERTEX
  8
0
 10
5.4496
 20
0.00580512
 30
0.0
 40
0.0111111
 41
0.0111111
  0
SEQEND
 8
0
  0
POLYLINE
  8
0
 62
     0
 66
     1
 10
0
 20
0
 30
0.0
 40
0.8
 41
0.8
  0
VERTEX
  8
0
 10
5.4496
 20
0.00580512
 30
0.0
 40
0.0111111
 41
0.0111111
  0
VERTEX
  8
0
 10
5.43489
 20
0.00764974
 30
0.0
 40
0.0111111
 41
0.0111111
  0
SEQEND
 8
0
  0
POLYLINE
  8
0
 62
     0
 66
     1
 10
0
 20
0
 30
0.0
 40
0.8
 41
0.8
  0
VERTEX
  8
0
 10
5.43489
 20
0.00764974
 30
0.0
 40
0.0111111
 41
0.0111111
  0
VERTEX
  8
0
 10
5.42051
 20
0.011339
 30
0.0
 40
0.0111111
 41
0.0111111
  0
SEQEND
 8
0
  0
POLYLINE
  8
0
 62
     0
 66
     1
 10
0
 20
0
 30
0.0
 40
0.8
 41
0.8
  0
VERTEX
  8
0
 10
5.42051
 20
0.011339
 30
0.0
 40
0.0111111
 41
0.0111111
  0
VERTEX
  8
0
 10
5.40674
 20
0.0168186
 30
0.0
 40
0.0111111
 41
0.0111111
  0
SEQEND
 8
0
  0
POLYLINE
  8
0
 62
     0
 66
     1
 10
0
 20
0
 30
0.0
 40
0.8
 41
0.8
  0
VERTEX
  8
0
 10
5.40674
 20
0.0168186
 30
0.0
 40
0.0111111
 41
0.0111111
  0
VERTEX
  8
0
 10
5.39372
 20
0.0239258
 30
0.0
 40
0.0111111
 41
0.0111111
  0
SEQEND
 8
0
  0
POLYLINE
  8
0
 62
     0
 66
     1
 10
0
 20
0
 30
0.0
 40
0.8
 41
0.8
  0
VERTEX
  8
0
 10
5.39372
 20
0.0239258
 30
0.0
 40
0.0111111
 41
0.0111111
  0
VERTEX
  8
0
 10
5.38172
 20
0.0326606
 30
0.0
 40
0.0111111
 41
0.0111111
  0
SEQEND
 8
0
  0
POLYLINE
  8
0
 62
     0
 66
     1
 10
0
 20
0
 30
0.0
 40
0.8
 41
0.8
  0
VERTEX
  8
0
 10
5.38172
 20
0.0326606
 30
0.0
 40
0.0111111
 41
0.0111111
  0
VERTEX
  8
0
 10
5.37088
 20
0.042806
 30
0.0
 40
0.0111111
 41
0.0111111
  0
SEQEND
 8
0
  0
POLYLINE
  8
0
 62
     0
 66
     1
 10
0
 20
0
 30
0.0
 40
0.8
 41
0.8
  0
VERTEX
  8
0
 10
5.37088
 20
0.042806
 30
0.0
 40
0.0111111
 41
0.0111111
  0
VERTEX
  8
0
 10
5.36143
 20
0.0542535
 30
0.0
 40
0.0111111
 41
0.0111111
  0
SEQEND
 8
0
  0
POLYLINE
  8
0
 62
     0
 66
     1
 10
0
 20
0
 30
0.0
 40
0.8
 41
0.8
  0
VERTEX
  8
0
 10
5.36143
 20
0.0542535
 30
0.0
 40
0.0111111
 41
0.0111111
  0
VERTEX
  8
0
 10
5.35351
 20
0.066786
 30
0.0
 40
0.0111111
 41
0.0111111
  0
SEQEND
 8
0
  0
POLYLINE
  8
0
 62
     0
 66
     1
 10
0
 20
0
 30
0.0
 40
0.8
 41
0.8
  0
VERTEX
  8
0
 10
5.35351
 20
0.066786
 30
0.0
 40
0.0111111
 41
0.0111111
  0
VERTEX
  8
0
 10
5.34722
 20
0.0801867
 30
0.0
 40
0.0111111
 41
0.0111111
  0
SEQEND
 8
0
  0
POLYLINE
  8
0
 62
     0
 66
     1
 10
0
 20
0
 30
0.0
 40
0.8
 41
0.8
  0
VERTEX
  8
0
 10
5.34722
 20
0.0801867
 30
0.0
 40
0.0111111
 41
0.0111111
  0
VERTEX
  8
0
 10
5.34261
 20
0.0942925
 30
0.0
 40
0.0111111
 41
0.0111111
  0
SEQEND
 8
0
  0
POLYLINE
  8
0
 62
     0
 66
     1
 10
0
 20
0
 30
0.0
 40
0.8
 41
0.8
  0
VERTEX
  8
0
 10
5.34261
 20
0.0942925
 30
0.0
 40
0.0111111
 41
0.0111111
  0
VERTEX
  8
0
 10
5.33985
 20
0.108887
 30
0.0
 40
0.0111111
 41
0.0111111
  0
SEQEND
 8
0
  0
POLYLINE
  8
0
 62
     0
 66
     1
 10
0
 20
0
 30
0.0
 40
0.8
 41
0.8
  0
VERTEX
  8
0
 10
5.33985
 20
0.108887
 30
0.0
 40
0.0111111
 41
0.0111111
  0
VERTEX
  8
0
 10
5.33886
 20
0.123644
 30
0.0
 40
0.0111111
 41
0.0111111
  0
SEQEND
 8
0
  0
POLYLINE
  8
0
 62
     0
 66
     1
 10
0
 20
0
 30
0.0
 40
0.8
 41
0.8
  0
VERTEX
  8
0
 10
5.42942
 20
0.163032
 30
0.0
 40
0.0111111
 41
0.0111111
  0
VERTEX
  8
0
 10
5.42996
 20
0.171442
 30
0.0
 40
0.0111111
 41
0.0111111
  0
SEQEND
 8
0
  0
POLYLINE
  8
0
 62
     0
 66
     1
 10
0
 20
0
 30
0.0
 40
0.8
 41
0.8
  0
VERTEX
  8
0
 10
5.42996
 20
0.171442
 30
0.0
 40
0.0111111
 41
0.0111111
  0
VERTEX
  8
0
 10
5.43153
 20
0.179688
 30
0.0
 40
0.0111111
 41
0.0111111
  0
SEQEND
 8
0
  0
POLYLINE
  8
0
 62
     0
 66
     1
 10
0
 20
0
 30
0.0
 40
0.8
 41
0.8
  0
VERTEX
  8
0
 10
5.43153
 20
0.179688
 30
0.0
 40
0.0111111
 41
0.0111111
  0
VERTEX
  8
0
 10
5.43414
 20
0.187662
 30
0.0
 40
0.0111111
 41
0.0111111
  0
SEQEND
 8
0
  0
POLYLINE
  8
0
 62
     0
 66
     1
 10
0
 20
0
 30
0.0
 40
0.8
 41
0.8
  0
VERTEX
  8
0
 10
5.43414
 20
0.187662
 30
0.0
 40
0.0111111
 41
0.0111111
  0
VERTEX
  8
0
 10
5.43772
 20
0.195258
 30
0.0
 40
0.0111111
 41
0.0111111
  0
SEQEND
 8
0
  0
POLYLINE
  8
0
 62
     0
 66
     1
 10
0
 20
0
 30
0.0
 40
0.8
 41
0.8
  0
VERTEX
  8
0
 10
5.43772
 20
0.195258
 30
0.0
 40
0.0111111
 41
0.0111111
  0
VERTEX
  8
0
 10
5.44222
 20
0.202365
 30
0.0
 40
0.0111111
 41
0.0111111
  0
SEQEND
 8
0
  0
POLYLINE
  8
0
 62
     0
 66
     1
 10
0
 20
0
 30
0.0
 40
0.8
 41
0.8
  0
VERTEX
  8
0
 10
5.44222
 20
0.202365
 30
0.0
 40
0.0111111
 41
0.0111111
  0
VERTEX
  8
0
 10
5.4476
 20
0.208876
 30
0.0
 40
0.0111111
 41
0.0111111
  0
SEQEND
 8
0
  0
POLYLINE
  8
0
 62
     0
 66
     1
 10
0
 20
0
 30
0.0
 40
0.8
 41
0.8
  0
VERTEX
  8
0
 10
5.4476
 20
0.208876
 30
0.0
 40
0.0111111
 41
0.0111111
  0
VERTEX
  8
0
 10
5.45367
 20
0.214626
 30
0.0
 40
0.0111111
 41
0.0111111
  0
SEQEND
 8
0
  0
POLYLINE
  8
0
 62
     0
 66
     1
 10
0
 20
0
 30
0.0
 40
0.8
 41
0.8
  0
VERTEX
  8
0
 10
5.45367
 20
0.214626
 30
0.0
 40
0.0111111
 41
0.0111111
  0
VERTEX
  8
0
 10
5.4605
 20
0.21951
 30
0.0
 40
0.0111111
 41
0.0111111
  0
SEQEND
 8
0
  0
POLYLINE
  8
0
 62
     0
 66
     1
 10
0
 20
0
 30
0.0
 40
0.8
 41
0.8
  0
VERTEX
  8
0
 10
5.4605
 20
0.21951
 30
0.0
 40
0.0111111
 41
0.0111111
  0
VERTEX
  8
0
 10
5.46789
 20
0.223579
 30
0.0
 40
0.0111111
 41
0.0111111
  0
SEQEND
 8
0
  0
POLYLINE
  8
0
 62
     0
 66
     1
 10
0
 20
0
 30
0.0
 40
0.8
 41
0.8
  0
VERTEX
  8
0
 10
5.46789
 20
0.223579
 30
0.0
 40
0.0111111
 41
0.0111111
  0
VERTEX
  8
0
 10
5.47569
 20
0.226671
 30
0.0
 40
0.0111111
 41
0.0111111
  0
SEQEND
 8
0
  0
POLYLINE
  8
0
 62
     0
 66
     1
 10
0
 20
0
 30
0.0
 40
0.8
 41
0.8
  0
VERTEX
  8
0
 10
5.47569
 20
0.226671
 30
0.0
 40
0.0111111
 41
0.0111111
  0
VERTEX
  8
0
 10
5.48383
 20
0.228788
 30
0.0
 40
0.0111111
 41
0.0111111
  0
SEQEND
 8
0
  0
POLYLINE
  8
0
 62
     0
 66
     1
 10
0
 20
0
 30
0.0
 40
0.8
 41
0.8
  0
VERTEX
  8
0
 10
5.48383
 20
0.228788
 30
0.0
 40
0.0111111
 41
0.0111111
  0
VERTEX
  8
0
 10
5.49214
 20
0.229872
 30
0.0
 40
0.0111111
 41
0.0111111
  0
SEQEND
 8
0
  0
POLYLINE
  8
0
 62
     0
 66
     1
 10
0
 20
0
 30
0.0
 40
0.8
 41
0.8
  0
VERTEX
  8
0
 10
5.49214
 20
0.229872
 30
0.0
 40
0.0111111
 41
0.0111111
  0
VERTEX
  8
0
 10
5.5006
 20
0.229872
 30
0.0
 40
0.0111111
 41
0.0111111
  0
SEQEND
 8
0
  0
POLYLINE
  8
0
 62
     0
 66
     1
 10
0
 20
0
 30
0.0
 40
0.8
 41
0.8
  0
VERTEX
  8
0
 10
5.5006
 20
0.229872
 30
0.0
 40
0.0111111
 41
0.0111111
  0
VERTEX
  8
0
 10
5.50896
 20
0.228788
 30
0.0
 40
0.0111111
 41
0.0111111
  0
SEQEND
 8
0
  0
POLYLINE
  8
0
 62
     0
 66
     1
 10
0
 20
0
 30
0.0
 40
0.8
 41
0.8
  0
VERTEX
  8
0
 10
5.50896
 20
0.228788
 30
0.0
 40
0.0111111
 41
0.0111111
  0
VERTEX
  8
0
 10
5.51704
 20
0.226671
 30
0.0
 40
0.0111111
 41
0.0111111
  0
SEQEND
 8
0
  0
POLYLINE
  8
0
 62
     0
 66
     1
 10
0
 20
0
 30
0.0
 40
0.8
 41
0.8
  0
VERTEX
  8
0
 10
5.51704
 20
0.226671
 30
0.0
 40
0.0111111
 41
0.0111111
  0
VERTEX
  8
0
 10
5.52485
 20
0.223579
 30
0.0
 40
0.0111111
 41
0.0111111
  0
SEQEND
 8
0
  0
POLYLINE
  8
0
 62
     0
 66
     1
 10
0
 20
0
 30
0.0
 40
0.8
 41
0.8
  0
VERTEX
  8
0
 10
5.52485
 20
0.223579
 30
0.0
 40
0.0111111
 41
0.0111111
  0
VERTEX
  8
0
 10
5.53222
 20
0.21951
 30
0.0
 40
0.0111111
 41
0.0111111
  0
SEQEND
 8
0
  0
POLYLINE
  8
0
 62
     0
 66
     1
 10
0
 20
0
 30
0.0
 40
0.8
 41
0.8
  0
VERTEX
  8
0
 10
5.53222
 20
0.21951
 30
0.0
 40
0.0111111
 41
0.0111111
  0
VERTEX
  8
0
 10
5.53906
 20
0.214626
 30
0.0
 40
0.0111111
 41
0.0111111
  0
SEQEND
 8
0
  0
POLYLINE
  8
0
 62
     0
 66
     1
 10
0
 20
0
 30
0.0
 40
0.8
 41
0.8
  0
VERTEX
  8
0
 10
5.53906
 20
0.214626
 30
0.0
 40
0.0111111
 41
0.0111111
  0
VERTEX
  8
0
 10
5.54514
 20
0.208876
 30
0.0
 40
0.0111111
 41
0.0111111
  0
SEQEND
 8
0
  0
POLYLINE
  8
0
 62
     0
 66
     1
 10
0
 20
0
 30
0.0
 40
0.8
 41
0.8
  0
VERTEX
  8
0
 10
5.54514
 20
0.208876
 30
0.0
 40
0.0111111
 41
0.0111111
  0
VERTEX
  8
0
 10
5.55051
 20
0.202365
 30
0.0
 40
0.0111111
 41
0.0111111
  0
SEQEND
 8
0
  0
POLYLINE
  8
0
 62
     0
 66
     1
 10
0
 20
0
 30
0.0
 40
0.8
 41
0.8
  0
VERTEX
  8
0
 10
5.55051
 20
0.202365
 30
0.0
 40
0.0111111
 41
0.0111111
  0
VERTEX
  8
0
 10
5.55501
 20
0.195258
 30
0.0
 40
0.0111111
 41
0.0111111
  0
SEQEND
 8
0
  0
POLYLINE
  8
0
 62
     0
 66
     1
 10
0
 20
0
 30
0.0
 40
0.8
 41
0.8
  0
VERTEX
  8
0
 10
5.55501
 20
0.195258
 30
0.0
 40
0.0111111
 41
0.0111111
  0
VERTEX
  8
0
 10
5.5586
 20
0.187662
 30
0.0
 40
0.0111111
 41
0.0111111
  0
SEQEND
 8
0
  0
POLYLINE
  8
0
 62
     0
 66
     1
 10
0
 20
0
 30
0.0
 40
0.8
 41
0.8
  0
VERTEX
  8
0
 10
5.5586
 20
0.187662
 30
0.0
 40
0.0111111
 41
0.0111111
  0
VERTEX
  8
0
 10
5.56119
 20
0.179688
 30
0.0
 40
0.0111111
 41
0.0111111
  0
SEQEND
 8
0
  0
POLYLINE
  8
0
 62
     0
 66
     1
 10
0
 20
0
 30
0.0
 40
0.8
 41
0.8
  0
VERTEX
  8
0
 10
5.56119
 20
0.179688
 30
0.0
 40
0.0111111
 41
0.0111111
  0
VERTEX
  8
0
 10
5.56278
 20
0.171442
 30
0.0
 40
0.0111111
 41
0.0111111
  0
SEQEND
 8
0
  0
POLYLINE
  8
0
 62
     0
 66
     1
 10
0
 20
0
 30
0.0
 40
0.8
 41
0.8
  0
VERTEX
  8
0
 10
5.56278
 20
0.171442
 30
0.0
 40
0.0111111
 41
0.0111111
  0
VERTEX
  8
0
 10
5.56332
 20
0.163032
 30
0.0
 40
0.0111111
 41
0.0111111
  0
SEQEND
 8
0
  0
POLYLINE
  8
0
 62
     0
 66
     1
 10
0
 20
0
 30
0.0
 40
0.8
 41
0.8
  0
VERTEX
  8
0
 10
5.56332
 20
0.163032
 30
0.0
 40
0.0111111
 41
0.0111111
  0
VERTEX
  8
0
 10
5.56278
 20
0.154676
 30
0.0
 40
0.0111111
 41
0.0111111
  0
SEQEND
 8
0
  0
POLYLINE
  8
0
 62
     0
 66
     1
 10
0
 20
0
 30
0.0
 40
0.8
 41
0.8
  0
VERTEX
  8
0
 10
5.56278
 20
0.154676
 30
0.0
 40
0.0111111
 41
0.0111111
  0
VERTEX
  8
0
 10
5.56119
 20
0.146376
 30
0.0
 40
0.0111111
 41
0.0111111
  0
SEQEND
 8
0
  0
POLYLINE
  8
0
 62
     0
 66
     1
 10
0
 20
0
 30
0.0
 40
0.8
 41
0.8
  0
VERTEX
  8
0
 10
5.56119
 20
0.146376
 30
0.0
 40
0.0111111
 41
0.0111111
  0
VERTEX
  8
0
 10
5.5586
 20
0.138401
 30
0.0
 40
0.0111111
 41
0.0111111
  0
SEQEND
 8
0
  0
POLYLINE
  8
0
 62
     0
 66
     1
 10
0
 20
0
 30
0.0
 40
0.8
 41
0.8
  0
VERTEX
  8
0
 10
5.5586
 20
0.138401
 30
0.0
 40
0.0111111
 41
0.0111111
  0
VERTEX
  8
0
 10
5.55501
 20
0.130805
 30
0.0
 40
0.0111111
 41
0.0111111
  0
SEQEND
 8
0
  0
POLYLINE
  8
0
 62
     0
 66
     1
 10
0
 20
0
 30
0.0
 40
0.8
 41
0.8
  0
VERTEX
  8
0
 10
5.55501
 20
0.130805
 30
0.0
 40
0.0111111
 41
0.0111111
  0
VERTEX
  8
0
 10
5.55051
 20
0.123698
 30
0.0
 40
0.0111111
 41
0.0111111
  0
SEQEND
 8
0
  0
POLYLINE
  8
0
 62
     0
 66
     1
 10
0
 20
0
 30
0.0
 40
0.8
 41
0.8
  0
VERTEX
  8
0
 10
5.55051
 20
0.123698
 30
0.0
 40
0.0111111
 41
0.0111111
  0
VERTEX
  8
0
 10
5.54514
 20
0.117188
 30
0.0
 40
0.0111111
 41
0.0111111
  0
SEQEND
 8
0
  0
POLYLINE
  8
0
 62
     0
 66
     1
 10
0
 20
0
 30
0.0
 40
0.8
 41
0.8
  0
VERTEX
  8
0
 10
5.54514
 20
0.117188
 30
0.0
 40
0.0111111
 41
0.0111111
  0
VERTEX
  8
0
 10
5.53906
 20
0.111437
 30
0.0
 40
0.0111111
 41
0.0111111
  0
SEQEND
 8
0
  0
POLYLINE
  8
0
 62
     0
 66
     1
 10
0
 20
0
 30
0.0
 40
0.8
 41
0.8
  0
VERTEX
  8
0
 10
5.53906
 20
0.111437
 30
0.0
 40
0.0111111
 41
0.0111111
  0
VERTEX
  8
0
 10
5.53222
 20
0.106554
 30
0.0
 40
0.0111111
 41
0.0111111
  0
SEQEND
 8
0
  0
POLYLINE
  8
0
 62
     0
 66
     1
 10
0
 20
0
 30
0.0
 40
0.8
 41
0.8
  0
VERTEX
  8
0
 10
5.53222
 20
0.106554
 30
0.0
 40
0.0111111
 41
0.0111111
  0
VERTEX
  8
0
 10
5.52485
 20
0.102485
 30
0.0
 40
0.0111111
 41
0.0111111
  0
SEQEND
 8
0
  0
POLYLINE
  8
0
 62
     0
 66
     1
 10
0
 20
0
 30
0.0
 40
0.8
 41
0.8
  0
VERTEX
  8
0
 10
5.52485
 20
0.102485
 30
0.0
 40
0.0111111
 41
0.0111111
  0
VERTEX
  8
0
 10
5.51704
 20
0.0993924
 30
0.0
 40
0.0111111
 41
0.0111111
  0
SEQEND
 8
0
  0
POLYLINE
  8
0
 62
     0
 66
     1
 10
0
 20
0
 30
0.0
 40
0.8
 41
0.8
  0
VERTEX
  8
0
 10
5.51704
 20
0.0993924
 30
0.0
 40
0.0111111
 41
0.0111111
  0
VERTEX
  8
0
 10
5.50896
 20
0.0972765
 30
0.0
 40
0.0111111
 41
0.0111111
  0
SEQEND
 8
0
  0
POLYLINE
  8
0
 62
     0
 66
     1
 10
0
 20
0
 30
0.0
 40
0.8
 41
0.8
  0
VERTEX
  8
0
 10
5.50896
 20
0.0972765
 30
0.0
 40
0.0111111
 41
0.0111111
  0
VERTEX
  8
0
 10
5.5006
 20
0.0962457
 30
0.0
 40
0.0111111
 41
0.0111111
  0
SEQEND
 8
0
  0
POLYLINE
  8
0
 62
     0
 66
     1
 10
0
 20
0
 30
0.0
 40
0.8
 41
0.8
  0
VERTEX
  8
0
 10
5.5006
 20
0.0962457
 30
0.0
 40
0.0111111
 41
0.0111111
  0
VERTEX
  8
0
 10
5.49214
 20
0.0962457
 30
0.0
 40
0.0111111
 41
0.0111111
  0
SEQEND
 8
0
  0
POLYLINE
  8
0
 62
     0
 66
     1
 10
0
 20
0
 30
0.0
 40
0.8
 41
0.8
  0
VERTEX
  8
0
 10
5.49214
 20
0.0962457
 30
0.0
 40
0.0111111
 41
0.0111111
  0
VERTEX
  8
0
 10
5.48383
 20
0.0972765
 30
0.0
 40
0.0111111
 41
0.0111111
  0
SEQEND
 8
0
  0
POLYLINE
  8
0
 62
     0
 66
     1
 10
0
 20
0
 30
0.0
 40
0.8
 41
0.8
  0
VERTEX
  8
0
 10
5.48383
 20
0.0972765
 30
0.0
 40
0.0111111
 41
0.0111111
  0
VERTEX
  8
0
 10
5.47569
 20
0.0993924
 30
0.0
 40
0.0111111
 41
0.0111111
  0
SEQEND
 8
0
  0
POLYLINE
  8
0
 62
     0
 66
     1
 10
0
 20
0
 30
0.0
 40
0.8
 41
0.8
  0
VERTEX
  8
0
 10
5.47569
 20
0.0993924
 30
0.0
 40
0.0111111
 41
0.0111111
  0
VERTEX
  8
0
 10
5.46789
 20
0.102485
 30
0.0
 40
0.0111111
 41
0.0111111
  0
SEQEND
 8
0
  0
POLYLINE
  8
0
 62
     0
 66
     1
 10
0
 20
0
 30
0.0
 40
0.8
 41
0.8
  0
VERTEX
  8
0
 10
5.46789
 20
0.102485
 30
0.0
 40
0.0111111
 41
0.0111111
  0
VERTEX
  8
0
 10
5.4605
 20
0.106554
 30
0.0
 40
0.0111111
 41
0.0111111
  0
SEQEND
 8
0
  0
POLYLINE
  8
0
 62
     0
 66
     1
 10
0
 20
0
 30
0.0
 40
0.8
 41
0.8
  0
VERTEX
  8
0
 10
5.4605
 20
0.106554
 30
0.0
 40
0.0111111
 41
0.0111111
  0
VERTEX
  8
0
 10
5.45367
 20
0.111437
 30
0.0
 40
0.0111111
 41
0.0111111
  0
SEQEND
 8
0
  0
POLYLINE
  8
0
 62
     0
 66
     1
 10
0
 20
0
 30
0.0
 40
0.8
 41
0.8
  0
VERTEX
  8
0
 10
5.45367
 20
0.111437
 30
0.0
 40
0.0111111
 41
0.0111111
  0
VERTEX
  8
0
 10
5.4476
 20
0.117188
 30
0.0
 40
0.0111111
 41
0.0111111
  0
SEQEND
 8
0
  0
POLYLINE
  8
0
 62
     0
 66
     1
 10
0
 20
0
 30
0.0
 40
0.8
 41
0.8
  0
VERTEX
  8
0
 10
5.4476
 20
0.117188
 30
0.0
 40
0.0111111
 41
0.0111111
  0
VERTEX
  8
0
 10
5.44222
 20
0.123698
 30
0.0
 40
0.0111111
 41
0.0111111
  0
SEQEND
 8
0
  0
POLYLINE
  8
0
 62
     0
 66
     1
 10
0
 20
0
 30
0.0
 40
0.8
 41
0.8
  0
VERTEX
  8
0
 10
5.44222
 20
0.123698
 30
0.0
 40
0.0111111
 41
0.0111111
  0
VERTEX
  8
0
 10
5.43772
 20
0.130805
 30
0.0
 40
0.0111111
 41
0.0111111
  0
SEQEND
 8
0
  0
POLYLINE
  8
0
 62
     0
 66
     1
 10
0
 20
0
 30
0.0
 40
0.8
 41
0.8
  0
VERTEX
  8
0
 10
5.43772
 20
0.130805
 30
0.0
 40
0.0111111
 41
0.0111111
  0
VERTEX
  8
0
 10
5.43414
 20
0.138401
 30
0.0
 40
0.0111111
 41
0.0111111
  0
SEQEND
 8
0
  0
POLYLINE
  8
0
 62
     0
 66
     1
 10
0
 20
0
 30
0.0
 40
0.8
 41
0.8
  0
VERTEX
  8
0
 10
5.43414
 20
0.138401
 30
0.0
 40
0.0111111
 41
0.0111111
  0
VERTEX
  8
0
 10
5.43153
 20
0.146376
 30
0.0
 40
0.0111111
 41
0.0111111
  0
SEQEND
 8
0
  0
POLYLINE
  8
0
 62
     0
 66
     1
 10
0
 20
0
 30
0.0
 40
0.8
 41
0.8
  0
VERTEX
  8
0
 10
5.43153
 20
0.146376
 30
0.0
 40
0.0111111
 41
0.0111111
  0
VERTEX
  8
0
 10
5.42996
 20
0.154676
 30
0.0
 40
0.0111111
 41
0.0111111
  0
SEQEND
 8
0
  0
POLYLINE
  8
0
 62
     0
 66
     1
 10
0
 20
0
 30
0.0
 40
0.8
 41
0.8
  0
VERTEX
  8
0
 10
5.42996
 20
0.154676
 30
0.0
 40
0.0111111
 41
0.0111111
  0
VERTEX
  8
0
 10
5.42942
 20
0.163032
 30
0.0
 40
0.0111111
 41
0.0111111
  0
SEQEND
 8
0
  0
POLYLINE
  8
0
 62
     0
 66
     1
 10
0
 20
0
 30
0.0
 40
0.8
 41
0.8
  0
VERTEX
  8
0
 10
5.42942
 20
3.54889
 30
0.0
 40
0.0111111
 41
0.0111111
  0
VERTEX
  8
0
 10
5.42996
 20
3.55724
 30
0.0
 40
0.0111111
 41
0.0111111
  0
SEQEND
 8
0
  0
POLYLINE
  8
0
 62
     0
 66
     1
 10
0
 20
0
 30
0.0
 40
0.8
 41
0.8
  0
VERTEX
  8
0
 10
5.42996
 20
3.55724
 30
0.0
 40
0.0111111
 41
0.0111111
  0
VERTEX
  8
0
 10
5.43153
 20
3.56554
 30
0.0
 40
0.0111111
 41
0.0111111
  0
SEQEND
 8
0
  0
POLYLINE
  8
0
 62
     0
 66
     1
 10
0
 20
0
 30
0.0
 40
0.8
 41
0.8
  0
VERTEX
  8
0
 10
5.43153
 20
3.56554
 30
0.0
 40
0.0111111
 41
0.0111111
  0
VERTEX
  8
0
 10
5.43414
 20
3.57351
 30
0.0
 40
0.0111111
 41
0.0111111
  0
SEQEND
 8
0
  0
POLYLINE
  8
0
 62
     0
 66
     1
 10
0
 20
0
 30
0.0
 40
0.8
 41
0.8
  0
VERTEX
  8
0
 10
5.43414
 20
3.57351
 30
0.0
 40
0.0111111
 41
0.0111111
  0
VERTEX
  8
0
 10
5.43772
 20
3.58111
 30
0.0
 40
0.0111111
 41
0.0111111
  0
SEQEND
 8
0
  0
POLYLINE
  8
0
 62
     0
 66
     1
 10
0
 20
0
 30
0.0
 40
0.8
 41
0.8
  0
VERTEX
  8
0
 10
5.43772
 20
3.58111
 30
0.0
 40
0.0111111
 41
0.0111111
  0
VERTEX
  8
0
 10
5.44222
 20
3.58822
 30
0.0
 40
0.0111111
 41
0.0111111
  0
SEQEND
 8
0
  0
POLYLINE
  8
0
 62
     0
 66
     1
 10
0
 20
0
 30
0.0
 40
0.8
 41
0.8
  0
VERTEX
  8
0
 10
5.44222
 20
3.58822
 30
0.0
 40
0.0111111
 41
0.0111111
  0
VERTEX
  8
0
 10
5.4476
 20
3.59467
 30
0.0
 40
0.0111111
 41
0.0111111
  0
SEQEND
 8
0
  0
POLYLINE
  8
0
 62
     0
 66
     1
 10
0
 20
0
 30
0.0
 40
0.8
 41
0.8
  0
VERTEX
  8
0
 10
5.4476
 20
3.59467
 30
0.0
 40
0.0111111
 41
0.0111111
  0
VERTEX
  8
0
 10
5.45367
 20
3.60042
 30
0.0
 40
0.0111111
 41
0.0111111
  0
SEQEND
 8
0
  0
POLYLINE
  8
0
 62
     0
 66
     1
 10
0
 20
0
 30
0.0
 40
0.8
 41
0.8
  0
VERTEX
  8
0
 10
5.45367
 20
3.60042
 30
0.0
 40
0.0111111
 41
0.0111111
  0
VERTEX
  8
0
 10
5.4605
 20
3.60536
 30
0.0
 40
0.0111111
 41
0.0111111
  0
SEQEND
 8
0
  0
POLYLINE
  8
0
 62
     0
 66
     1
 10
0
 20
0
 30
0.0
 40
0.8
 41
0.8
  0
VERTEX
  8
0
 10
5.4605
 20
3.60536
 30
0.0
 40
0.0111111
 41
0.0111111
  0
VERTEX
  8
0
 10
5.46789
 20
3.60943
 30
0.0
 40
0.0111111
 41
0.0111111
  0
SEQEND
 8
0
  0
POLYLINE
  8
0
 62
     0
 66
     1
 10
0
 20
0
 30
0.0
 40
0.8
 41
0.8
  0
VERTEX
  8
0
 10
5.46789
 20
3.60943
 30
0.0
 40
0.0111111
 41
0.0111111
  0
VERTEX
  8
0
 10
5.47569
 20
3.61253
 30
0.0
 40
0.0111111
 41
0.0111111
  0
SEQEND
 8
0
  0
POLYLINE
  8
0
 62
     0
 66
     1
 10
0
 20
0
 30
0.0
 40
0.8
 41
0.8
  0
VERTEX
  8
0
 10
5.47569
 20
3.61253
 30
0.0
 40
0.0111111
 41
0.0111111
  0
VERTEX
  8
0
 10
5.48383
 20
3.61458
 30
0.0
 40
0.0111111
 41
0.0111111
  0
SEQEND
 8
0
  0
POLYLINE
  8
0
 62
     0
 66
     1
 10
0
 20
0
 30
0.0
 40
0.8
 41
0.8
  0
VERTEX
  8
0
 10
5.48383
 20
3.61458
 30
0.0
 40
0.0111111
 41
0.0111111
  0
VERTEX
  8
0
 10
5.49214
 20
3.61567
 30
0.0
 40
0.0111111
 41
0.0111111
  0
SEQEND
 8
0
  0
POLYLINE
  8
0
 62
     0
 66
     1
 10
0
 20
0
 30
0.0
 40
0.8
 41
0.8
  0
VERTEX
  8
0
 10
5.49214
 20
3.61567
 30
0.0
 40
0.0111111
 41
0.0111111
  0
VERTEX
  8
0
 10
5.5006
 20
3.61567
 30
0.0
 40
0.0111111
 41
0.0111111
  0
SEQEND
 8
0
  0
POLYLINE
  8
0
 62
     0
 66
     1
 10
0
 20
0
 30
0.0
 40
0.8
 41
0.8
  0
VERTEX
  8
0
 10
5.5006
 20
3.61567
 30
0.0
 40
0.0111111
 41
0.0111111
  0
VERTEX
  8
0
 10
5.50896
 20
3.61458
 30
0.0
 40
0.0111111
 41
0.0111111
  0
SEQEND
 8
0
  0
POLYLINE
  8
0
 62
     0
 66
     1
 10
0
 20
0
 30
0.0
 40
0.8
 41
0.8
  0
VERTEX
  8
0
 10
5.50896
 20
3.61458
 30
0.0
 40
0.0111111
 41
0.0111111
  0
VERTEX
  8
0
 10
5.51704
 20
3.61253
 30
0.0
 40
0.0111111
 41
0.0111111
  0
SEQEND
 8
0
  0
POLYLINE
  8
0
 62
     0
 66
     1
 10
0
 20
0
 30
0.0
 40
0.8
 41
0.8
  0
VERTEX
  8
0
 10
5.51704
 20
3.61253
 30
0.0
 40
0.0111111
 41
0.0111111
  0
VERTEX
  8
0
 10
5.52485
 20
3.60943
 30
0.0
 40
0.0111111
 41
0.0111111
  0
SEQEND
 8
0
  0
POLYLINE
  8
0
 62
     0
 66
     1
 10
0
 20
0
 30
0.0
 40
0.8
 41
0.8
  0
VERTEX
  8
0
 10
5.52485
 20
3.60943
 30
0.0
 40
0.0111111
 41
0.0111111
  0
VERTEX
  8
0
 10
5.53222
 20
3.60536
 30
0.0
 40
0.0111111
 41
0.0111111
  0
SEQEND
 8
0
  0
POLYLINE
  8
0
 62
     0
 66
     1
 10
0
 20
0
 30
0.0
 40
0.8
 41
0.8
  0
VERTEX
  8
0
 10
5.53222
 20
3.60536
 30
0.0
 40
0.0111111
 41
0.0111111
  0
VERTEX
  8
0
 10
5.53906
 20
3.60042
 30
0.0
 40
0.0111111
 41
0.0111111
  0
SEQEND
 8
0
  0
POLYLINE
  8
0
 62
     0
 66
     1
 10
0
 20
0
 30
0.0
 40
0.8
 41
0.8
  0
VERTEX
  8
0
 10
5.53906
 20
3.60042
 30
0.0
 40
0.0111111
 41
0.0111111
  0
VERTEX
  8
0
 10
5.54514
 20
3.59467
 30
0.0
 40
0.0111111
 41
0.0111111
  0
SEQEND
 8
0
  0
POLYLINE
  8
0
 62
     0
 66
     1
 10
0
 20
0
 30
0.0
 40
0.8
 41
0.8
  0
VERTEX
  8
0
 10
5.54514
 20
3.59467
 30
0.0
 40
0.0111111
 41
0.0111111
  0
VERTEX
  8
0
 10
5.55051
 20
3.58822
 30
0.0
 40
0.0111111
 41
0.0111111
  0
SEQEND
 8
0
  0
POLYLINE
  8
0
 62
     0
 66
     1
 10
0
 20
0
 30
0.0
 40
0.8
 41
0.8
  0
VERTEX
  8
0
 10
5.55051
 20
3.58822
 30
0.0
 40
0.0111111
 41
0.0111111
  0
VERTEX
  8
0
 10
5.55501
 20
3.58111
 30
0.0
 40
0.0111111
 41
0.0111111
  0
SEQEND
 8
0
  0
POLYLINE
  8
0
 62
     0
 66
     1
 10
0
 20
0
 30
0.0
 40
0.8
 41
0.8
  0
VERTEX
  8
0
 10
5.55501
 20
3.58111
 30
0.0
 40
0.0111111
 41
0.0111111
  0
VERTEX
  8
0
 10
5.5586
 20
3.57351
 30
0.0
 40
0.0111111
 41
0.0111111
  0
SEQEND
 8
0
  0
POLYLINE
  8
0
 62
     0
 66
     1
 10
0
 20
0
 30
0.0
 40
0.8
 41
0.8
  0
VERTEX
  8
0
 10
5.5586
 20
3.57351
 30
0.0
 40
0.0111111
 41
0.0111111
  0
VERTEX
  8
0
 10
5.56119
 20
3.56554
 30
0.0
 40
0.0111111
 41
0.0111111
  0
SEQEND
 8
0
  0
POLYLINE
  8
0
 62
     0
 66
     1
 10
0
 20
0
 30
0.0
 40
0.8
 41
0.8
  0
VERTEX
  8
0
 10
5.56119
 20
3.56554
 30
0.0
 40
0.0111111
 41
0.0111111
  0
VERTEX
  8
0
 10
5.56278
 20
3.55724
 30
0.0
 40
0.0111111
 41
0.0111111
  0
SEQEND
 8
0
  0
POLYLINE
  8
0
 62
     0
 66
     1
 10
0
 20
0
 30
0.0
 40
0.8
 41
0.8
  0
VERTEX
  8
0
 10
5.56278
 20
3.55724
 30
0.0
 40
0.0111111
 41
0.0111111
  0
VERTEX
  8
0
 10
5.56332
 20
3.54889
 30
0.0
 40
0.0111111
 41
0.0111111
  0
SEQEND
 8
0
  0
POLYLINE
  8
0
 62
     0
 66
     1
 10
0
 20
0
 30
0.0
 40
0.8
 41
0.8
  0
VERTEX
  8
0
 10
5.56332
 20
3.54889
 30
0.0
 40
0.0111111
 41
0.0111111
  0
VERTEX
  8
0
 10
5.56278
 20
3.54047
 30
0.0
 40
0.0111111
 41
0.0111111
  0
SEQEND
 8
0
  0
POLYLINE
  8
0
 62
     0
 66
     1
 10
0
 20
0
 30
0.0
 40
0.8
 41
0.8
  0
VERTEX
  8
0
 10
5.56278
 20
3.54047
 30
0.0
 40
0.0111111
 41
0.0111111
  0
VERTEX
  8
0
 10
5.56119
 20
3.53222
 30
0.0
 40
0.0111111
 41
0.0111111
  0
SEQEND
 8
0
  0
POLYLINE
  8
0
 62
     0
 66
     1
 10
0
 20
0
 30
0.0
 40
0.8
 41
0.8
  0
VERTEX
  8
0
 10
5.56119
 20
3.53222
 30
0.0
 40
0.0111111
 41
0.0111111
  0
VERTEX
  8
0
 10
5.5586
 20
3.52419
 30
0.0
 40
0.0111111
 41
0.0111111
  0
SEQEND
 8
0
  0
POLYLINE
  8
0
 62
     0
 66
     1
 10
0
 20
0
 30
0.0
 40
0.8
 41
0.8
  0
VERTEX
  8
0
 10
5.5586
 20
3.52419
 30
0.0
 40
0.0111111
 41
0.0111111
  0
VERTEX
  8
0
 10
5.55501
 20
3.5166
 30
0.0
 40
0.0111111
 41
0.0111111
  0
SEQEND
 8
0
  0
POLYLINE
  8
0
 62
     0
 66
     1
 10
0
 20
0
 30
0.0
 40
0.8
 41
0.8
  0
VERTEX
  8
0
 10
5.55501
 20
3.5166
 30
0.0
 40
0.0111111
 41
0.0111111
  0
VERTEX
  8
0
 10
5.55051
 20
3.50956
 30
0.0
 40
0.0111111
 41
0.0111111
  0
SEQEND
 8
0
  0
POLYLINE
  8
0
 62
     0
 66
     1
 10
0
 20
0
 30
0.0
 40
0.8
 41
0.8
  0
VERTEX
  8
0
 10
5.55051
 20
3.50956
 30
0.0
 40
0.0111111
 41
0.0111111
  0
VERTEX
  8
0
 10
5.54514
 20
3.50304
 30
0.0
 40
0.0111111
 41
0.0111111
  0
SEQEND
 8
0
  0
POLYLINE
  8
0
 62
     0
 66
     1
 10
0
 20
0
 30
0.0
 40
0.8
 41
0.8
  0
VERTEX
  8
0
 10
5.54514
 20
3.50304
 30
0.0
 40
0.0111111
 41
0.0111111
  0
VERTEX
  8
0
 10
5.53906
 20
3.49729
 30
0.0
 40
0.0111111
 41
0.0111111
  0
SEQEND
 8
0
  0
POLYLINE
  8
0
 62
     0
 66
     1
 10
0
 20
0
 30
0.0
 40
0.8
 41
0.8
  0
VERTEX
  8
0
 10
5.53906
 20
3.49729
 30
0.0
 40
0.0111111
 41
0.0111111
  0
VERTEX
  8
0
 10
5.53222
 20
3.49235
 30
0.0
 40
0.0111111
 41
0.0111111
  0
SEQEND
 8
0
  0
POLYLINE
  8
0
 62
     0
 66
     1
 10
0
 20
0
 30
0.0
 40
0.8
 41
0.8
  0
VERTEX
  8
0
 10
5.53222
 20
3.49235
 30
0.0
 40
0.0111111
 41
0.0111111
  0
VERTEX
  8
0
 10
5.52485
 20
3.48833
 30
0.0
 40
0.0111111
 41
0.0111111
  0
SEQEND
 8
0
  0
POLYLINE
  8
0
 62
     0
 66
     1
 10
0
 20
0
 30
0.0
 40
0.8
 41
0.8
  0
VERTEX
  8
0
 10
5.52485
 20
3.48833
 30
0.0
 40
0.0111111
 41
0.0111111
  0
VERTEX
  8
0
 10
5.51704
 20
3.48519
 30
0.0
 40
0.0111111
 41
0.0111111
  0
SEQEND
 8
0
  0
POLYLINE
  8
0
 62
     0
 66
     1
 10
0
 20
0
 30
0.0
 40
0.8
 41
0.8
  0
VERTEX
  8
0
 10
5.51704
 20
3.48519
 30
0.0
 40
0.0111111
 41
0.0111111
  0
VERTEX
  8
0
 10
5.50896
 20
3.48313
 30
0.0
 40
0.0111111
 41
0.0111111
  0
SEQEND
 8
0
  0
POLYLINE
  8
0
 62
     0
 66
     1
 10
0
 20
0
 30
0.0
 40
0.8
 41
0.8
  0
VERTEX
  8
0
 10
5.50896
 20
3.48313
 30
0.0
 40
0.0111111
 41
0.0111111
  0
VERTEX
  8
0
 10
5.5006
 20
3.48204
 30
0.0
 40
0.0111111
 41
0.0111111
  0
SEQEND
 8
0
  0
POLYLINE
  8
0
 62
     0
 66
     1
 10
0
 20
0
 30
0.0
 40
0.8
 41
0.8
  0
VERTEX
  8
0
 10
5.5006
 20
3.48204
 30
0.0
 40
0.0111111
 41
0.0111111
  0
VERTEX
  8
0
 10
5.49214
 20
3.48204
 30
0.0
 40
0.0111111
 41
0.0111111
  0
SEQEND
 8
0
  0
POLYLINE
  8
0
 62
     0
 66
     1
 10
0
 20
0
 30
0.0
 40
0.8
 41
0.8
  0
VERTEX
  8
0
 10
5.49214
 20
3.48204
 30
0.0
 40
0.0111111
 41
0.0111111
  0
VERTEX
  8
0
 10
5.48383
 20
3.48313
 30
0.0
 40
0.0111111
 41
0.0111111
  0
SEQEND
 8
0
  0
POLYLINE
  8
0
 62
     0
 66
     1
 10
0
 20
0
 30
0.0
 40
0.8
 41
0.8
  0
VERTEX
  8
0
 10
5.48383
 20
3.48313
 30
0.0
 40
0.0111111
 41
0.0111111
  0
VERTEX
  8
0
 10
5.47569
 20
3.48519
 30
0.0
 40
0.0111111
 41
0.0111111
  0
SEQEND
 8
0
  0
POLYLINE
  8
0
 62
     0
 66
     1
 10
0
 20
0
 30
0.0
 40
0.8
 41
0.8
  0
VERTEX
  8
0
 10
5.47569
 20
3.48519
 30
0.0
 40
0.0111111
 41
0.0111111
  0
VERTEX
  8
0
 10
5.46789
 20
3.48833
 30
0.0
 40
0.0111111
 41
0.0111111
  0
SEQEND
 8
0
  0
POLYLINE
  8
0
 62
     0
 66
     1
 10
0
 20
0
 30
0.0
 40
0.8
 41
0.8
  0
VERTEX
  8
0
 10
5.46789
 20
3.48833
 30
0.0
 40
0.0111111
 41
0.0111111
  0
VERTEX
  8
0
 10
5.4605
 20
3.49235
 30
0.0
 40
0.0111111
 41
0.0111111
  0
SEQEND
 8
0
  0
POLYLINE
  8
0
 62
     0
 66
     1
 10
0
 20
0
 30
0.0
 40
0.8
 41
0.8
  0
VERTEX
  8
0
 10
5.4605
 20
3.49235
 30
0.0
 40
0.0111111
 41
0.0111111
  0
VERTEX
  8
0
 10
5.45367
 20
3.49729
 30
0.0
 40
0.0111111
 41
0.0111111
  0
SEQEND
 8
0
  0
POLYLINE
  8
0
 62
     0
 66
     1
 10
0
 20
0
 30
0.0
 40
0.8
 41
0.8
  0
VERTEX
  8
0
 10
5.45367
 20
3.49729
 30
0.0
 40
0.0111111
 41
0.0111111
  0
VERTEX
  8
0
 10
5.4476
 20
3.50304
 30
0.0
 40
0.0111111
 41
0.0111111
  0
SEQEND
 8
0
  0
POLYLINE
  8
0
 62
     0
 66
     1
 10
0
 20
0
 30
0.0
 40
0.8
 41
0.8
  0
VERTEX
  8
0
 10
5.4476
 20
3.50304
 30
0.0
 40
0.0111111
 41
0.0111111
  0
VERTEX
  8
0
 10
5.44222
 20
3.50956
 30
0.0
 40
0.0111111
 41
0.0111111
  0
SEQEND
 8
0
  0
POLYLINE
  8
0
 62
     0
 66
     1
 10
0
 20
0
 30
0.0
 40
0.8
 41
0.8
  0
VERTEX
  8
0
 10
5.44222
 20
3.50956
 30
0.0
 40
0.0111111
 41
0.0111111
  0
VERTEX
  8
0
 10
5.43772
 20
3.5166
 30
0.0
 40
0.0111111
 41
0.0111111
  0
SEQEND
 8
0
  0
POLYLINE
  8
0
 62
     0
 66
     1
 10
0
 20
0
 30
0.0
 40
0.8
 41
0.8
  0
VERTEX
  8
0
 10
5.43772
 20
3.5166
 30
0.0
 40
0.0111111
 41
0.0111111
  0
VERTEX
  8
0
 10
5.43414
 20
3.52419
 30
0.0
 40
0.0111111
 41
0.0111111
  0
SEQEND
 8
0
  0
POLYLINE
  8
0
 62
     0
 66
     1
 10
0
 20
0
 30
0.0
 40
0.8
 41
0.8
  0
VERTEX
  8
0
 10
5.43414
 20
3.52419
 30
0.0
 40
0.0111111
 41
0.0111111
  0
VERTEX
  8
0
 10
5.43153
 20
3.53222
 30
0.0
 40
0.0111111
 41
0.0111111
  0
SEQEND
 8
0
  0
POLYLINE
  8
0
 62
     0
 66
     1
 10
0
 20
0
 30
0.0
 40
0.8
 41
0.8
  0
VERTEX
  8
0
 10
5.43153
 20
3.53222
 30
0.0
 40
0.0111111
 41
0.0111111
  0
VERTEX
  8
0
 10
5.42996
 20
3.54047
 30
0.0
 40
0.0111111
 41
0.0111111
  0
SEQEND
 8
0
  0
POLYLINE
  8
0
 62
     0
 66
     1
 10
0
 20
0
 30
0.0
 40
0.8
 41
0.8
  0
VERTEX
  8
0
 10
5.42996
 20
3.54047
 30
0.0
 40
0.0111111
 41
0.0111111
  0
VERTEX
  8
0
 10
5.42942
 20
3.54889
 30
0.0
 40
0.0111111
 41
0.0111111
  0
SEQEND
 8
0
  0
POLYLINE
  8
0
 62
     0
 66
     1
 10
0
 20
0
 30
0.0
 40
0.8
 41
0.8
  0
VERTEX
  8
0
 10
5.90978
 20
0.320529
 30
0.0
 40
0.0111111
 41
0.0111111
  0
VERTEX
  8
0
 10
5.90978
 20
0.379557
 30
0.0
 40
0.0111111
 41
0.0111111
  0
SEQEND
 8
0
  0
POLYLINE
  8
0
 62
     0
 66
     1
 10
0
 20
0
 30
0.0
 40
0.8
 41
0.8
  0
VERTEX
  8
0
 10
5.90978
 20
0.379557
 30
0.0
 40
0.0111111
 41
0.0111111
  0
VERTEX
  8
0
 10
6.30344
 20
0.379557
 30
0.0
 40
0.0111111
 41
0.0111111
  0
SEQEND
 8
0
  0
POLYLINE
  8
0
 62
     0
 66
     1
 10
0
 20
0
 30
0.0
 40
0.8
 41
0.8
  0
VERTEX
  8
0
 10
6.30344
 20
0.379557
 30
0.0
 40
0.0111111
 41
0.0111111
  0
VERTEX
  8
0
 10
6.30344
 20
0.320529
 30
0.0
 40
0.0111111
 41
0.0111111
  0
SEQEND
 8
0
  0
POLYLINE
  8
0
 62
     0
 66
     1
 10
0
 20
0
 30
0.0
 40
0.8
 41
0.8
  0
VERTEX
  8
0
 10
6.30344
 20
0.320529
 30
0.0
 40
0.0111111
 41
0.0111111
  0
VERTEX
  8
0
 10
5.90978
 20
0.320529
 30
0.0
 40
0.0111111
 41
0.0111111
  0
SEQEND
 8
0
  0
POLYLINE
  8
0
 62
     0
 66
     1
 10
0
 20
0
 30
0.0
 40
0.8
 41
0.8
  0
VERTEX
  8
0
 10
5.90978
 20
3.33231
 30
0.0
 40
0.0111111
 41
0.0111111
  0
VERTEX
  8
0
 10
5.90978
 20
3.39139
 30
0.0
 40
0.0111111
 41
0.0111111
  0
SEQEND
 8
0
  0
POLYLINE
  8
0
 62
     0
 66
     1
 10
0
 20
0
 30
0.0
 40
0.8
 41
0.8
  0
VERTEX
  8
0
 10
5.90978
 20
3.39139
 30
0.0
 40
0.0111111
 41
0.0111111
  0
VERTEX
  8
0
 10
6.30344
 20
3.39139
 30
0.0
 40
0.0111111
 41
0.0111111
  0
SEQEND
 8
0
  0
POLYLINE
  8
0
 62
     0
 66
     1
 10
0
 20
0
 30
0.0
 40
0.8
 41
0.8
  0
VERTEX
  8
0
 10
6.30344
 20
3.39139
 30
0.0
 40
0.0111111
 41
0.0111111
  0
VERTEX
  8
0
 10
6.30344
 20
3.33231
 30
0.0
 40
0.0111111
 41
0.0111111
  0
SEQEND
 8
0
  0
POLYLINE
  8
0
 62
     0
 66
     1
 10
0
 20
0
 30
0.0
 40
0.8
 41
0.8
  0
VERTEX
  8
0
 10
6.30344
 20
3.33231
 30
0.0
 40
0.0111111
 41
0.0111111
  0
VERTEX
  8
0
 10
5.90978
 20
3.33231
 30
0.0
 40
0.0111111
 41
0.0111111
  0
SEQEND
 8
0
  0
POLYLINE
  8
0
 62
     0
 66
     1
 10
0
 20
0
 30
0.0
 40
0.8
 41
0.8
  0
VERTEX
  8
0
 10
7.48454
 20
0.320529
 30
0.0
 40
0.0111111
 41
0.0111111
  0
VERTEX
  8
0
 10
7.48454
 20
0.379557
 30
0.0
 40
0.0111111
 41
0.0111111
  0
SEQEND
 8
0
  0
POLYLINE
  8
0
 62
     0
 66
     1
 10
0
 20
0
 30
0.0
 40
0.8
 41
0.8
  0
VERTEX
  8
0
 10
7.48454
 20
0.379557
 30
0.0
 40
0.0111111
 41
0.0111111
  0
VERTEX
  8
0
 10
7.87825
 20
0.379557
 30
0.0
 40
0.0111111
 41
0.0111111
  0
SEQEND
 8
0
  0
POLYLINE
  8
0
 62
     0
 66
     1
 10
0
 20
0
 30
0.0
 40
0.8
 41
0.8
  0
VERTEX
  8
0
 10
7.87825
 20
0.379557
 30
0.0
 40
0.0111111
 41
0.0111111
  0
VERTEX
  8
0
 10
7.87825
 20
0.320529
 30
0.0
 40
0.0111111
 41
0.0111111
  0
SEQEND
 8
0
  0
POLYLINE
  8
0
 62
     0
 66
     1
 10
0
 20
0
 30
0.0
 40
0.8
 41
0.8
  0
VERTEX
  8
0
 10
7.87825
 20
0.320529
 30
0.0
 40
0.0111111
 41
0.0111111
  0
VERTEX
  8
0
 10
7.48454
 20
0.320529
 30
0.0
 40
0.0111111
 41
0.0111111
  0
SEQEND
 8
0
  0
POLYLINE
  8
0
 62
     0
 66
     1
 10
0
 20
0
 30
0.0
 40
0.8
 41
0.8
  0
VERTEX
  8
0
 10
7.48454
 20
3.33231
 30
0.0
 40
0.0111111
 41
0.0111111
  0
VERTEX
  8
0
 10
7.48454
 20
3.39139
 30
0.0
 40
0.0111111
 41
0.0111111
  0
SEQEND
 8
0
  0
POLYLINE
  8
0
 62
     0
 66
     1
 10
0
 20
0
 30
0.0
 40
0.8
 41
0.8
  0
VERTEX
  8
0
 10
7.48454
 20
3.39139
 30
0.0
 40
0.0111111
 41
0.0111111
  0
VERTEX
  8
0
 10
7.87825
 20
3.39139
 30
0.0
 40
0.0111111
 41
0.0111111
  0
SEQEND
 8
0
  0
POLYLINE
  8
0
 62
     0
 66
     1
 10
0
 20
0
 30
0.0
 40
0.8
 41
0.8
  0
VERTEX
  8
0
 10
7.87825
 20
3.39139
 30
0.0
 40
0.0111111
 41
0.0111111
  0
VERTEX
  8
0
 10
7.87825
 20
3.33231
 30
0.0
 40
0.0111111
 41
0.0111111
  0
SEQEND
 8
0
  0
POLYLINE
  8
0
 62
     0
 66
     1
 10
0
 20
0
 30
0.0
 40
0.8
 41
0.8
  0
VERTEX
  8
0
 10
7.87825
 20
3.33231
 30
0.0
 40
0.0111111
 41
0.0111111
  0
VERTEX
  8
0
 10
7.48454
 20
3.33231
 30
0.0
 40
0.0111111
 41
0.0111111
  0
SEQEND
 8
0
  0
POLYLINE
  8
0
 62
     0
 66
     1
 10
0
 20
0
 30
0.0
 40
0.8
 41
0.8
  0
VERTEX
  8
0
 10
7.61447
 20
0.163032
 30
0.0
 40
0.0111111
 41
0.0111111
  0
VERTEX
  8
0
 10
7.61501
 20
0.171442
 30
0.0
 40
0.0111111
 41
0.0111111
  0
SEQEND
 8
0
  0
POLYLINE
  8
0
 62
     0
 66
     1
 10
0
 20
0
 30
0.0
 40
0.8
 41
0.8
  0
VERTEX
  8
0
 10
7.61501
 20
0.171442
 30
0.0
 40
0.0111111
 41
0.0111111
  0
VERTEX
  8
0
 10
7.6166
 20
0.179688
 30
0.0
 40
0.0111111
 41
0.0111111
  0
SEQEND
 8
0
  0
POLYLINE
  8
0
 62
     0
 66
     1
 10
0
 20
0
 30
0.0
 40
0.8
 41
0.8
  0
VERTEX
  8
0
 10
7.6166
 20
0.179688
 30
0.0
 40
0.0111111
 41
0.0111111
  0
VERTEX
  8
0
 10
7.61914
 20
0.187662
 30
0.0
 40
0.0111111
 41
0.0111111
  0
SEQEND
 8
0
  0
POLYLINE
  8
0
 62
     0
 66
     1
 10
0
 20
0
 30
0.0
 40
0.8
 41
0.8
  0
VERTEX
  8
0
 10
7.61914
 20
0.187662
 30
0.0
 40
0.0111111
 41
0.0111111
  0
VERTEX
  8
0
 10
7.62272
 20
0.195258
 30
0.0
 40
0.0111111
 41
0.0111111
  0
SEQEND
 8
0
  0
POLYLINE
  8
0
 62
     0
 66
     1
 10
0
 20
0
 30
0.0
 40
0.8
 41
0.8
  0
VERTEX
  8
0
 10
7.62272
 20
0.195258
 30
0.0
 40
0.0111111
 41
0.0111111
  0
VERTEX
  8
0
 10
7.62728
 20
0.202365
 30
0.0
 40
0.0111111
 41
0.0111111
  0
SEQEND
 8
0
  0
POLYLINE
  8
0
 62
     0
 66
     1
 10
0
 20
0
 30
0.0
 40
0.8
 41
0.8
  0
VERTEX
  8
0
 10
7.62728
 20
0.202365
 30
0.0
 40
0.0111111
 41
0.0111111
  0
VERTEX
  8
0
 10
7.63265
 20
0.208876
 30
0.0
 40
0.0111111
 41
0.0111111
  0
SEQEND
 8
0
  0
POLYLINE
  8
0
 62
     0
 66
     1
 10
0
 20
0
 30
0.0
 40
0.8
 41
0.8
  0
VERTEX
  8
0
 10
7.63265
 20
0.208876
 30
0.0
 40
0.0111111
 41
0.0111111
  0
VERTEX
  8
0
 10
7.63872
 20
0.214626
 30
0.0
 40
0.0111111
 41
0.0111111
  0
SEQEND
 8
0
  0
POLYLINE
  8
0
 62
     0
 66
     1
 10
0
 20
0
 30
0.0
 40
0.8
 41
0.8
  0
VERTEX
  8
0
 10
7.63872
 20
0.214626
 30
0.0
 40
0.0111111
 41
0.0111111
  0
VERTEX
  8
0
 10
7.64556
 20
0.21951
 30
0.0
 40
0.0111111
 41
0.0111111
  0
SEQEND
 8
0
  0
POLYLINE
  8
0
 62
     0
 66
     1
 10
0
 20
0
 30
0.0
 40
0.8
 41
0.8
  0
VERTEX
  8
0
 10
7.64556
 20
0.21951
 30
0.0
 40
0.0111111
 41
0.0111111
  0
VERTEX
  8
0
 10
7.65289
 20
0.223579
 30
0.0
 40
0.0111111
 41
0.0111111
  0
SEQEND
 8
0
  0
POLYLINE
  8
0
 62
     0
 66
     1
 10
0
 20
0
 30
0.0
 40
0.8
 41
0.8
  0
VERTEX
  8
0
 10
7.65289
 20
0.223579
 30
0.0
 40
0.0111111
 41
0.0111111
  0
VERTEX
  8
0
 10
7.66075
 20
0.226671
 30
0.0
 40
0.0111111
 41
0.0111111
  0
SEQEND
 8
0
  0
POLYLINE
  8
0
 62
     0
 66
     1
 10
0
 20
0
 30
0.0
 40
0.8
 41
0.8
  0
VERTEX
  8
0
 10
7.66075
 20
0.226671
 30
0.0
 40
0.0111111
 41
0.0111111
  0
VERTEX
  8
0
 10
7.66883
 20
0.228788
 30
0.0
 40
0.0111111
 41
0.0111111
  0
SEQEND
 8
0
  0
POLYLINE
  8
0
 62
     0
 66
     1
 10
0
 20
0
 30
0.0
 40
0.8
 41
0.8
  0
VERTEX
  8
0
 10
7.66883
 20
0.228788
 30
0.0
 40
0.0111111
 41
0.0111111
  0
VERTEX
  8
0
 10
7.67719
 20
0.229872
 30
0.0
 40
0.0111111
 41
0.0111111
  0
SEQEND
 8
0
  0
POLYLINE
  8
0
 62
     0
 66
     1
 10
0
 20
0
 30
0.0
 40
0.8
 41
0.8
  0
VERTEX
  8
0
 10
7.67719
 20
0.229872
 30
0.0
 40
0.0111111
 41
0.0111111
  0
VERTEX
  8
0
 10
7.6856
 20
0.229872
 30
0.0
 40
0.0111111
 41
0.0111111
  0
SEQEND
 8
0
  0
POLYLINE
  8
0
 62
     0
 66
     1
 10
0
 20
0
 30
0.0
 40
0.8
 41
0.8
  0
VERTEX
  8
0
 10
7.6856
 20
0.229872
 30
0.0
 40
0.0111111
 41
0.0111111
  0
VERTEX
  8
0
 10
7.69396
 20
0.228788
 30
0.0
 40
0.0111111
 41
0.0111111
  0
SEQEND
 8
0
  0
POLYLINE
  8
0
 62
     0
 66
     1
 10
0
 20
0
 30
0.0
 40
0.8
 41
0.8
  0
VERTEX
  8
0
 10
7.69396
 20
0.228788
 30
0.0
 40
0.0111111
 41
0.0111111
  0
VERTEX
  8
0
 10
7.7021
 20
0.226671
 30
0.0
 40
0.0111111
 41
0.0111111
  0
SEQEND
 8
0
  0
POLYLINE
  8
0
 62
     0
 66
     1
 10
0
 20
0
 30
0.0
 40
0.8
 41
0.8
  0
VERTEX
  8
0
 10
7.7021
 20
0.226671
 30
0.0
 40
0.0111111
 41
0.0111111
  0
VERTEX
  8
0
 10
7.7099
 20
0.223579
 30
0.0
 40
0.0111111
 41
0.0111111
  0
SEQEND
 8
0
  0
POLYLINE
  8
0
 62
     0
 66
     1
 10
0
 20
0
 30
0.0
 40
0.8
 41
0.8
  0
VERTEX
  8
0
 10
7.7099
 20
0.223579
 30
0.0
 40
0.0111111
 41
0.0111111
  0
VERTEX
  8
0
 10
7.71729
 20
0.21951
 30
0.0
 40
0.0111111
 41
0.0111111
  0
SEQEND
 8
0
  0
POLYLINE
  8
0
 62
     0
 66
     1
 10
0
 20
0
 30
0.0
 40
0.8
 41
0.8
  0
VERTEX
  8
0
 10
7.71729
 20
0.21951
 30
0.0
 40
0.0111111
 41
0.0111111
  0
VERTEX
  8
0
 10
7.72407
 20
0.214626
 30
0.0
 40
0.0111111
 41
0.0111111
  0
SEQEND
 8
0
  0
POLYLINE
  8
0
 62
     0
 66
     1
 10
0
 20
0
 30
0.0
 40
0.8
 41
0.8
  0
VERTEX
  8
0
 10
7.72407
 20
0.214626
 30
0.0
 40
0.0111111
 41
0.0111111
  0
VERTEX
  8
0
 10
7.73019
 20
0.208876
 30
0.0
 40
0.0111111
 41
0.0111111
  0
SEQEND
 8
0
  0
POLYLINE
  8
0
 62
     0
 66
     1
 10
0
 20
0
 30
0.0
 40
0.8
 41
0.8
  0
VERTEX
  8
0
 10
7.73019
 20
0.208876
 30
0.0
 40
0.0111111
 41
0.0111111
  0
VERTEX
  8
0
 10
7.73557
 20
0.202365
 30
0.0
 40
0.0111111
 41
0.0111111
  0
SEQEND
 8
0
  0
POLYLINE
  8
0
 62
     0
 66
     1
 10
0
 20
0
 30
0.0
 40
0.8
 41
0.8
  0
VERTEX
  8
0
 10
7.73557
 20
0.202365
 30
0.0
 40
0.0111111
 41
0.0111111
  0
VERTEX
  8
0
 10
7.74007
 20
0.195258
 30
0.0
 40
0.0111111
 41
0.0111111
  0
SEQEND
 8
0
  0
POLYLINE
  8
0
 62
     0
 66
     1
 10
0
 20
0
 30
0.0
 40
0.8
 41
0.8
  0
VERTEX
  8
0
 10
7.74007
 20
0.195258
 30
0.0
 40
0.0111111
 41
0.0111111
  0
VERTEX
  8
0
 10
7.74365
 20
0.187662
 30
0.0
 40
0.0111111
 41
0.0111111
  0
SEQEND
 8
0
  0
POLYLINE
  8
0
 62
     0
 66
     1
 10
0
 20
0
 30
0.0
 40
0.8
 41
0.8
  0
VERTEX
  8
0
 10
7.74365
 20
0.187662
 30
0.0
 40
0.0111111
 41
0.0111111
  0
VERTEX
  8
0
 10
7.74625
 20
0.179688
 30
0.0
 40
0.0111111
 41
0.0111111
  0
SEQEND
 8
0
  0
POLYLINE
  8
0
 62
     0
 66
     1
 10
0
 20
0
 30
0.0
 40
0.8
 41
0.8
  0
VERTEX
  8
0
 10
7.74625
 20
0.179688
 30
0.0
 40
0.0111111
 41
0.0111111
  0
VERTEX
  8
0
 10
7.74783
 20
0.171442
 30
0.0
 40
0.0111111
 41
0.0111111
  0
SEQEND
 8
0
  0
POLYLINE
  8
0
 62
     0
 66
     1
 10
0
 20
0
 30
0.0
 40
0.8
 41
0.8
  0
VERTEX
  8
0
 10
7.74783
 20
0.171442
 30
0.0
 40
0.0111111
 41
0.0111111
  0
VERTEX
  8
0
 10
7.74832
 20
0.163032
 30
0.0
 40
0.0111111
 41
0.0111111
  0
SEQEND
 8
0
  0
POLYLINE
  8
0
 62
     0
 66
     1
 10
0
 20
0
 30
0.0
 40
0.8
 41
0.8
  0
VERTEX
  8
0
 10
7.74832
 20
0.163032
 30
0.0
 40
0.0111111
 41
0.0111111
  0
VERTEX
  8
0
 10
7.74783
 20
0.154676
 30
0.0
 40
0.0111111
 41
0.0111111
  0
SEQEND
 8
0
  0
POLYLINE
  8
0
 62
     0
 66
     1
 10
0
 20
0
 30
0.0
 40
0.8
 41
0.8
  0
VERTEX
  8
0
 10
7.74783
 20
0.154676
 30
0.0
 40
0.0111111
 41
0.0111111
  0
VERTEX
  8
0
 10
7.74625
 20
0.146376
 30
0.0
 40
0.0111111
 41
0.0111111
  0
SEQEND
 8
0
  0
POLYLINE
  8
0
 62
     0
 66
     1
 10
0
 20
0
 30
0.0
 40
0.8
 41
0.8
  0
VERTEX
  8
0
 10
7.74625
 20
0.146376
 30
0.0
 40
0.0111111
 41
0.0111111
  0
VERTEX
  8
0
 10
7.74365
 20
0.138401
 30
0.0
 40
0.0111111
 41
0.0111111
  0
SEQEND
 8
0
  0
POLYLINE
  8
0
 62
     0
 66
     1
 10
0
 20
0
 30
0.0
 40
0.8
 41
0.8
  0
VERTEX
  8
0
 10
7.74365
 20
0.138401
 30
0.0
 40
0.0111111
 41
0.0111111
  0
VERTEX
  8
0
 10
7.74007
 20
0.130805
 30
0.0
 40
0.0111111
 41
0.0111111
  0
SEQEND
 8
0
  0
POLYLINE
  8
0
 62
     0
 66
     1
 10
0
 20
0
 30
0.0
 40
0.8
 41
0.8
  0
VERTEX
  8
0
 10
7.74007
 20
0.130805
 30
0.0
 40
0.0111111
 41
0.0111111
  0
VERTEX
  8
0
 10
7.73557
 20
0.123698
 30
0.0
 40
0.0111111
 41
0.0111111
  0
SEQEND
 8
0
  0
POLYLINE
  8
0
 62
     0
 66
     1
 10
0
 20
0
 30
0.0
 40
0.8
 41
0.8
  0
VERTEX
  8
0
 10
7.73557
 20
0.123698
 30
0.0
 40
0.0111111
 41
0.0111111
  0
VERTEX
  8
0
 10
7.73019
 20
0.117188
 30
0.0
 40
0.0111111
 41
0.0111111
  0
SEQEND
 8
0
  0
POLYLINE
  8
0
 62
     0
 66
     1
 10
0
 20
0
 30
0.0
 40
0.8
 41
0.8
  0
VERTEX
  8
0
 10
7.73019
 20
0.117188
 30
0.0
 40
0.0111111
 41
0.0111111
  0
VERTEX
  8
0
 10
7.72407
 20
0.111437
 30
0.0
 40
0.0111111
 41
0.0111111
  0
SEQEND
 8
0
  0
POLYLINE
  8
0
 62
     0
 66
     1
 10
0
 20
0
 30
0.0
 40
0.8
 41
0.8
  0
VERTEX
  8
0
 10
7.72407
 20
0.111437
 30
0.0
 40
0.0111111
 41
0.0111111
  0
VERTEX
  8
0
 10
7.71729
 20
0.106554
 30
0.0
 40
0.0111111
 41
0.0111111
  0
SEQEND
 8
0
  0
POLYLINE
  8
0
 62
     0
 66
     1
 10
0
 20
0
 30
0.0
 40
0.8
 41
0.8
  0
VERTEX
  8
0
 10
7.71729
 20
0.106554
 30
0.0
 40
0.0111111
 41
0.0111111
  0
VERTEX
  8
0
 10
7.7099
 20
0.102485
 30
0.0
 40
0.0111111
 41
0.0111111
  0
SEQEND
 8
0
  0
POLYLINE
  8
0
 62
     0
 66
     1
 10
0
 20
0
 30
0.0
 40
0.8
 41
0.8
  0
VERTEX
  8
0
 10
7.7099
 20
0.102485
 30
0.0
 40
0.0111111
 41
0.0111111
  0
VERTEX
  8
0
 10
7.7021
 20
0.0993924
 30
0.0
 40
0.0111111
 41
0.0111111
  0
SEQEND
 8
0
  0
POLYLINE
  8
0
 62
     0
 66
     1
 10
0
 20
0
 30
0.0
 40
0.8
 41
0.8
  0
VERTEX
  8
0
 10
7.7021
 20
0.0993924
 30
0.0
 40
0.0111111
 41
0.0111111
  0
VERTEX
  8
0
 10
7.69396
 20
0.0972765
 30
0.0
 40
0.0111111
 41
0.0111111
  0
SEQEND
 8
0
  0
POLYLINE
  8
0
 62
     0
 66
     1
 10
0
 20
0
 30
0.0
 40
0.8
 41
0.8
  0
VERTEX
  8
0
 10
7.69396
 20
0.0972765
 30
0.0
 40
0.0111111
 41
0.0111111
  0
VERTEX
  8
0
 10
7.6856
 20
0.0962457
 30
0.0
 40
0.0111111
 41
0.0111111
  0
SEQEND
 8
0
  0
POLYLINE
  8
0
 62
     0
 66
     1
 10
0
 20
0
 30
0.0
 40
0.8
 41
0.8
  0
VERTEX
  8
0
 10
7.6856
 20
0.0962457
 30
0.0
 40
0.0111111
 41
0.0111111
  0
VERTEX
  8
0
 10
7.67719
 20
0.0962457
 30
0.0
 40
0.0111111
 41
0.0111111
  0
SEQEND
 8
0
  0
POLYLINE
  8
0
 62
     0
 66
     1
 10
0
 20
0
 30
0.0
 40
0.8
 41
0.8
  0
VERTEX
  8
0
 10
7.67719
 20
0.0962457
 30
0.0
 40
0.0111111
 41
0.0111111
  0
VERTEX
  8
0
 10
7.66883
 20
0.0972765
 30
0.0
 40
0.0111111
 41
0.0111111
  0
SEQEND
 8
0
  0
POLYLINE
  8
0
 62
     0
 66
     1
 10
0
 20
0
 30
0.0
 40
0.8
 41
0.8
  0
VERTEX
  8
0
 10
7.66883
 20
0.0972765
 30
0.0
 40
0.0111111
 41
0.0111111
  0
VERTEX
  8
0
 10
7.66075
 20
0.0993924
 30
0.0
 40
0.0111111
 41
0.0111111
  0
SEQEND
 8
0
  0
POLYLINE
  8
0
 62
     0
 66
     1
 10
0
 20
0
 30
0.0
 40
0.8
 41
0.8
  0
VERTEX
  8
0
 10
7.66075
 20
0.0993924
 30
0.0
 40
0.0111111
 41
0.0111111
  0
VERTEX
  8
0
 10
7.65289
 20
0.102485
 30
0.0
 40
0.0111111
 41
0.0111111
  0
SEQEND
 8
0
  0
POLYLINE
  8
0
 62
     0
 66
     1
 10
0
 20
0
 30
0.0
 40
0.8
 41
0.8
  0
VERTEX
  8
0
 10
7.65289
 20
0.102485
 30
0.0
 40
0.0111111
 41
0.0111111
  0
VERTEX
  8
0
 10
7.64556
 20
0.106554
 30
0.0
 40
0.0111111
 41
0.0111111
  0
SEQEND
 8
0
  0
POLYLINE
  8
0
 62
     0
 66
     1
 10
0
 20
0
 30
0.0
 40
0.8
 41
0.8
  0
VERTEX
  8
0
 10
7.64556
 20
0.106554
 30
0.0
 40
0.0111111
 41
0.0111111
  0
VERTEX
  8
0
 10
7.63872
 20
0.111437
 30
0.0
 40
0.0111111
 41
0.0111111
  0
SEQEND
 8
0
  0
POLYLINE
  8
0
 62
     0
 66
     1
 10
0
 20
0
 30
0.0
 40
0.8
 41
0.8
  0
VERTEX
  8
0
 10
7.63872
 20
0.111437
 30
0.0
 40
0.0111111
 41
0.0111111
  0
VERTEX
  8
0
 10
7.63265
 20
0.117188
 30
0.0
 40
0.0111111
 41
0.0111111
  0
SEQEND
 8
0
  0
POLYLINE
  8
0
 62
     0
 66
     1
 10
0
 20
0
 30
0.0
 40
0.8
 41
0.8
  0
VERTEX
  8
0
 10
7.63265
 20
0.117188
 30
0.0
 40
0.0111111
 41
0.0111111
  0
VERTEX
  8
0
 10
7.62728
 20
0.123698
 30
0.0
 40
0.0111111
 41
0.0111111
  0
SEQEND
 8
0
  0
POLYLINE
  8
0
 62
     0
 66
     1
 10
0
 20
0
 30
0.0
 40
0.8
 41
0.8
  0
VERTEX
  8
0
 10
7.62728
 20
0.123698
 30
0.0
 40
0.0111111
 41
0.0111111
  0
VERTEX
  8
0
 10
7.62272
 20
0.130805
 30
0.0
 40
0.0111111
 41
0.0111111
  0
SEQEND
 8
0
  0
POLYLINE
  8
0
 62
     0
 66
     1
 10
0
 20
0
 30
0.0
 40
0.8
 41
0.8
  0
VERTEX
  8
0
 10
7.62272
 20
0.130805
 30
0.0
 40
0.0111111
 41
0.0111111
  0
VERTEX
  8
0
 10
7.61914
 20
0.138401
 30
0.0
 40
0.0111111
 41
0.0111111
  0
SEQEND
 8
0
  0
POLYLINE
  8
0
 62
     0
 66
     1
 10
0
 20
0
 30
0.0
 40
0.8
 41
0.8
  0
VERTEX
  8
0
 10
7.61914
 20
0.138401
 30
0.0
 40
0.0111111
 41
0.0111111
  0
VERTEX
  8
0
 10
7.6166
 20
0.146376
 30
0.0
 40
0.0111111
 41
0.0111111
  0
SEQEND
 8
0
  0
POLYLINE
  8
0
 62
     0
 66
     1
 10
0
 20
0
 30
0.0
 40
0.8
 41
0.8
  0
VERTEX
  8
0
 10
7.6166
 20
0.146376
 30
0.0
 40
0.0111111
 41
0.0111111
  0
VERTEX
  8
0
 10
7.61501
 20
0.154676
 30
0.0
 40
0.0111111
 41
0.0111111
  0
SEQEND
 8
0
  0
POLYLINE
  8
0
 62
     0
 66
     1
 10
0
 20
0
 30
0.0
 40
0.8
 41
0.8
  0
VERTEX
  8
0
 10
7.61501
 20
0.154676
 30
0.0
 40
0.0111111
 41
0.0111111
  0
VERTEX
  8
0
 10
7.61447
 20
0.163032
 30
0.0
 40
0.0111111
 41
0.0111111
  0
SEQEND
 8
0
  0
POLYLINE
  8
0
 62
     0
 66
     1
 10
0
 20
0
 30
0.0
 40
0.8
 41
0.8
  0
VERTEX
  8
0
 10
7.61447
 20
3.54889
 30
0.0
 40
0.0111111
 41
0.0111111
  0
VERTEX
  8
0
 10
7.61501
 20
3.55724
 30
0.0
 40
0.0111111
 41
0.0111111
  0
SEQEND
 8
0
  0
POLYLINE
  8
0
 62
     0
 66
     1
 10
0
 20
0
 30
0.0
 40
0.8
 41
0.8
  0
VERTEX
  8
0
 10
7.61501
 20
3.55724
 30
0.0
 40
0.0111111
 41
0.0111111
  0
VERTEX
  8
0
 10
7.6166
 20
3.56554
 30
0.0
 40
0.0111111
 41
0.0111111
  0
SEQEND
 8
0
  0
POLYLINE
  8
0
 62
     0
 66
     1
 10
0
 20
0
 30
0.0
 40
0.8
 41
0.8
  0
VERTEX
  8
0
 10
7.6166
 20
3.56554
 30
0.0
 40
0.0111111
 41
0.0111111
  0
VERTEX
  8
0
 10
7.61914
 20
3.57351
 30
0.0
 40
0.0111111
 41
0.0111111
  0
SEQEND
 8
0
  0
POLYLINE
  8
0
 62
     0
 66
     1
 10
0
 20
0
 30
0.0
 40
0.8
 41
0.8
  0
VERTEX
  8
0
 10
7.61914
 20
3.57351
 30
0.0
 40
0.0111111
 41
0.0111111
  0
VERTEX
  8
0
 10
7.62272
 20
3.58111
 30
0.0
 40
0.0111111
 41
0.0111111
  0
SEQEND
 8
0
  0
POLYLINE
  8
0
 62
     0
 66
     1
 10
0
 20
0
 30
0.0
 40
0.8
 41
0.8
  0
VERTEX
  8
0
 10
7.62272
 20
3.58111
 30
0.0
 40
0.0111111
 41
0.0111111
  0
VERTEX
  8
0
 10
7.62728
 20
3.58822
 30
0.0
 40
0.0111111
 41
0.0111111
  0
SEQEND
 8
0
  0
POLYLINE
  8
0
 62
     0
 66
     1
 10
0
 20
0
 30
0.0
 40
0.8
 41
0.8
  0
VERTEX
  8
0
 10
7.62728
 20
3.58822
 30
0.0
 40
0.0111111
 41
0.0111111
  0
VERTEX
  8
0
 10
7.63265
 20
3.59467
 30
0.0
 40
0.0111111
 41
0.0111111
  0
SEQEND
 8
0
  0
POLYLINE
  8
0
 62
     0
 66
     1
 10
0
 20
0
 30
0.0
 40
0.8
 41
0.8
  0
VERTEX
  8
0
 10
7.63265
 20
3.59467
 30
0.0
 40
0.0111111
 41
0.0111111
  0
VERTEX
  8
0
 10
7.63872
 20
3.60042
 30
0.0
 40
0.0111111
 41
0.0111111
  0
SEQEND
 8
0
  0
POLYLINE
  8
0
 62
     0
 66
     1
 10
0
 20
0
 30
0.0
 40
0.8
 41
0.8
  0
VERTEX
  8
0
 10
7.63872
 20
3.60042
 30
0.0
 40
0.0111111
 41
0.0111111
  0
VERTEX
  8
0
 10
7.64556
 20
3.60536
 30
0.0
 40
0.0111111
 41
0.0111111
  0
SEQEND
 8
0
  0
POLYLINE
  8
0
 62
     0
 66
     1
 10
0
 20
0
 30
0.0
 40
0.8
 41
0.8
  0
VERTEX
  8
0
 10
7.64556
 20
3.60536
 30
0.0
 40
0.0111111
 41
0.0111111
  0
VERTEX
  8
0
 10
7.65289
 20
3.60943
 30
0.0
 40
0.0111111
 41
0.0111111
  0
SEQEND
 8
0
  0
POLYLINE
  8
0
 62
     0
 66
     1
 10
0
 20
0
 30
0.0
 40
0.8
 41
0.8
  0
VERTEX
  8
0
 10
7.65289
 20
3.60943
 30
0.0
 40
0.0111111
 41
0.0111111
  0
VERTEX
  8
0
 10
7.66075
 20
3.61253
 30
0.0
 40
0.0111111
 41
0.0111111
  0
SEQEND
 8
0
  0
POLYLINE
  8
0
 62
     0
 66
     1
 10
0
 20
0
 30
0.0
 40
0.8
 41
0.8
  0
VERTEX
  8
0
 10
7.66075
 20
3.61253
 30
0.0
 40
0.0111111
 41
0.0111111
  0
VERTEX
  8
0
 10
7.66883
 20
3.61458
 30
0.0
 40
0.0111111
 41
0.0111111
  0
SEQEND
 8
0
  0
POLYLINE
  8
0
 62
     0
 66
     1
 10
0
 20
0
 30
0.0
 40
0.8
 41
0.8
  0
VERTEX
  8
0
 10
7.66883
 20
3.61458
 30
0.0
 40
0.0111111
 41
0.0111111
  0
VERTEX
  8
0
 10
7.67719
 20
3.61567
 30
0.0
 40
0.0111111
 41
0.0111111
  0
SEQEND
 8
0
  0
POLYLINE
  8
0
 62
     0
 66
     1
 10
0
 20
0
 30
0.0
 40
0.8
 41
0.8
  0
VERTEX
  8
0
 10
7.67719
 20
3.61567
 30
0.0
 40
0.0111111
 41
0.0111111
  0
VERTEX
  8
0
 10
7.6856
 20
3.61567
 30
0.0
 40
0.0111111
 41
0.0111111
  0
SEQEND
 8
0
  0
POLYLINE
  8
0
 62
     0
 66
     1
 10
0
 20
0
 30
0.0
 40
0.8
 41
0.8
  0
VERTEX
  8
0
 10
7.6856
 20
3.61567
 30
0.0
 40
0.0111111
 41
0.0111111
  0
VERTEX
  8
0
 10
7.69396
 20
3.61458
 30
0.0
 40
0.0111111
 41
0.0111111
  0
SEQEND
 8
0
  0
POLYLINE
  8
0
 62
     0
 66
     1
 10
0
 20
0
 30
0.0
 40
0.8
 41
0.8
  0
VERTEX
  8
0
 10
7.69396
 20
3.61458
 30
0.0
 40
0.0111111
 41
0.0111111
  0
VERTEX
  8
0
 10
7.7021
 20
3.61253
 30
0.0
 40
0.0111111
 41
0.0111111
  0
SEQEND
 8
0
  0
POLYLINE
  8
0
 62
     0
 66
     1
 10
0
 20
0
 30
0.0
 40
0.8
 41
0.8
  0
VERTEX
  8
0
 10
7.7021
 20
3.61253
 30
0.0
 40
0.0111111
 41
0.0111111
  0
VERTEX
  8
0
 10
7.7099
 20
3.60943
 30
0.0
 40
0.0111111
 41
0.0111111
  0
SEQEND
 8
0
  0
POLYLINE
  8
0
 62
     0
 66
     1
 10
0
 20
0
 30
0.0
 40
0.8
 41
0.8
  0
VERTEX
  8
0
 10
7.7099
 20
3.60943
 30
0.0
 40
0.0111111
 41
0.0111111
  0
VERTEX
  8
0
 10
7.71729
 20
3.60536
 30
0.0
 40
0.0111111
 41
0.0111111
  0
SEQEND
 8
0
  0
POLYLINE
  8
0
 62
     0
 66
     1
 10
0
 20
0
 30
0.0
 40
0.8
 41
0.8
  0
VERTEX
  8
0
 10
7.71729
 20
3.60536
 30
0.0
 40
0.0111111
 41
0.0111111
  0
VERTEX
  8
0
 10
7.72407
 20
3.60042
 30
0.0
 40
0.0111111
 41
0.0111111
  0
SEQEND
 8
0
  0
POLYLINE
  8
0
 62
     0
 66
     1
 10
0
 20
0
 30
0.0
 40
0.8
 41
0.8
  0
VERTEX
  8
0
 10
7.72407
 20
3.60042
 30
0.0
 40
0.0111111
 41
0.0111111
  0
VERTEX
  8
0
 10
7.73019
 20
3.59467
 30
0.0
 40
0.0111111
 41
0.0111111
  0
SEQEND
 8
0
  0
POLYLINE
  8
0
 62
     0
 66
     1
 10
0
 20
0
 30
0.0
 40
0.8
 41
0.8
  0
VERTEX
  8
0
 10
7.73019
 20
3.59467
 30
0.0
 40
0.0111111
 41
0.0111111
  0
VERTEX
  8
0
 10
7.73557
 20
3.58822
 30
0.0
 40
0.0111111
 41
0.0111111
  0
SEQEND
 8
0
  0
POLYLINE
  8
0
 62
     0
 66
     1
 10
0
 20
0
 30
0.0
 40
0.8
 41
0.8
  0
VERTEX
  8
0
 10
7.73557
 20
3.58822
 30
0.0
 40
0.0111111
 41
0.0111111
  0
VERTEX
  8
0
 10
7.74007
 20
3.58111
 30
0.0
 40
0.0111111
 41
0.0111111
  0
SEQEND
 8
0
  0
POLYLINE
  8
0
 62
     0
 66
     1
 10
0
 20
0
 30
0.0
 40
0.8
 41
0.8
  0
VERTEX
  8
0
 10
7.74007
 20
3.58111
 30
0.0
 40
0.0111111
 41
0.0111111
  0
VERTEX
  8
0
 10
7.74365
 20
3.57351
 30
0.0
 40
0.0111111
 41
0.0111111
  0
SEQEND
 8
0
  0
POLYLINE
  8
0
 62
     0
 66
     1
 10
0
 20
0
 30
0.0
 40
0.8
 41
0.8
  0
VERTEX
  8
0
 10
7.74365
 20
3.57351
 30
0.0
 40
0.0111111
 41
0.0111111
  0
VERTEX
  8
0
 10
7.74625
 20
3.56554
 30
0.0
 40
0.0111111
 41
0.0111111
  0
SEQEND
 8
0
  0
POLYLINE
  8
0
 62
     0
 66
     1
 10
0
 20
0
 30
0.0
 40
0.8
 41
0.8
  0
VERTEX
  8
0
 10
7.74625
 20
3.56554
 30
0.0
 40
0.0111111
 41
0.0111111
  0
VERTEX
  8
0
 10
7.74783
 20
3.55724
 30
0.0
 40
0.0111111
 41
0.0111111
  0
SEQEND
 8
0
  0
POLYLINE
  8
0
 62
     0
 66
     1
 10
0
 20
0
 30
0.0
 40
0.8
 41
0.8
  0
VERTEX
  8
0
 10
7.74783
 20
3.55724
 30
0.0
 40
0.0111111
 41
0.0111111
  0
VERTEX
  8
0
 10
7.74832
 20
3.54889
 30
0.0
 40
0.0111111
 41
0.0111111
  0
SEQEND
 8
0
  0
POLYLINE
  8
0
 62
     0
 66
     1
 10
0
 20
0
 30
0.0
 40
0.8
 41
0.8
  0
VERTEX
  8
0
 10
7.74832
 20
3.54889
 30
0.0
 40
0.0111111
 41
0.0111111
  0
VERTEX
  8
0
 10
7.74783
 20
3.54047
 30
0.0
 40
0.0111111
 41
0.0111111
  0
SEQEND
 8
0
  0
POLYLINE
  8
0
 62
     0
 66
     1
 10
0
 20
0
 30
0.0
 40
0.8
 41
0.8
  0
VERTEX
  8
0
 10
7.74783
 20
3.54047
 30
0.0
 40
0.0111111
 41
0.0111111
  0
VERTEX
  8
0
 10
7.74625
 20
3.53222
 30
0.0
 40
0.0111111
 41
0.0111111
  0
SEQEND
 8
0
  0
POLYLINE
  8
0
 62
     0
 66
     1
 10
0
 20
0
 30
0.0
 40
0.8
 41
0.8
  0
VERTEX
  8
0
 10
7.74625
 20
3.53222
 30
0.0
 40
0.0111111
 41
0.0111111
  0
VERTEX
  8
0
 10
7.74365
 20
3.52419
 30
0.0
 40
0.0111111
 41
0.0111111
  0
SEQEND
 8
0
  0
POLYLINE
  8
0
 62
     0
 66
     1
 10
0
 20
0
 30
0.0
 40
0.8
 41
0.8
  0
VERTEX
  8
0
 10
7.74365
 20
3.52419
 30
0.0
 40
0.0111111
 41
0.0111111
  0
VERTEX
  8
0
 10
7.74007
 20
3.5166
 30
0.0
 40
0.0111111
 41
0.0111111
  0
SEQEND
 8
0
  0
POLYLINE
  8
0
 62
     0
 66
     1
 10
0
 20
0
 30
0.0
 40
0.8
 41
0.8
  0
VERTEX
  8
0
 10
7.74007
 20
3.5166
 30
0.0
 40
0.0111111
 41
0.0111111
  0
VERTEX
  8
0
 10
7.73557
 20
3.50956
 30
0.0
 40
0.0111111
 41
0.0111111
  0
SEQEND
 8
0
  0
POLYLINE
  8
0
 62
     0
 66
     1
 10
0
 20
0
 30
0.0
 40
0.8
 41
0.8
  0
VERTEX
  8
0
 10
7.73557
 20
3.50956
 30
0.0
 40
0.0111111
 41
0.0111111
  0
VERTEX
  8
0
 10
7.73019
 20
3.50304
 30
0.0
 40
0.0111111
 41
0.0111111
  0
SEQEND
 8
0
  0
POLYLINE
  8
0
 62
     0
 66
     1
 10
0
 20
0
 30
0.0
 40
0.8
 41
0.8
  0
VERTEX
  8
0
 10
7.73019
 20
3.50304
 30
0.0
 40
0.0111111
 41
0.0111111
  0
VERTEX
  8
0
 10
7.72407
 20
3.49729
 30
0.0
 40
0.0111111
 41
0.0111111
  0
SEQEND
 8
0
  0
POLYLINE
  8
0
 62
     0
 66
     1
 10
0
 20
0
 30
0.0
 40
0.8
 41
0.8
  0
VERTEX
  8
0
 10
7.72407
 20
3.49729
 30
0.0
 40
0.0111111
 41
0.0111111
  0
VERTEX
  8
0
 10
7.71729
 20
3.49235
 30
0.0
 40
0.0111111
 41
0.0111111
  0
SEQEND
 8
0
  0
POLYLINE
  8
0
 62
     0
 66
     1
 10
0
 20
0
 30
0.0
 40
0.8
 41
0.8
  0
VERTEX
  8
0
 10
7.71729
 20
3.49235
 30
0.0
 40
0.0111111
 41
0.0111111
  0
VERTEX
  8
0
 10
7.7099
 20
3.48833
 30
0.0
 40
0.0111111
 41
0.0111111
  0
SEQEND
 8
0
  0
POLYLINE
  8
0
 62
     0
 66
     1
 10
0
 20
0
 30
0.0
 40
0.8
 41
0.8
  0
VERTEX
  8
0
 10
7.7099
 20
3.48833
 30
0.0
 40
0.0111111
 41
0.0111111
  0
VERTEX
  8
0
 10
7.7021
 20
3.48519
 30
0.0
 40
0.0111111
 41
0.0111111
  0
SEQEND
 8
0
  0
POLYLINE
  8
0
 62
     0
 66
     1
 10
0
 20
0
 30
0.0
 40
0.8
 41
0.8
  0
VERTEX
  8
0
 10
7.7021
 20
3.48519
 30
0.0
 40
0.0111111
 41
0.0111111
  0
VERTEX
  8
0
 10
7.69396
 20
3.48313
 30
0.0
 40
0.0111111
 41
0.0111111
  0
SEQEND
 8
0
  0
POLYLINE
  8
0
 62
     0
 66
     1
 10
0
 20
0
 30
0.0
 40
0.8
 41
0.8
  0
VERTEX
  8
0
 10
7.69396
 20
3.48313
 30
0.0
 40
0.0111111
 41
0.0111111
  0
VERTEX
  8
0
 10
7.6856
 20
3.48204
 30
0.0
 40
0.0111111
 41
0.0111111
  0
SEQEND
 8
0
  0
POLYLINE
  8
0
 62
     0
 66
     1
 10
0
 20
0
 30
0.0
 40
0.8
 41
0.8
  0
VERTEX
  8
0
 10
7.6856
 20
3.48204
 30
0.0
 40
0.0111111
 41
0.0111111
  0
VERTEX
  8
0
 10
7.67719
 20
3.48204
 30
0.0
 40
0.0111111
 41
0.0111111
  0
SEQEND
 8
0
  0
POLYLINE
  8
0
 62
     0
 66
     1
 10
0
 20
0
 30
0.0
 40
0.8
 41
0.8
  0
VERTEX
  8
0
 10
7.67719
 20
3.48204
 30
0.0
 40
0.0111111
 41
0.0111111
  0
VERTEX
  8
0
 10
7.66883
 20
3.48313
 30
0.0
 40
0.0111111
 41
0.0111111
  0
SEQEND
 8
0
  0
POLYLINE
  8
0
 62
     0
 66
     1
 10
0
 20
0
 30
0.0
 40
0.8
 41
0.8
  0
VERTEX
  8
0
 10
7.66883
 20
3.48313
 30
0.0
 40
0.0111111
 41
0.0111111
  0
VERTEX
  8
0
 10
7.66075
 20
3.48519
 30
0.0
 40
0.0111111
 41
0.0111111
  0
SEQEND
 8
0
  0
POLYLINE
  8
0
 62
     0
 66
     1
 10
0
 20
0
 30
0.0
 40
0.8
 41
0.8
  0
VERTEX
  8
0
 10
7.66075
 20
3.48519
 30
0.0
 40
0.0111111
 41
0.0111111
  0
VERTEX
  8
0
 10
7.65289
 20
3.48833
 30
0.0
 40
0.0111111
 41
0.0111111
  0
SEQEND
 8
0
  0
POLYLINE
  8
0
 62
     0
 66
     1
 10
0
 20
0
 30
0.0
 40
0.8
 41
0.8
  0
VERTEX
  8
0
 10
7.65289
 20
3.48833
 30
0.0
 40
0.0111111
 41
0.0111111
  0
VERTEX
  8
0
 10
7.64556
 20
3.49235
 30
0.0
 40
0.0111111
 41
0.0111111
  0
SEQEND
 8
0
  0
POLYLINE
  8
0
 62
     0
 66
     1
 10
0
 20
0
 30
0.0
 40
0.8
 41
0.8
  0
VERTEX
  8
0
 10
7.64556
 20
3.49235
 30
0.0
 40
0.0111111
 41
0.0111111
  0
VERTEX
  8
0
 10
7.63872
 20
3.49729
 30
0.0
 40
0.0111111
 41
0.0111111
  0
SEQEND
 8
0
  0
POLYLINE
  8
0
 62
     0
 66
     1
 10
0
 20
0
 30
0.0
 40
0.8
 41
0.8
  0
VERTEX
  8
0
 10
7.63872
 20
3.49729
 30
0.0
 40
0.0111111
 41
0.0111111
  0
VERTEX
  8
0
 10
7.63265
 20
3.50304
 30
0.0
 40
0.0111111
 41
0.0111111
  0
SEQEND
 8
0
  0
POLYLINE
  8
0
 62
     0
 66
     1
 10
0
 20
0
 30
0.0
 40
0.8
 41
0.8
  0
VERTEX
  8
0
 10
7.63265
 20
3.50304
 30
0.0
 40
0.0111111
 41
0.0111111
  0
VERTEX
  8
0
 10
7.62728
 20
3.50956
 30
0.0
 40
0.0111111
 41
0.0111111
  0
SEQEND
 8
0
  0
POLYLINE
  8
0
 62
     0
 66
     1
 10
0
 20
0
 30
0.0
 40
0.8
 41
0.8
  0
VERTEX
  8
0
 10
7.62728
 20
3.50956
 30
0.0
 40
0.0111111
 41
0.0111111
  0
VERTEX
  8
0
 10
7.62272
 20
3.5166
 30
0.0
 40
0.0111111
 41
0.0111111
  0
SEQEND
 8
0
  0
POLYLINE
  8
0
 62
     0
 66
     1
 10
0
 20
0
 30
0.0
 40
0.8
 41
0.8
  0
VERTEX
  8
0
 10
7.62272
 20
3.5166
 30
0.0
 40
0.0111111
 41
0.0111111
  0
VERTEX
  8
0
 10
7.61914
 20
3.52419
 30
0.0
 40
0.0111111
 41
0.0111111
  0
SEQEND
 8
0
  0
POLYLINE
  8
0
 62
     0
 66
     1
 10
0
 20
0
 30
0.0
 40
0.8
 41
0.8
  0
VERTEX
  8
0
 10
7.61914
 20
3.52419
 30
0.0
 40
0.0111111
 41
0.0111111
  0
VERTEX
  8
0
 10
7.6166
 20
3.53222
 30
0.0
 40
0.0111111
 41
0.0111111
  0
SEQEND
 8
0
  0
POLYLINE
  8
0
 62
     0
 66
     1
 10
0
 20
0
 30
0.0
 40
0.8
 41
0.8
  0
VERTEX
  8
0
 10
7.6166
 20
3.53222
 30
0.0
 40
0.0111111
 41
0.0111111
  0
VERTEX
  8
0
 10
7.61501
 20
3.54047
 30
0.0
 40
0.0111111
 41
0.0111111
  0
SEQEND
 8
0
  0
POLYLINE
  8
0
 62
     0
 66
     1
 10
0
 20
0
 30
0.0
 40
0.8
 41
0.8
  0
VERTEX
  8
0
 10
7.61501
 20
3.54047
 30
0.0
 40
0.0111111
 41
0.0111111
  0
VERTEX
  8
0
 10
7.61447
 20
3.54889
 30
0.0
 40
0.0111111
 41
0.0111111
  0
SEQEND
 8
0
  0
POLYLINE
  8
0
 62
     0
 66
     1
 10
0
 20
0
 30
0.0
 40
0.8
 41
0.8
  0
VERTEX
  8
0
 10
7.65186
 20
0.920899
 30
0.0
 40
0.0111111
 41
0.0111111
  0
VERTEX
  8
0
 10
7.65186
 20
1.31462
 30
0.0
 40
0.0111111
 41
0.0111111
  0
SEQEND
 8
0
  0
POLYLINE
  8
0
 62
     0
 66
     1
 10
0
 20
0
 30
0.0
 40
0.8
 41
0.8
  0
VERTEX
  8
0
 10
7.65186
 20
1.31462
 30
0.0
 40
0.0111111
 41
0.0111111
  0
VERTEX
  8
0
 10
7.71094
 20
1.31462
 30
0.0
 40
0.0111111
 41
0.0111111
  0
SEQEND
 8
0
  0
POLYLINE
  8
0
 62
     0
 66
     1
 10
0
 20
0
 30
0.0
 40
0.8
 41
0.8
  0
VERTEX
  8
0
 10
7.71094
 20
1.31462
 30
0.0
 40
0.0111111
 41
0.0111111
  0
VERTEX
  8
0
 10
7.71094
 20
0.920899
 30
0.0
 40
0.0111111
 41
0.0111111
  0
SEQEND
 8
0
  0
POLYLINE
  8
0
 62
     0
 66
     1
 10
0
 20
0
 30
0.0
 40
0.8
 41
0.8
  0
VERTEX
  8
0
 10
7.71094
 20
0.920899
 30
0.0
 40
0.0111111
 41
0.0111111
  0
VERTEX
  8
0
 10
7.65186
 20
0.920899
 30
0.0
 40
0.0111111
 41
0.0111111
  0
SEQEND
 8
0
  0
POLYLINE
  8
0
 62
     0
 66
     1
 10
0
 20
0
 30
0.0
 40
0.8
 41
0.8
  0
VERTEX
  8
0
 10
7.65186
 20
2.39729
 30
0.0
 40
0.0111111
 41
0.0111111
  0
VERTEX
  8
0
 10
7.65186
 20
2.79096
 30
0.0
 40
0.0111111
 41
0.0111111
  0
SEQEND
 8
0
  0
POLYLINE
  8
0
 62
     0
 66
     1
 10
0
 20
0
 30
0.0
 40
0.8
 41
0.8
  0
VERTEX
  8
0
 10
7.65186
 20
2.79096
 30
0.0
 40
0.0111111
 41
0.0111111
  0
VERTEX
  8
0
 10
7.71094
 20
2.79096
 30
0.0
 40
0.0111111
 41
0.0111111
  0
SEQEND
 8
0
  0
POLYLINE
  8
0
 62
     0
 66
     1
 10
0
 20
0
 30
0.0
 40
0.8
 41
0.8
  0
VERTEX
  8
0
 10
7.71094
 20
2.79096
 30
0.0
 40
0.0111111
 41
0.0111111
  0
VERTEX
  8
0
 10
7.71094
 20
2.39729
 30
0.0
 40
0.0111111
 41
0.0111111
  0
SEQEND
 8
0
  0
POLYLINE
  8
0
 62
     0
 66
     1
 10
0
 20
0
 30
0.0
 40
0.8
 41
0.8
  0
VERTEX
  8
0
 10
7.71094
 20
2.39729
 30
0.0
 40
0.0111111
 41
0.0111111
  0
VERTEX
  8
0
 10
7.65186
 20
2.39729
 30
0.0
 40
0.0111111
 41
0.0111111
  0
SEQEND
 8
0
  0
POLYLINE
  8
0
 62
     0
 66
     1
 10
0
 20
0
 30
0.0
 40
0.8
 41
0.8
  0
VERTEX
  8
0
 10
9.05935
 20
0.320529
 30
0.0
 40
0.0111111
 41
0.0111111
  0
VERTEX
  8
0
 10
9.05935
 20
0.379557
 30
0.0
 40
0.0111111
 41
0.0111111
  0
SEQEND
 8
0
  0
POLYLINE
  8
0
 62
     0
 66
     1
 10
0
 20
0
 30
0.0
 40
0.8
 41
0.8
  0
VERTEX
  8
0
 10
9.05935
 20
0.379557
 30
0.0
 40
0.0111111
 41
0.0111111
  0
VERTEX
  8
0
 10
9.45307
 20
0.379557
 30
0.0
 40
0.0111111
 41
0.0111111
  0
SEQEND
 8
0
  0
POLYLINE
  8
0
 62
     0
 66
     1
 10
0
 20
0
 30
0.0
 40
0.8
 41
0.8
  0
VERTEX
  8
0
 10
9.45307
 20
0.379557
 30
0.0
 40
0.0111111
 41
0.0111111
  0
VERTEX
  8
0
 10
9.45307
 20
0.320529
 30
0.0
 40
0.0111111
 41
0.0111111
  0
SEQEND
 8
0
  0
POLYLINE
  8
0
 62
     0
 66
     1
 10
0
 20
0
 30
0.0
 40
0.8
 41
0.8
  0
VERTEX
  8
0
 10
9.45307
 20
0.320529
 30
0.0
 40
0.0111111
 41
0.0111111
  0
VERTEX
  8
0
 10
9.05935
 20
0.320529
 30
0.0
 40
0.0111111
 41
0.0111111
  0
SEQEND
 8
0
  0
POLYLINE
  8
0
 62
     0
 66
     1
 10
0
 20
0
 30
0.0
 40
0.8
 41
0.8
  0
VERTEX
  8
0
 10
9.05935
 20
3.33231
 30
0.0
 40
0.0111111
 41
0.0111111
  0
VERTEX
  8
0
 10
9.05935
 20
3.39139
 30
0.0
 40
0.0111111
 41
0.0111111
  0
SEQEND
 8
0
  0
POLYLINE
  8
0
 62
     0
 66
     1
 10
0
 20
0
 30
0.0
 40
0.8
 41
0.8
  0
VERTEX
  8
0
 10
9.05935
 20
3.39139
 30
0.0
 40
0.0111111
 41
0.0111111
  0
VERTEX
  8
0
 10
9.45307
 20
3.39139
 30
0.0
 40
0.0111111
 41
0.0111111
  0
SEQEND
 8
0
  0
POLYLINE
  8
0
 62
     0
 66
     1
 10
0
 20
0
 30
0.0
 40
0.8
 41
0.8
  0
VERTEX
  8
0
 10
9.45307
 20
3.39139
 30
0.0
 40
0.0111111
 41
0.0111111
  0
VERTEX
  8
0
 10
9.45307
 20
3.33231
 30
0.0
 40
0.0111111
 41
0.0111111
  0
SEQEND
 8
0
  0
POLYLINE
  8
0
 62
     0
 66
     1
 10
0
 20
0
 30
0.0
 40
0.8
 41
0.8
  0
VERTEX
  8
0
 10
9.45307
 20
3.33231
 30
0.0
 40
0.0111111
 41
0.0111111
  0
VERTEX
  8
0
 10
9.05935
 20
3.33231
 30
0.0
 40
0.0111111
 41
0.0111111
  0
SEQEND
 8
0
  0
POLYLINE
  8
0
 62
     0
 66
     1
 10
0
 20
0
 30
0.0
 40
0.8
 41
0.8
  0
VERTEX
  8
0
 10
9.79953
 20
0.163032
 30
0.0
 40
0.0111111
 41
0.0111111
  0
VERTEX
  8
0
 10
9.80003
 20
0.171442
 30
0.0
 40
0.0111111
 41
0.0111111
  0
SEQEND
 8
0
  0
POLYLINE
  8
0
 62
     0
 66
     1
 10
0
 20
0
 30
0.0
 40
0.8
 41
0.8
  0
VERTEX
  8
0
 10
9.80003
 20
0.171442
 30
0.0
 40
0.0111111
 41
0.0111111
  0
VERTEX
  8
0
 10
9.8016
 20
0.179688
 30
0.0
 40
0.0111111
 41
0.0111111
  0
SEQEND
 8
0
  0
POLYLINE
  8
0
 62
     0
 66
     1
 10
0
 20
0
 30
0.0
 40
0.8
 41
0.8
  0
VERTEX
  8
0
 10
9.8016
 20
0.179688
 30
0.0
 40
0.0111111
 41
0.0111111
  0
VERTEX
  8
0
 10
9.80419
 20
0.187662
 30
0.0
 40
0.0111111
 41
0.0111111
  0
SEQEND
 8
0
  0
POLYLINE
  8
0
 62
     0
 66
     1
 10
0
 20
0
 30
0.0
 40
0.8
 41
0.8
  0
VERTEX
  8
0
 10
9.80419
 20
0.187662
 30
0.0
 40
0.0111111
 41
0.0111111
  0
VERTEX
  8
0
 10
9.80778
 20
0.195258
 30
0.0
 40
0.0111111
 41
0.0111111
  0
SEQEND
 8
0
  0
POLYLINE
  8
0
 62
     0
 66
     1
 10
0
 20
0
 30
0.0
 40
0.8
 41
0.8
  0
VERTEX
  8
0
 10
9.80778
 20
0.195258
 30
0.0
 40
0.0111111
 41
0.0111111
  0
VERTEX
  8
0
 10
9.81233
 20
0.202365
 30
0.0
 40
0.0111111
 41
0.0111111
  0
SEQEND
 8
0
  0
POLYLINE
  8
0
 62
     0
 66
     1
 10
0
 20
0
 30
0.0
 40
0.8
 41
0.8
  0
VERTEX
  8
0
 10
9.81233
 20
0.202365
 30
0.0
 40
0.0111111
 41
0.0111111
  0
VERTEX
  8
0
 10
9.81765
 20
0.208876
 30
0.0
 40
0.0111111
 41
0.0111111
  0
SEQEND
 8
0
  0
POLYLINE
  8
0
 62
     0
 66
     1
 10
0
 20
0
 30
0.0
 40
0.8
 41
0.8
  0
VERTEX
  8
0
 10
9.81765
 20
0.208876
 30
0.0
 40
0.0111111
 41
0.0111111
  0
VERTEX
  8
0
 10
9.82378
 20
0.214626
 30
0.0
 40
0.0111111
 41
0.0111111
  0
SEQEND
 8
0
  0
POLYLINE
  8
0
 62
     0
 66
     1
 10
0
 20
0
 30
0.0
 40
0.8
 41
0.8
  0
VERTEX
  8
0
 10
9.82378
 20
0.214626
 30
0.0
 40
0.0111111
 41
0.0111111
  0
VERTEX
  8
0
 10
9.83057
 20
0.21951
 30
0.0
 40
0.0111111
 41
0.0111111
  0
SEQEND
 8
0
  0
POLYLINE
  8
0
 62
     0
 66
     1
 10
0
 20
0
 30
0.0
 40
0.8
 41
0.8
  0
VERTEX
  8
0
 10
9.83057
 20
0.21951
 30
0.0
 40
0.0111111
 41
0.0111111
  0
VERTEX
  8
0
 10
9.83794
 20
0.223579
 30
0.0
 40
0.0111111
 41
0.0111111
  0
SEQEND
 8
0
  0
POLYLINE
  8
0
 62
     0
 66
     1
 10
0
 20
0
 30
0.0
 40
0.8
 41
0.8
  0
VERTEX
  8
0
 10
9.83794
 20
0.223579
 30
0.0
 40
0.0111111
 41
0.0111111
  0
VERTEX
  8
0
 10
9.84576
 20
0.226671
 30
0.0
 40
0.0111111
 41
0.0111111
  0
SEQEND
 8
0
  0
POLYLINE
  8
0
 62
     0
 66
     1
 10
0
 20
0
 30
0.0
 40
0.8
 41
0.8
  0
VERTEX
  8
0
 10
9.84576
 20
0.226671
 30
0.0
 40
0.0111111
 41
0.0111111
  0
VERTEX
  8
0
 10
9.85389
 20
0.228788
 30
0.0
 40
0.0111111
 41
0.0111111
  0
SEQEND
 8
0
  0
POLYLINE
  8
0
 62
     0
 66
     1
 10
0
 20
0
 30
0.0
 40
0.8
 41
0.8
  0
VERTEX
  8
0
 10
9.85389
 20
0.228788
 30
0.0
 40
0.0111111
 41
0.0111111
  0
VERTEX
  8
0
 10
9.86225
 20
0.229872
 30
0.0
 40
0.0111111
 41
0.0111111
  0
SEQEND
 8
0
  0
POLYLINE
  8
0
 62
     0
 66
     1
 10
0
 20
0
 30
0.0
 40
0.8
 41
0.8
  0
VERTEX
  8
0
 10
9.86225
 20
0.229872
 30
0.0
 40
0.0111111
 41
0.0111111
  0
VERTEX
  8
0
 10
9.87067
 20
0.229872
 30
0.0
 40
0.0111111
 41
0.0111111
  0
SEQEND
 8
0
  0
POLYLINE
  8
0
 62
     0
 66
     1
 10
0
 20
0
 30
0.0
 40
0.8
 41
0.8
  0
VERTEX
  8
0
 10
9.87067
 20
0.229872
 30
0.0
 40
0.0111111
 41
0.0111111
  0
VERTEX
  8
0
 10
9.87901
 20
0.228788
 30
0.0
 40
0.0111111
 41
0.0111111
  0
SEQEND
 8
0
  0
POLYLINE
  8
0
 62
     0
 66
     1
 10
0
 20
0
 30
0.0
 40
0.8
 41
0.8
  0
VERTEX
  8
0
 10
9.87901
 20
0.228788
 30
0.0
 40
0.0111111
 41
0.0111111
  0
VERTEX
  8
0
 10
9.8871
 20
0.226671
 30
0.0
 40
0.0111111
 41
0.0111111
  0
SEQEND
 8
0
  0
POLYLINE
  8
0
 62
     0
 66
     1
 10
0
 20
0
 30
0.0
 40
0.8
 41
0.8
  0
VERTEX
  8
0
 10
9.8871
 20
0.226671
 30
0.0
 40
0.0111111
 41
0.0111111
  0
VERTEX
  8
0
 10
9.89497
 20
0.223579
 30
0.0
 40
0.0111111
 41
0.0111111
  0
SEQEND
 8
0
  0
POLYLINE
  8
0
 62
     0
 66
     1
 10
0
 20
0
 30
0.0
 40
0.8
 41
0.8
  0
VERTEX
  8
0
 10
9.89497
 20
0.223579
 30
0.0
 40
0.0111111
 41
0.0111111
  0
VERTEX
  8
0
 10
9.90229
 20
0.21951
 30
0.0
 40
0.0111111
 41
0.0111111
  0
SEQEND
 8
0
  0
POLYLINE
  8
0
 62
     0
 66
     1
 10
0
 20
0
 30
0.0
 40
0.8
 41
0.8
  0
VERTEX
  8
0
 10
9.90229
 20
0.21951
 30
0.0
 40
0.0111111
 41
0.0111111
  0
VERTEX
  8
0
 10
9.90912
 20
0.214626
 30
0.0
 40
0.0111111
 41
0.0111111
  0
SEQEND
 8
0
  0
POLYLINE
  8
0
 62
     0
 66
     1
 10
0
 20
0
 30
0.0
 40
0.8
 41
0.8
  0
VERTEX
  8
0
 10
9.90912
 20
0.214626
 30
0.0
 40
0.0111111
 41
0.0111111
  0
VERTEX
  8
0
 10
9.91521
 20
0.208876
 30
0.0
 40
0.0111111
 41
0.0111111
  0
SEQEND
 8
0
  0
POLYLINE
  8
0
 62
     0
 66
     1
 10
0
 20
0
 30
0.0
 40
0.8
 41
0.8
  0
VERTEX
  8
0
 10
9.91521
 20
0.208876
 30
0.0
 40
0.0111111
 41
0.0111111
  0
VERTEX
  8
0
 10
9.92057
 20
0.202365
 30
0.0
 40
0.0111111
 41
0.0111111
  0
SEQEND
 8
0
  0
POLYLINE
  8
0
 62
     0
 66
     1
 10
0
 20
0
 30
0.0
 40
0.8
 41
0.8
  0
VERTEX
  8
0
 10
9.92057
 20
0.202365
 30
0.0
 40
0.0111111
 41
0.0111111
  0
VERTEX
  8
0
 10
9.92513
 20
0.195258
 30
0.0
 40
0.0111111
 41
0.0111111
  0
SEQEND
 8
0
  0
POLYLINE
  8
0
 62
     0
 66
     1
 10
0
 20
0
 30
0.0
 40
0.8
 41
0.8
  0
VERTEX
  8
0
 10
9.92513
 20
0.195258
 30
0.0
 40
0.0111111
 41
0.0111111
  0
VERTEX
  8
0
 10
9.92871
 20
0.187662
 30
0.0
 40
0.0111111
 41
0.0111111
  0
SEQEND
 8
0
  0
POLYLINE
  8
0
 62
     0
 66
     1
 10
0
 20
0
 30
0.0
 40
0.8
 41
0.8
  0
VERTEX
  8
0
 10
9.92871
 20
0.187662
 30
0.0
 40
0.0111111
 41
0.0111111
  0
VERTEX
  8
0
 10
9.93132
 20
0.179688
 30
0.0
 40
0.0111111
 41
0.0111111
  0
SEQEND
 8
0
  0
POLYLINE
  8
0
 62
     0
 66
     1
 10
0
 20
0
 30
0.0
 40
0.8
 41
0.8
  0
VERTEX
  8
0
 10
9.93132
 20
0.179688
 30
0.0
 40
0.0111111
 41
0.0111111
  0
VERTEX
  8
0
 10
9.93289
 20
0.171442
 30
0.0
 40
0.0111111
 41
0.0111111
  0
SEQEND
 8
0
  0
POLYLINE
  8
0
 62
     0
 66
     1
 10
0
 20
0
 30
0.0
 40
0.8
 41
0.8
  0
VERTEX
  8
0
 10
9.93289
 20
0.171442
 30
0.0
 40
0.0111111
 41
0.0111111
  0
VERTEX
  8
0
 10
9.93338
 20
0.163032
 30
0.0
 40
0.0111111
 41
0.0111111
  0
SEQEND
 8
0
  0
POLYLINE
  8
0
 62
     0
 66
     1
 10
0
 20
0
 30
0.0
 40
0.8
 41
0.8
  0
VERTEX
  8
0
 10
9.93338
 20
0.163032
 30
0.0
 40
0.0111111
 41
0.0111111
  0
VERTEX
  8
0
 10
9.93289
 20
0.154676
 30
0.0
 40
0.0111111
 41
0.0111111
  0
SEQEND
 8
0
  0
POLYLINE
  8
0
 62
     0
 66
     1
 10
0
 20
0
 30
0.0
 40
0.8
 41
0.8
  0
VERTEX
  8
0
 10
9.93289
 20
0.154676
 30
0.0
 40
0.0111111
 41
0.0111111
  0
VERTEX
  8
0
 10
9.93132
 20
0.146376
 30
0.0
 40
0.0111111
 41
0.0111111
  0
SEQEND
 8
0
  0
POLYLINE
  8
0
 62
     0
 66
     1
 10
0
 20
0
 30
0.0
 40
0.8
 41
0.8
  0
VERTEX
  8
0
 10
9.93132
 20
0.146376
 30
0.0
 40
0.0111111
 41
0.0111111
  0
VERTEX
  8
0
 10
9.92871
 20
0.138401
 30
0.0
 40
0.0111111
 41
0.0111111
  0
SEQEND
 8
0
  0
POLYLINE
  8
0
 62
     0
 66
     1
 10
0
 20
0
 30
0.0
 40
0.8
 41
0.8
  0
VERTEX
  8
0
 10
9.92871
 20
0.138401
 30
0.0
 40
0.0111111
 41
0.0111111
  0
VERTEX
  8
0
 10
9.92513
 20
0.130805
 30
0.0
 40
0.0111111
 41
0.0111111
  0
SEQEND
 8
0
  0
POLYLINE
  8
0
 62
     0
 66
     1
 10
0
 20
0
 30
0.0
 40
0.8
 41
0.8
  0
VERTEX
  8
0
 10
9.92513
 20
0.130805
 30
0.0
 40
0.0111111
 41
0.0111111
  0
VERTEX
  8
0
 10
9.92057
 20
0.123698
 30
0.0
 40
0.0111111
 41
0.0111111
  0
SEQEND
 8
0
  0
POLYLINE
  8
0
 62
     0
 66
     1
 10
0
 20
0
 30
0.0
 40
0.8
 41
0.8
  0
VERTEX
  8
0
 10
9.92057
 20
0.123698
 30
0.0
 40
0.0111111
 41
0.0111111
  0
VERTEX
  8
0
 10
9.91521
 20
0.117188
 30
0.0
 40
0.0111111
 41
0.0111111
  0
SEQEND
 8
0
  0
POLYLINE
  8
0
 62
     0
 66
     1
 10
0
 20
0
 30
0.0
 40
0.8
 41
0.8
  0
VERTEX
  8
0
 10
9.91521
 20
0.117188
 30
0.0
 40
0.0111111
 41
0.0111111
  0
VERTEX
  8
0
 10
9.90912
 20
0.111437
 30
0.0
 40
0.0111111
 41
0.0111111
  0
SEQEND
 8
0
  0
POLYLINE
  8
0
 62
     0
 66
     1
 10
0
 20
0
 30
0.0
 40
0.8
 41
0.8
  0
VERTEX
  8
0
 10
9.90912
 20
0.111437
 30
0.0
 40
0.0111111
 41
0.0111111
  0
VERTEX
  8
0
 10
9.90229
 20
0.106554
 30
0.0
 40
0.0111111
 41
0.0111111
  0
SEQEND
 8
0
  0
POLYLINE
  8
0
 62
     0
 66
     1
 10
0
 20
0
 30
0.0
 40
0.8
 41
0.8
  0
VERTEX
  8
0
 10
9.90229
 20
0.106554
 30
0.0
 40
0.0111111
 41
0.0111111
  0
VERTEX
  8
0
 10
9.89497
 20
0.102485
 30
0.0
 40
0.0111111
 41
0.0111111
  0
SEQEND
 8
0
  0
POLYLINE
  8
0
 62
     0
 66
     1
 10
0
 20
0
 30
0.0
 40
0.8
 41
0.8
  0
VERTEX
  8
0
 10
9.89497
 20
0.102485
 30
0.0
 40
0.0111111
 41
0.0111111
  0
VERTEX
  8
0
 10
9.8871
 20
0.0993924
 30
0.0
 40
0.0111111
 41
0.0111111
  0
SEQEND
 8
0
  0
POLYLINE
  8
0
 62
     0
 66
     1
 10
0
 20
0
 30
0.0
 40
0.8
 41
0.8
  0
VERTEX
  8
0
 10
9.8871
 20
0.0993924
 30
0.0
 40
0.0111111
 41
0.0111111
  0
VERTEX
  8
0
 10
9.87901
 20
0.0972765
 30
0.0
 40
0.0111111
 41
0.0111111
  0
SEQEND
 8
0
  0
POLYLINE
  8
0
 62
     0
 66
     1
 10
0
 20
0
 30
0.0
 40
0.8
 41
0.8
  0
VERTEX
  8
0
 10
9.87901
 20
0.0972765
 30
0.0
 40
0.0111111
 41
0.0111111
  0
VERTEX
  8
0
 10
9.87067
 20
0.0962457
 30
0.0
 40
0.0111111
 41
0.0111111
  0
SEQEND
 8
0
  0
POLYLINE
  8
0
 62
     0
 66
     1
 10
0
 20
0
 30
0.0
 40
0.8
 41
0.8
  0
VERTEX
  8
0
 10
9.87067
 20
0.0962457
 30
0.0
 40
0.0111111
 41
0.0111111
  0
VERTEX
  8
0
 10
9.86225
 20
0.0962457
 30
0.0
 40
0.0111111
 41
0.0111111
  0
SEQEND
 8
0
  0
POLYLINE
  8
0
 62
     0
 66
     1
 10
0
 20
0
 30
0.0
 40
0.8
 41
0.8
  0
VERTEX
  8
0
 10
9.86225
 20
0.0962457
 30
0.0
 40
0.0111111
 41
0.0111111
  0
VERTEX
  8
0
 10
9.85389
 20
0.0972765
 30
0.0
 40
0.0111111
 41
0.0111111
  0
SEQEND
 8
0
  0
POLYLINE
  8
0
 62
     0
 66
     1
 10
0
 20
0
 30
0.0
 40
0.8
 41
0.8
  0
VERTEX
  8
0
 10
9.85389
 20
0.0972765
 30
0.0
 40
0.0111111
 41
0.0111111
  0
VERTEX
  8
0
 10
9.84576
 20
0.0993924
 30
0.0
 40
0.0111111
 41
0.0111111
  0
SEQEND
 8
0
  0
POLYLINE
  8
0
 62
     0
 66
     1
 10
0
 20
0
 30
0.0
 40
0.8
 41
0.8
  0
VERTEX
  8
0
 10
9.84576
 20
0.0993924
 30
0.0
 40
0.0111111
 41
0.0111111
  0
VERTEX
  8
0
 10
9.83794
 20
0.102485
 30
0.0
 40
0.0111111
 41
0.0111111
  0
SEQEND
 8
0
  0
POLYLINE
  8
0
 62
     0
 66
     1
 10
0
 20
0
 30
0.0
 40
0.8
 41
0.8
  0
VERTEX
  8
0
 10
9.83794
 20
0.102485
 30
0.0
 40
0.0111111
 41
0.0111111
  0
VERTEX
  8
0
 10
9.83057
 20
0.106554
 30
0.0
 40
0.0111111
 41
0.0111111
  0
SEQEND
 8
0
  0
POLYLINE
  8
0
 62
     0
 66
     1
 10
0
 20
0
 30
0.0
 40
0.8
 41
0.8
  0
VERTEX
  8
0
 10
9.83057
 20
0.106554
 30
0.0
 40
0.0111111
 41
0.0111111
  0
VERTEX
  8
0
 10
9.82378
 20
0.111437
 30
0.0
 40
0.0111111
 41
0.0111111
  0
SEQEND
 8
0
  0
POLYLINE
  8
0
 62
     0
 66
     1
 10
0
 20
0
 30
0.0
 40
0.8
 41
0.8
  0
VERTEX
  8
0
 10
9.82378
 20
0.111437
 30
0.0
 40
0.0111111
 41
0.0111111
  0
VERTEX
  8
0
 10
9.81765
 20
0.117188
 30
0.0
 40
0.0111111
 41
0.0111111
  0
SEQEND
 8
0
  0
POLYLINE
  8
0
 62
     0
 66
     1
 10
0
 20
0
 30
0.0
 40
0.8
 41
0.8
  0
VERTEX
  8
0
 10
9.81765
 20
0.117188
 30
0.0
 40
0.0111111
 41
0.0111111
  0
VERTEX
  8
0
 10
9.81233
 20
0.123698
 30
0.0
 40
0.0111111
 41
0.0111111
  0
SEQEND
 8
0
  0
POLYLINE
  8
0
 62
     0
 66
     1
 10
0
 20
0
 30
0.0
 40
0.8
 41
0.8
  0
VERTEX
  8
0
 10
9.81233
 20
0.123698
 30
0.0
 40
0.0111111
 41
0.0111111
  0
VERTEX
  8
0
 10
9.80778
 20
0.130805
 30
0.0
 40
0.0111111
 41
0.0111111
  0
SEQEND
 8
0
  0
POLYLINE
  8
0
 62
     0
 66
     1
 10
0
 20
0
 30
0.0
 40
0.8
 41
0.8
  0
VERTEX
  8
0
 10
9.80778
 20
0.130805
 30
0.0
 40
0.0111111
 41
0.0111111
  0
VERTEX
  8
0
 10
9.80419
 20
0.138401
 30
0.0
 40
0.0111111
 41
0.0111111
  0
SEQEND
 8
0
  0
POLYLINE
  8
0
 62
     0
 66
     1
 10
0
 20
0
 30
0.0
 40
0.8
 41
0.8
  0
VERTEX
  8
0
 10
9.80419
 20
0.138401
 30
0.0
 40
0.0111111
 41
0.0111111
  0
VERTEX
  8
0
 10
9.8016
 20
0.146376
 30
0.0
 40
0.0111111
 41
0.0111111
  0
SEQEND
 8
0
  0
POLYLINE
  8
0
 62
     0
 66
     1
 10
0
 20
0
 30
0.0
 40
0.8
 41
0.8
  0
VERTEX
  8
0
 10
9.8016
 20
0.146376
 30
0.0
 40
0.0111111
 41
0.0111111
  0
VERTEX
  8
0
 10
9.80003
 20
0.154676
 30
0.0
 40
0.0111111
 41
0.0111111
  0
SEQEND
 8
0
  0
POLYLINE
  8
0
 62
     0
 66
     1
 10
0
 20
0
 30
0.0
 40
0.8
 41
0.8
  0
VERTEX
  8
0
 10
9.80003
 20
0.154676
 30
0.0
 40
0.0111111
 41
0.0111111
  0
VERTEX
  8
0
 10
9.79953
 20
0.163032
 30
0.0
 40
0.0111111
 41
0.0111111
  0
SEQEND
 8
0
  0
POLYLINE
  8
0
 62
     0
 66
     1
 10
0
 20
0
 30
0.0
 40
0.8
 41
0.8
  0
VERTEX
  8
0
 10
9.79953
 20
3.54889
 30
0.0
 40
0.0111111
 41
0.0111111
  0
VERTEX
  8
0
 10
9.80003
 20
3.55724
 30
0.0
 40
0.0111111
 41
0.0111111
  0
SEQEND
 8
0
  0
POLYLINE
  8
0
 62
     0
 66
     1
 10
0
 20
0
 30
0.0
 40
0.8
 41
0.8
  0
VERTEX
  8
0
 10
9.80003
 20
3.55724
 30
0.0
 40
0.0111111
 41
0.0111111
  0
VERTEX
  8
0
 10
9.8016
 20
3.56554
 30
0.0
 40
0.0111111
 41
0.0111111
  0
SEQEND
 8
0
  0
POLYLINE
  8
0
 62
     0
 66
     1
 10
0
 20
0
 30
0.0
 40
0.8
 41
0.8
  0
VERTEX
  8
0
 10
9.8016
 20
3.56554
 30
0.0
 40
0.0111111
 41
0.0111111
  0
VERTEX
  8
0
 10
9.80419
 20
3.57351
 30
0.0
 40
0.0111111
 41
0.0111111
  0
SEQEND
 8
0
  0
POLYLINE
  8
0
 62
     0
 66
     1
 10
0
 20
0
 30
0.0
 40
0.8
 41
0.8
  0
VERTEX
  8
0
 10
9.80419
 20
3.57351
 30
0.0
 40
0.0111111
 41
0.0111111
  0
VERTEX
  8
0
 10
9.80778
 20
3.58111
 30
0.0
 40
0.0111111
 41
0.0111111
  0
SEQEND
 8
0
  0
POLYLINE
  8
0
 62
     0
 66
     1
 10
0
 20
0
 30
0.0
 40
0.8
 41
0.8
  0
VERTEX
  8
0
 10
9.80778
 20
3.58111
 30
0.0
 40
0.0111111
 41
0.0111111
  0
VERTEX
  8
0
 10
9.81233
 20
3.58822
 30
0.0
 40
0.0111111
 41
0.0111111
  0
SEQEND
 8
0
  0
POLYLINE
  8
0
 62
     0
 66
     1
 10
0
 20
0
 30
0.0
 40
0.8
 41
0.8
  0
VERTEX
  8
0
 10
9.81233
 20
3.58822
 30
0.0
 40
0.0111111
 41
0.0111111
  0
VERTEX
  8
0
 10
9.81765
 20
3.59467
 30
0.0
 40
0.0111111
 41
0.0111111
  0
SEQEND
 8
0
  0
POLYLINE
  8
0
 62
     0
 66
     1
 10
0
 20
0
 30
0.0
 40
0.8
 41
0.8
  0
VERTEX
  8
0
 10
9.81765
 20
3.59467
 30
0.0
 40
0.0111111
 41
0.0111111
  0
VERTEX
  8
0
 10
9.82378
 20
3.60042
 30
0.0
 40
0.0111111
 41
0.0111111
  0
SEQEND
 8
0
  0
POLYLINE
  8
0
 62
     0
 66
     1
 10
0
 20
0
 30
0.0
 40
0.8
 41
0.8
  0
VERTEX
  8
0
 10
9.82378
 20
3.60042
 30
0.0
 40
0.0111111
 41
0.0111111
  0
VERTEX
  8
0
 10
9.83057
 20
3.60536
 30
0.0
 40
0.0111111
 41
0.0111111
  0
SEQEND
 8
0
  0
POLYLINE
  8
0
 62
     0
 66
     1
 10
0
 20
0
 30
0.0
 40
0.8
 41
0.8
  0
VERTEX
  8
0
 10
9.83057
 20
3.60536
 30
0.0
 40
0.0111111
 41
0.0111111
  0
VERTEX
  8
0
 10
9.83794
 20
3.60943
 30
0.0
 40
0.0111111
 41
0.0111111
  0
SEQEND
 8
0
  0
POLYLINE
  8
0
 62
     0
 66
     1
 10
0
 20
0
 30
0.0
 40
0.8
 41
0.8
  0
VERTEX
  8
0
 10
9.83794
 20
3.60943
 30
0.0
 40
0.0111111
 41
0.0111111
  0
VERTEX
  8
0
 10
9.84576
 20
3.61253
 30
0.0
 40
0.0111111
 41
0.0111111
  0
SEQEND
 8
0
  0
POLYLINE
  8
0
 62
     0
 66
     1
 10
0
 20
0
 30
0.0
 40
0.8
 41
0.8
  0
VERTEX
  8
0
 10
9.84576
 20
3.61253
 30
0.0
 40
0.0111111
 41
0.0111111
  0
VERTEX
  8
0
 10
9.85389
 20
3.61458
 30
0.0
 40
0.0111111
 41
0.0111111
  0
SEQEND
 8
0
  0
POLYLINE
  8
0
 62
     0
 66
     1
 10
0
 20
0
 30
0.0
 40
0.8
 41
0.8
  0
VERTEX
  8
0
 10
9.85389
 20
3.61458
 30
0.0
 40
0.0111111
 41
0.0111111
  0
VERTEX
  8
0
 10
9.86225
 20
3.61567
 30
0.0
 40
0.0111111
 41
0.0111111
  0
SEQEND
 8
0
  0
POLYLINE
  8
0
 62
     0
 66
     1
 10
0
 20
0
 30
0.0
 40
0.8
 41
0.8
  0
VERTEX
  8
0
 10
9.86225
 20
3.61567
 30
0.0
 40
0.0111111
 41
0.0111111
  0
VERTEX
  8
0
 10
9.87067
 20
3.61567
 30
0.0
 40
0.0111111
 41
0.0111111
  0
SEQEND
 8
0
  0
POLYLINE
  8
0
 62
     0
 66
     1
 10
0
 20
0
 30
0.0
 40
0.8
 41
0.8
  0
VERTEX
  8
0
 10
9.87067
 20
3.61567
 30
0.0
 40
0.0111111
 41
0.0111111
  0
VERTEX
  8
0
 10
9.87901
 20
3.61458
 30
0.0
 40
0.0111111
 41
0.0111111
  0
SEQEND
 8
0
  0
POLYLINE
  8
0
 62
     0
 66
     1
 10
0
 20
0
 30
0.0
 40
0.8
 41
0.8
  0
VERTEX
  8
0
 10
9.87901
 20
3.61458
 30
0.0
 40
0.0111111
 41
0.0111111
  0
VERTEX
  8
0
 10
9.8871
 20
3.61253
 30
0.0
 40
0.0111111
 41
0.0111111
  0
SEQEND
 8
0
  0
POLYLINE
  8
0
 62
     0
 66
     1
 10
0
 20
0
 30
0.0
 40
0.8
 41
0.8
  0
VERTEX
  8
0
 10
9.8871
 20
3.61253
 30
0.0
 40
0.0111111
 41
0.0111111
  0
VERTEX
  8
0
 10
9.89497
 20
3.60943
 30
0.0
 40
0.0111111
 41
0.0111111
  0
SEQEND
 8
0
  0
POLYLINE
  8
0
 62
     0
 66
     1
 10
0
 20
0
 30
0.0
 40
0.8
 41
0.8
  0
VERTEX
  8
0
 10
9.89497
 20
3.60943
 30
0.0
 40
0.0111111
 41
0.0111111
  0
VERTEX
  8
0
 10
9.90229
 20
3.60536
 30
0.0
 40
0.0111111
 41
0.0111111
  0
SEQEND
 8
0
  0
POLYLINE
  8
0
 62
     0
 66
     1
 10
0
 20
0
 30
0.0
 40
0.8
 41
0.8
  0
VERTEX
  8
0
 10
9.90229
 20
3.60536
 30
0.0
 40
0.0111111
 41
0.0111111
  0
VERTEX
  8
0
 10
9.90912
 20
3.60042
 30
0.0
 40
0.0111111
 41
0.0111111
  0
SEQEND
 8
0
  0
POLYLINE
  8
0
 62
     0
 66
     1
 10
0
 20
0
 30
0.0
 40
0.8
 41
0.8
  0
VERTEX
  8
0
 10
9.90912
 20
3.60042
 30
0.0
 40
0.0111111
 41
0.0111111
  0
VERTEX
  8
0
 10
9.91521
 20
3.59467
 30
0.0
 40
0.0111111
 41
0.0111111
  0
SEQEND
 8
0
  0
POLYLINE
  8
0
 62
     0
 66
     1
 10
0
 20
0
 30
0.0
 40
0.8
 41
0.8
  0
VERTEX
  8
0
 10
9.91521
 20
3.59467
 30
0.0
 40
0.0111111
 41
0.0111111
  0
VERTEX
  8
0
 10
9.92057
 20
3.58822
 30
0.0
 40
0.0111111
 41
0.0111111
  0
SEQEND
 8
0
  0
POLYLINE
  8
0
 62
     0
 66
     1
 10
0
 20
0
 30
0.0
 40
0.8
 41
0.8
  0
VERTEX
  8
0
 10
9.92057
 20
3.58822
 30
0.0
 40
0.0111111
 41
0.0111111
  0
VERTEX
  8
0
 10
9.92513
 20
3.58111
 30
0.0
 40
0.0111111
 41
0.0111111
  0
SEQEND
 8
0
  0
POLYLINE
  8
0
 62
     0
 66
     1
 10
0
 20
0
 30
0.0
 40
0.8
 41
0.8
  0
VERTEX
  8
0
 10
9.92513
 20
3.58111
 30
0.0
 40
0.0111111
 41
0.0111111
  0
VERTEX
  8
0
 10
9.92871
 20
3.57351
 30
0.0
 40
0.0111111
 41
0.0111111
  0
SEQEND
 8
0
  0
POLYLINE
  8
0
 62
     0
 66
     1
 10
0
 20
0
 30
0.0
 40
0.8
 41
0.8
  0
VERTEX
  8
0
 10
9.92871
 20
3.57351
 30
0.0
 40
0.0111111
 41
0.0111111
  0
VERTEX
  8
0
 10
9.93132
 20
3.56554
 30
0.0
 40
0.0111111
 41
0.0111111
  0
SEQEND
 8
0
  0
POLYLINE
  8
0
 62
     0
 66
     1
 10
0
 20
0
 30
0.0
 40
0.8
 41
0.8
  0
VERTEX
  8
0
 10
9.93132
 20
3.56554
 30
0.0
 40
0.0111111
 41
0.0111111
  0
VERTEX
  8
0
 10
9.93289
 20
3.55724
 30
0.0
 40
0.0111111
 41
0.0111111
  0
SEQEND
 8
0
  0
POLYLINE
  8
0
 62
     0
 66
     1
 10
0
 20
0
 30
0.0
 40
0.8
 41
0.8
  0
VERTEX
  8
0
 10
9.93289
 20
3.55724
 30
0.0
 40
0.0111111
 41
0.0111111
  0
VERTEX
  8
0
 10
9.93338
 20
3.54889
 30
0.0
 40
0.0111111
 41
0.0111111
  0
SEQEND
 8
0
  0
POLYLINE
  8
0
 62
     0
 66
     1
 10
0
 20
0
 30
0.0
 40
0.8
 41
0.8
  0
VERTEX
  8
0
 10
9.93338
 20
3.54889
 30
0.0
 40
0.0111111
 41
0.0111111
  0
VERTEX
  8
0
 10
9.93289
 20
3.54047
 30
0.0
 40
0.0111111
 41
0.0111111
  0
SEQEND
 8
0
  0
POLYLINE
  8
0
 62
     0
 66
     1
 10
0
 20
0
 30
0.0
 40
0.8
 41
0.8
  0
VERTEX
  8
0
 10
9.93289
 20
3.54047
 30
0.0
 40
0.0111111
 41
0.0111111
  0
VERTEX
  8
0
 10
9.93132
 20
3.53222
 30
0.0
 40
0.0111111
 41
0.0111111
  0
SEQEND
 8
0
  0
POLYLINE
  8
0
 62
     0
 66
     1
 10
0
 20
0
 30
0.0
 40
0.8
 41
0.8
  0
VERTEX
  8
0
 10
9.93132
 20
3.53222
 30
0.0
 40
0.0111111
 41
0.0111111
  0
VERTEX
  8
0
 10
9.92871
 20
3.52419
 30
0.0
 40
0.0111111
 41
0.0111111
  0
SEQEND
 8
0
  0
POLYLINE
  8
0
 62
     0
 66
     1
 10
0
 20
0
 30
0.0
 40
0.8
 41
0.8
  0
VERTEX
  8
0
 10
9.92871
 20
3.52419
 30
0.0
 40
0.0111111
 41
0.0111111
  0
VERTEX
  8
0
 10
9.92513
 20
3.5166
 30
0.0
 40
0.0111111
 41
0.0111111
  0
SEQEND
 8
0
  0
POLYLINE
  8
0
 62
     0
 66
     1
 10
0
 20
0
 30
0.0
 40
0.8
 41
0.8
  0
VERTEX
  8
0
 10
9.92513
 20
3.5166
 30
0.0
 40
0.0111111
 41
0.0111111
  0
VERTEX
  8
0
 10
9.92057
 20
3.50956
 30
0.0
 40
0.0111111
 41
0.0111111
  0
SEQEND
 8
0
  0
POLYLINE
  8
0
 62
     0
 66
     1
 10
0
 20
0
 30
0.0
 40
0.8
 41
0.8
  0
VERTEX
  8
0
 10
9.92057
 20
3.50956
 30
0.0
 40
0.0111111
 41
0.0111111
  0
VERTEX
  8
0
 10
9.91521
 20
3.50304
 30
0.0
 40
0.0111111
 41
0.0111111
  0
SEQEND
 8
0
  0
POLYLINE
  8
0
 62
     0
 66
     1
 10
0
 20
0
 30
0.0
 40
0.8
 41
0.8
  0
VERTEX
  8
0
 10
9.91521
 20
3.50304
 30
0.0
 40
0.0111111
 41
0.0111111
  0
VERTEX
  8
0
 10
9.90912
 20
3.49729
 30
0.0
 40
0.0111111
 41
0.0111111
  0
SEQEND
 8
0
  0
POLYLINE
  8
0
 62
     0
 66
     1
 10
0
 20
0
 30
0.0
 40
0.8
 41
0.8
  0
VERTEX
  8
0
 10
9.90912
 20
3.49729
 30
0.0
 40
0.0111111
 41
0.0111111
  0
VERTEX
  8
0
 10
9.90229
 20
3.49235
 30
0.0
 40
0.0111111
 41
0.0111111
  0
SEQEND
 8
0
  0
POLYLINE
  8
0
 62
     0
 66
     1
 10
0
 20
0
 30
0.0
 40
0.8
 41
0.8
  0
VERTEX
  8
0
 10
9.90229
 20
3.49235
 30
0.0
 40
0.0111111
 41
0.0111111
  0
VERTEX
  8
0
 10
9.89497
 20
3.48833
 30
0.0
 40
0.0111111
 41
0.0111111
  0
SEQEND
 8
0
  0
POLYLINE
  8
0
 62
     0
 66
     1
 10
0
 20
0
 30
0.0
 40
0.8
 41
0.8
  0
VERTEX
  8
0
 10
9.89497
 20
3.48833
 30
0.0
 40
0.0111111
 41
0.0111111
  0
VERTEX
  8
0
 10
9.8871
 20
3.48519
 30
0.0
 40
0.0111111
 41
0.0111111
  0
SEQEND
 8
0
  0
POLYLINE
  8
0
 62
     0
 66
     1
 10
0
 20
0
 30
0.0
 40
0.8
 41
0.8
  0
VERTEX
  8
0
 10
9.8871
 20
3.48519
 30
0.0
 40
0.0111111
 41
0.0111111
  0
VERTEX
  8
0
 10
9.87901
 20
3.48313
 30
0.0
 40
0.0111111
 41
0.0111111
  0
SEQEND
 8
0
  0
POLYLINE
  8
0
 62
     0
 66
     1
 10
0
 20
0
 30
0.0
 40
0.8
 41
0.8
  0
VERTEX
  8
0
 10
9.87901
 20
3.48313
 30
0.0
 40
0.0111111
 41
0.0111111
  0
VERTEX
  8
0
 10
9.87067
 20
3.48204
 30
0.0
 40
0.0111111
 41
0.0111111
  0
SEQEND
 8
0
  0
POLYLINE
  8
0
 62
     0
 66
     1
 10
0
 20
0
 30
0.0
 40
0.8
 41
0.8
  0
VERTEX
  8
0
 10
9.87067
 20
3.48204
 30
0.0
 40
0.0111111
 41
0.0111111
  0
VERTEX
  8
0
 10
9.86225
 20
3.48204
 30
0.0
 40
0.0111111
 41
0.0111111
  0
SEQEND
 8
0
  0
POLYLINE
  8
0
 62
     0
 66
     1
 10
0
 20
0
 30
0.0
 40
0.8
 41
0.8
  0
VERTEX
  8
0
 10
9.86225
 20
3.48204
 30
0.0
 40
0.0111111
 41
0.0111111
  0
VERTEX
  8
0
 10
9.85389
 20
3.48313
 30
0.0
 40
0.0111111
 41
0.0111111
  0
SEQEND
 8
0
  0
POLYLINE
  8
0
 62
     0
 66
     1
 10
0
 20
0
 30
0.0
 40
0.8
 41
0.8
  0
VERTEX
  8
0
 10
9.85389
 20
3.48313
 30
0.0
 40
0.0111111
 41
0.0111111
  0
VERTEX
  8
0
 10
9.84576
 20
3.48519
 30
0.0
 40
0.0111111
 41
0.0111111
  0
SEQEND
 8
0
  0
POLYLINE
  8
0
 62
     0
 66
     1
 10
0
 20
0
 30
0.0
 40
0.8
 41
0.8
  0
VERTEX
  8
0
 10
9.84576
 20
3.48519
 30
0.0
 40
0.0111111
 41
0.0111111
  0
VERTEX
  8
0
 10
9.83794
 20
3.48833
 30
0.0
 40
0.0111111
 41
0.0111111
  0
SEQEND
 8
0
  0
POLYLINE
  8
0
 62
     0
 66
     1
 10
0
 20
0
 30
0.0
 40
0.8
 41
0.8
  0
VERTEX
  8
0
 10
9.83794
 20
3.48833
 30
0.0
 40
0.0111111
 41
0.0111111
  0
VERTEX
  8
0
 10
9.83057
 20
3.49235
 30
0.0
 40
0.0111111
 41
0.0111111
  0
SEQEND
 8
0
  0
POLYLINE
  8
0
 62
     0
 66
     1
 10
0
 20
0
 30
0.0
 40
0.8
 41
0.8
  0
VERTEX
  8
0
 10
9.83057
 20
3.49235
 30
0.0
 40
0.0111111
 41
0.0111111
  0
VERTEX
  8
0
 10
9.82378
 20
3.49729
 30
0.0
 40
0.0111111
 41
0.0111111
  0
SEQEND
 8
0
  0
POLYLINE
  8
0
 62
     0
 66
     1
 10
0
 20
0
 30
0.0
 40
0.8
 41
0.8
  0
VERTEX
  8
0
 10
9.82378
 20
3.49729
 30
0.0
 40
0.0111111
 41
0.0111111
  0
VERTEX
  8
0
 10
9.81765
 20
3.50304
 30
0.0
 40
0.0111111
 41
0.0111111
  0
SEQEND
 8
0
  0
POLYLINE
  8
0
 62
     0
 66
     1
 10
0
 20
0
 30
0.0
 40
0.8
 41
0.8
  0
VERTEX
  8
0
 10
9.81765
 20
3.50304
 30
0.0
 40
0.0111111
 41
0.0111111
  0
VERTEX
  8
0
 10
9.81233
 20
3.50956
 30
0.0
 40
0.0111111
 41
0.0111111
  0
SEQEND
 8
0
  0
POLYLINE
  8
0
 62
     0
 66
     1
 10
0
 20
0
 30
0.0
 40
0.8
 41
0.8
  0
VERTEX
  8
0
 10
9.81233
 20
3.50956
 30
0.0
 40
0.0111111
 41
0.0111111
  0
VERTEX
  8
0
 10
9.80778
 20
3.5166
 30
0.0
 40
0.0111111
 41
0.0111111
  0
SEQEND
 8
0
  0
POLYLINE
  8
0
 62
     0
 66
     1
 10
0
 20
0
 30
0.0
 40
0.8
 41
0.8
  0
VERTEX
  8
0
 10
9.80778
 20
3.5166
 30
0.0
 40
0.0111111
 41
0.0111111
  0
VERTEX
  8
0
 10
9.80419
 20
3.52419
 30
0.0
 40
0.0111111
 41
0.0111111
  0
SEQEND
 8
0
  0
POLYLINE
  8
0
 62
     0
 66
     1
 10
0
 20
0
 30
0.0
 40
0.8
 41
0.8
  0
VERTEX
  8
0
 10
9.80419
 20
3.52419
 30
0.0
 40
0.0111111
 41
0.0111111
  0
VERTEX
  8
0
 10
9.8016
 20
3.53222
 30
0.0
 40
0.0111111
 41
0.0111111
  0
SEQEND
 8
0
  0
POLYLINE
  8
0
 62
     0
 66
     1
 10
0
 20
0
 30
0.0
 40
0.8
 41
0.8
  0
VERTEX
  8
0
 10
9.8016
 20
3.53222
 30
0.0
 40
0.0111111
 41
0.0111111
  0
VERTEX
  8
0
 10
9.80003
 20
3.54047
 30
0.0
 40
0.0111111
 41
0.0111111
  0
SEQEND
 8
0
  0
POLYLINE
  8
0
 62
     0
 66
     1
 10
0
 20
0
 30
0.0
 40
0.8
 41
0.8
  0
VERTEX
  8
0
 10
9.80003
 20
3.54047
 30
0.0
 40
0.0111111
 41
0.0111111
  0
VERTEX
  8
0
 10
9.79953
 20
3.54889
 30
0.0
 40
0.0111111
 41
0.0111111
  0
SEQEND
 8
0
  0
ENDSEC
  0
EOF
