  0
SECTION
  2
HEADER
  9
$ACADVER
  1
AC1009
  9
$EXTMIN
 10
0.0
 20
0.0
 30
0.0
  9
$EXTMAX
 10
1000.0
 20
1000.0
 30
0.0
  9
$FILLMODE
 70
 0
  9
$SPLFRAME
 70
 1
  0
ENDSEC
  0
SECTION
  2
TABLES
  0
TABLE
  2
LAYER
 70
1
  0
LAYER
  2
0
 70
     0
 62
     7
  6
CONTINUOUS
  0
ENDTAB
  0
ENDSEC
  0
SECTION
  2
ENTITIES
  0
POLYLINE
  8
0
 62
     0
 66
     1
 10
0
 20
0
 30
0.0
 40
0.8
 41
0.8
  0
VERTEX
  8
0
 10
0.00553386
 20
4.53635
 30
0.0
 40
0.0111111
 41
0.0111111
  0
VERTEX
  8
0
 10
0.00553386
 20
4.93007
 30
0.0
 40
0.0111111
 41
0.0111111
  0
SEQEND
 8
0
  0
POLYLINE
  8
0
 62
     0
 66
     1
 10
0
 20
0
 30
0.0
 40
0.8
 41
0.8
  0
VERTEX
  8
0
 10
0.00553386
 20
4.93007
 30
0.0
 40
0.0111111
 41
0.0111111
  0
VERTEX
  8
0
 10
0.202419
 20
4.93007
 30
0.0
 40
0.0111111
 41
0.0111111
  0
SEQEND
 8
0
  0
POLYLINE
  8
0
 62
     0
 66
     1
 10
0
 20
0
 30
0.0
 40
0.8
 41
0.8
  0
VERTEX
  8
0
 10
0.202419
 20
4.93007
 30
0.0
 40
0.0111111
 41
0.0111111
  0
VERTEX
  8
0
 10
0.202419
 20
5.04818
 30
0.0
 40
0.0111111
 41
0.0111111
  0
SEQEND
 8
0
  0
POLYLINE
  8
0
 62
     0
 66
     1
 10
0
 20
0
 30
0.0
 40
0.8
 41
0.8
  0
VERTEX
  8
0
 10
0.202419
 20
5.04818
 30
0.0
 40
0.0111111
 41
0.0111111
  0
VERTEX
  8
0
 10
0.596083
 20
5.04818
 30
0.0
 40
0.0111111
 41
0.0111111
  0
SEQEND
 8
0
  0
POLYLINE
  8
0
 62
     0
 66
     1
 10
0
 20
0
 30
0.0
 40
0.8
 41
0.8
  0
VERTEX
  8
0
 10
0.596083
 20
5.04818
 30
0.0
 40
0.0111111
 41
0.0111111
  0
VERTEX
  8
0
 10
0.596083
 20
4.93007
 30
0.0
 40
0.0111111
 41
0.0111111
  0
SEQEND
 8
0
  0
POLYLINE
  8
0
 62
     0
 66
     1
 10
0
 20
0
 30
0.0
 40
0.8
 41
0.8
  0
VERTEX
  8
0
 10
0.596083
 20
4.93007
 30
0.0
 40
0.0111111
 41
0.0111111
  0
VERTEX
  8
0
 10
1.77724
 20
4.93007
 30
0.0
 40
0.0111111
 41
0.0111111
  0
SEQEND
 8
0
  0
POLYLINE
  8
0
 62
     0
 66
     1
 10
0
 20
0
 30
0.0
 40
0.8
 41
0.8
  0
VERTEX
  8
0
 10
1.77724
 20
4.93007
 30
0.0
 40
0.0111111
 41
0.0111111
  0
VERTEX
  8
0
 10
1.77724
 20
5.04818
 30
0.0
 40
0.0111111
 41
0.0111111
  0
SEQEND
 8
0
  0
POLYLINE
  8
0
 62
     0
 66
     1
 10
0
 20
0
 30
0.0
 40
0.8
 41
0.8
  0
VERTEX
  8
0
 10
1.77724
 20
5.04818
 30
0.0
 40
0.0111111
 41
0.0111111
  0
VERTEX
  8
0
 10
2.1709
 20
5.04818
 30
0.0
 40
0.0111111
 41
0.0111111
  0
SEQEND
 8
0
  0
POLYLINE
  8
0
 62
     0
 66
     1
 10
0
 20
0
 30
0.0
 40
0.8
 41
0.8
  0
VERTEX
  8
0
 10
2.1709
 20
5.04818
 30
0.0
 40
0.0111111
 41
0.0111111
  0
VERTEX
  8
0
 10
2.1709
 20
4.93007
 30
0.0
 40
0.0111111
 41
0.0111111
  0
SEQEND
 8
0
  0
POLYLINE
  8
0
 62
     0
 66
     1
 10
0
 20
0
 30
0.0
 40
0.8
 41
0.8
  0
VERTEX
  8
0
 10
2.1709
 20
4.93007
 30
0.0
 40
0.0111111
 41
0.0111111
  0
VERTEX
  8
0
 10
3.352
 20
4.93007
 30
0.0
 40
0.0111111
 41
0.0111111
  0
SEQEND
 8
0
  0
POLYLINE
  8
0
 62
     0
 66
     1
 10
0
 20
0
 30
0.0
 40
0.8
 41
0.8
  0
VERTEX
  8
0
 10
3.352
 20
4.93007
 30
0.0
 40
0.0111111
 41
0.0111111
  0
VERTEX
  8
0
 10
3.352
 20
5.04818
 30
0.0
 40
0.0111111
 41
0.0111111
  0
SEQEND
 8
0
  0
POLYLINE
  8
0
 62
     0
 66
     1
 10
0
 20
0
 30
0.0
 40
0.8
 41
0.8
  0
VERTEX
  8
0
 10
3.352
 20
5.04818
 30
0.0
 40
0.0111111
 41
0.0111111
  0
VERTEX
  8
0
 10
3.74571
 20
5.04818
 30
0.0
 40
0.0111111
 41
0.0111111
  0
SEQEND
 8
0
  0
POLYLINE
  8
0
 62
     0
 66
     1
 10
0
 20
0
 30
0.0
 40
0.8
 41
0.8
  0
VERTEX
  8
0
 10
3.74571
 20
5.04818
 30
0.0
 40
0.0111111
 41
0.0111111
  0
VERTEX
  8
0
 10
3.74571
 20
4.93007
 30
0.0
 40
0.0111111
 41
0.0111111
  0
SEQEND
 8
0
  0
POLYLINE
  8
0
 62
     0
 66
     1
 10
0
 20
0
 30
0.0
 40
0.8
 41
0.8
  0
VERTEX
  8
0
 10
3.74571
 20
4.93007
 30
0.0
 40
0.0111111
 41
0.0111111
  0
VERTEX
  8
0
 10
3.94254
 20
4.93007
 30
0.0
 40
0.0111111
 41
0.0111111
  0
SEQEND
 8
0
  0
POLYLINE
  8
0
 62
     0
 66
     1
 10
0
 20
0
 30
0.0
 40
0.8
 41
0.8
  0
VERTEX
  8
0
 10
3.94254
 20
4.93007
 30
0.0
 40
0.0111111
 41
0.0111111
  0
VERTEX
  8
0
 10
3.94254
 20
4.53635
 30
0.0
 40
0.0111111
 41
0.0111111
  0
SEQEND
 8
0
  0
POLYLINE
  8
0
 62
     0
 66
     1
 10
0
 20
0
 30
0.0
 40
0.8
 41
0.8
  0
VERTEX
  8
0
 10
3.94254
 20
4.53635
 30
0.0
 40
0.0111111
 41
0.0111111
  0
VERTEX
  8
0
 10
3.74571
 20
4.53635
 30
0.0
 40
0.0111111
 41
0.0111111
  0
SEQEND
 8
0
  0
POLYLINE
  8
0
 62
     0
 66
     1
 10
0
 20
0
 30
0.0
 40
0.8
 41
0.8
  0
VERTEX
  8
0
 10
3.74571
 20
4.53635
 30
0.0
 40
0.0111111
 41
0.0111111
  0
VERTEX
  8
0
 10
3.74571
 20
4.41824
 30
0.0
 40
0.0111111
 41
0.0111111
  0
SEQEND
 8
0
  0
POLYLINE
  8
0
 62
     0
 66
     1
 10
0
 20
0
 30
0.0
 40
0.8
 41
0.8
  0
VERTEX
  8
0
 10
3.74571
 20
4.41824
 30
0.0
 40
0.0111111
 41
0.0111111
  0
VERTEX
  8
0
 10
3.352
 20
4.41824
 30
0.0
 40
0.0111111
 41
0.0111111
  0
SEQEND
 8
0
  0
POLYLINE
  8
0
 62
     0
 66
     1
 10
0
 20
0
 30
0.0
 40
0.8
 41
0.8
  0
VERTEX
  8
0
 10
3.352
 20
4.41824
 30
0.0
 40
0.0111111
 41
0.0111111
  0
VERTEX
  8
0
 10
3.352
 20
4.53635
 30
0.0
 40
0.0111111
 41
0.0111111
  0
SEQEND
 8
0
  0
POLYLINE
  8
0
 62
     0
 66
     1
 10
0
 20
0
 30
0.0
 40
0.8
 41
0.8
  0
VERTEX
  8
0
 10
3.352
 20
4.53635
 30
0.0
 40
0.0111111
 41
0.0111111
  0
VERTEX
  8
0
 10
2.1709
 20
4.53635
 30
0.0
 40
0.0111111
 41
0.0111111
  0
SEQEND
 8
0
  0
POLYLINE
  8
0
 62
     0
 66
     1
 10
0
 20
0
 30
0.0
 40
0.8
 41
0.8
  0
VERTEX
  8
0
 10
2.1709
 20
4.53635
 30
0.0
 40
0.0111111
 41
0.0111111
  0
VERTEX
  8
0
 10
2.1709
 20
4.41824
 30
0.0
 40
0.0111111
 41
0.0111111
  0
SEQEND
 8
0
  0
POLYLINE
  8
0
 62
     0
 66
     1
 10
0
 20
0
 30
0.0
 40
0.8
 41
0.8
  0
VERTEX
  8
0
 10
2.1709
 20
4.41824
 30
0.0
 40
0.0111111
 41
0.0111111
  0
VERTEX
  8
0
 10
1.77724
 20
4.41824
 30
0.0
 40
0.0111111
 41
0.0111111
  0
SEQEND
 8
0
  0
POLYLINE
  8
0
 62
     0
 66
     1
 10
0
 20
0
 30
0.0
 40
0.8
 41
0.8
  0
VERTEX
  8
0
 10
1.77724
 20
4.41824
 30
0.0
 40
0.0111111
 41
0.0111111
  0
VERTEX
  8
0
 10
1.77724
 20
4.53635
 30
0.0
 40
0.0111111
 41
0.0111111
  0
SEQEND
 8
0
  0
POLYLINE
  8
0
 62
     0
 66
     1
 10
0
 20
0
 30
0.0
 40
0.8
 41
0.8
  0
VERTEX
  8
0
 10
1.77724
 20
4.53635
 30
0.0
 40
0.0111111
 41
0.0111111
  0
VERTEX
  8
0
 10
0.596083
 20
4.53635
 30
0.0
 40
0.0111111
 41
0.0111111
  0
SEQEND
 8
0
  0
POLYLINE
  8
0
 62
     0
 66
     1
 10
0
 20
0
 30
0.0
 40
0.8
 41
0.8
  0
VERTEX
  8
0
 10
0.596083
 20
4.53635
 30
0.0
 40
0.0111111
 41
0.0111111
  0
VERTEX
  8
0
 10
0.596083
 20
4.41824
 30
0.0
 40
0.0111111
 41
0.0111111
  0
SEQEND
 8
0
  0
POLYLINE
  8
0
 62
     0
 66
     1
 10
0
 20
0
 30
0.0
 40
0.8
 41
0.8
  0
VERTEX
  8
0
 10
0.596083
 20
4.41824
 30
0.0
 40
0.0111111
 41
0.0111111
  0
VERTEX
  8
0
 10
0.202419
 20
4.41824
 30
0.0
 40
0.0111111
 41
0.0111111
  0
SEQEND
 8
0
  0
POLYLINE
  8
0
 62
     0
 66
     1
 10
0
 20
0
 30
0.0
 40
0.8
 41
0.8
  0
VERTEX
  8
0
 10
0.202419
 20
4.41824
 30
0.0
 40
0.0111111
 41
0.0111111
  0
VERTEX
  8
0
 10
0.202419
 20
4.53635
 30
0.0
 40
0.0111111
 41
0.0111111
  0
SEQEND
 8
0
  0
POLYLINE
  8
0
 62
     0
 66
     1
 10
0
 20
0
 30
0.0
 40
0.8
 41
0.8
  0
VERTEX
  8
0
 10
0.202419
 20
4.53635
 30
0.0
 40
0.0111111
 41
0.0111111
  0
VERTEX
  8
0
 10
0.00553386
 20
4.53635
 30
0.0
 40
0.0111111
 41
0.0111111
  0
SEQEND
 8
0
  0
POLYLINE
  8
0
 62
     0
 66
     1
 10
0
 20
0
 30
0.0
 40
0.8
 41
0.8
  0
VERTEX
  8
0
 10
1.94456
 20
4.66758
 30
0.0
 40
0.0111111
 41
0.0111111
  0
VERTEX
  8
0
 10
1.94456
 20
4.79883
 30
0.0
 40
0.0111111
 41
0.0111111
  0
SEQEND
 8
0
  0
POLYLINE
  8
0
 62
     0
 66
     1
 10
0
 20
0
 30
0.0
 40
0.8
 41
0.8
  0
VERTEX
  8
0
 10
1.94456
 20
4.79883
 30
0.0
 40
0.0111111
 41
0.0111111
  0
VERTEX
  8
0
 10
2.00358
 20
4.79883
 30
0.0
 40
0.0111111
 41
0.0111111
  0
SEQEND
 8
0
  0
POLYLINE
  8
0
 62
     0
 66
     1
 10
0
 20
0
 30
0.0
 40
0.8
 41
0.8
  0
VERTEX
  8
0
 10
2.00358
 20
4.79883
 30
0.0
 40
0.0111111
 41
0.0111111
  0
VERTEX
  8
0
 10
2.00358
 20
4.66758
 30
0.0
 40
0.0111111
 41
0.0111111
  0
SEQEND
 8
0
  0
POLYLINE
  8
0
 62
     0
 66
     1
 10
0
 20
0
 30
0.0
 40
0.8
 41
0.8
  0
VERTEX
  8
0
 10
2.00358
 20
4.66758
 30
0.0
 40
0.0111111
 41
0.0111111
  0
VERTEX
  8
0
 10
1.94456
 20
4.66758
 30
0.0
 40
0.0111111
 41
0.0111111
  0
SEQEND
 8
0
  0
POLYLINE
  8
0
 62
     0
 66
     1
 10
0
 20
0
 30
0.0
 40
0.8
 41
0.8
  0
VERTEX
  8
0
 10
3.60325
 20
2.38499
 30
0.0
 40
0.0111111
 41
0.0111111
  0
VERTEX
  8
0
 10
3.61925
 20
2.38396
 30
0.0
 40
0.0111111
 41
0.0111111
  0
SEQEND
 8
0
  0
POLYLINE
  8
0
 62
     0
 66
     1
 10
0
 20
0
 30
0.0
 40
0.8
 41
0.8
  0
VERTEX
  8
0
 10
3.61925
 20
2.38396
 30
0.0
 40
0.0111111
 41
0.0111111
  0
VERTEX
  8
0
 10
3.63504
 20
2.38092
 30
0.0
 40
0.0111111
 41
0.0111111
  0
SEQEND
 8
0
  0
POLYLINE
  8
0
 62
     0
 66
     1
 10
0
 20
0
 30
0.0
 40
0.8
 41
0.8
  0
VERTEX
  8
0
 10
3.63504
 20
2.38092
 30
0.0
 40
0.0111111
 41
0.0111111
  0
VERTEX
  8
0
 10
3.65033
 20
2.37597
 30
0.0
 40
0.0111111
 41
0.0111111
  0
SEQEND
 8
0
  0
POLYLINE
  8
0
 62
     0
 66
     1
 10
0
 20
0
 30
0.0
 40
0.8
 41
0.8
  0
VERTEX
  8
0
 10
3.65033
 20
2.37597
 30
0.0
 40
0.0111111
 41
0.0111111
  0
VERTEX
  8
0
 10
3.66493
 20
2.36914
 30
0.0
 40
0.0111111
 41
0.0111111
  0
SEQEND
 8
0
  0
POLYLINE
  8
0
 62
     0
 66
     1
 10
0
 20
0
 30
0.0
 40
0.8
 41
0.8
  0
VERTEX
  8
0
 10
3.66493
 20
2.36914
 30
0.0
 40
0.0111111
 41
0.0111111
  0
VERTEX
  8
0
 10
3.67844
 20
2.36051
 30
0.0
 40
0.0111111
 41
0.0111111
  0
SEQEND
 8
0
  0
POLYLINE
  8
0
 62
     0
 66
     1
 10
0
 20
0
 30
0.0
 40
0.8
 41
0.8
  0
VERTEX
  8
0
 10
3.67844
 20
2.36051
 30
0.0
 40
0.0111111
 41
0.0111111
  0
VERTEX
  8
0
 10
3.69086
 20
2.35026
 30
0.0
 40
0.0111111
 41
0.0111111
  0
SEQEND
 8
0
  0
POLYLINE
  8
0
 62
     0
 66
     1
 10
0
 20
0
 30
0.0
 40
0.8
 41
0.8
  0
VERTEX
  8
0
 10
3.69086
 20
2.35026
 30
0.0
 40
0.0111111
 41
0.0111111
  0
VERTEX
  8
0
 10
3.70182
 20
2.3386
 30
0.0
 40
0.0111111
 41
0.0111111
  0
SEQEND
 8
0
  0
POLYLINE
  8
0
 62
     0
 66
     1
 10
0
 20
0
 30
0.0
 40
0.8
 41
0.8
  0
VERTEX
  8
0
 10
3.70182
 20
2.3386
 30
0.0
 40
0.0111111
 41
0.0111111
  0
VERTEX
  8
0
 10
3.71126
 20
2.32553
 30
0.0
 40
0.0111111
 41
0.0111111
  0
SEQEND
 8
0
  0
POLYLINE
  8
0
 62
     0
 66
     1
 10
0
 20
0
 30
0.0
 40
0.8
 41
0.8
  0
VERTEX
  8
0
 10
3.71126
 20
2.32553
 30
0.0
 40
0.0111111
 41
0.0111111
  0
VERTEX
  8
0
 10
3.71903
 20
2.31147
 30
0.0
 40
0.0111111
 41
0.0111111
  0
SEQEND
 8
0
  0
POLYLINE
  8
0
 62
     0
 66
     1
 10
0
 20
0
 30
0.0
 40
0.8
 41
0.8
  0
VERTEX
  8
0
 10
3.71903
 20
2.31147
 30
0.0
 40
0.0111111
 41
0.0111111
  0
VERTEX
  8
0
 10
3.72493
 20
2.29656
 30
0.0
 40
0.0111111
 41
0.0111111
  0
SEQEND
 8
0
  0
POLYLINE
  8
0
 62
     0
 66
     1
 10
0
 20
0
 30
0.0
 40
0.8
 41
0.8
  0
VERTEX
  8
0
 10
3.72493
 20
2.29656
 30
0.0
 40
0.0111111
 41
0.0111111
  0
VERTEX
  8
0
 10
3.72889
 20
2.28097
 30
0.0
 40
0.0111111
 41
0.0111111
  0
SEQEND
 8
0
  0
POLYLINE
  8
0
 62
     0
 66
     1
 10
0
 20
0
 30
0.0
 40
0.8
 41
0.8
  0
VERTEX
  8
0
 10
3.72889
 20
2.28097
 30
0.0
 40
0.0111111
 41
0.0111111
  0
VERTEX
  8
0
 10
3.73096
 20
2.26503
 30
0.0
 40
0.0111111
 41
0.0111111
  0
SEQEND
 8
0
  0
POLYLINE
  8
0
 62
     0
 66
     1
 10
0
 20
0
 30
0.0
 40
0.8
 41
0.8
  0
VERTEX
  8
0
 10
3.73096
 20
2.26503
 30
0.0
 40
0.0111111
 41
0.0111111
  0
VERTEX
  8
0
 10
3.73096
 20
2.24897
 30
0.0
 40
0.0111111
 41
0.0111111
  0
SEQEND
 8
0
  0
POLYLINE
  8
0
 62
     0
 66
     1
 10
0
 20
0
 30
0.0
 40
0.8
 41
0.8
  0
VERTEX
  8
0
 10
3.73096
 20
2.24897
 30
0.0
 40
0.0111111
 41
0.0111111
  0
VERTEX
  8
0
 10
3.72889
 20
2.23301
 30
0.0
 40
0.0111111
 41
0.0111111
  0
SEQEND
 8
0
  0
POLYLINE
  8
0
 62
     0
 66
     1
 10
0
 20
0
 30
0.0
 40
0.8
 41
0.8
  0
VERTEX
  8
0
 10
3.72889
 20
2.23301
 30
0.0
 40
0.0111111
 41
0.0111111
  0
VERTEX
  8
0
 10
3.72493
 20
2.2175
 30
0.0
 40
0.0111111
 41
0.0111111
  0
SEQEND
 8
0
  0
POLYLINE
  8
0
 62
     0
 66
     1
 10
0
 20
0
 30
0.0
 40
0.8
 41
0.8
  0
VERTEX
  8
0
 10
3.72493
 20
2.2175
 30
0.0
 40
0.0111111
 41
0.0111111
  0
VERTEX
  8
0
 10
3.71903
 20
2.20253
 30
0.0
 40
0.0111111
 41
0.0111111
  0
SEQEND
 8
0
  0
POLYLINE
  8
0
 62
     0
 66
     1
 10
0
 20
0
 30
0.0
 40
0.8
 41
0.8
  0
VERTEX
  8
0
 10
3.71903
 20
2.20253
 30
0.0
 40
0.0111111
 41
0.0111111
  0
VERTEX
  8
0
 10
3.71126
 20
2.18847
 30
0.0
 40
0.0111111
 41
0.0111111
  0
SEQEND
 8
0
  0
POLYLINE
  8
0
 62
     0
 66
     1
 10
0
 20
0
 30
0.0
 40
0.8
 41
0.8
  0
VERTEX
  8
0
 10
3.71126
 20
2.18847
 30
0.0
 40
0.0111111
 41
0.0111111
  0
VERTEX
  8
0
 10
3.70182
 20
2.17546
 30
0.0
 40
0.0111111
 41
0.0111111
  0
SEQEND
 8
0
  0
POLYLINE
  8
0
 62
     0
 66
     1
 10
0
 20
0
 30
0.0
 40
0.8
 41
0.8
  0
VERTEX
  8
0
 10
3.70182
 20
2.17546
 30
0.0
 40
0.0111111
 41
0.0111111
  0
VERTEX
  8
0
 10
3.69086
 20
2.16374
 30
0.0
 40
0.0111111
 41
0.0111111
  0
SEQEND
 8
0
  0
POLYLINE
  8
0
 62
     0
 66
     1
 10
0
 20
0
 30
0.0
 40
0.8
 41
0.8
  0
VERTEX
  8
0
 10
3.69086
 20
2.16374
 30
0.0
 40
0.0111111
 41
0.0111111
  0
VERTEX
  8
0
 10
3.67844
 20
2.15349
 30
0.0
 40
0.0111111
 41
0.0111111
  0
SEQEND
 8
0
  0
POLYLINE
  8
0
 62
     0
 66
     1
 10
0
 20
0
 30
0.0
 40
0.8
 41
0.8
  0
VERTEX
  8
0
 10
3.67844
 20
2.15349
 30
0.0
 40
0.0111111
 41
0.0111111
  0
VERTEX
  8
0
 10
3.66493
 20
2.14486
 30
0.0
 40
0.0111111
 41
0.0111111
  0
SEQEND
 8
0
  0
POLYLINE
  8
0
 62
     0
 66
     1
 10
0
 20
0
 30
0.0
 40
0.8
 41
0.8
  0
VERTEX
  8
0
 10
3.66493
 20
2.14486
 30
0.0
 40
0.0111111
 41
0.0111111
  0
VERTEX
  8
0
 10
3.65033
 20
2.13803
 30
0.0
 40
0.0111111
 41
0.0111111
  0
SEQEND
 8
0
  0
POLYLINE
  8
0
 62
     0
 66
     1
 10
0
 20
0
 30
0.0
 40
0.8
 41
0.8
  0
VERTEX
  8
0
 10
3.65033
 20
2.13803
 30
0.0
 40
0.0111111
 41
0.0111111
  0
VERTEX
  8
0
 10
3.63504
 20
2.13308
 30
0.0
 40
0.0111111
 41
0.0111111
  0
SEQEND
 8
0
  0
POLYLINE
  8
0
 62
     0
 66
     1
 10
0
 20
0
 30
0.0
 40
0.8
 41
0.8
  0
VERTEX
  8
0
 10
3.63504
 20
2.13308
 30
0.0
 40
0.0111111
 41
0.0111111
  0
VERTEX
  8
0
 10
3.61925
 20
2.1301
 30
0.0
 40
0.0111111
 41
0.0111111
  0
SEQEND
 8
0
  0
POLYLINE
  8
0
 62
     0
 66
     1
 10
0
 20
0
 30
0.0
 40
0.8
 41
0.8
  0
VERTEX
  8
0
 10
3.61925
 20
2.1301
 30
0.0
 40
0.0111111
 41
0.0111111
  0
VERTEX
  8
0
 10
3.60325
 20
2.12907
 30
0.0
 40
0.0111111
 41
0.0111111
  0
SEQEND
 8
0
  0
POLYLINE
  8
0
 62
     0
 66
     1
 10
0
 20
0
 30
0.0
 40
0.8
 41
0.8
  0
VERTEX
  8
0
 10
3.60325
 20
2.12907
 30
0.0
 40
0.0111111
 41
0.0111111
  0
VERTEX
  8
0
 10
3.58724
 20
2.1301
 30
0.0
 40
0.0111111
 41
0.0111111
  0
SEQEND
 8
0
  0
POLYLINE
  8
0
 62
     0
 66
     1
 10
0
 20
0
 30
0.0
 40
0.8
 41
0.8
  0
VERTEX
  8
0
 10
3.58724
 20
2.1301
 30
0.0
 40
0.0111111
 41
0.0111111
  0
VERTEX
  8
0
 10
3.57146
 20
2.13308
 30
0.0
 40
0.0111111
 41
0.0111111
  0
SEQEND
 8
0
  0
POLYLINE
  8
0
 62
     0
 66
     1
 10
0
 20
0
 30
0.0
 40
0.8
 41
0.8
  0
VERTEX
  8
0
 10
3.57146
 20
2.13308
 30
0.0
 40
0.0111111
 41
0.0111111
  0
VERTEX
  8
0
 10
3.55615
 20
2.13803
 30
0.0
 40
0.0111111
 41
0.0111111
  0
SEQEND
 8
0
  0
POLYLINE
  8
0
 62
     0
 66
     1
 10
0
 20
0
 30
0.0
 40
0.8
 41
0.8
  0
VERTEX
  8
0
 10
3.55615
 20
2.13803
 30
0.0
 40
0.0111111
 41
0.0111111
  0
VERTEX
  8
0
 10
3.54161
 20
2.14486
 30
0.0
 40
0.0111111
 41
0.0111111
  0
SEQEND
 8
0
  0
POLYLINE
  8
0
 62
     0
 66
     1
 10
0
 20
0
 30
0.0
 40
0.8
 41
0.8
  0
VERTEX
  8
0
 10
3.54161
 20
2.14486
 30
0.0
 40
0.0111111
 41
0.0111111
  0
VERTEX
  8
0
 10
3.52806
 20
2.15349
 30
0.0
 40
0.0111111
 41
0.0111111
  0
SEQEND
 8
0
  0
POLYLINE
  8
0
 62
     0
 66
     1
 10
0
 20
0
 30
0.0
 40
0.8
 41
0.8
  0
VERTEX
  8
0
 10
3.52806
 20
2.15349
 30
0.0
 40
0.0111111
 41
0.0111111
  0
VERTEX
  8
0
 10
3.51568
 20
2.16374
 30
0.0
 40
0.0111111
 41
0.0111111
  0
SEQEND
 8
0
  0
POLYLINE
  8
0
 62
     0
 66
     1
 10
0
 20
0
 30
0.0
 40
0.8
 41
0.8
  0
VERTEX
  8
0
 10
3.51568
 20
2.16374
 30
0.0
 40
0.0111111
 41
0.0111111
  0
VERTEX
  8
0
 10
3.50467
 20
2.17546
 30
0.0
 40
0.0111111
 41
0.0111111
  0
SEQEND
 8
0
  0
POLYLINE
  8
0
 62
     0
 66
     1
 10
0
 20
0
 30
0.0
 40
0.8
 41
0.8
  0
VERTEX
  8
0
 10
3.50467
 20
2.17546
 30
0.0
 40
0.0111111
 41
0.0111111
  0
VERTEX
  8
0
 10
3.49522
 20
2.18847
 30
0.0
 40
0.0111111
 41
0.0111111
  0
SEQEND
 8
0
  0
POLYLINE
  8
0
 62
     0
 66
     1
 10
0
 20
0
 30
0.0
 40
0.8
 41
0.8
  0
VERTEX
  8
0
 10
3.49522
 20
2.18847
 30
0.0
 40
0.0111111
 41
0.0111111
  0
VERTEX
  8
0
 10
3.48747
 20
2.20253
 30
0.0
 40
0.0111111
 41
0.0111111
  0
SEQEND
 8
0
  0
POLYLINE
  8
0
 62
     0
 66
     1
 10
0
 20
0
 30
0.0
 40
0.8
 41
0.8
  0
VERTEX
  8
0
 10
3.48747
 20
2.20253
 30
0.0
 40
0.0111111
 41
0.0111111
  0
VERTEX
  8
0
 10
3.48156
 20
2.2175
 30
0.0
 40
0.0111111
 41
0.0111111
  0
SEQEND
 8
0
  0
POLYLINE
  8
0
 62
     0
 66
     1
 10
0
 20
0
 30
0.0
 40
0.8
 41
0.8
  0
VERTEX
  8
0
 10
3.48156
 20
2.2175
 30
0.0
 40
0.0111111
 41
0.0111111
  0
VERTEX
  8
0
 10
3.4776
 20
2.23301
 30
0.0
 40
0.0111111
 41
0.0111111
  0
SEQEND
 8
0
  0
POLYLINE
  8
0
 62
     0
 66
     1
 10
0
 20
0
 30
0.0
 40
0.8
 41
0.8
  0
VERTEX
  8
0
 10
3.4776
 20
2.23301
 30
0.0
 40
0.0111111
 41
0.0111111
  0
VERTEX
  8
0
 10
3.47553
 20
2.24897
 30
0.0
 40
0.0111111
 41
0.0111111
  0
SEQEND
 8
0
  0
POLYLINE
  8
0
 62
     0
 66
     1
 10
0
 20
0
 30
0.0
 40
0.8
 41
0.8
  0
VERTEX
  8
0
 10
3.47553
 20
2.24897
 30
0.0
 40
0.0111111
 41
0.0111111
  0
VERTEX
  8
0
 10
3.47553
 20
2.26503
 30
0.0
 40
0.0111111
 41
0.0111111
  0
SEQEND
 8
0
  0
POLYLINE
  8
0
 62
     0
 66
     1
 10
0
 20
0
 30
0.0
 40
0.8
 41
0.8
  0
VERTEX
  8
0
 10
3.47553
 20
2.26503
 30
0.0
 40
0.0111111
 41
0.0111111
  0
VERTEX
  8
0
 10
3.4776
 20
2.28097
 30
0.0
 40
0.0111111
 41
0.0111111
  0
SEQEND
 8
0
  0
POLYLINE
  8
0
 62
     0
 66
     1
 10
0
 20
0
 30
0.0
 40
0.8
 41
0.8
  0
VERTEX
  8
0
 10
3.4776
 20
2.28097
 30
0.0
 40
0.0111111
 41
0.0111111
  0
VERTEX
  8
0
 10
3.48156
 20
2.29656
 30
0.0
 40
0.0111111
 41
0.0111111
  0
SEQEND
 8
0
  0
POLYLINE
  8
0
 62
     0
 66
     1
 10
0
 20
0
 30
0.0
 40
0.8
 41
0.8
  0
VERTEX
  8
0
 10
3.48156
 20
2.29656
 30
0.0
 40
0.0111111
 41
0.0111111
  0
VERTEX
  8
0
 10
3.48747
 20
2.31147
 30
0.0
 40
0.0111111
 41
0.0111111
  0
SEQEND
 8
0
  0
POLYLINE
  8
0
 62
     0
 66
     1
 10
0
 20
0
 30
0.0
 40
0.8
 41
0.8
  0
VERTEX
  8
0
 10
3.48747
 20
2.31147
 30
0.0
 40
0.0111111
 41
0.0111111
  0
VERTEX
  8
0
 10
3.49522
 20
2.32553
 30
0.0
 40
0.0111111
 41
0.0111111
  0
SEQEND
 8
0
  0
POLYLINE
  8
0
 62
     0
 66
     1
 10
0
 20
0
 30
0.0
 40
0.8
 41
0.8
  0
VERTEX
  8
0
 10
3.49522
 20
2.32553
 30
0.0
 40
0.0111111
 41
0.0111111
  0
VERTEX
  8
0
 10
3.50467
 20
2.3386
 30
0.0
 40
0.0111111
 41
0.0111111
  0
SEQEND
 8
0
  0
POLYLINE
  8
0
 62
     0
 66
     1
 10
0
 20
0
 30
0.0
 40
0.8
 41
0.8
  0
VERTEX
  8
0
 10
3.50467
 20
2.3386
 30
0.0
 40
0.0111111
 41
0.0111111
  0
VERTEX
  8
0
 10
3.51568
 20
2.35026
 30
0.0
 40
0.0111111
 41
0.0111111
  0
SEQEND
 8
0
  0
POLYLINE
  8
0
 62
     0
 66
     1
 10
0
 20
0
 30
0.0
 40
0.8
 41
0.8
  0
VERTEX
  8
0
 10
3.51568
 20
2.35026
 30
0.0
 40
0.0111111
 41
0.0111111
  0
VERTEX
  8
0
 10
3.52806
 20
2.36051
 30
0.0
 40
0.0111111
 41
0.0111111
  0
SEQEND
 8
0
  0
POLYLINE
  8
0
 62
     0
 66
     1
 10
0
 20
0
 30
0.0
 40
0.8
 41
0.8
  0
VERTEX
  8
0
 10
3.52806
 20
2.36051
 30
0.0
 40
0.0111111
 41
0.0111111
  0
VERTEX
  8
0
 10
3.54161
 20
2.36914
 30
0.0
 40
0.0111111
 41
0.0111111
  0
SEQEND
 8
0
  0
POLYLINE
  8
0
 62
     0
 66
     1
 10
0
 20
0
 30
0.0
 40
0.8
 41
0.8
  0
VERTEX
  8
0
 10
3.54161
 20
2.36914
 30
0.0
 40
0.0111111
 41
0.0111111
  0
VERTEX
  8
0
 10
3.55615
 20
2.37597
 30
0.0
 40
0.0111111
 41
0.0111111
  0
SEQEND
 8
0
  0
POLYLINE
  8
0
 62
     0
 66
     1
 10
0
 20
0
 30
0.0
 40
0.8
 41
0.8
  0
VERTEX
  8
0
 10
3.55615
 20
2.37597
 30
0.0
 40
0.0111111
 41
0.0111111
  0
VERTEX
  8
0
 10
3.57146
 20
2.38092
 30
0.0
 40
0.0111111
 41
0.0111111
  0
SEQEND
 8
0
  0
POLYLINE
  8
0
 62
     0
 66
     1
 10
0
 20
0
 30
0.0
 40
0.8
 41
0.8
  0
VERTEX
  8
0
 10
3.57146
 20
2.38092
 30
0.0
 40
0.0111111
 41
0.0111111
  0
VERTEX
  8
0
 10
3.58724
 20
2.38396
 30
0.0
 40
0.0111111
 41
0.0111111
  0
SEQEND
 8
0
  0
POLYLINE
  8
0
 62
     0
 66
     1
 10
0
 20
0
 30
0.0
 40
0.8
 41
0.8
  0
VERTEX
  8
0
 10
3.58724
 20
2.38396
 30
0.0
 40
0.0111111
 41
0.0111111
  0
VERTEX
  8
0
 10
3.60325
 20
2.38499
 30
0.0
 40
0.0111111
 41
0.0111111
  0
SEQEND
 8
0
  0
POLYLINE
  8
0
 62
     0
 66
     1
 10
0
 20
0
 30
0.0
 40
0.8
 41
0.8
  0
VERTEX
  8
0
 10
0.089464
 20
2.51292
 30
0.0
 40
0.0111111
 41
0.0111111
  0
VERTEX
  8
0
 10
3.60325
 20
2.51292
 30
0.0
 40
0.0111111
 41
0.0111111
  0
SEQEND
 8
0
  0
POLYLINE
  8
0
 62
     0
 66
     1
 10
0
 20
0
 30
0.0
 40
0.8
 41
0.8
  0
VERTEX
  8
0
 10
3.60325
 20
2.51292
 30
0.0
 40
0.0111111
 41
0.0111111
  0
VERTEX
  8
0
 10
3.63536
 20
2.5109
 30
0.0
 40
0.0111111
 41
0.0111111
  0
SEQEND
 8
0
  0
POLYLINE
  8
0
 62
     0
 66
     1
 10
0
 20
0
 30
0.0
 40
0.8
 41
0.8
  0
VERTEX
  8
0
 10
3.63536
 20
2.5109
 30
0.0
 40
0.0111111
 41
0.0111111
  0
VERTEX
  8
0
 10
3.66689
 20
2.50489
 30
0.0
 40
0.0111111
 41
0.0111111
  0
SEQEND
 8
0
  0
POLYLINE
  8
0
 62
     0
 66
     1
 10
0
 20
0
 30
0.0
 40
0.8
 41
0.8
  0
VERTEX
  8
0
 10
3.66689
 20
2.50489
 30
0.0
 40
0.0111111
 41
0.0111111
  0
VERTEX
  8
0
 10
3.69749
 20
2.49496
 30
0.0
 40
0.0111111
 41
0.0111111
  0
SEQEND
 8
0
  0
POLYLINE
  8
0
 62
     0
 66
     1
 10
0
 20
0
 30
0.0
 40
0.8
 41
0.8
  0
VERTEX
  8
0
 10
3.69749
 20
2.49496
 30
0.0
 40
0.0111111
 41
0.0111111
  0
VERTEX
  8
0
 10
3.72651
 20
2.48128
 30
0.0
 40
0.0111111
 41
0.0111111
  0
SEQEND
 8
0
  0
POLYLINE
  8
0
 62
     0
 66
     1
 10
0
 20
0
 30
0.0
 40
0.8
 41
0.8
  0
VERTEX
  8
0
 10
3.72651
 20
2.48128
 30
0.0
 40
0.0111111
 41
0.0111111
  0
VERTEX
  8
0
 10
3.75369
 20
2.46403
 30
0.0
 40
0.0111111
 41
0.0111111
  0
SEQEND
 8
0
  0
POLYLINE
  8
0
 62
     0
 66
     1
 10
0
 20
0
 30
0.0
 40
0.8
 41
0.8
  0
VERTEX
  8
0
 10
3.75369
 20
2.46403
 30
0.0
 40
0.0111111
 41
0.0111111
  0
VERTEX
  8
0
 10
3.77843
 20
2.44353
 30
0.0
 40
0.0111111
 41
0.0111111
  0
SEQEND
 8
0
  0
POLYLINE
  8
0
 62
     0
 66
     1
 10
0
 20
0
 30
0.0
 40
0.8
 41
0.8
  0
VERTEX
  8
0
 10
3.77843
 20
2.44353
 30
0.0
 40
0.0111111
 41
0.0111111
  0
VERTEX
  8
0
 10
3.8004
 20
2.42014
 30
0.0
 40
0.0111111
 41
0.0111111
  0
SEQEND
 8
0
  0
POLYLINE
  8
0
 62
     0
 66
     1
 10
0
 20
0
 30
0.0
 40
0.8
 41
0.8
  0
VERTEX
  8
0
 10
3.8004
 20
2.42014
 30
0.0
 40
0.0111111
 41
0.0111111
  0
VERTEX
  8
0
 10
3.81933
 20
2.39415
 30
0.0
 40
0.0111111
 41
0.0111111
  0
SEQEND
 8
0
  0
POLYLINE
  8
0
 62
     0
 66
     1
 10
0
 20
0
 30
0.0
 40
0.8
 41
0.8
  0
VERTEX
  8
0
 10
3.81933
 20
2.39415
 30
0.0
 40
0.0111111
 41
0.0111111
  0
VERTEX
  8
0
 10
3.83479
 20
2.366
 30
0.0
 40
0.0111111
 41
0.0111111
  0
SEQEND
 8
0
  0
POLYLINE
  8
0
 62
     0
 66
     1
 10
0
 20
0
 30
0.0
 40
0.8
 41
0.8
  0
VERTEX
  8
0
 10
3.83479
 20
2.366
 30
0.0
 40
0.0111111
 41
0.0111111
  0
VERTEX
  8
0
 10
3.84663
 20
2.3361
 30
0.0
 40
0.0111111
 41
0.0111111
  0
SEQEND
 8
0
  0
POLYLINE
  8
0
 62
     0
 66
     1
 10
0
 20
0
 30
0.0
 40
0.8
 41
0.8
  0
VERTEX
  8
0
 10
3.84663
 20
2.3361
 30
0.0
 40
0.0111111
 41
0.0111111
  0
VERTEX
  8
0
 10
3.85465
 20
2.30496
 30
0.0
 40
0.0111111
 41
0.0111111
  0
SEQEND
 8
0
  0
POLYLINE
  8
0
 62
     0
 66
     1
 10
0
 20
0
 30
0.0
 40
0.8
 41
0.8
  0
VERTEX
  8
0
 10
3.85465
 20
2.30496
 30
0.0
 40
0.0111111
 41
0.0111111
  0
VERTEX
  8
0
 10
3.85867
 20
2.27306
 30
0.0
 40
0.0111111
 41
0.0111111
  0
SEQEND
 8
0
  0
POLYLINE
  8
0
 62
     0
 66
     1
 10
0
 20
0
 30
0.0
 40
0.8
 41
0.8
  0
VERTEX
  8
0
 10
3.85867
 20
2.27306
 30
0.0
 40
0.0111111
 41
0.0111111
  0
VERTEX
  8
0
 10
3.85867
 20
2.24094
 30
0.0
 40
0.0111111
 41
0.0111111
  0
SEQEND
 8
0
  0
POLYLINE
  8
0
 62
     0
 66
     1
 10
0
 20
0
 30
0.0
 40
0.8
 41
0.8
  0
VERTEX
  8
0
 10
3.85867
 20
2.24094
 30
0.0
 40
0.0111111
 41
0.0111111
  0
VERTEX
  8
0
 10
3.85465
 20
2.20904
 30
0.0
 40
0.0111111
 41
0.0111111
  0
SEQEND
 8
0
  0
POLYLINE
  8
0
 62
     0
 66
     1
 10
0
 20
0
 30
0.0
 40
0.8
 41
0.8
  0
VERTEX
  8
0
 10
3.85465
 20
2.20904
 30
0.0
 40
0.0111111
 41
0.0111111
  0
VERTEX
  8
0
 10
3.84663
 20
2.1779
 30
0.0
 40
0.0111111
 41
0.0111111
  0
SEQEND
 8
0
  0
POLYLINE
  8
0
 62
     0
 66
     1
 10
0
 20
0
 30
0.0
 40
0.8
 41
0.8
  0
VERTEX
  8
0
 10
3.84663
 20
2.1779
 30
0.0
 40
0.0111111
 41
0.0111111
  0
VERTEX
  8
0
 10
3.83479
 20
2.148
 30
0.0
 40
0.0111111
 41
0.0111111
  0
SEQEND
 8
0
  0
POLYLINE
  8
0
 62
     0
 66
     1
 10
0
 20
0
 30
0.0
 40
0.8
 41
0.8
  0
VERTEX
  8
0
 10
3.83479
 20
2.148
 30
0.0
 40
0.0111111
 41
0.0111111
  0
VERTEX
  8
0
 10
3.81933
 20
2.1199
 30
0.0
 40
0.0111111
 41
0.0111111
  0
SEQEND
 8
0
  0
POLYLINE
  8
0
 62
     0
 66
     1
 10
0
 20
0
 30
0.0
 40
0.8
 41
0.8
  0
VERTEX
  8
0
 10
3.81933
 20
2.1199
 30
0.0
 40
0.0111111
 41
0.0111111
  0
VERTEX
  8
0
 10
3.8004
 20
2.09392
 30
0.0
 40
0.0111111
 41
0.0111111
  0
SEQEND
 8
0
  0
POLYLINE
  8
0
 62
     0
 66
     1
 10
0
 20
0
 30
0.0
 40
0.8
 41
0.8
  0
VERTEX
  8
0
 10
3.8004
 20
2.09392
 30
0.0
 40
0.0111111
 41
0.0111111
  0
VERTEX
  8
0
 10
3.77843
 20
2.07047
 30
0.0
 40
0.0111111
 41
0.0111111
  0
SEQEND
 8
0
  0
POLYLINE
  8
0
 62
     0
 66
     1
 10
0
 20
0
 30
0.0
 40
0.8
 41
0.8
  0
VERTEX
  8
0
 10
3.77843
 20
2.07047
 30
0.0
 40
0.0111111
 41
0.0111111
  0
VERTEX
  8
0
 10
3.75369
 20
2.04997
 30
0.0
 40
0.0111111
 41
0.0111111
  0
SEQEND
 8
0
  0
POLYLINE
  8
0
 62
     0
 66
     1
 10
0
 20
0
 30
0.0
 40
0.8
 41
0.8
  0
VERTEX
  8
0
 10
3.75369
 20
2.04997
 30
0.0
 40
0.0111111
 41
0.0111111
  0
VERTEX
  8
0
 10
3.72651
 20
2.03276
 30
0.0
 40
0.0111111
 41
0.0111111
  0
SEQEND
 8
0
  0
POLYLINE
  8
0
 62
     0
 66
     1
 10
0
 20
0
 30
0.0
 40
0.8
 41
0.8
  0
VERTEX
  8
0
 10
3.72651
 20
2.03276
 30
0.0
 40
0.0111111
 41
0.0111111
  0
VERTEX
  8
0
 10
3.69749
 20
2.01904
 30
0.0
 40
0.0111111
 41
0.0111111
  0
SEQEND
 8
0
  0
POLYLINE
  8
0
 62
     0
 66
     1
 10
0
 20
0
 30
0.0
 40
0.8
 41
0.8
  0
VERTEX
  8
0
 10
3.69749
 20
2.01904
 30
0.0
 40
0.0111111
 41
0.0111111
  0
VERTEX
  8
0
 10
3.66689
 20
2.00911
 30
0.0
 40
0.0111111
 41
0.0111111
  0
SEQEND
 8
0
  0
POLYLINE
  8
0
 62
     0
 66
     1
 10
0
 20
0
 30
0.0
 40
0.8
 41
0.8
  0
VERTEX
  8
0
 10
3.66689
 20
2.00911
 30
0.0
 40
0.0111111
 41
0.0111111
  0
VERTEX
  8
0
 10
3.63536
 20
2.0031
 30
0.0
 40
0.0111111
 41
0.0111111
  0
SEQEND
 8
0
  0
POLYLINE
  8
0
 62
     0
 66
     1
 10
0
 20
0
 30
0.0
 40
0.8
 41
0.8
  0
VERTEX
  8
0
 10
3.63536
 20
2.0031
 30
0.0
 40
0.0111111
 41
0.0111111
  0
VERTEX
  8
0
 10
3.60325
 20
2.00108
 30
0.0
 40
0.0111111
 41
0.0111111
  0
SEQEND
 8
0
  0
POLYLINE
  8
0
 62
     0
 66
     1
 10
0
 20
0
 30
0.0
 40
0.8
 41
0.8
  0
VERTEX
  8
0
 10
3.60325
 20
2.00108
 30
0.0
 40
0.0111111
 41
0.0111111
  0
VERTEX
  8
0
 10
0.089464
 20
2.00108
 30
0.0
 40
0.0111111
 41
0.0111111
  0
SEQEND
 8
0
  0
POLYLINE
  8
0
 62
     0
 66
     1
 10
0
 20
0
 30
0.0
 40
0.8
 41
0.8
  0
VERTEX
  8
0
 10
0.089464
 20
2.00108
 30
0.0
 40
0.0111111
 41
0.0111111
  0
VERTEX
  8
0
 10
0.089464
 20
2.51292
 30
0.0
 40
0.0111111
 41
0.0111111
  0
SEQEND
 8
0
  0
POLYLINE
  8
0
 62
     0
 66
     1
 10
0
 20
0
 30
0.0
 40
0.8
 41
0.8
  0
VERTEX
  8
0
 10
0.00553386
 20
3.27604
 30
0.0
 40
0.0111111
 41
0.0111111
  0
VERTEX
  8
0
 10
0.00553386
 20
3.66971
 30
0.0
 40
0.0111111
 41
0.0111111
  0
SEQEND
 8
0
  0
POLYLINE
  8
0
 62
     0
 66
     1
 10
0
 20
0
 30
0.0
 40
0.8
 41
0.8
  0
VERTEX
  8
0
 10
0.00553386
 20
3.66971
 30
0.0
 40
0.0111111
 41
0.0111111
  0
VERTEX
  8
0
 10
0.202419
 20
3.66971
 30
0.0
 40
0.0111111
 41
0.0111111
  0
SEQEND
 8
0
  0
POLYLINE
  8
0
 62
     0
 66
     1
 10
0
 20
0
 30
0.0
 40
0.8
 41
0.8
  0
VERTEX
  8
0
 10
0.202419
 20
3.66971
 30
0.0
 40
0.0111111
 41
0.0111111
  0
VERTEX
  8
0
 10
0.202419
 20
3.78782
 30
0.0
 40
0.0111111
 41
0.0111111
  0
SEQEND
 8
0
  0
POLYLINE
  8
0
 62
     0
 66
     1
 10
0
 20
0
 30
0.0
 40
0.8
 41
0.8
  0
VERTEX
  8
0
 10
0.202419
 20
3.78782
 30
0.0
 40
0.0111111
 41
0.0111111
  0
VERTEX
  8
0
 10
0.596083
 20
3.78782
 30
0.0
 40
0.0111111
 41
0.0111111
  0
SEQEND
 8
0
  0
POLYLINE
  8
0
 62
     0
 66
     1
 10
0
 20
0
 30
0.0
 40
0.8
 41
0.8
  0
VERTEX
  8
0
 10
0.596083
 20
3.78782
 30
0.0
 40
0.0111111
 41
0.0111111
  0
VERTEX
  8
0
 10
0.596083
 20
3.66971
 30
0.0
 40
0.0111111
 41
0.0111111
  0
SEQEND
 8
0
  0
POLYLINE
  8
0
 62
     0
 66
     1
 10
0
 20
0
 30
0.0
 40
0.8
 41
0.8
  0
VERTEX
  8
0
 10
0.596083
 20
3.66971
 30
0.0
 40
0.0111111
 41
0.0111111
  0
VERTEX
  8
0
 10
1.77724
 20
3.66971
 30
0.0
 40
0.0111111
 41
0.0111111
  0
SEQEND
 8
0
  0
POLYLINE
  8
0
 62
     0
 66
     1
 10
0
 20
0
 30
0.0
 40
0.8
 41
0.8
  0
VERTEX
  8
0
 10
1.77724
 20
3.66971
 30
0.0
 40
0.0111111
 41
0.0111111
  0
VERTEX
  8
0
 10
1.77724
 20
3.78782
 30
0.0
 40
0.0111111
 41
0.0111111
  0
SEQEND
 8
0
  0
POLYLINE
  8
0
 62
     0
 66
     1
 10
0
 20
0
 30
0.0
 40
0.8
 41
0.8
  0
VERTEX
  8
0
 10
1.77724
 20
3.78782
 30
0.0
 40
0.0111111
 41
0.0111111
  0
VERTEX
  8
0
 10
2.1709
 20
3.78782
 30
0.0
 40
0.0111111
 41
0.0111111
  0
SEQEND
 8
0
  0
POLYLINE
  8
0
 62
     0
 66
     1
 10
0
 20
0
 30
0.0
 40
0.8
 41
0.8
  0
VERTEX
  8
0
 10
2.1709
 20
3.78782
 30
0.0
 40
0.0111111
 41
0.0111111
  0
VERTEX
  8
0
 10
2.1709
 20
3.66971
 30
0.0
 40
0.0111111
 41
0.0111111
  0
SEQEND
 8
0
  0
POLYLINE
  8
0
 62
     0
 66
     1
 10
0
 20
0
 30
0.0
 40
0.8
 41
0.8
  0
VERTEX
  8
0
 10
2.1709
 20
3.66971
 30
0.0
 40
0.0111111
 41
0.0111111
  0
VERTEX
  8
0
 10
3.352
 20
3.66971
 30
0.0
 40
0.0111111
 41
0.0111111
  0
SEQEND
 8
0
  0
POLYLINE
  8
0
 62
     0
 66
     1
 10
0
 20
0
 30
0.0
 40
0.8
 41
0.8
  0
VERTEX
  8
0
 10
3.352
 20
3.66971
 30
0.0
 40
0.0111111
 41
0.0111111
  0
VERTEX
  8
0
 10
3.352
 20
3.78782
 30
0.0
 40
0.0111111
 41
0.0111111
  0
SEQEND
 8
0
  0
POLYLINE
  8
0
 62
     0
 66
     1
 10
0
 20
0
 30
0.0
 40
0.8
 41
0.8
  0
VERTEX
  8
0
 10
3.352
 20
3.78782
 30
0.0
 40
0.0111111
 41
0.0111111
  0
VERTEX
  8
0
 10
3.74571
 20
3.78782
 30
0.0
 40
0.0111111
 41
0.0111111
  0
SEQEND
 8
0
  0
POLYLINE
  8
0
 62
     0
 66
     1
 10
0
 20
0
 30
0.0
 40
0.8
 41
0.8
  0
VERTEX
  8
0
 10
3.74571
 20
3.78782
 30
0.0
 40
0.0111111
 41
0.0111111
  0
VERTEX
  8
0
 10
3.74571
 20
3.66971
 30
0.0
 40
0.0111111
 41
0.0111111
  0
SEQEND
 8
0
  0
POLYLINE
  8
0
 62
     0
 66
     1
 10
0
 20
0
 30
0.0
 40
0.8
 41
0.8
  0
VERTEX
  8
0
 10
3.74571
 20
3.66971
 30
0.0
 40
0.0111111
 41
0.0111111
  0
VERTEX
  8
0
 10
3.94254
 20
3.66971
 30
0.0
 40
0.0111111
 41
0.0111111
  0
SEQEND
 8
0
  0
POLYLINE
  8
0
 62
     0
 66
     1
 10
0
 20
0
 30
0.0
 40
0.8
 41
0.8
  0
VERTEX
  8
0
 10
3.94254
 20
3.66971
 30
0.0
 40
0.0111111
 41
0.0111111
  0
VERTEX
  8
0
 10
3.94254
 20
3.27604
 30
0.0
 40
0.0111111
 41
0.0111111
  0
SEQEND
 8
0
  0
POLYLINE
  8
0
 62
     0
 66
     1
 10
0
 20
0
 30
0.0
 40
0.8
 41
0.8
  0
VERTEX
  8
0
 10
3.94254
 20
3.27604
 30
0.0
 40
0.0111111
 41
0.0111111
  0
VERTEX
  8
0
 10
3.74571
 20
3.27604
 30
0.0
 40
0.0111111
 41
0.0111111
  0
SEQEND
 8
0
  0
POLYLINE
  8
0
 62
     0
 66
     1
 10
0
 20
0
 30
0.0
 40
0.8
 41
0.8
  0
VERTEX
  8
0
 10
3.74571
 20
3.27604
 30
0.0
 40
0.0111111
 41
0.0111111
  0
VERTEX
  8
0
 10
3.74571
 20
3.15793
 30
0.0
 40
0.0111111
 41
0.0111111
  0
SEQEND
 8
0
  0
POLYLINE
  8
0
 62
     0
 66
     1
 10
0
 20
0
 30
0.0
 40
0.8
 41
0.8
  0
VERTEX
  8
0
 10
3.74571
 20
3.15793
 30
0.0
 40
0.0111111
 41
0.0111111
  0
VERTEX
  8
0
 10
3.352
 20
3.15793
 30
0.0
 40
0.0111111
 41
0.0111111
  0
SEQEND
 8
0
  0
POLYLINE
  8
0
 62
     0
 66
     1
 10
0
 20
0
 30
0.0
 40
0.8
 41
0.8
  0
VERTEX
  8
0
 10
3.352
 20
3.15793
 30
0.0
 40
0.0111111
 41
0.0111111
  0
VERTEX
  8
0
 10
3.352
 20
3.27604
 30
0.0
 40
0.0111111
 41
0.0111111
  0
SEQEND
 8
0
  0
POLYLINE
  8
0
 62
     0
 66
     1
 10
0
 20
0
 30
0.0
 40
0.8
 41
0.8
  0
VERTEX
  8
0
 10
3.352
 20
3.27604
 30
0.0
 40
0.0111111
 41
0.0111111
  0
VERTEX
  8
0
 10
2.1709
 20
3.27604
 30
0.0
 40
0.0111111
 41
0.0111111
  0
SEQEND
 8
0
  0
POLYLINE
  8
0
 62
     0
 66
     1
 10
0
 20
0
 30
0.0
 40
0.8
 41
0.8
  0
VERTEX
  8
0
 10
2.1709
 20
3.27604
 30
0.0
 40
0.0111111
 41
0.0111111
  0
VERTEX
  8
0
 10
2.1709
 20
3.15793
 30
0.0
 40
0.0111111
 41
0.0111111
  0
SEQEND
 8
0
  0
POLYLINE
  8
0
 62
     0
 66
     1
 10
0
 20
0
 30
0.0
 40
0.8
 41
0.8
  0
VERTEX
  8
0
 10
2.1709
 20
3.15793
 30
0.0
 40
0.0111111
 41
0.0111111
  0
VERTEX
  8
0
 10
1.77724
 20
3.15793
 30
0.0
 40
0.0111111
 41
0.0111111
  0
SEQEND
 8
0
  0
POLYLINE
  8
0
 62
     0
 66
     1
 10
0
 20
0
 30
0.0
 40
0.8
 41
0.8
  0
VERTEX
  8
0
 10
1.77724
 20
3.15793
 30
0.0
 40
0.0111111
 41
0.0111111
  0
VERTEX
  8
0
 10
1.77724
 20
3.27604
 30
0.0
 40
0.0111111
 41
0.0111111
  0
SEQEND
 8
0
  0
POLYLINE
  8
0
 62
     0
 66
     1
 10
0
 20
0
 30
0.0
 40
0.8
 41
0.8
  0
VERTEX
  8
0
 10
1.77724
 20
3.27604
 30
0.0
 40
0.0111111
 41
0.0111111
  0
VERTEX
  8
0
 10
0.596083
 20
3.27604
 30
0.0
 40
0.0111111
 41
0.0111111
  0
SEQEND
 8
0
  0
POLYLINE
  8
0
 62
     0
 66
     1
 10
0
 20
0
 30
0.0
 40
0.8
 41
0.8
  0
VERTEX
  8
0
 10
0.596083
 20
3.27604
 30
0.0
 40
0.0111111
 41
0.0111111
  0
VERTEX
  8
0
 10
0.596083
 20
3.15793
 30
0.0
 40
0.0111111
 41
0.0111111
  0
SEQEND
 8
0
  0
POLYLINE
  8
0
 62
     0
 66
     1
 10
0
 20
0
 30
0.0
 40
0.8
 41
0.8
  0
VERTEX
  8
0
 10
0.596083
 20
3.15793
 30
0.0
 40
0.0111111
 41
0.0111111
  0
VERTEX
  8
0
 10
0.202419
 20
3.15793
 30
0.0
 40
0.0111111
 41
0.0111111
  0
SEQEND
 8
0
  0
POLYLINE
  8
0
 62
     0
 66
     1
 10
0
 20
0
 30
0.0
 40
0.8
 41
0.8
  0
VERTEX
  8
0
 10
0.202419
 20
3.15793
 30
0.0
 40
0.0111111
 41
0.0111111
  0
VERTEX
  8
0
 10
0.202419
 20
3.27604
 30
0.0
 40
0.0111111
 41
0.0111111
  0
SEQEND
 8
0
  0
POLYLINE
  8
0
 62
     0
 66
     1
 10
0
 20
0
 30
0.0
 40
0.8
 41
0.8
  0
VERTEX
  8
0
 10
0.202419
 20
3.27604
 30
0.0
 40
0.0111111
 41
0.0111111
  0
VERTEX
  8
0
 10
0.00553386
 20
3.27604
 30
0.0
 40
0.0111111
 41
0.0111111
  0
SEQEND
 8
0
  0
POLYLINE
  8
0
 62
     0
 66
     1
 10
0
 20
0
 30
0.0
 40
0.8
 41
0.8
  0
VERTEX
  8
0
 10
1.94456
 20
3.40722
 30
0.0
 40
0.0111111
 41
0.0111111
  0
VERTEX
  8
0
 10
1.94456
 20
3.53851
 30
0.0
 40
0.0111111
 41
0.0111111
  0
SEQEND
 8
0
  0
POLYLINE
  8
0
 62
     0
 66
     1
 10
0
 20
0
 30
0.0
 40
0.8
 41
0.8
  0
VERTEX
  8
0
 10
1.94456
 20
3.53851
 30
0.0
 40
0.0111111
 41
0.0111111
  0
VERTEX
  8
0
 10
2.00358
 20
3.53851
 30
0.0
 40
0.0111111
 41
0.0111111
  0
SEQEND
 8
0
  0
POLYLINE
  8
0
 62
     0
 66
     1
 10
0
 20
0
 30
0.0
 40
0.8
 41
0.8
  0
VERTEX
  8
0
 10
2.00358
 20
3.53851
 30
0.0
 40
0.0111111
 41
0.0111111
  0
VERTEX
  8
0
 10
2.00358
 20
3.40722
 30
0.0
 40
0.0111111
 41
0.0111111
  0
SEQEND
 8
0
  0
POLYLINE
  8
0
 62
     0
 66
     1
 10
0
 20
0
 30
0.0
 40
0.8
 41
0.8
  0
VERTEX
  8
0
 10
2.00358
 20
3.40722
 30
0.0
 40
0.0111111
 41
0.0111111
  0
VERTEX
  8
0
 10
1.94456
 20
3.40722
 30
0.0
 40
0.0111111
 41
0.0111111
  0
SEQEND
 8
0
  0
POLYLINE
  8
0
 62
     0
 66
     1
 10
0
 20
0
 30
0.0
 40
0.8
 41
0.8
  0
VERTEX
  8
0
 10
3.60325
 20
1.55957
 30
0.0
 40
0.0111111
 41
0.0111111
  0
VERTEX
  8
0
 10
3.61925
 20
1.55854
 30
0.0
 40
0.0111111
 41
0.0111111
  0
SEQEND
 8
0
  0
POLYLINE
  8
0
 62
     0
 66
     1
 10
0
 20
0
 30
0.0
 40
0.8
 41
0.8
  0
VERTEX
  8
0
 10
3.61925
 20
1.55854
 30
0.0
 40
0.0111111
 41
0.0111111
  0
VERTEX
  8
0
 10
3.63504
 20
1.55556
 30
0.0
 40
0.0111111
 41
0.0111111
  0
SEQEND
 8
0
  0
POLYLINE
  8
0
 62
     0
 66
     1
 10
0
 20
0
 30
0.0
 40
0.8
 41
0.8
  0
VERTEX
  8
0
 10
3.63504
 20
1.55556
 30
0.0
 40
0.0111111
 41
0.0111111
  0
VERTEX
  8
0
 10
3.65033
 20
1.55057
 30
0.0
 40
0.0111111
 41
0.0111111
  0
SEQEND
 8
0
  0
POLYLINE
  8
0
 62
     0
 66
     1
 10
0
 20
0
 30
0.0
 40
0.8
 41
0.8
  0
VERTEX
  8
0
 10
3.65033
 20
1.55057
 30
0.0
 40
0.0111111
 41
0.0111111
  0
VERTEX
  8
0
 10
3.66493
 20
1.54372
 30
0.0
 40
0.0111111
 41
0.0111111
  0
SEQEND
 8
0
  0
POLYLINE
  8
0
 62
     0
 66
     1
 10
0
 20
0
 30
0.0
 40
0.8
 41
0.8
  0
VERTEX
  8
0
 10
3.66493
 20
1.54372
 30
0.0
 40
0.0111111
 41
0.0111111
  0
VERTEX
  8
0
 10
3.67844
 20
1.5351
 30
0.0
 40
0.0111111
 41
0.0111111
  0
SEQEND
 8
0
  0
POLYLINE
  8
0
 62
     0
 66
     1
 10
0
 20
0
 30
0.0
 40
0.8
 41
0.8
  0
VERTEX
  8
0
 10
3.67844
 20
1.5351
 30
0.0
 40
0.0111111
 41
0.0111111
  0
VERTEX
  8
0
 10
3.69086
 20
1.52485
 30
0.0
 40
0.0111111
 41
0.0111111
  0
SEQEND
 8
0
  0
POLYLINE
  8
0
 62
     0
 66
     1
 10
0
 20
0
 30
0.0
 40
0.8
 41
0.8
  0
VERTEX
  8
0
 10
3.69086
 20
1.52485
 30
0.0
 40
0.0111111
 41
0.0111111
  0
VERTEX
  8
0
 10
3.70182
 20
1.51318
 30
0.0
 40
0.0111111
 41
0.0111111
  0
SEQEND
 8
0
  0
POLYLINE
  8
0
 62
     0
 66
     1
 10
0
 20
0
 30
0.0
 40
0.8
 41
0.8
  0
VERTEX
  8
0
 10
3.70182
 20
1.51318
 30
0.0
 40
0.0111111
 41
0.0111111
  0
VERTEX
  8
0
 10
3.71126
 20
1.50017
 30
0.0
 40
0.0111111
 41
0.0111111
  0
SEQEND
 8
0
  0
POLYLINE
  8
0
 62
     0
 66
     1
 10
0
 20
0
 30
0.0
 40
0.8
 41
0.8
  0
VERTEX
  8
0
 10
3.71126
 20
1.50017
 30
0.0
 40
0.0111111
 41
0.0111111
  0
VERTEX
  8
0
 10
3.71903
 20
1.48611
 30
0.0
 40
0.0111111
 41
0.0111111
  0
SEQEND
 8
0
  0
POLYLINE
  8
0
 62
     0
 66
     1
 10
0
 20
0
 30
0.0
 40
0.8
 41
0.8
  0
VERTEX
  8
0
 10
3.71903
 20
1.48611
 30
0.0
 40
0.0111111
 41
0.0111111
  0
VERTEX
  8
0
 10
3.72493
 20
1.47114
 30
0.0
 40
0.0111111
 41
0.0111111
  0
SEQEND
 8
0
  0
POLYLINE
  8
0
 62
     0
 66
     1
 10
0
 20
0
 30
0.0
 40
0.8
 41
0.8
  0
VERTEX
  8
0
 10
3.72493
 20
1.47114
 30
0.0
 40
0.0111111
 41
0.0111111
  0
VERTEX
  8
0
 10
3.72889
 20
1.45557
 30
0.0
 40
0.0111111
 41
0.0111111
  0
SEQEND
 8
0
  0
POLYLINE
  8
0
 62
     0
 66
     1
 10
0
 20
0
 30
0.0
 40
0.8
 41
0.8
  0
VERTEX
  8
0
 10
3.72889
 20
1.45557
 30
0.0
 40
0.0111111
 41
0.0111111
  0
VERTEX
  8
0
 10
3.73096
 20
1.43961
 30
0.0
 40
0.0111111
 41
0.0111111
  0
SEQEND
 8
0
  0
POLYLINE
  8
0
 62
     0
 66
     1
 10
0
 20
0
 30
0.0
 40
0.8
 41
0.8
  0
VERTEX
  8
0
 10
3.73096
 20
1.43961
 30
0.0
 40
0.0111111
 41
0.0111111
  0
VERTEX
  8
0
 10
3.73096
 20
1.42356
 30
0.0
 40
0.0111111
 41
0.0111111
  0
SEQEND
 8
0
  0
POLYLINE
  8
0
 62
     0
 66
     1
 10
0
 20
0
 30
0.0
 40
0.8
 41
0.8
  0
VERTEX
  8
0
 10
3.73096
 20
1.42356
 30
0.0
 40
0.0111111
 41
0.0111111
  0
VERTEX
  8
0
 10
3.72889
 20
1.40761
 30
0.0
 40
0.0111111
 41
0.0111111
  0
SEQEND
 8
0
  0
POLYLINE
  8
0
 62
     0
 66
     1
 10
0
 20
0
 30
0.0
 40
0.8
 41
0.8
  0
VERTEX
  8
0
 10
3.72889
 20
1.40761
 30
0.0
 40
0.0111111
 41
0.0111111
  0
VERTEX
  8
0
 10
3.72493
 20
1.39208
 30
0.0
 40
0.0111111
 41
0.0111111
  0
SEQEND
 8
0
  0
POLYLINE
  8
0
 62
     0
 66
     1
 10
0
 20
0
 30
0.0
 40
0.8
 41
0.8
  0
VERTEX
  8
0
 10
3.72493
 20
1.39208
 30
0.0
 40
0.0111111
 41
0.0111111
  0
VERTEX
  8
0
 10
3.71903
 20
1.37712
 30
0.0
 40
0.0111111
 41
0.0111111
  0
SEQEND
 8
0
  0
POLYLINE
  8
0
 62
     0
 66
     1
 10
0
 20
0
 30
0.0
 40
0.8
 41
0.8
  0
VERTEX
  8
0
 10
3.71903
 20
1.37712
 30
0.0
 40
0.0111111
 41
0.0111111
  0
VERTEX
  8
0
 10
3.71126
 20
1.36306
 30
0.0
 40
0.0111111
 41
0.0111111
  0
SEQEND
 8
0
  0
POLYLINE
  8
0
 62
     0
 66
     1
 10
0
 20
0
 30
0.0
 40
0.8
 41
0.8
  0
VERTEX
  8
0
 10
3.71126
 20
1.36306
 30
0.0
 40
0.0111111
 41
0.0111111
  0
VERTEX
  8
0
 10
3.70182
 20
1.35004
 30
0.0
 40
0.0111111
 41
0.0111111
  0
SEQEND
 8
0
  0
POLYLINE
  8
0
 62
     0
 66
     1
 10
0
 20
0
 30
0.0
 40
0.8
 41
0.8
  0
VERTEX
  8
0
 10
3.70182
 20
1.35004
 30
0.0
 40
0.0111111
 41
0.0111111
  0
VERTEX
  8
0
 10
3.69086
 20
1.33832
 30
0.0
 40
0.0111111
 41
0.0111111
  0
SEQEND
 8
0
  0
POLYLINE
  8
0
 62
     0
 66
     1
 10
0
 20
0
 30
0.0
 40
0.8
 41
0.8
  0
VERTEX
  8
0
 10
3.69086
 20
1.33832
 30
0.0
 40
0.0111111
 41
0.0111111
  0
VERTEX
  8
0
 10
3.67844
 20
1.32813
 30
0.0
 40
0.0111111
 41
0.0111111
  0
SEQEND
 8
0
  0
POLYLINE
  8
0
 62
     0
 66
     1
 10
0
 20
0
 30
0.0
 40
0.8
 41
0.8
  0
VERTEX
  8
0
 10
3.67844
 20
1.32813
 30
0.0
 40
0.0111111
 41
0.0111111
  0
VERTEX
  8
0
 10
3.66493
 20
1.3195
 30
0.0
 40
0.0111111
 41
0.0111111
  0
SEQEND
 8
0
  0
POLYLINE
  8
0
 62
     0
 66
     1
 10
0
 20
0
 30
0.0
 40
0.8
 41
0.8
  0
VERTEX
  8
0
 10
3.66493
 20
1.3195
 30
0.0
 40
0.0111111
 41
0.0111111
  0
VERTEX
  8
0
 10
3.65033
 20
1.31261
 30
0.0
 40
0.0111111
 41
0.0111111
  0
SEQEND
 8
0
  0
POLYLINE
  8
0
 62
     0
 66
     1
 10
0
 20
0
 30
0.0
 40
0.8
 41
0.8
  0
VERTEX
  8
0
 10
3.65033
 20
1.31261
 30
0.0
 40
0.0111111
 41
0.0111111
  0
VERTEX
  8
0
 10
3.63504
 20
1.30767
 30
0.0
 40
0.0111111
 41
0.0111111
  0
SEQEND
 8
0
  0
POLYLINE
  8
0
 62
     0
 66
     1
 10
0
 20
0
 30
0.0
 40
0.8
 41
0.8
  0
VERTEX
  8
0
 10
3.63504
 20
1.30767
 30
0.0
 40
0.0111111
 41
0.0111111
  0
VERTEX
  8
0
 10
3.61925
 20
1.30469
 30
0.0
 40
0.0111111
 41
0.0111111
  0
SEQEND
 8
0
  0
POLYLINE
  8
0
 62
     0
 66
     1
 10
0
 20
0
 30
0.0
 40
0.8
 41
0.8
  0
VERTEX
  8
0
 10
3.61925
 20
1.30469
 30
0.0
 40
0.0111111
 41
0.0111111
  0
VERTEX
  8
0
 10
3.60325
 20
1.30366
 30
0.0
 40
0.0111111
 41
0.0111111
  0
SEQEND
 8
0
  0
POLYLINE
  8
0
 62
     0
 66
     1
 10
0
 20
0
 30
0.0
 40
0.8
 41
0.8
  0
VERTEX
  8
0
 10
3.60325
 20
1.30366
 30
0.0
 40
0.0111111
 41
0.0111111
  0
VERTEX
  8
0
 10
3.58724
 20
1.30469
 30
0.0
 40
0.0111111
 41
0.0111111
  0
SEQEND
 8
0
  0
POLYLINE
  8
0
 62
     0
 66
     1
 10
0
 20
0
 30
0.0
 40
0.8
 41
0.8
  0
VERTEX
  8
0
 10
3.58724
 20
1.30469
 30
0.0
 40
0.0111111
 41
0.0111111
  0
VERTEX
  8
0
 10
3.57146
 20
1.30767
 30
0.0
 40
0.0111111
 41
0.0111111
  0
SEQEND
 8
0
  0
POLYLINE
  8
0
 62
     0
 66
     1
 10
0
 20
0
 30
0.0
 40
0.8
 41
0.8
  0
VERTEX
  8
0
 10
3.57146
 20
1.30767
 30
0.0
 40
0.0111111
 41
0.0111111
  0
VERTEX
  8
0
 10
3.55615
 20
1.31261
 30
0.0
 40
0.0111111
 41
0.0111111
  0
SEQEND
 8
0
  0
POLYLINE
  8
0
 62
     0
 66
     1
 10
0
 20
0
 30
0.0
 40
0.8
 41
0.8
  0
VERTEX
  8
0
 10
3.55615
 20
1.31261
 30
0.0
 40
0.0111111
 41
0.0111111
  0
VERTEX
  8
0
 10
3.54161
 20
1.3195
 30
0.0
 40
0.0111111
 41
0.0111111
  0
SEQEND
 8
0
  0
POLYLINE
  8
0
 62
     0
 66
     1
 10
0
 20
0
 30
0.0
 40
0.8
 41
0.8
  0
VERTEX
  8
0
 10
3.54161
 20
1.3195
 30
0.0
 40
0.0111111
 41
0.0111111
  0
VERTEX
  8
0
 10
3.52806
 20
1.32813
 30
0.0
 40
0.0111111
 41
0.0111111
  0
SEQEND
 8
0
  0
POLYLINE
  8
0
 62
     0
 66
     1
 10
0
 20
0
 30
0.0
 40
0.8
 41
0.8
  0
VERTEX
  8
0
 10
3.52806
 20
1.32813
 30
0.0
 40
0.0111111
 41
0.0111111
  0
VERTEX
  8
0
 10
3.51568
 20
1.33832
 30
0.0
 40
0.0111111
 41
0.0111111
  0
SEQEND
 8
0
  0
POLYLINE
  8
0
 62
     0
 66
     1
 10
0
 20
0
 30
0.0
 40
0.8
 41
0.8
  0
VERTEX
  8
0
 10
3.51568
 20
1.33832
 30
0.0
 40
0.0111111
 41
0.0111111
  0
VERTEX
  8
0
 10
3.50467
 20
1.35004
 30
0.0
 40
0.0111111
 41
0.0111111
  0
SEQEND
 8
0
  0
POLYLINE
  8
0
 62
     0
 66
     1
 10
0
 20
0
 30
0.0
 40
0.8
 41
0.8
  0
VERTEX
  8
0
 10
3.50467
 20
1.35004
 30
0.0
 40
0.0111111
 41
0.0111111
  0
VERTEX
  8
0
 10
3.49522
 20
1.36306
 30
0.0
 40
0.0111111
 41
0.0111111
  0
SEQEND
 8
0
  0
POLYLINE
  8
0
 62
     0
 66
     1
 10
0
 20
0
 30
0.0
 40
0.8
 41
0.8
  0
VERTEX
  8
0
 10
3.49522
 20
1.36306
 30
0.0
 40
0.0111111
 41
0.0111111
  0
VERTEX
  8
0
 10
3.48747
 20
1.37712
 30
0.0
 40
0.0111111
 41
0.0111111
  0
SEQEND
 8
0
  0
POLYLINE
  8
0
 62
     0
 66
     1
 10
0
 20
0
 30
0.0
 40
0.8
 41
0.8
  0
VERTEX
  8
0
 10
3.48747
 20
1.37712
 30
0.0
 40
0.0111111
 41
0.0111111
  0
VERTEX
  8
0
 10
3.48156
 20
1.39208
 30
0.0
 40
0.0111111
 41
0.0111111
  0
SEQEND
 8
0
  0
POLYLINE
  8
0
 62
     0
 66
     1
 10
0
 20
0
 30
0.0
 40
0.8
 41
0.8
  0
VERTEX
  8
0
 10
3.48156
 20
1.39208
 30
0.0
 40
0.0111111
 41
0.0111111
  0
VERTEX
  8
0
 10
3.4776
 20
1.40761
 30
0.0
 40
0.0111111
 41
0.0111111
  0
SEQEND
 8
0
  0
POLYLINE
  8
0
 62
     0
 66
     1
 10
0
 20
0
 30
0.0
 40
0.8
 41
0.8
  0
VERTEX
  8
0
 10
3.4776
 20
1.40761
 30
0.0
 40
0.0111111
 41
0.0111111
  0
VERTEX
  8
0
 10
3.47553
 20
1.42356
 30
0.0
 40
0.0111111
 41
0.0111111
  0
SEQEND
 8
0
  0
POLYLINE
  8
0
 62
     0
 66
     1
 10
0
 20
0
 30
0.0
 40
0.8
 41
0.8
  0
VERTEX
  8
0
 10
3.47553
 20
1.42356
 30
0.0
 40
0.0111111
 41
0.0111111
  0
VERTEX
  8
0
 10
3.47553
 20
1.43961
 30
0.0
 40
0.0111111
 41
0.0111111
  0
SEQEND
 8
0
  0
POLYLINE
  8
0
 62
     0
 66
     1
 10
0
 20
0
 30
0.0
 40
0.8
 41
0.8
  0
VERTEX
  8
0
 10
3.47553
 20
1.43961
 30
0.0
 40
0.0111111
 41
0.0111111
  0
VERTEX
  8
0
 10
3.4776
 20
1.45557
 30
0.0
 40
0.0111111
 41
0.0111111
  0
SEQEND
 8
0
  0
POLYLINE
  8
0
 62
     0
 66
     1
 10
0
 20
0
 30
0.0
 40
0.8
 41
0.8
  0
VERTEX
  8
0
 10
3.4776
 20
1.45557
 30
0.0
 40
0.0111111
 41
0.0111111
  0
VERTEX
  8
0
 10
3.48156
 20
1.47114
 30
0.0
 40
0.0111111
 41
0.0111111
  0
SEQEND
 8
0
  0
POLYLINE
  8
0
 62
     0
 66
     1
 10
0
 20
0
 30
0.0
 40
0.8
 41
0.8
  0
VERTEX
  8
0
 10
3.48156
 20
1.47114
 30
0.0
 40
0.0111111
 41
0.0111111
  0
VERTEX
  8
0
 10
3.48747
 20
1.48611
 30
0.0
 40
0.0111111
 41
0.0111111
  0
SEQEND
 8
0
  0
POLYLINE
  8
0
 62
     0
 66
     1
 10
0
 20
0
 30
0.0
 40
0.8
 41
0.8
  0
VERTEX
  8
0
 10
3.48747
 20
1.48611
 30
0.0
 40
0.0111111
 41
0.0111111
  0
VERTEX
  8
0
 10
3.49522
 20
1.50017
 30
0.0
 40
0.0111111
 41
0.0111111
  0
SEQEND
 8
0
  0
POLYLINE
  8
0
 62
     0
 66
     1
 10
0
 20
0
 30
0.0
 40
0.8
 41
0.8
  0
VERTEX
  8
0
 10
3.49522
 20
1.50017
 30
0.0
 40
0.0111111
 41
0.0111111
  0
VERTEX
  8
0
 10
3.50467
 20
1.51318
 30
0.0
 40
0.0111111
 41
0.0111111
  0
SEQEND
 8
0
  0
POLYLINE
  8
0
 62
     0
 66
     1
 10
0
 20
0
 30
0.0
 40
0.8
 41
0.8
  0
VERTEX
  8
0
 10
3.50467
 20
1.51318
 30
0.0
 40
0.0111111
 41
0.0111111
  0
VERTEX
  8
0
 10
3.51568
 20
1.52485
 30
0.0
 40
0.0111111
 41
0.0111111
  0
SEQEND
 8
0
  0
POLYLINE
  8
0
 62
     0
 66
     1
 10
0
 20
0
 30
0.0
 40
0.8
 41
0.8
  0
VERTEX
  8
0
 10
3.51568
 20
1.52485
 30
0.0
 40
0.0111111
 41
0.0111111
  0
VERTEX
  8
0
 10
3.52806
 20
1.5351
 30
0.0
 40
0.0111111
 41
0.0111111
  0
SEQEND
 8
0
  0
POLYLINE
  8
0
 62
     0
 66
     1
 10
0
 20
0
 30
0.0
 40
0.8
 41
0.8
  0
VERTEX
  8
0
 10
3.52806
 20
1.5351
 30
0.0
 40
0.0111111
 41
0.0111111
  0
VERTEX
  8
0
 10
3.54161
 20
1.54372
 30
0.0
 40
0.0111111
 41
0.0111111
  0
SEQEND
 8
0
  0
POLYLINE
  8
0
 62
     0
 66
     1
 10
0
 20
0
 30
0.0
 40
0.8
 41
0.8
  0
VERTEX
  8
0
 10
3.54161
 20
1.54372
 30
0.0
 40
0.0111111
 41
0.0111111
  0
VERTEX
  8
0
 10
3.55615
 20
1.55057
 30
0.0
 40
0.0111111
 41
0.0111111
  0
SEQEND
 8
0
  0
POLYLINE
  8
0
 62
     0
 66
     1
 10
0
 20
0
 30
0.0
 40
0.8
 41
0.8
  0
VERTEX
  8
0
 10
3.55615
 20
1.55057
 30
0.0
 40
0.0111111
 41
0.0111111
  0
VERTEX
  8
0
 10
3.57146
 20
1.55556
 30
0.0
 40
0.0111111
 41
0.0111111
  0
SEQEND
 8
0
  0
POLYLINE
  8
0
 62
     0
 66
     1
 10
0
 20
0
 30
0.0
 40
0.8
 41
0.8
  0
VERTEX
  8
0
 10
3.57146
 20
1.55556
 30
0.0
 40
0.0111111
 41
0.0111111
  0
VERTEX
  8
0
 10
3.58724
 20
1.55854
 30
0.0
 40
0.0111111
 41
0.0111111
  0
SEQEND
 8
0
  0
POLYLINE
  8
0
 62
     0
 66
     1
 10
0
 20
0
 30
0.0
 40
0.8
 41
0.8
  0
VERTEX
  8
0
 10
3.58724
 20
1.55854
 30
0.0
 40
0.0111111
 41
0.0111111
  0
VERTEX
  8
0
 10
3.60325
 20
1.55957
 30
0.0
 40
0.0111111
 41
0.0111111
  0
SEQEND
 8
0
  0
POLYLINE
  8
0
 62
     0
 66
     1
 10
0
 20
0
 30
0.0
 40
0.8
 41
0.8
  0
VERTEX
  8
0
 10
0.089464
 20
1.6875
 30
0.0
 40
0.0111111
 41
0.0111111
  0
VERTEX
  8
0
 10
3.60325
 20
1.6875
 30
0.0
 40
0.0111111
 41
0.0111111
  0
SEQEND
 8
0
  0
POLYLINE
  8
0
 62
     0
 66
     1
 10
0
 20
0
 30
0.0
 40
0.8
 41
0.8
  0
VERTEX
  8
0
 10
3.60325
 20
1.6875
 30
0.0
 40
0.0111111
 41
0.0111111
  0
VERTEX
  8
0
 10
3.63536
 20
1.68549
 30
0.0
 40
0.0111111
 41
0.0111111
  0
SEQEND
 8
0
  0
POLYLINE
  8
0
 62
     0
 66
     1
 10
0
 20
0
 30
0.0
 40
0.8
 41
0.8
  0
VERTEX
  8
0
 10
3.63536
 20
1.68549
 30
0.0
 40
0.0111111
 41
0.0111111
  0
VERTEX
  8
0
 10
3.66689
 20
1.67947
 30
0.0
 40
0.0111111
 41
0.0111111
  0
SEQEND
 8
0
  0
POLYLINE
  8
0
 62
     0
 66
     1
 10
0
 20
0
 30
0.0
 40
0.8
 41
0.8
  0
VERTEX
  8
0
 10
3.66689
 20
1.67947
 30
0.0
 40
0.0111111
 41
0.0111111
  0
VERTEX
  8
0
 10
3.69749
 20
1.66954
 30
0.0
 40
0.0111111
 41
0.0111111
  0
SEQEND
 8
0
  0
POLYLINE
  8
0
 62
     0
 66
     1
 10
0
 20
0
 30
0.0
 40
0.8
 41
0.8
  0
VERTEX
  8
0
 10
3.69749
 20
1.66954
 30
0.0
 40
0.0111111
 41
0.0111111
  0
VERTEX
  8
0
 10
3.72651
 20
1.65588
 30
0.0
 40
0.0111111
 41
0.0111111
  0
SEQEND
 8
0
  0
POLYLINE
  8
0
 62
     0
 66
     1
 10
0
 20
0
 30
0.0
 40
0.8
 41
0.8
  0
VERTEX
  8
0
 10
3.72651
 20
1.65588
 30
0.0
 40
0.0111111
 41
0.0111111
  0
VERTEX
  8
0
 10
3.75369
 20
1.63867
 30
0.0
 40
0.0111111
 41
0.0111111
  0
SEQEND
 8
0
  0
POLYLINE
  8
0
 62
     0
 66
     1
 10
0
 20
0
 30
0.0
 40
0.8
 41
0.8
  0
VERTEX
  8
0
 10
3.75369
 20
1.63867
 30
0.0
 40
0.0111111
 41
0.0111111
  0
VERTEX
  8
0
 10
3.77843
 20
1.61817
 30
0.0
 40
0.0111111
 41
0.0111111
  0
SEQEND
 8
0
  0
POLYLINE
  8
0
 62
     0
 66
     1
 10
0
 20
0
 30
0.0
 40
0.8
 41
0.8
  0
VERTEX
  8
0
 10
3.77843
 20
1.61817
 30
0.0
 40
0.0111111
 41
0.0111111
  0
VERTEX
  8
0
 10
3.8004
 20
1.59472
 30
0.0
 40
0.0111111
 41
0.0111111
  0
SEQEND
 8
0
  0
POLYLINE
  8
0
 62
     0
 66
     1
 10
0
 20
0
 30
0.0
 40
0.8
 41
0.8
  0
VERTEX
  8
0
 10
3.8004
 20
1.59472
 30
0.0
 40
0.0111111
 41
0.0111111
  0
VERTEX
  8
0
 10
3.81933
 20
1.56874
 30
0.0
 40
0.0111111
 41
0.0111111
  0
SEQEND
 8
0
  0
POLYLINE
  8
0
 62
     0
 66
     1
 10
0
 20
0
 30
0.0
 40
0.8
 41
0.8
  0
VERTEX
  8
0
 10
3.81933
 20
1.56874
 30
0.0
 40
0.0111111
 41
0.0111111
  0
VERTEX
  8
0
 10
3.83479
 20
1.54058
 30
0.0
 40
0.0111111
 41
0.0111111
  0
SEQEND
 8
0
  0
POLYLINE
  8
0
 62
     0
 66
     1
 10
0
 20
0
 30
0.0
 40
0.8
 41
0.8
  0
VERTEX
  8
0
 10
3.83479
 20
1.54058
 30
0.0
 40
0.0111111
 41
0.0111111
  0
VERTEX
  8
0
 10
3.84663
 20
1.51069
 30
0.0
 40
0.0111111
 41
0.0111111
  0
SEQEND
 8
0
  0
POLYLINE
  8
0
 62
     0
 66
     1
 10
0
 20
0
 30
0.0
 40
0.8
 41
0.8
  0
VERTEX
  8
0
 10
3.84663
 20
1.51069
 30
0.0
 40
0.0111111
 41
0.0111111
  0
VERTEX
  8
0
 10
3.85465
 20
1.47954
 30
0.0
 40
0.0111111
 41
0.0111111
  0
SEQEND
 8
0
  0
POLYLINE
  8
0
 62
     0
 66
     1
 10
0
 20
0
 30
0.0
 40
0.8
 41
0.8
  0
VERTEX
  8
0
 10
3.85465
 20
1.47954
 30
0.0
 40
0.0111111
 41
0.0111111
  0
VERTEX
  8
0
 10
3.85867
 20
1.44764
 30
0.0
 40
0.0111111
 41
0.0111111
  0
SEQEND
 8
0
  0
POLYLINE
  8
0
 62
     0
 66
     1
 10
0
 20
0
 30
0.0
 40
0.8
 41
0.8
  0
VERTEX
  8
0
 10
3.85867
 20
1.44764
 30
0.0
 40
0.0111111
 41
0.0111111
  0
VERTEX
  8
0
 10
3.85867
 20
1.41553
 30
0.0
 40
0.0111111
 41
0.0111111
  0
SEQEND
 8
0
  0
POLYLINE
  8
0
 62
     0
 66
     1
 10
0
 20
0
 30
0.0
 40
0.8
 41
0.8
  0
VERTEX
  8
0
 10
3.85867
 20
1.41553
 30
0.0
 40
0.0111111
 41
0.0111111
  0
VERTEX
  8
0
 10
3.85465
 20
1.38368
 30
0.0
 40
0.0111111
 41
0.0111111
  0
SEQEND
 8
0
  0
POLYLINE
  8
0
 62
     0
 66
     1
 10
0
 20
0
 30
0.0
 40
0.8
 41
0.8
  0
VERTEX
  8
0
 10
3.85465
 20
1.38368
 30
0.0
 40
0.0111111
 41
0.0111111
  0
VERTEX
  8
0
 10
3.84663
 20
1.35254
 30
0.0
 40
0.0111111
 41
0.0111111
  0
SEQEND
 8
0
  0
POLYLINE
  8
0
 62
     0
 66
     1
 10
0
 20
0
 30
0.0
 40
0.8
 41
0.8
  0
VERTEX
  8
0
 10
3.84663
 20
1.35254
 30
0.0
 40
0.0111111
 41
0.0111111
  0
VERTEX
  8
0
 10
3.83479
 20
1.32265
 30
0.0
 40
0.0111111
 41
0.0111111
  0
SEQEND
 8
0
  0
POLYLINE
  8
0
 62
     0
 66
     1
 10
0
 20
0
 30
0.0
 40
0.8
 41
0.8
  0
VERTEX
  8
0
 10
3.83479
 20
1.32265
 30
0.0
 40
0.0111111
 41
0.0111111
  0
VERTEX
  8
0
 10
3.81933
 20
1.29449
 30
0.0
 40
0.0111111
 41
0.0111111
  0
SEQEND
 8
0
  0
POLYLINE
  8
0
 62
     0
 66
     1
 10
0
 20
0
 30
0.0
 40
0.8
 41
0.8
  0
VERTEX
  8
0
 10
3.81933
 20
1.29449
 30
0.0
 40
0.0111111
 41
0.0111111
  0
VERTEX
  8
0
 10
3.8004
 20
1.2685
 30
0.0
 40
0.0111111
 41
0.0111111
  0
SEQEND
 8
0
  0
POLYLINE
  8
0
 62
     0
 66
     1
 10
0
 20
0
 30
0.0
 40
0.8
 41
0.8
  0
VERTEX
  8
0
 10
3.8004
 20
1.2685
 30
0.0
 40
0.0111111
 41
0.0111111
  0
VERTEX
  8
0
 10
3.77843
 20
1.24506
 30
0.0
 40
0.0111111
 41
0.0111111
  0
SEQEND
 8
0
  0
POLYLINE
  8
0
 62
     0
 66
     1
 10
0
 20
0
 30
0.0
 40
0.8
 41
0.8
  0
VERTEX
  8
0
 10
3.77843
 20
1.24506
 30
0.0
 40
0.0111111
 41
0.0111111
  0
VERTEX
  8
0
 10
3.75369
 20
1.22456
 30
0.0
 40
0.0111111
 41
0.0111111
  0
SEQEND
 8
0
  0
POLYLINE
  8
0
 62
     0
 66
     1
 10
0
 20
0
 30
0.0
 40
0.8
 41
0.8
  0
VERTEX
  8
0
 10
3.75369
 20
1.22456
 30
0.0
 40
0.0111111
 41
0.0111111
  0
VERTEX
  8
0
 10
3.72651
 20
1.20736
 30
0.0
 40
0.0111111
 41
0.0111111
  0
SEQEND
 8
0
  0
POLYLINE
  8
0
 62
     0
 66
     1
 10
0
 20
0
 30
0.0
 40
0.8
 41
0.8
  0
VERTEX
  8
0
 10
3.72651
 20
1.20736
 30
0.0
 40
0.0111111
 41
0.0111111
  0
VERTEX
  8
0
 10
3.69749
 20
1.19363
 30
0.0
 40
0.0111111
 41
0.0111111
  0
SEQEND
 8
0
  0
POLYLINE
  8
0
 62
     0
 66
     1
 10
0
 20
0
 30
0.0
 40
0.8
 41
0.8
  0
VERTEX
  8
0
 10
3.69749
 20
1.19363
 30
0.0
 40
0.0111111
 41
0.0111111
  0
VERTEX
  8
0
 10
3.66689
 20
1.18376
 30
0.0
 40
0.0111111
 41
0.0111111
  0
SEQEND
 8
0
  0
POLYLINE
  8
0
 62
     0
 66
     1
 10
0
 20
0
 30
0.0
 40
0.8
 41
0.8
  0
VERTEX
  8
0
 10
3.66689
 20
1.18376
 30
0.0
 40
0.0111111
 41
0.0111111
  0
VERTEX
  8
0
 10
3.63536
 20
1.17773
 30
0.0
 40
0.0111111
 41
0.0111111
  0
SEQEND
 8
0
  0
POLYLINE
  8
0
 62
     0
 66
     1
 10
0
 20
0
 30
0.0
 40
0.8
 41
0.8
  0
VERTEX
  8
0
 10
3.63536
 20
1.17773
 30
0.0
 40
0.0111111
 41
0.0111111
  0
VERTEX
  8
0
 10
3.60325
 20
1.17573
 30
0.0
 40
0.0111111
 41
0.0111111
  0
SEQEND
 8
0
  0
POLYLINE
  8
0
 62
     0
 66
     1
 10
0
 20
0
 30
0.0
 40
0.8
 41
0.8
  0
VERTEX
  8
0
 10
3.60325
 20
1.17573
 30
0.0
 40
0.0111111
 41
0.0111111
  0
VERTEX
  8
0
 10
0.089464
 20
1.17573
 30
0.0
 40
0.0111111
 41
0.0111111
  0
SEQEND
 8
0
  0
POLYLINE
  8
0
 62
     0
 66
     1
 10
0
 20
0
 30
0.0
 40
0.8
 41
0.8
  0
VERTEX
  8
0
 10
0.089464
 20
1.17573
 30
0.0
 40
0.0111111
 41
0.0111111
  0
VERTEX
  8
0
 10
0.089464
 20
1.6875
 30
0.0
 40
0.0111111
 41
0.0111111
  0
SEQEND
 8
0
  0
POLYLINE
  8
0
 62
     0
 66
     1
 10
0
 20
0
 30
0.0
 40
0.8
 41
0.8
  0
VERTEX
  8
0
 10
1.03901
 20
0.635471
 30
0.0
 40
0.0111111
 41
0.0111111
  0
VERTEX
  8
0
 10
1.43272
 20
0.635471
 30
0.0
 40
0.0111111
 41
0.0111111
  0
SEQEND
 8
0
  0
POLYLINE
  8
0
 62
     0
 66
     1
 10
0
 20
0
 30
0.0
 40
0.8
 41
0.8
  0
VERTEX
  8
0
 10
1.43272
 20
0.635471
 30
0.0
 40
0.0111111
 41
0.0111111
  0
VERTEX
  8
0
 10
1.43272
 20
0.517361
 30
0.0
 40
0.0111111
 41
0.0111111
  0
SEQEND
 8
0
  0
POLYLINE
  8
0
 62
     0
 66
     1
 10
0
 20
0
 30
0.0
 40
0.8
 41
0.8
  0
VERTEX
  8
0
 10
1.43272
 20
0.517361
 30
0.0
 40
0.0111111
 41
0.0111111
  0
VERTEX
  8
0
 10
2.5154
 20
0.517361
 30
0.0
 40
0.0111111
 41
0.0111111
  0
SEQEND
 8
0
  0
POLYLINE
  8
0
 62
     0
 66
     1
 10
0
 20
0
 30
0.0
 40
0.8
 41
0.8
  0
VERTEX
  8
0
 10
2.5154
 20
0.517361
 30
0.0
 40
0.0111111
 41
0.0111111
  0
VERTEX
  8
0
 10
2.5154
 20
0.635471
 30
0.0
 40
0.0111111
 41
0.0111111
  0
SEQEND
 8
0
  0
POLYLINE
  8
0
 62
     0
 66
     1
 10
0
 20
0
 30
0.0
 40
0.8
 41
0.8
  0
VERTEX
  8
0
 10
2.5154
 20
0.635471
 30
0.0
 40
0.0111111
 41
0.0111111
  0
VERTEX
  8
0
 10
2.90913
 20
0.635471
 30
0.0
 40
0.0111111
 41
0.0111111
  0
SEQEND
 8
0
  0
POLYLINE
  8
0
 62
     0
 66
     1
 10
0
 20
0
 30
0.0
 40
0.8
 41
0.8
  0
VERTEX
  8
0
 10
2.90913
 20
0.635471
 30
0.0
 40
0.0111111
 41
0.0111111
  0
VERTEX
  8
0
 10
2.90913
 20
0.517361
 30
0.0
 40
0.0111111
 41
0.0111111
  0
SEQEND
 8
0
  0
POLYLINE
  8
0
 62
     0
 66
     1
 10
0
 20
0
 30
0.0
 40
0.8
 41
0.8
  0
VERTEX
  8
0
 10
2.90913
 20
0.517361
 30
0.0
 40
0.0111111
 41
0.0111111
  0
VERTEX
  8
0
 10
3.45042
 20
0.517361
 30
0.0
 40
0.0111111
 41
0.0111111
  0
SEQEND
 8
0
  0
POLYLINE
  8
0
 62
     0
 66
     1
 10
0
 20
0
 30
0.0
 40
0.8
 41
0.8
  0
VERTEX
  8
0
 10
3.45042
 20
0.517361
 30
0.0
 40
0.0111111
 41
0.0111111
  0
VERTEX
  8
0
 10
3.45042
 20
0.386122
 30
0.0
 40
0.0111111
 41
0.0111111
  0
SEQEND
 8
0
  0
POLYLINE
  8
0
 62
     0
 66
     1
 10
0
 20
0
 30
0.0
 40
0.8
 41
0.8
  0
VERTEX
  8
0
 10
3.45042
 20
0.386122
 30
0.0
 40
0.0111111
 41
0.0111111
  0
VERTEX
  8
0
 10
3.5095
 20
0.386122
 30
0.0
 40
0.0111111
 41
0.0111111
  0
SEQEND
 8
0
  0
POLYLINE
  8
0
 62
     0
 66
     1
 10
0
 20
0
 30
0.0
 40
0.8
 41
0.8
  0
VERTEX
  8
0
 10
3.5095
 20
0.386122
 30
0.0
 40
0.0111111
 41
0.0111111
  0
VERTEX
  8
0
 10
3.5095
 20
0.254883
 30
0.0
 40
0.0111111
 41
0.0111111
  0
SEQEND
 8
0
  0
POLYLINE
  8
0
 62
     0
 66
     1
 10
0
 20
0
 30
0.0
 40
0.8
 41
0.8
  0
VERTEX
  8
0
 10
3.5095
 20
0.254883
 30
0.0
 40
0.0111111
 41
0.0111111
  0
VERTEX
  8
0
 10
3.45042
 20
0.254883
 30
0.0
 40
0.0111111
 41
0.0111111
  0
SEQEND
 8
0
  0
POLYLINE
  8
0
 62
     0
 66
     1
 10
0
 20
0
 30
0.0
 40
0.8
 41
0.8
  0
VERTEX
  8
0
 10
3.45042
 20
0.254883
 30
0.0
 40
0.0111111
 41
0.0111111
  0
VERTEX
  8
0
 10
3.45042
 20
0.123644
 30
0.0
 40
0.0111111
 41
0.0111111
  0
SEQEND
 8
0
  0
POLYLINE
  8
0
 62
     0
 66
     1
 10
0
 20
0
 30
0.0
 40
0.8
 41
0.8
  0
VERTEX
  8
0
 10
3.45042
 20
0.123644
 30
0.0
 40
0.0111111
 41
0.0111111
  0
VERTEX
  8
0
 10
2.90913
 20
0.123644
 30
0.0
 40
0.0111111
 41
0.0111111
  0
SEQEND
 8
0
  0
POLYLINE
  8
0
 62
     0
 66
     1
 10
0
 20
0
 30
0.0
 40
0.8
 41
0.8
  0
VERTEX
  8
0
 10
2.90913
 20
0.123644
 30
0.0
 40
0.0111111
 41
0.0111111
  0
VERTEX
  8
0
 10
2.90913
 20
0.00553386
 30
0.0
 40
0.0111111
 41
0.0111111
  0
SEQEND
 8
0
  0
POLYLINE
  8
0
 62
     0
 66
     1
 10
0
 20
0
 30
0.0
 40
0.8
 41
0.8
  0
VERTEX
  8
0
 10
2.90913
 20
0.00553386
 30
0.0
 40
0.0111111
 41
0.0111111
  0
VERTEX
  8
0
 10
2.5154
 20
0.00553386
 30
0.0
 40
0.0111111
 41
0.0111111
  0
SEQEND
 8
0
  0
POLYLINE
  8
0
 62
     0
 66
     1
 10
0
 20
0
 30
0.0
 40
0.8
 41
0.8
  0
VERTEX
  8
0
 10
2.5154
 20
0.00553386
 30
0.0
 40
0.0111111
 41
0.0111111
  0
VERTEX
  8
0
 10
2.5154
 20
0.123644
 30
0.0
 40
0.0111111
 41
0.0111111
  0
SEQEND
 8
0
  0
POLYLINE
  8
0
 62
     0
 66
     1
 10
0
 20
0
 30
0.0
 40
0.8
 41
0.8
  0
VERTEX
  8
0
 10
2.5154
 20
0.123644
 30
0.0
 40
0.0111111
 41
0.0111111
  0
VERTEX
  8
0
 10
1.43272
 20
0.123644
 30
0.0
 40
0.0111111
 41
0.0111111
  0
SEQEND
 8
0
  0
POLYLINE
  8
0
 62
     0
 66
     1
 10
0
 20
0
 30
0.0
 40
0.8
 41
0.8
  0
VERTEX
  8
0
 10
1.43272
 20
0.123644
 30
0.0
 40
0.0111111
 41
0.0111111
  0
VERTEX
  8
0
 10
1.43272
 20
0.00553386
 30
0.0
 40
0.0111111
 41
0.0111111
  0
SEQEND
 8
0
  0
POLYLINE
  8
0
 62
     0
 66
     1
 10
0
 20
0
 30
0.0
 40
0.8
 41
0.8
  0
VERTEX
  8
0
 10
1.43272
 20
0.00553386
 30
0.0
 40
0.0111111
 41
0.0111111
  0
VERTEX
  8
0
 10
1.03901
 20
0.00553386
 30
0.0
 40
0.0111111
 41
0.0111111
  0
SEQEND
 8
0
  0
POLYLINE
  8
0
 62
     0
 66
     1
 10
0
 20
0
 30
0.0
 40
0.8
 41
0.8
  0
VERTEX
  8
0
 10
1.03901
 20
0.00553386
 30
0.0
 40
0.0111111
 41
0.0111111
  0
VERTEX
  8
0
 10
1.03901
 20
0.123644
 30
0.0
 40
0.0111111
 41
0.0111111
  0
SEQEND
 8
0
  0
POLYLINE
  8
0
 62
     0
 66
     1
 10
0
 20
0
 30
0.0
 40
0.8
 41
0.8
  0
VERTEX
  8
0
 10
1.03901
 20
0.123644
 30
0.0
 40
0.0111111
 41
0.0111111
  0
VERTEX
  8
0
 10
0.497667
 20
0.123644
 30
0.0
 40
0.0111111
 41
0.0111111
  0
SEQEND
 8
0
  0
POLYLINE
  8
0
 62
     0
 66
     1
 10
0
 20
0
 30
0.0
 40
0.8
 41
0.8
  0
VERTEX
  8
0
 10
0.497667
 20
0.123644
 30
0.0
 40
0.0111111
 41
0.0111111
  0
VERTEX
  8
0
 10
0.497667
 20
0.254883
 30
0.0
 40
0.0111111
 41
0.0111111
  0
SEQEND
 8
0
  0
POLYLINE
  8
0
 62
     0
 66
     1
 10
0
 20
0
 30
0.0
 40
0.8
 41
0.8
  0
VERTEX
  8
0
 10
0.497667
 20
0.254883
 30
0.0
 40
0.0111111
 41
0.0111111
  0
VERTEX
  8
0
 10
0.438639
 20
0.254883
 30
0.0
 40
0.0111111
 41
0.0111111
  0
SEQEND
 8
0
  0
POLYLINE
  8
0
 62
     0
 66
     1
 10
0
 20
0
 30
0.0
 40
0.8
 41
0.8
  0
VERTEX
  8
0
 10
0.438639
 20
0.254883
 30
0.0
 40
0.0111111
 41
0.0111111
  0
VERTEX
  8
0
 10
0.438639
 20
0.386122
 30
0.0
 40
0.0111111
 41
0.0111111
  0
SEQEND
 8
0
  0
POLYLINE
  8
0
 62
     0
 66
     1
 10
0
 20
0
 30
0.0
 40
0.8
 41
0.8
  0
VERTEX
  8
0
 10
0.438639
 20
0.386122
 30
0.0
 40
0.0111111
 41
0.0111111
  0
VERTEX
  8
0
 10
0.497667
 20
0.386122
 30
0.0
 40
0.0111111
 41
0.0111111
  0
SEQEND
 8
0
  0
POLYLINE
  8
0
 62
     0
 66
     1
 10
0
 20
0
 30
0.0
 40
0.8
 41
0.8
  0
VERTEX
  8
0
 10
0.497667
 20
0.386122
 30
0.0
 40
0.0111111
 41
0.0111111
  0
VERTEX
  8
0
 10
0.497667
 20
0.517361
 30
0.0
 40
0.0111111
 41
0.0111111
  0
SEQEND
 8
0
  0
POLYLINE
  8
0
 62
     0
 66
     1
 10
0
 20
0
 30
0.0
 40
0.8
 41
0.8
  0
VERTEX
  8
0
 10
0.497667
 20
0.517361
 30
0.0
 40
0.0111111
 41
0.0111111
  0
VERTEX
  8
0
 10
1.03901
 20
0.517361
 30
0.0
 40
0.0111111
 41
0.0111111
  0
SEQEND
 8
0
  0
POLYLINE
  8
0
 62
     0
 66
     1
 10
0
 20
0
 30
0.0
 40
0.8
 41
0.8
  0
VERTEX
  8
0
 10
1.03901
 20
0.517361
 30
0.0
 40
0.0111111
 41
0.0111111
  0
VERTEX
  8
0
 10
1.03901
 20
0.635471
 30
0.0
 40
0.0111111
 41
0.0111111
  0
SEQEND
 8
0
  0
ENDSEC
  0
EOF
