<?xml version="1.0" encoding="UTF-8" standalone="no"?>
<!-- Created with Inkscape (http://www.inkscape.org/) -->

<svg
   xmlns:dc="http://purl.org/dc/elements/1.1/"
   xmlns:cc="http://creativecommons.org/ns#"
   xmlns:rdf="http://www.w3.org/1999/02/22-rdf-syntax-ns#"
   xmlns:svg="http://www.w3.org/2000/svg"
   xmlns="http://www.w3.org/2000/svg"
   xmlns:sodipodi="http://sodipodi.sourceforge.net/DTD/sodipodi-0.dtd"
   xmlns:inkscape="http://www.inkscape.org/namespaces/inkscape"
   width="765"
   height="990"
   id="svg2"
   version="1.1"
   inkscape:version="0.47 r22583"
   sodipodi:docname="clear_3mm.svg">
  <defs
     id="defs4">
    <inkscape:perspective
       sodipodi:type="inkscape:persp3d"
       inkscape:vp_x="0 : 526.18109 : 1"
       inkscape:vp_y="0 : 1000 : 0"
       inkscape:vp_z="744.09448 : 526.18109 : 1"
       inkscape:persp3d-origin="372.04724 : 350.78739 : 1"
       id="perspective10" />
    <symbol
       id="*Paper_Space0" />
    <symbol
       id="*Paper_Space" />
    <symbol
       id="*Model_Space" />
    <marker
       orient="auto"
       id="DistanceX"
       style="overflow:visible"
       refX="0.0"
       refY="0.0">
      <path
         id="path2844"
         d="M 3,-3 L -3,3 M 0,-5 L  0,5"
         style="stroke:#000000; stroke-width:0.5" />
    </marker>
    <inkscape:perspective
       id="perspective3039"
       inkscape:persp3d-origin="0.5 : 0.33333333 : 1"
       inkscape:vp_z="1 : 0.5 : 1"
       inkscape:vp_y="0 : 1000 : 0"
       inkscape:vp_x="0 : 0.5 : 1"
       sodipodi:type="inkscape:persp3d" />
    <symbol
       id="*Paper_Space0-4" />
    <symbol
       id="*Paper_Space-4" />
    <symbol
       id="*Model_Space-7" />
    <marker
       orient="auto"
       id="DistanceX-3"
       style="overflow:visible"
       refX="0.0"
       refY="0.0">
      <path
         id="path3263"
         d="M 3,-3 L -3,3 M 0,-5 L  0,5"
         style="stroke:#000000; stroke-width:0.5" />
    </marker>
    <inkscape:perspective
       id="perspective3458"
       inkscape:persp3d-origin="0.5 : 0.33333333 : 1"
       inkscape:vp_z="1 : 0.5 : 1"
       inkscape:vp_y="0 : 1000 : 0"
       inkscape:vp_x="0 : 0.5 : 1"
       sodipodi:type="inkscape:persp3d" />
  </defs>
  <sodipodi:namedview
     id="base"
     pagecolor="#ffffff"
     bordercolor="#666666"
     borderopacity="1.0"
     inkscape:pageopacity="0.0"
     inkscape:pageshadow="2"
     inkscape:zoom="0.35"
     inkscape:cx="375"
     inkscape:cy="520"
     inkscape:document-units="px"
     inkscape:current-layer="layer1"
     showgrid="false"
     inkscape:window-width="1680"
     inkscape:window-height="975"
     inkscape:window-x="0"
     inkscape:window-y="24"
     inkscape:window-maximized="1" />
  <metadata
     id="metadata7">
    <rdf:RDF>
      <cc:Work
         rdf:about="">
        <dc:format>image/svg+xml</dc:format>
        <dc:type
           rdf:resource="http://purl.org/dc/dcmitype/StillImage" />
        <dc:title></dc:title>
      </cc:Work>
    </rdf:RDF>
  </metadata>
  <g
     inkscape:label="Layer 1"
     inkscape:groupmode="layer"
     id="layer1"
     transform="translate(0,-62.362183)">
    <g
       id="g3140"
       transform="translate(-434.64286,-405.71429)">
      <g
         transform="translate(817.14286,-305.71429)"
         inkscape:label="0"
         id="g2849">
        <path
           style="fill:none;stroke:#000000"
           d="m -216.14173,1213.5827 0,-322.44097"
           id="path2851" />
        <path
           style="fill:none;stroke:#000000"
           d="m -216.14173,891.14173 0.085,-1.33228"
           id="path2853" />
        <path
           style="fill:none;stroke:#000000"
           d="m -216.05669,889.80945 0.24803,-1.31103"
           id="path2855" />
        <path
           style="fill:none;stroke:#000000"
           d="m -215.80866,888.49842 0.41457,-1.2685"
           id="path2857" />
        <path
           style="fill:none;stroke:#000000"
           d="m -215.39409,887.22992 0.56693,-1.20827"
           id="path2859" />
        <path
           style="fill:none;stroke:#000000"
           d="m -214.82716,886.02165 0.71574,-1.12677"
           id="path2861" />
        <path
           style="fill:none;stroke:#000000"
           d="m -214.11142,884.89488 0.8504,-1.0311"
           id="path2863" />
        <path
           style="fill:none;stroke:#000000"
           d="m -213.26102,883.86378 0.97441,-0.91417"
           id="path2865" />
        <path
           style="fill:none;stroke:#000000"
           d="m -212.28661,882.94961 1.0807,-0.78308"
           id="path2867" />
        <path
           style="fill:none;stroke:#000000"
           d="m -211.20591,882.16653 1.1693,-0.64133"
           id="path2869" />
        <path
           style="fill:none;stroke:#000000"
           d="m -210.03661,881.5252 1.24015,-0.49252"
           id="path2871" />
        <path
           style="fill:none;stroke:#000000"
           d="m -208.79646,881.03268 1.29331,-0.33307"
           id="path2873" />
        <path
           style="fill:none;stroke:#000000"
           d="m -207.50315,880.69961 1.3252,-0.16654"
           id="path2875" />
        <path
           style="fill:none;stroke:#000000"
           d="m -206.17795,880.53307 0.66614,0"
           id="path2877" />
        <path
           style="fill:none;stroke:#000000"
           d="m -205.51181,880.53307 0,-0.0213"
           id="path2879" />
        <path
           style="fill:none;stroke:#000000"
           d="m -205.51181,880.51181 411.02362,0"
           id="path2881" />
        <path
           style="fill:none;stroke:#000000"
           d="m 205.51181,880.51181 0,0.0213"
           id="path2883" />
        <path
           style="fill:none;stroke:#000000"
           d="m 205.51181,880.53307 0.66614,0"
           id="path2885" />
        <path
           style="fill:none;stroke:#000000"
           d="m 206.17795,880.53307 1.3252,0.16654"
           id="path2887" />
        <path
           style="fill:none;stroke:#000000"
           d="m 207.50315,880.69961 1.29331,0.33307"
           id="path2889" />
        <path
           style="fill:none;stroke:#000000"
           d="m 208.79646,881.03268 1.24015,0.49252"
           id="path2891" />
        <path
           style="fill:none;stroke:#000000"
           d="m 210.03661,881.5252 1.1693,0.64133"
           id="path2893" />
        <path
           style="fill:none;stroke:#000000"
           d="m 211.20591,882.16653 1.0807,0.78308"
           id="path2895" />
        <path
           style="fill:none;stroke:#000000"
           d="m 212.28661,882.94961 0.97441,0.91417"
           id="path2897" />
        <path
           style="fill:none;stroke:#000000"
           d="m 213.26102,883.86378 0.8504,1.0311"
           id="path2899" />
        <path
           style="fill:none;stroke:#000000"
           d="m 214.11142,884.89488 0.71574,1.12677"
           id="path2901" />
        <path
           style="fill:none;stroke:#000000"
           d="m 214.82716,886.02165 0.56693,1.20827"
           id="path2903" />
        <path
           style="fill:none;stroke:#000000"
           d="m 215.39409,887.22992 0.41457,1.2685"
           id="path2905" />
        <path
           style="fill:none;stroke:#000000"
           d="m 215.80866,888.49842 0.24803,1.31103"
           id="path2907" />
        <path
           style="fill:none;stroke:#000000"
           d="m 216.05669,889.80945 0.085,1.33228"
           id="path2909" />
        <path
           style="fill:none;stroke:#000000"
           d="m 216.14173,891.14173 0,322.44097"
           id="path2911" />
        <path
           style="fill:none;stroke:#000000"
           d="m 216.14173,1213.5827 -0.085,1.3323"
           id="path2913" />
        <path
           style="fill:none;stroke:#000000"
           d="m 216.05669,1214.915 -0.24803,1.311"
           id="path2915" />
        <path
           style="fill:none;stroke:#000000"
           d="m 215.80866,1216.226 -0.41457,1.2685"
           id="path2917" />
        <path
           style="fill:none;stroke:#000000"
           d="m 215.39409,1217.4945 -0.56693,1.2083"
           id="path2919" />
        <path
           style="fill:none;stroke:#000000"
           d="m 214.82716,1218.7028 -0.71574,1.1267"
           id="path2921" />
        <path
           style="fill:none;stroke:#000000"
           d="m 214.11142,1219.8295 -0.8504,1.0311"
           id="path2923" />
        <path
           style="fill:none;stroke:#000000"
           d="m 213.26102,1220.8606 -0.97441,0.9142"
           id="path2925" />
        <path
           style="fill:none;stroke:#000000"
           d="m 212.28661,1221.7748 -1.0807,0.7831"
           id="path2927" />
        <path
           style="fill:none;stroke:#000000"
           d="m 211.20591,1222.5579 -1.1693,0.6413"
           id="path2929" />
        <path
           style="fill:none;stroke:#000000"
           d="m 210.03661,1223.1992 -1.24015,0.4925"
           id="path2931" />
        <path
           style="fill:none;stroke:#000000"
           d="m 208.79646,1223.6917 -1.29331,0.3331"
           id="path2933" />
        <path
           style="fill:none;stroke:#000000"
           d="m 207.50315,1224.0248 -1.3252,0.1665"
           id="path2935" />
        <path
           style="fill:none;stroke:#000000"
           d="m 206.17795,1224.1913 -0.66614,0"
           id="path2937" />
        <path
           style="fill:none;stroke:#000000"
           d="m 205.51181,1224.1913 0,0.021"
           id="path2939" />
        <path
           style="fill:none;stroke:#000000"
           d="m 205.51181,1224.2126 -411.02362,0"
           id="path2941" />
        <path
           style="fill:none;stroke:#000000"
           d="m -205.51181,1224.2126 0,-0.021"
           id="path2943" />
        <path
           style="fill:none;stroke:#000000"
           d="m -205.51181,1224.1913 -0.66614,0"
           id="path2945" />
        <path
           style="fill:none;stroke:#000000"
           d="m -206.17795,1224.1913 -1.3252,-0.1665"
           id="path2947" />
        <path
           style="fill:none;stroke:#000000"
           d="m -207.50315,1224.0248 -1.29331,-0.3331"
           id="path2949" />
        <path
           style="fill:none;stroke:#000000"
           d="m -208.79646,1223.6917 -1.24015,-0.4925"
           id="path2951" />
        <path
           style="fill:none;stroke:#000000"
           d="m -210.03661,1223.1992 -1.1693,-0.6413"
           id="path2953" />
        <path
           style="fill:none;stroke:#000000"
           d="m -211.20591,1222.5579 -1.0807,-0.7831"
           id="path2955" />
        <path
           style="fill:none;stroke:#000000"
           d="m -212.28661,1221.7748 -0.97441,-0.9142"
           id="path2957" />
        <path
           style="fill:none;stroke:#000000"
           d="m -213.26102,1220.8606 -0.8504,-1.0311"
           id="path2959" />
        <path
           style="fill:none;stroke:#000000"
           d="m -214.11142,1219.8295 -0.71574,-1.1267"
           id="path2961" />
        <path
           style="fill:none;stroke:#000000"
           d="m -214.82716,1218.7028 -0.56693,-1.2083"
           id="path2963" />
        <path
           style="fill:none;stroke:#000000"
           d="m -215.39409,1217.4945 -0.41457,-1.2685"
           id="path2965" />
        <path
           style="fill:none;stroke:#000000"
           d="m -215.80866,1216.226 -0.24803,-1.311"
           id="path2967" />
        <path
           style="fill:none;stroke:#000000"
           d="m -216.05669,1214.915 -0.085,-1.3323"
           id="path2969" />
        <path
           style="fill:none;stroke:#000000"
           d="m -159.44882,1195.8661 0,-10.6299"
           id="path2971" />
        <path
           style="fill:none;stroke:#000000"
           d="m -159.44882,1185.2362 35.43307,0"
           id="path2973" />
        <path
           style="fill:none;stroke:#000000"
           d="m -124.01575,1185.2362 0,10.6299"
           id="path2975" />
        <path
           style="fill:none;stroke:#000000"
           d="m -124.01575,1195.8661 -35.43307,0"
           id="path2977" />
        <path
           style="fill:none;stroke:#000000"
           d="m -159.44882,919.48819 0,-10.62992"
           id="path2979" />
        <path
           style="fill:none;stroke:#000000"
           d="m -159.44882,908.85827 35.43307,0"
           id="path2981" />
        <path
           style="fill:none;stroke:#000000"
           d="m -124.01575,908.85827 0,10.62992"
           id="path2983" />
        <path
           style="fill:none;stroke:#000000"
           d="m -124.01575,919.48819 -35.43307,0"
           id="path2985" />
        <path
           style="fill:none;stroke:#000000"
           d="m -17.716535,1195.8661 0,-10.6299"
           id="path2987" />
        <path
           style="fill:none;stroke:#000000"
           d="m -17.716535,1185.2362 35.43307,0"
           id="path2989" />
        <path
           style="fill:none;stroke:#000000"
           d="m 17.716535,1185.2362 0,10.6299"
           id="path2991" />
        <path
           style="fill:none;stroke:#000000"
           d="m 17.716535,1195.8661 -35.43307,0"
           id="path2993" />
        <path
           style="fill:none;stroke:#000000"
           d="m -17.716535,919.48819 0,-10.62992"
           id="path2995" />
        <path
           style="fill:none;stroke:#000000"
           d="m -17.716535,908.85827 35.43307,0"
           id="path2997" />
        <path
           style="fill:none;stroke:#000000"
           d="m 17.716535,908.85827 0,10.62992"
           id="path2999" />
        <path
           style="fill:none;stroke:#000000"
           d="m 17.716535,919.48819 -35.43307,0"
           id="path3001" />
        <path
           style="fill:none;stroke:#000000"
           d="m -5.314961,1136.5157 0,-35.433"
           id="path3003" />
        <path
           style="fill:none;stroke:#000000"
           d="m -5.314961,1101.0827 10.629922,0"
           id="path3005" />
        <path
           style="fill:none;stroke:#000000"
           d="m 5.314961,1101.0827 0,35.433"
           id="path3007" />
        <path
           style="fill:none;stroke:#000000"
           d="m 5.314961,1136.5157 -10.629922,0"
           id="path3009" />
        <path
           style="fill:none;stroke:#000000"
           d="m -5.314961,1003.6417 0,-35.43304"
           id="path3011" />
        <path
           style="fill:none;stroke:#000000"
           d="m -5.314961,968.20866 10.629922,0"
           id="path3013" />
        <path
           style="fill:none;stroke:#000000"
           d="m 5.314961,968.20866 0,35.43304"
           id="path3015" />
        <path
           style="fill:none;stroke:#000000"
           d="m 5.314961,1003.6417 -10.629922,0"
           id="path3017" />
        <path
           style="fill:none;stroke:#000000"
           d="m 124.01575,1195.8661 0,-10.6299"
           id="path3019" />
        <path
           style="fill:none;stroke:#000000"
           d="m 124.01575,1185.2362 35.43307,0"
           id="path3021" />
        <path
           style="fill:none;stroke:#000000"
           d="m 159.44882,1185.2362 0,10.6299"
           id="path3023" />
        <path
           style="fill:none;stroke:#000000"
           d="m 159.44882,1195.8661 -35.43307,0"
           id="path3025" />
        <path
           style="fill:none;stroke:#000000"
           d="m 124.01575,919.48819 0,-10.62992"
           id="path3027" />
        <path
           style="fill:none;stroke:#000000"
           d="m 124.01575,908.85827 35.43307,0"
           id="path3029" />
        <path
           style="fill:none;stroke:#000000"
           d="m 159.44882,908.85827 0,10.62992"
           id="path3031" />
        <path
           style="fill:none;stroke:#000000"
           d="m 159.44882,919.48819 -35.43307,0"
           id="path3033" />
      </g>
    </g>
    <g
       id="g3559"
       transform="translate(-471.78571,28.571429)">
      <g
         transform="translate(854.28571,-322.85714)"
         inkscape:label="0"
         id="g3268">
        <path
           style="fill:none;stroke:#000000"
           d="m -216.14173,1213.5827 0,-322.44097"
           id="path3270" />
        <path
           style="fill:none;stroke:#000000"
           d="m -216.14173,891.14173 0.085,-1.33228"
           id="path3272" />
        <path
           style="fill:none;stroke:#000000"
           d="m -216.05669,889.80945 0.24803,-1.31103"
           id="path3274" />
        <path
           style="fill:none;stroke:#000000"
           d="m -215.80866,888.49842 0.41457,-1.2685"
           id="path3276" />
        <path
           style="fill:none;stroke:#000000"
           d="m -215.39409,887.22992 0.56693,-1.20827"
           id="path3278" />
        <path
           style="fill:none;stroke:#000000"
           d="m -214.82716,886.02165 0.71574,-1.12677"
           id="path3280" />
        <path
           style="fill:none;stroke:#000000"
           d="m -214.11142,884.89488 0.8504,-1.0311"
           id="path3282" />
        <path
           style="fill:none;stroke:#000000"
           d="m -213.26102,883.86378 0.97441,-0.91417"
           id="path3284" />
        <path
           style="fill:none;stroke:#000000"
           d="m -212.28661,882.94961 1.0807,-0.78308"
           id="path3286" />
        <path
           style="fill:none;stroke:#000000"
           d="m -211.20591,882.16653 1.1693,-0.64133"
           id="path3288" />
        <path
           style="fill:none;stroke:#000000"
           d="m -210.03661,881.5252 1.24015,-0.49252"
           id="path3290" />
        <path
           style="fill:none;stroke:#000000"
           d="m -208.79646,881.03268 1.29331,-0.33307"
           id="path3292" />
        <path
           style="fill:none;stroke:#000000"
           d="m -207.50315,880.69961 1.3252,-0.16654"
           id="path3294" />
        <path
           style="fill:none;stroke:#000000"
           d="m -206.17795,880.53307 0.66614,0"
           id="path3296" />
        <path
           style="fill:none;stroke:#000000"
           d="m -205.51181,880.53307 0,-0.0213"
           id="path3298" />
        <path
           style="fill:none;stroke:#000000"
           d="m -205.51181,880.51181 411.02362,0"
           id="path3300" />
        <path
           style="fill:none;stroke:#000000"
           d="m 205.51181,880.51181 0,0.0213"
           id="path3302" />
        <path
           style="fill:none;stroke:#000000"
           d="m 205.51181,880.53307 0.66614,0"
           id="path3304" />
        <path
           style="fill:none;stroke:#000000"
           d="m 206.17795,880.53307 1.3252,0.16654"
           id="path3306" />
        <path
           style="fill:none;stroke:#000000"
           d="m 207.50315,880.69961 1.29331,0.33307"
           id="path3308" />
        <path
           style="fill:none;stroke:#000000"
           d="m 208.79646,881.03268 1.24015,0.49252"
           id="path3310" />
        <path
           style="fill:none;stroke:#000000"
           d="m 210.03661,881.5252 1.1693,0.64133"
           id="path3312" />
        <path
           style="fill:none;stroke:#000000"
           d="m 211.20591,882.16653 1.0807,0.78308"
           id="path3314" />
        <path
           style="fill:none;stroke:#000000"
           d="m 212.28661,882.94961 0.97441,0.91417"
           id="path3316" />
        <path
           style="fill:none;stroke:#000000"
           d="m 213.26102,883.86378 0.8504,1.0311"
           id="path3318" />
        <path
           style="fill:none;stroke:#000000"
           d="m 214.11142,884.89488 0.71574,1.12677"
           id="path3320" />
        <path
           style="fill:none;stroke:#000000"
           d="m 214.82716,886.02165 0.56693,1.20827"
           id="path3322" />
        <path
           style="fill:none;stroke:#000000"
           d="m 215.39409,887.22992 0.41457,1.2685"
           id="path3324" />
        <path
           style="fill:none;stroke:#000000"
           d="m 215.80866,888.49842 0.24803,1.31103"
           id="path3326" />
        <path
           style="fill:none;stroke:#000000"
           d="m 216.05669,889.80945 0.085,1.33228"
           id="path3328" />
        <path
           style="fill:none;stroke:#000000"
           d="m 216.14173,891.14173 0,322.44097"
           id="path3330" />
        <path
           style="fill:none;stroke:#000000"
           d="m 216.14173,1213.5827 -0.085,1.3323"
           id="path3332" />
        <path
           style="fill:none;stroke:#000000"
           d="m 216.05669,1214.915 -0.24803,1.311"
           id="path3334" />
        <path
           style="fill:none;stroke:#000000"
           d="m 215.80866,1216.226 -0.41457,1.2685"
           id="path3336" />
        <path
           style="fill:none;stroke:#000000"
           d="m 215.39409,1217.4945 -0.56693,1.2083"
           id="path3338" />
        <path
           style="fill:none;stroke:#000000"
           d="m 214.82716,1218.7028 -0.71574,1.1267"
           id="path3340" />
        <path
           style="fill:none;stroke:#000000"
           d="m 214.11142,1219.8295 -0.8504,1.0311"
           id="path3342" />
        <path
           style="fill:none;stroke:#000000"
           d="m 213.26102,1220.8606 -0.97441,0.9142"
           id="path3344" />
        <path
           style="fill:none;stroke:#000000"
           d="m 212.28661,1221.7748 -1.0807,0.7831"
           id="path3346" />
        <path
           style="fill:none;stroke:#000000"
           d="m 211.20591,1222.5579 -1.1693,0.6413"
           id="path3348" />
        <path
           style="fill:none;stroke:#000000"
           d="m 210.03661,1223.1992 -1.24015,0.4925"
           id="path3350" />
        <path
           style="fill:none;stroke:#000000"
           d="m 208.79646,1223.6917 -1.29331,0.3331"
           id="path3352" />
        <path
           style="fill:none;stroke:#000000"
           d="m 207.50315,1224.0248 -1.3252,0.1665"
           id="path3354" />
        <path
           style="fill:none;stroke:#000000"
           d="m 206.17795,1224.1913 -0.66614,0"
           id="path3356" />
        <path
           style="fill:none;stroke:#000000"
           d="m 205.51181,1224.1913 0,0.021"
           id="path3358" />
        <path
           style="fill:none;stroke:#000000"
           d="m 205.51181,1224.2126 -411.02362,0"
           id="path3360" />
        <path
           style="fill:none;stroke:#000000"
           d="m -205.51181,1224.2126 0,-0.021"
           id="path3362" />
        <path
           style="fill:none;stroke:#000000"
           d="m -205.51181,1224.1913 -0.66614,0"
           id="path3364" />
        <path
           style="fill:none;stroke:#000000"
           d="m -206.17795,1224.1913 -1.3252,-0.1665"
           id="path3366" />
        <path
           style="fill:none;stroke:#000000"
           d="m -207.50315,1224.0248 -1.29331,-0.3331"
           id="path3368" />
        <path
           style="fill:none;stroke:#000000"
           d="m -208.79646,1223.6917 -1.24015,-0.4925"
           id="path3370" />
        <path
           style="fill:none;stroke:#000000"
           d="m -210.03661,1223.1992 -1.1693,-0.6413"
           id="path3372" />
        <path
           style="fill:none;stroke:#000000"
           d="m -211.20591,1222.5579 -1.0807,-0.7831"
           id="path3374" />
        <path
           style="fill:none;stroke:#000000"
           d="m -212.28661,1221.7748 -0.97441,-0.9142"
           id="path3376" />
        <path
           style="fill:none;stroke:#000000"
           d="m -213.26102,1220.8606 -0.8504,-1.0311"
           id="path3378" />
        <path
           style="fill:none;stroke:#000000"
           d="m -214.11142,1219.8295 -0.71574,-1.1267"
           id="path3380" />
        <path
           style="fill:none;stroke:#000000"
           d="m -214.82716,1218.7028 -0.56693,-1.2083"
           id="path3382" />
        <path
           style="fill:none;stroke:#000000"
           d="m -215.39409,1217.4945 -0.41457,-1.2685"
           id="path3384" />
        <path
           style="fill:none;stroke:#000000"
           d="m -215.80866,1216.226 -0.24803,-1.311"
           id="path3386" />
        <path
           style="fill:none;stroke:#000000"
           d="m -216.05669,1214.915 -0.085,-1.3323"
           id="path3388" />
        <path
           style="fill:none;stroke:#000000"
           d="m -159.44882,1195.8661 0,-10.6299"
           id="path3390" />
        <path
           style="fill:none;stroke:#000000"
           d="m -159.44882,1185.2362 35.43307,0"
           id="path3392" />
        <path
           style="fill:none;stroke:#000000"
           d="m -124.01575,1185.2362 0,10.6299"
           id="path3394" />
        <path
           style="fill:none;stroke:#000000"
           d="m -124.01575,1195.8661 -35.43307,0"
           id="path3396" />
        <path
           style="fill:none;stroke:#000000"
           d="m -159.44882,919.48819 0,-10.62992"
           id="path3398" />
        <path
           style="fill:none;stroke:#000000"
           d="m -159.44882,908.85827 35.43307,0"
           id="path3400" />
        <path
           style="fill:none;stroke:#000000"
           d="m -124.01575,908.85827 0,10.62992"
           id="path3402" />
        <path
           style="fill:none;stroke:#000000"
           d="m -124.01575,919.48819 -35.43307,0"
           id="path3404" />
        <path
           style="fill:none;stroke:#000000"
           d="m -17.716535,1195.8661 0,-10.6299"
           id="path3406" />
        <path
           style="fill:none;stroke:#000000"
           d="m -17.716535,1185.2362 35.43307,0"
           id="path3408" />
        <path
           style="fill:none;stroke:#000000"
           d="m 17.716535,1185.2362 0,10.6299"
           id="path3410" />
        <path
           style="fill:none;stroke:#000000"
           d="m 17.716535,1195.8661 -35.43307,0"
           id="path3412" />
        <path
           style="fill:none;stroke:#000000"
           d="m -17.716535,919.48819 0,-10.62992"
           id="path3414" />
        <path
           style="fill:none;stroke:#000000"
           d="m -17.716535,908.85827 35.43307,0"
           id="path3416" />
        <path
           style="fill:none;stroke:#000000"
           d="m 17.716535,908.85827 0,10.62992"
           id="path3418" />
        <path
           style="fill:none;stroke:#000000"
           d="m 17.716535,919.48819 -35.43307,0"
           id="path3420" />
        <path
           style="fill:none;stroke:#000000"
           d="m -5.314961,1136.5157 0,-35.433"
           id="path3422" />
        <path
           style="fill:none;stroke:#000000"
           d="m -5.314961,1101.0827 10.629922,0"
           id="path3424" />
        <path
           style="fill:none;stroke:#000000"
           d="m 5.314961,1101.0827 0,35.433"
           id="path3426" />
        <path
           style="fill:none;stroke:#000000"
           d="m 5.314961,1136.5157 -10.629922,0"
           id="path3428" />
        <path
           style="fill:none;stroke:#000000"
           d="m -5.314961,1003.6417 0,-35.43304"
           id="path3430" />
        <path
           style="fill:none;stroke:#000000"
           d="m -5.314961,968.20866 10.629922,0"
           id="path3432" />
        <path
           style="fill:none;stroke:#000000"
           d="m 5.314961,968.20866 0,35.43304"
           id="path3434" />
        <path
           style="fill:none;stroke:#000000"
           d="m 5.314961,1003.6417 -10.629922,0"
           id="path3436" />
        <path
           style="fill:none;stroke:#000000"
           d="m 124.01575,1195.8661 0,-10.6299"
           id="path3438" />
        <path
           style="fill:none;stroke:#000000"
           d="m 124.01575,1185.2362 35.43307,0"
           id="path3440" />
        <path
           style="fill:none;stroke:#000000"
           d="m 159.44882,1185.2362 0,10.6299"
           id="path3442" />
        <path
           style="fill:none;stroke:#000000"
           d="m 159.44882,1195.8661 -35.43307,0"
           id="path3444" />
        <path
           style="fill:none;stroke:#000000"
           d="m 124.01575,919.48819 0,-10.62992"
           id="path3446" />
        <path
           style="fill:none;stroke:#000000"
           d="m 124.01575,908.85827 35.43307,0"
           id="path3448" />
        <path
           style="fill:none;stroke:#000000"
           d="m 159.44882,908.85827 0,10.62992"
           id="path3450" />
        <path
           style="fill:none;stroke:#000000"
           d="m 159.44882,919.48819 -35.43307,0"
           id="path3452" />
      </g>
    </g>
  </g>
</svg>
