999
dxfrw 0.5.11
0
SECTION
2
HEADER
9
$ACADVER
1
AC1021
9
$HANDSEED
5
20000
9
$DWGCODEPAGE
3
ANSI_1252
9
$INSBASE
10
0
20
0
30
0
9
$EXTMIN
10
-199.987597687
20
-466.10158044
30
0
9
$EXTMAX
10
5238.24933619
20
3946.34561898
30
0
9
$LIMMIN
10
0
20
0
9
$LIMMAX
10
420
20
297
9
$ORTHOMODE
70
0
9
$LTSCALE
40
1
9
$TEXTSTYLE
7
STANDARD
9
$CLAYER
8
DIMENSIONS
9
$DIMASZ
40
10
9
$DIMLFAC
40
0.0393701
9
$DIMSCALE
40
0.5
9
$DIMEXO
40
0.025
9
$DIMEXE
40
0.05
9
$DIMTXT
40
10
9
$DIMTSZ
40
0
9
$DIMAUNIT
70
0
9
$DIMADEC
70
2
9
$DIMLUNIT
70
2
9
$DIMSTYLE
2
Standard
9
$DIMGAP
40
0.025
9
$DIMTIH
70
0
9
$LUNITS
70
2
9
$LUPREC
70
4
9
$AUNITS
70
0
9
$AUPREC
70
2
9
$SPLINESEGS
70
8
9
$GRIDMODE
70
1
9
$SNAPSTYLE
70
0
9
$GRIDUNIT
10
0
20
0
9
$PINSBASE
10
0
20
0
30
0
9
$PLIMMIN
10
0
20
0
9
$PLIMMAX
10
0.325501
20
0.460352
9
$INSUNITS
70
4
9
$PSVPSCALE
40
1
0
ENDSEC
0
SECTION
2
CLASSES
0
ENDSEC
0
SECTION
2
TABLES
0
TABLE
2
VPORT
5
8
330
0
100
AcDbSymbolTable
70
1
0
VPORT
5
31
330
2
100
AcDbSymbolTableRecord
100
AcDbViewportTableRecord
2
*ACTIVE
70
0
10
0
20
0
11
1
21
1
12
181.71875
22
95.78125
13
0
23
0
14
10
24
10
15
10
25
10
16
0
26
0
36
1
17
0
27
0
37
0
40
218.4375
41
1.31330472103
42
50
43
0
44
0
50
0
51
0
71
0
72
100
73
1
74
3
75
0
76
1
77
0
78
0
281
0
65
1
110
0
120
0
130
0
111
1
121
0
131
0
112
0
122
1
132
0
79
0
146
0
348
10020
60
7
61
5
292
1
282
1
141
0
142
0
63
250
421
3358443
0
ENDTAB
0
TABLE
2
LTYPE
5
5
330
0
100
AcDbSymbolTable
70
4
0
LTYPE
5
14
330
5
100
AcDbSymbolTableRecord
100
AcDbLinetypeTableRecord
2
ByBlock
70
0
3

72
65
73
0
40
0
0
LTYPE
5
15
330
5
100
AcDbSymbolTableRecord
100
AcDbLinetypeTableRecord
2
ByLayer
70
0
3

72
65
73
0
40
0
0
LTYPE
5
16
330
5
100
AcDbSymbolTableRecord
100
AcDbLinetypeTableRecord
2
Continuous
70
0
3
Solid line
72
65
73
0
40
0
0
LTYPE
5
32
330
5
100
AcDbSymbolTableRecord
100
AcDbLinetypeTableRecord
2
DOT
70
0
3
Dot . . . . . . . . . . . . . . . . . . . . . .
72
65
73
2
40
6.35
49
0
74
0
49
-6.35
74
0
0
LTYPE
5
33
330
5
100
AcDbSymbolTableRecord
100
AcDbLinetypeTableRecord
2
DOT2
70
0
3
Dot (.5x) .....................................
72
65
73
2
40
3.175
49
0
74
0
49
-3.175
74
0
0
LTYPE
5
34
330
5
100
AcDbSymbolTableRecord
100
AcDbLinetypeTableRecord
2
DOTX2
70
0
3
Dot (2x) .  .  .  .  .  .  .  .  .  .  .  .  .
72
65
73
2
40
12.7
49
0
74
0
49
-12.7
74
0
0
LTYPE
5
35
330
5
100
AcDbSymbolTableRecord
100
AcDbLinetypeTableRecord
2
DASHED
70
0
3
Dot . . . . . . . . . . . . . . . . . . . . . .
72
65
73
2
40
19.05
49
12.7
74
0
49
-6.35
74
0
0
LTYPE
5
36
330
5
100
AcDbSymbolTableRecord
100
AcDbLinetypeTableRecord
2
DASHED2
70
0
3
Dashed (.5x) _ _ _ _ _ _ _ _ _ _ _ _ _ _ _ _ _
72
65
73
2
40
9.525
49
6.35
74
0
49
-3.175
74
0
0
LTYPE
5
37
330
5
100
AcDbSymbolTableRecord
100
AcDbLinetypeTableRecord
2
DASHEDX2
70
0
3
Dashed (2x) ____  ____  ____  ____  ____  ___
72
65
73
2
40
38.1
49
25.4
74
0
49
-12.7
74
0
0
LTYPE
5
38
330
5
100
AcDbSymbolTableRecord
100
AcDbLinetypeTableRecord
2
DASHDOT
70
0
3
Dash dot __ . __ . __ . __ . __ . __ . __ . __
72
65
73
4
40
25.4
49
12.7
74
0
49
-6.35
74
0
49
0
74
0
49
-6.35
74
0
0
LTYPE
5
39
330
5
100
AcDbSymbolTableRecord
100
AcDbLinetypeTableRecord
2
DASHDOT2
70
0
3
Dash dot (.5x) _._._._._._._._._._._._._._._.
72
65
73
4
40
12.7
49
6.35
74
0
49
-3.175
74
0
49
0
74
0
49
-3.175
74
0
0
LTYPE
5
3A
330
5
100
AcDbSymbolTableRecord
100
AcDbLinetypeTableRecord
2
DASHDOTX2
70
0
3
Dash dot (2x) ____  .  ____  .  ____  .  ___
72
65
73
4
40
50.8
49
25.4
74
0
49
-12.7
74
0
49
0
74
0
49
-12.7
74
0
0
LTYPE
5
3B
330
5
100
AcDbSymbolTableRecord
100
AcDbLinetypeTableRecord
2
DIVIDE
70
0
3
Divide ____ . . ____ . . ____ . . ____ . . ____
72
65
73
6
40
31.75
49
12.7
74
0
49
-6.35
74
0
49
0
74
0
49
-6.35
74
0
49
0
74
0
49
-6.35
74
0
0
LTYPE
5
3C
330
5
100
AcDbSymbolTableRecord
100
AcDbLinetypeTableRecord
2
DIVIDE2
70
0
3
Divide (.5x) __..__..__..__..__..__..__..__.._
72
65
73
6
40
15.875
49
6.35
74
0
49
-3.175
74
0
49
0
74
0
49
-3.175
74
0
49
0
74
0
49
-3.175
74
0
0
LTYPE
5
3D
330
5
100
AcDbSymbolTableRecord
100
AcDbLinetypeTableRecord
2
DIVIDEX2
70
0
3
Divide (2x) ________  .  .  ________  .  .  _
72
65
73
6
40
63.5
49
25.4
74
0
49
-12.7
74
0
49
0
74
0
49
-12.7
74
0
49
0
74
0
49
-12.7
74
0
0
LTYPE
5
3E
330
5
100
AcDbSymbolTableRecord
100
AcDbLinetypeTableRecord
2
BORDER
70
0
3
Border __ __ . __ __ . __ __ . __ __ . __ __ .
72
65
73
6
40
44.45
49
12.7
74
0
49
-6.35
74
0
49
12.7
74
0
49
-6.35
74
0
49
0
74
0
49
-6.35
74
0
0
LTYPE
5
3F
330
5
100
AcDbSymbolTableRecord
100
AcDbLinetypeTableRecord
2
BORDER2
70
0
3
Border (.5x) __.__.__.__.__.__.__.__.__.__.__.
72
65
73
6
40
22.225
49
6.35
74
0
49
-3.175
74
0
49
6.35
74
0
49
-3.175
74
0
49
0
74
0
49
-3.175
74
0
0
LTYPE
5
40
330
5
100
AcDbSymbolTableRecord
100
AcDbLinetypeTableRecord
2
BORDERX2
70
0
3
Border (2x) ____  ____  .  ____  ____  .  ___
72
65
73
6
40
88.9
49
25.4
74
0
49
-12.7
74
0
49
25.4
74
0
49
-12.7
74
0
49
0
74
0
49
-12.7
74
0
0
LTYPE
5
41
330
5
100
AcDbSymbolTableRecord
100
AcDbLinetypeTableRecord
2
CENTER
70
0
3
Center ____ _ ____ _ ____ _ ____ _ ____ _ ____
72
65
73
4
40
50.8
49
31.75
74
0
49
-6.35
74
0
49
6.35
74
0
49
-6.35
74
0
0
LTYPE
5
42
330
5
100
AcDbSymbolTableRecord
100
AcDbLinetypeTableRecord
2
CENTER2
70
0
3
Center (.5x) ___ _ ___ _ ___ _ ___ _ ___ _ ___
72
65
73
4
40
28.575
49
19.05
74
0
49
-3.175
74
0
49
3.175
74
0
49
-3.175
74
0
0
LTYPE
5
43
330
5
100
AcDbSymbolTableRecord
100
AcDbLinetypeTableRecord
2
CENTERX2
70
0
3
Center (2x) ________  __  ________  __  _____
72
65
73
4
40
101.6
49
63.5
74
0
49
-12.7
74
0
49
12.7
74
0
49
-12.7
74
0
0
ENDTAB
0
TABLE
2
LAYER
5
2
330
0
100
AcDbSymbolTable
70
1
0
LAYER
5
10
330
2
100
AcDbSymbolTableRecord
100
AcDbLayerTableRecord
2
0
70
0
62
7
6
CONTINUOUS
370
-3
390
F
0
LAYER
5
44
330
2
100
AcDbSymbolTableRecord
100
AcDbLayerTableRecord
2
BOUNDARY
70
0
62
5
6
CONTINUOUS
370
0
390
F
0
LAYER
5
45
330
2
100
AcDbSymbolTableRecord
100
AcDbLayerTableRecord
2
DIMENSIONS
70
0
62
7
6
CONTINUOUS
370
0
390
F
0
LAYER
5
46
330
2
100
AcDbSymbolTableRecord
100
AcDbLayerTableRecord
2
DOOR_SLOTS
70
0
62
2
6
CONTINUOUS
370
0
390
F
0
LAYER
5
47
330
2
100
AcDbSymbolTableRecord
100
AcDbLayerTableRecord
2
REFERENCE
70
0
62
253
420
10526884
6
CONTINUOUS
370
0
390
F
0
LAYER
5
48
330
2
100
AcDbSymbolTableRecord
100
AcDbLayerTableRecord
2
STANDOFF_HOLES
70
0
62
3
6
CONTINUOUS
370
0
390
F
0
LAYER
5
49
330
2
100
AcDbSymbolTableRecord
100
AcDbLayerTableRecord
2
WALL_SLOTS
70
0
62
4
6
CONTINUOUS
370
0
390
F
0
ENDTAB
0
TABLE
2
STYLE
5
3
330
0
100
AcDbSymbolTable
70
3
0
STYLE
5
4A
330
2
100
AcDbSymbolTableRecord
100
AcDbTextStyleTableRecord
2
Standard
70
0
40
0
41
1
50
0
71
0
42
1
3
txt
4

0
ENDTAB
0
TABLE
2
VIEW
5
6
330
0
100
AcDbSymbolTable
70
0
0
ENDTAB
0
TABLE
2
UCS
5
7
330
0
100
AcDbSymbolTable
70
0
0
ENDTAB
0
TABLE
2
APPID
5
9
330
0
100
AcDbSymbolTable
70
1
0
APPID
5
12
330
9
100
AcDbSymbolTableRecord
100
AcDbRegAppTableRecord
2
ACAD
70
0
0
ENDTAB
0
TABLE
2
DIMSTYLE
5
A
330
0
100
AcDbSymbolTable
70
1
100
AcDbDimStyleTable
71
1
0
DIMSTYLE
105
4B
330
A
100
AcDbSymbolTableRecord
100
AcDbDimStyleTableRecord
2
Standard
70
0
40
1
41
10
42
0.025
43
0.38
44
0.05
45
0
46
0
47
0
48
0
140
10
141
0.09
142
0
143
25.4
144
1
145
0
146
1
147
0.025
148
0
71
0
72
0
73
0
74
1
75
0
76
0
77
0
78
0
79
0
170
0
171
2
172
0
173
0
174
0
175
0
176
0
177
0
178
0
179
0
271
4
272
4
273
2
274
2
275
0
276
0
277
2
278
46
279
0
280
0
281
0
282
0
283
1
284
0
285
0
286
0
288
0
289
3
340
Standard
341

371
-2
372
-2
0
ENDTAB
0
TABLE
2
BLOCK_RECORD
5
1
330
0
100
AcDbSymbolTable
70
2
0
BLOCK_RECORD
5
1F
330
1
100
AcDbSymbolTableRecord
100
AcDbBlockTableRecord
2
*Model_Space
70
0
280
1
281
0
0
BLOCK_RECORD
5
1E
330
1
100
AcDbSymbolTableRecord
100
AcDbBlockTableRecord
2
*Paper_Space
70
0
280
1
281
0
0
BLOCK_RECORD
5
4C
330
1
100
AcDbSymbolTableRecord
100
AcDbBlockTableRecord
2
*D1
70
0
280
1
281
0
0
BLOCK_RECORD
5
4F
330
1
100
AcDbSymbolTableRecord
100
AcDbBlockTableRecord
2
*D2
70
0
280
1
281
0
0
ENDTAB
0
ENDSEC
0
SECTION
2
BLOCKS
0
BLOCK
5
20
330
1F
100
AcDbEntity
8
0
100
AcDbBlockBegin
2
*Model_Space
70
0
10
0
20
0
30
0
3
*Model_Space
1

0
ENDBLK
5
21
330
1F
100
AcDbEntity
8
0
100
AcDbBlockEnd
0
BLOCK
5
1C
330
1B
100
AcDbEntity
8
0
100
AcDbBlockBegin
2
*Paper_Space
70
0
10
0
20
0
30
0
3
*Paper_Space
1

0
ENDBLK
5
1D
330
1F
100
AcDbEntity
8
0
100
AcDbBlockEnd
0
BLOCK
5
4D
330
4C
100
AcDbEntity
8
0
100
AcDbBlockBegin
2
*D1
70
1
10
0
20
0
3
*D1
1

0
LINE
5
52
100
AcDbEntity
8
DIMENSIONS
6
CONTINUOUS
62
7
370
0
100
AcDbLine
10
205.574722436
20
0.0165364342051
11
205.574722436
21
155.365143761
0
SOLID
5
53
100
AcDbEntity
8
DIMENSIONS
6
CONTINUOUS
62
7
370
0
100
AcDbTrace
10
205.574722436
20
0.0165364342051
30
0
11
204.742153121
21
5.01653643421
31
0
12
206.407291752
22
5.01653643421
32
0
13
206.407291752
23
5.01653643421
33
0
0
SOLID
5
54
100
AcDbEntity
8
DIMENSIONS
6
CONTINUOUS
62
7
370
0
100
AcDbTrace
10
205.574722436
20
155.365143761
30
0
11
206.407291752
21
150.365143761
31
0
12
204.742153121
22
150.365143761
32
0
13
204.742153121
23
150.365143761
33
0
0
MTEXT
5
55
100
AcDbEntity
8
DIMENSIONS
6
CONTINUOUS
62
7
370
0
100
AcDbMText
10
203.062222436
20
77.6908400974
30
0
40
5
41
16.1111111111
71
5
72
1
1
6.1161
7
standard
210
0
220
0
230
1
50
90
73
2
44
1
0
LINE
5
56
100
AcDbEntity
8
DIMENSIONS
6
CONTINUOUS
62
7
370
0
100
AcDbLine
10
196.825028064
20
0.0165364342051
11
205.599722436
21
0.0165364342051
0
LINE
5
57
100
AcDbEntity
8
DIMENSIONS
6
CONTINUOUS
62
7
370
0
100
AcDbLine
10
196.825028064
20
155.365143761
11
205.599722436
21
155.365143761
0
ENDBLK
5
4E
330
4C
100
AcDbEntity
8
0
100
AcDbBlockEnd
0
BLOCK
5
50
330
4F
100
AcDbEntity
8
0
100
AcDbBlockBegin
2
*D2
70
1
10
0
20
0
3
*D2
1

0
LINE
5
58
100
AcDbEntity
8
DIMENSIONS
6
CONTINUOUS
62
7
370
0
100
AcDbLine
10
0.0124023129539
20
-17.6948895326
11
199.812262151
21
-17.6948895326
0
SOLID
5
59
100
AcDbEntity
8
DIMENSIONS
6
CONTINUOUS
62
7
370
0
100
AcDbTrace
10
0.0124023129539
20
-17.6948895326
30
0
11
5.01240231295
21
-16.8623202171
31
0
12
5.01240231295
22
-18.5274588482
32
0
13
5.01240231295
23
-18.5274588482
33
0
0
SOLID
5
5A
100
AcDbEntity
8
DIMENSIONS
6
CONTINUOUS
62
7
370
0
100
AcDbTrace
10
199.812262151
20
-17.6948895326
30
0
11
194.812262151
21
-18.5274588482
31
0
12
194.812262151
22
-16.8623202171
32
0
13
194.812262151
23
-16.8623202171
33
0
0
MTEXT
5
5B
100
AcDbEntity
8
DIMENSIONS
6
CONTINUOUS
62
7
370
0
100
AcDbMText
10
99.9123322321
20
-15.1823895326
30
0
40
5
41
18.3333333333
71
5
72
1
1
7.8661
7
standard
210
0
220
0
230
1
50
0
73
2
44
1
0
LINE
5
5C
100
AcDbEntity
8
DIMENSIONS
6
CONTINUOUS
62
7
370
0
100
AcDbLine
10
0.0124023129539
20
3.00402345415
11
0.0124023129539
21
-17.7198895326
0
LINE
5
5D
100
AcDbEntity
8
DIMENSIONS
6
CONTINUOUS
62
7
370
0
100
AcDbLine
10
199.812262151
20
3.00402345415
11
199.812262151
21
-17.7198895326
0
ENDBLK
5
51
330
4F
100
AcDbEntity
8
0
100
AcDbBlockEnd
0
ENDSEC
0
SECTION
2
ENTITIES
0
LWPOLYLINE
5
5E
100
AcDbEntity
8
BOUNDARY
6
ByLayer
62
256
370
-1
100
AcDbPolyline
90
2
70
0
43
0
10
0.0124023129539
20
3.01652345415
10
0.0124023129539
20
152.365155674
0
LWPOLYLINE
5
5F
100
AcDbEntity
8
BOUNDARY
6
ByLayer
62
256
370
-1
100
AcDbPolyline
90
2
70
0
43
0
10
0.0124023129539
20
152.365155674
10
0.0358286613783
20
152.741582932
0
LWPOLYLINE
5
60
100
AcDbEntity
8
BOUNDARY
6
ByLayer
62
256
370
-1
100
AcDbPolyline
90
2
70
0
43
0
10
0.0358286613783
20
152.741582932
10
0.10610854485
20
153.112422201
0
LWPOLYLINE
5
61
100
AcDbEntity
8
BOUNDARY
6
ByLayer
62
256
370
-1
100
AcDbPolyline
90
2
70
0
43
0
10
0.10610854485
20
153.112422201
10
0.22324168397
20
153.469037498
0
LWPOLYLINE
5
62
100
AcDbEntity
8
BOUNDARY
6
ByLayer
62
256
370
-1
100
AcDbPolyline
90
2
70
0
43
0
10
0.22324168397
20
153.469037498
10
0.383094744884
20
153.810920824
0
LWPOLYLINE
5
63
100
AcDbEntity
8
BOUNDARY
6
ByLayer
62
256
370
-1
100
AcDbPolyline
90
2
70
0
43
0
10
0.383094744884
20
153.810920824
10
0.585666965595
20
154.128928197
0
LWPOLYLINE
5
64
100
AcDbEntity
8
BOUNDARY
6
ByLayer
62
256
370
-1
100
AcDbPolyline
90
2
70
0
43
0
10
0.585666965595
20
154.128928197
10
0.825442492975
20
154.420011624
0
LWPOLYLINE
5
65
100
AcDbEntity
8
BOUNDARY
6
ByLayer
62
256
370
-1
100
AcDbPolyline
90
2
70
0
43
0
10
0.825442492975
20
154.420011624
10
1.09967305244
20
154.677567116
0
LWPOLYLINE
5
66
100
AcDbEntity
8
BOUNDARY
6
ByLayer
62
256
370
-1
100
AcDbPolyline
90
2
70
0
43
0
10
1.09967305244
20
154.677567116
10
1.40559766943
20
154.898038681
0
LWPOLYLINE
5
67
100
AcDbEntity
8
BOUNDARY
6
ByLayer
62
256
370
-1
100
AcDbPolyline
90
2
70
0
43
0
10
1.40559766943
20
154.898038681
10
1.73494612026
20
155.080156322
0
LWPOLYLINE
5
68
100
AcDbEntity
8
BOUNDARY
6
ByLayer
62
256
370
-1
100
AcDbPolyline
90
2
70
0
43
0
10
1.73494612026
20
155.080156322
10
2.08497013033
20
155.219094049
0
LWPOLYLINE
5
69
100
AcDbEntity
8
BOUNDARY
6
ByLayer
62
256
370
-1
100
AcDbPolyline
90
2
70
0
43
0
10
2.08497013033
20
155.219094049
10
2.45014521053
20
155.312819864
0
LWPOLYLINE
5
6A
100
AcDbEntity
8
BOUNDARY
6
ByLayer
62
256
370
-1
100
AcDbPolyline
90
2
70
0
43
0
10
2.45014521053
20
155.312819864
10
2.82498243169
20
155.359809771
0
LWPOLYLINE
5
6B
100
AcDbEntity
8
BOUNDARY
6
ByLayer
62
256
370
-1
100
AcDbPolyline
90
2
70
0
43
0
10
2.82498243169
20
155.359809771
10
3.01238326231
20
155.359809771
0
LWPOLYLINE
5
6C
100
AcDbEntity
8
BOUNDARY
6
ByLayer
62
256
370
-1
100
AcDbPolyline
90
2
70
0
43
0
10
3.01238326231
20
155.359809771
10
3.01238326231
20
155.365143761
0
LWPOLYLINE
5
6D
100
AcDbEntity
8
BOUNDARY
6
ByLayer
62
256
370
-1
100
AcDbPolyline
90
2
70
0
43
0
10
3.01238326231
20
155.365143761
10
196.812528064
20
155.365143761
0
LWPOLYLINE
5
6E
100
AcDbEntity
8
BOUNDARY
6
ByLayer
62
256
370
-1
100
AcDbPolyline
90
2
70
0
43
0
10
196.812528064
20
155.365143761
10
196.812528064
20
155.359809771
0
LWPOLYLINE
5
6F
100
AcDbEntity
8
BOUNDARY
6
ByLayer
62
256
370
-1
100
AcDbPolyline
90
2
70
0
43
0
10
196.812528064
20
155.359809771
10
196.999979695
20
155.359809771
0
LWPOLYLINE
5
70
100
AcDbEntity
8
BOUNDARY
6
ByLayer
62
256
370
-1
100
AcDbPolyline
90
2
70
0
43
0
10
196.999979695
20
155.359809771
10
197.373104959
20
155.312819864
0
LWPOLYLINE
5
71
100
AcDbEntity
8
BOUNDARY
6
ByLayer
62
256
370
-1
100
AcDbPolyline
90
2
70
0
43
0
10
197.373104959
20
155.312819864
10
197.738610239
20
155.219094049
0
LWPOLYLINE
5
72
100
AcDbEntity
8
BOUNDARY
6
ByLayer
62
256
370
-1
100
AcDbPolyline
90
2
70
0
43
0
10
197.738610239
20
155.219094049
10
198.088621549
20
155.080156322
0
LWPOLYLINE
5
73
100
AcDbEntity
8
BOUNDARY
6
ByLayer
62
256
370
-1
100
AcDbPolyline
90
2
70
0
43
0
10
198.088621549
20
155.080156322
10
198.419074897
20
154.898038681
0
LWPOLYLINE
5
74
100
AcDbEntity
8
BOUNDARY
6
ByLayer
62
256
370
-1
100
AcDbPolyline
90
2
70
0
43
0
10
198.419074897
20
154.898038681
10
198.723620297
20
154.677567116
0
LWPOLYLINE
5
75
100
AcDbEntity
8
BOUNDARY
6
ByLayer
62
256
370
-1
100
AcDbPolyline
90
2
70
0
43
0
10
198.723620297
20
154.677567116
10
198.999463753
20
154.420011624
0
LWPOLYLINE
5
76
100
AcDbEntity
8
BOUNDARY
6
ByLayer
62
256
370
-1
100
AcDbPolyline
90
2
70
0
43
0
10
198.999463753
20
154.420011624
10
199.238985281
20
154.128928197
0
LWPOLYLINE
5
77
100
AcDbEntity
8
BOUNDARY
6
ByLayer
62
256
370
-1
100
AcDbPolyline
90
2
70
0
43
0
10
199.238985281
20
154.128928197
10
199.440406884
20
153.810920824
0
LWPOLYLINE
5
78
100
AcDbEntity
8
BOUNDARY
6
ByLayer
62
256
370
-1
100
AcDbPolyline
90
2
70
0
43
0
10
199.440406884
20
153.810920824
10
199.601696566
20
153.469037498
0
LWPOLYLINE
5
79
100
AcDbEntity
8
BOUNDARY
6
ByLayer
62
256
370
-1
100
AcDbPolyline
90
2
70
0
43
0
10
199.601696566
20
153.469037498
10
199.717266338
20
153.112422201
0
LWPOLYLINE
5
7A
100
AcDbEntity
8
BOUNDARY
6
ByLayer
62
256
370
-1
100
AcDbPolyline
90
2
70
0
43
0
10
199.717266338
20
153.112422201
10
199.7876242
20
152.741582932
0
LWPOLYLINE
5
7B
100
AcDbEntity
8
BOUNDARY
6
ByLayer
62
256
370
-1
100
AcDbPolyline
90
2
70
0
43
0
10
199.7876242
20
152.741582932
10
199.812262151
20
152.365155674
0
LWPOLYLINE
5
7C
100
AcDbEntity
8
BOUNDARY
6
ByLayer
62
256
370
-1
100
AcDbPolyline
90
2
70
0
43
0
10
199.812262151
20
152.365155674
10
199.812262151
20
3.01652345415
0
LWPOLYLINE
5
7D
100
AcDbEntity
8
BOUNDARY
6
ByLayer
62
256
370
-1
100
AcDbPolyline
90
2
70
0
43
0
10
199.812262151
20
3.01652345415
10
199.7876242
20
2.64032479567
0
LWPOLYLINE
5
7E
100
AcDbEntity
8
BOUNDARY
6
ByLayer
62
256
370
-1
100
AcDbPolyline
90
2
70
0
43
0
10
199.7876242
20
2.64032479567
10
199.717266338
20
2.26962268636
0
LWPOLYLINE
5
7F
100
AcDbEntity
8
BOUNDARY
6
ByLayer
62
256
370
-1
100
AcDbPolyline
90
2
70
0
43
0
10
199.717266338
20
2.26962268636
10
199.601696566
20
1.91133607258
0
LWPOLYLINE
5
80
100
AcDbEntity
8
BOUNDARY
6
ByLayer
62
256
370
-1
100
AcDbPolyline
90
2
70
0
43
0
10
199.601696566
20
1.91133607258
10
199.440406884
20
1.57095896349
0
LWPOLYLINE
5
81
100
AcDbEntity
8
BOUNDARY
6
ByLayer
62
256
370
-1
100
AcDbPolyline
90
2
70
0
43
0
10
199.440406884
20
1.57095896349
10
199.238985281
20
1.25263409094
0
LWPOLYLINE
5
82
100
AcDbEntity
8
BOUNDARY
6
ByLayer
62
256
370
-1
100
AcDbPolyline
90
2
70
0
43
0
10
199.238985281
20
1.25263409094
10
198.999463753
20
0.961868164067
0
LWPOLYLINE
5
83
100
AcDbEntity
8
BOUNDARY
6
ByLayer
62
256
370
-1
100
AcDbPolyline
90
2
70
0
43
0
10
198.999463753
20
0.961868164067
10
198.723620297
20
0.704175512004
0
LWPOLYLINE
5
84
100
AcDbEntity
8
BOUNDARY
6
ByLayer
62
256
370
-1
100
AcDbPolyline
90
2
70
0
43
0
10
198.723620297
20
0.704175512004
10
198.419074897
20
0.483688706604
0
LWPOLYLINE
5
85
100
AcDbEntity
8
BOUNDARY
6
ByLayer
62
256
370
-1
100
AcDbPolyline
90
2
70
0
43
0
10
198.419074897
20
0.483688706604
10
198.088621549
20
0.301789505144
0
LWPOLYLINE
5
86
100
AcDbEntity
8
BOUNDARY
6
ByLayer
62
256
370
-1
100
AcDbPolyline
90
2
70
0
43
0
10
198.088621549
20
0.301789505144
10
197.738610239
20
0.162608447483
0
LWPOLYLINE
5
87
100
AcDbEntity
8
BOUNDARY
6
ByLayer
62
256
370
-1
100
AcDbPolyline
90
2
70
0
43
0
10
197.738610239
20
0.162608447483
10
197.373104959
20
0.0689016821883
0
LWPOLYLINE
5
88
100
AcDbEntity
8
BOUNDARY
6
ByLayer
62
256
370
-1
100
AcDbPolyline
90
2
70
0
43
0
10
197.373104959
20
0.0689016821883
10
196.999979695
20
0.0220485789402
0
LWPOLYLINE
5
89
100
AcDbEntity
8
BOUNDARY
6
ByLayer
62
256
370
-1
100
AcDbPolyline
90
2
70
0
43
0
10
196.999979695
20
0.0220485789402
10
196.812528064
20
0.0220485789402
0
LWPOLYLINE
5
8A
100
AcDbEntity
8
BOUNDARY
6
ByLayer
62
256
370
-1
100
AcDbPolyline
90
2
70
0
43
0
10
196.812528064
20
0.0220485789402
10
196.812528064
20
0.0165364342051
0
LWPOLYLINE
5
8B
100
AcDbEntity
8
BOUNDARY
6
ByLayer
62
256
370
-1
100
AcDbPolyline
90
2
70
0
43
0
10
196.812528064
20
0.0165364342051
10
3.01238326231
20
0.0165364342051
0
LWPOLYLINE
5
8C
100
AcDbEntity
8
BOUNDARY
6
ByLayer
62
256
370
-1
100
AcDbPolyline
90
2
70
0
43
0
10
3.01238326231
20
0.0165364342051
10
3.01238326231
20
0.0220485789402
0
LWPOLYLINE
5
8D
100
AcDbEntity
8
BOUNDARY
6
ByLayer
62
256
370
-1
100
AcDbPolyline
90
2
70
0
43
0
10
3.01238326231
20
0.0220485789402
10
2.82498243169
20
0.0220485789402
0
LWPOLYLINE
5
8E
100
AcDbEntity
8
BOUNDARY
6
ByLayer
62
256
370
-1
100
AcDbPolyline
90
2
70
0
43
0
10
2.82498243169
20
0.0220485789402
10
2.45014521053
20
0.0689016821883
0
LWPOLYLINE
5
8F
100
AcDbEntity
8
BOUNDARY
6
ByLayer
62
256
370
-1
100
AcDbPolyline
90
2
70
0
43
0
10
2.45014521053
20
0.0689016821883
10
2.08497013033
20
0.162608447483
0
LWPOLYLINE
5
90
100
AcDbEntity
8
BOUNDARY
6
ByLayer
62
256
370
-1
100
AcDbPolyline
90
2
70
0
43
0
10
2.08497013033
20
0.162608447483
10
1.73494612026
20
0.301789505144
0
LWPOLYLINE
5
91
100
AcDbEntity
8
BOUNDARY
6
ByLayer
62
256
370
-1
100
AcDbPolyline
90
2
70
0
43
0
10
1.73494612026
20
0.301789505144
10
1.40559766943
20
0.483688706604
0
LWPOLYLINE
5
92
100
AcDbEntity
8
BOUNDARY
6
ByLayer
62
256
370
-1
100
AcDbPolyline
90
2
70
0
43
0
10
1.40559766943
20
0.483688706604
10
1.09967305244
20
0.704175512004
0
LWPOLYLINE
5
93
100
AcDbEntity
8
BOUNDARY
6
ByLayer
62
256
370
-1
100
AcDbPolyline
90
2
70
0
43
0
10
1.09967305244
20
0.704175512004
10
0.825442492975
20
0.961868164067
0
LWPOLYLINE
5
94
100
AcDbEntity
8
BOUNDARY
6
ByLayer
62
256
370
-1
100
AcDbPolyline
90
2
70
0
43
0
10
0.825442492975
20
0.961868164067
10
0.585666965595
20
1.25263409094
0
LWPOLYLINE
5
95
100
AcDbEntity
8
BOUNDARY
6
ByLayer
62
256
370
-1
100
AcDbPolyline
90
2
70
0
43
0
10
0.585666965595
20
1.25263409094
10
0.383094744884
20
1.57095896349
0
LWPOLYLINE
5
96
100
AcDbEntity
8
BOUNDARY
6
ByLayer
62
256
370
-1
100
AcDbPolyline
90
2
70
0
43
0
10
0.383094744884
20
1.57095896349
10
0.22324168397
20
1.91133607258
0
LWPOLYLINE
5
97
100
AcDbEntity
8
BOUNDARY
6
ByLayer
62
256
370
-1
100
AcDbPolyline
90
2
70
0
43
0
10
0.22324168397
20
1.91133607258
10
0.10610854485
20
2.26962268636
0
LWPOLYLINE
5
98
100
AcDbEntity
8
BOUNDARY
6
ByLayer
62
256
370
-1
100
AcDbPolyline
90
2
70
0
43
0
10
0.10610854485
20
2.26962268636
10
0.0358286613783
20
2.64032479567
0
LWPOLYLINE
5
99
100
AcDbEntity
8
BOUNDARY
6
ByLayer
62
256
370
-1
100
AcDbPolyline
90
2
70
0
43
0
10
0.0358286613783
20
2.64032479567
10
0.0124023129539
20
3.01652345415
0
LINE
5
9A
100
AcDbEntity
8
DOOR_SLOTS
6
ByLayer
62
2
370
-1
100
AcDbLine
10
8.01604639962
20
155.351427788
11
11.0104972973
21
155.351427788
0
LINE
5
9B
100
AcDbEntity
8
DOOR_SLOTS
6
ByLayer
62
2
370
-1
100
AcDbLine
10
11.0104972973
20
155.351427788
11
11.0104972973
21
8.01741799691
0
LINE
5
9C
100
AcDbEntity
8
DOOR_SLOTS
6
ByLayer
62
2
370
-1
100
AcDbLine
10
11.0104972973
20
8.01741799691
11
8.01604639962
21
8.01741799691
0
LINE
5
9D
100
AcDbEntity
8
DOOR_SLOTS
6
ByLayer
62
2
370
-1
100
AcDbLine
10
8.01604639962
20
8.01741799691
11
8.01604639962
21
155.351427788
0
LINE
5
9E
100
AcDbEntity
8
DOOR_SLOTS
6
ByLayer
62
2
370
-1
100
AcDbLine
10
8.01604639962
20
155.351427788
11
8.01604639962
21
155.351427788
0
LWPOLYLINE
5
9F
100
AcDbEntity
8
DOOR_SLOTS
6
ByLayer
62
256
370
-1
100
AcDbPolyline
90
5
70
1
43
0
10
188.814337829
20
155.367937755
10
191.808737927
20
155.367937755
10
191.808737927
20
8.03255636708
10
188.814337829
20
8.03255636708
10
188.814337829
20
155.367937755
0
LWPOLYLINE
5
A0
100
AcDbEntity
8
STANDOFF_HOLES
6
ByLayer
62
256
370
-1
100
AcDbPolyline
90
2
70
0
43
0
10
2.31234540215
20
4.01557968491
10
2.32474565771
20
4.22919326386
0
LWPOLYLINE
5
A1
100
AcDbEntity
8
STANDOFF_HOLES
6
ByLayer
62
256
370
-1
100
AcDbPolyline
90
2
70
0
43
0
10
2.32474565771
20
4.22919326386
10
2.36470739894
20
4.43864125102
0
LWPOLYLINE
5
A2
100
AcDbEntity
8
STANDOFF_HOLES
6
ByLayer
62
256
370
-1
100
AcDbPolyline
90
2
70
0
43
0
10
2.36470739894
20
4.43864125102
10
2.43085394856
20
4.64262824894
0
LWPOLYLINE
5
A3
100
AcDbEntity
8
STANDOFF_HOLES
6
ByLayer
62
256
370
-1
100
AcDbPolyline
90
2
70
0
43
0
10
2.43085394856
20
4.64262824894
10
2.52180608928
20
4.83551546874
0
LWPOLYLINE
5
A4
100
AcDbEntity
8
STANDOFF_HOLES
6
ByLayer
62
256
370
-1
100
AcDbPolyline
90
2
70
0
43
0
10
2.52180608928
20
4.83551546874
10
2.63755620113
20
5.01466131563
0
LWPOLYLINE
5
A5
100
AcDbEntity
8
STANDOFF_HOLES
6
ByLayer
62
256
370
-1
100
AcDbPolyline
90
2
70
0
43
0
10
2.63755620113
20
5.01466131563
10
2.77397933223
20
5.18004038965
0
LWPOLYLINE
5
A6
100
AcDbEntity
8
STANDOFF_HOLES
6
ByLayer
62
256
370
-1
100
AcDbPolyline
90
2
70
0
43
0
10
2.77397933223
20
5.18004038965
10
2.92833482798
20
5.32611550173
0
LWPOLYLINE
5
A7
100
AcDbEntity
8
STANDOFF_HOLES
6
ByLayer
62
256
370
-1
100
AcDbPolyline
90
2
70
0
43
0
10
2.92833482798
20
5.32611550173
10
3.10196888573
20
5.4514896546
0
LWPOLYLINE
5
A8
100
AcDbEntity
8
STANDOFF_HOLES
6
ByLayer
62
256
370
-1
100
AcDbPolyline
90
2
70
0
43
0
10
3.10196888573
20
5.4514896546
10
3.28799811905
20
5.55349585354
0
LWPOLYLINE
5
A9
100
AcDbEntity
8
STANDOFF_HOLES
6
ByLayer
62
256
370
-1
100
AcDbPolyline
90
2
70
0
43
0
10
3.28799811905
20
5.55349585354
10
3.48781952518
20
5.63342949598
0
LWPOLYLINE
5
AA
100
AcDbEntity
8
STANDOFF_HOLES
6
ByLayer
62
256
370
-1
100
AcDbPolyline
90
2
70
0
43
0
10
3.48781952518
20
5.63342949598
10
3.69315272045
20
5.6857787928
0
LWPOLYLINE
5
AB
100
AcDbEntity
8
STANDOFF_HOLES
6
ByLayer
62
256
370
-1
100
AcDbPolyline
90
2
70
0
43
0
10
3.69315272045
20
5.6857787928
10
3.9053439022
20
5.71333773847
0
LWPOLYLINE
5
AC
100
AcDbEntity
8
STANDOFF_HOLES
6
ByLayer
62
256
370
-1
100
AcDbPolyline
90
2
70
0
43
0
10
3.9053439022
20
5.71333773847
10
4.11895748115
20
5.71333773847
0
LWPOLYLINE
5
AD
100
AcDbEntity
8
STANDOFF_HOLES
6
ByLayer
62
256
370
-1
100
AcDbPolyline
90
2
70
0
43
0
10
4.11895748115
20
5.71333773847
10
4.3311486629
20
5.6857787928
0
LWPOLYLINE
5
AE
100
AcDbEntity
8
STANDOFF_HOLES
6
ByLayer
62
256
370
-1
100
AcDbPolyline
90
2
70
0
43
0
10
4.3311486629
20
5.6857787928
10
4.53787885541
20
5.63342949598
0
LWPOLYLINE
5
AF
100
AcDbEntity
8
STANDOFF_HOLES
6
ByLayer
62
256
370
-1
100
AcDbPolyline
90
2
70
0
43
0
10
4.53787885541
20
5.63342949598
10
4.7363032643
20
5.55349585354
0
LWPOLYLINE
5
B0
100
AcDbEntity
8
STANDOFF_HOLES
6
ByLayer
62
256
370
-1
100
AcDbPolyline
90
2
70
0
43
0
10
4.7363032643
20
5.55349585354
10
4.92370409492
20
5.4514896546
0
LWPOLYLINE
5
B1
100
AcDbEntity
8
STANDOFF_HOLES
6
ByLayer
62
256
370
-1
100
AcDbPolyline
90
2
70
0
43
0
10
4.92370409492
20
5.4514896546
10
5.09596655537
20
5.32611550173
0
LWPOLYLINE
5
B2
100
AcDbEntity
8
STANDOFF_HOLES
6
ByLayer
62
256
370
-1
100
AcDbPolyline
90
2
70
0
43
0
10
5.09596655537
20
5.32611550173
10
5.25169364842
20
5.18004038965
0
LWPOLYLINE
5
B3
100
AcDbEntity
8
STANDOFF_HOLES
6
ByLayer
62
256
370
-1
100
AcDbPolyline
90
2
70
0
43
0
10
5.25169364842
20
5.18004038965
10
5.38671978227
20
5.01466131563
0
LWPOLYLINE
5
B4
100
AcDbEntity
8
STANDOFF_HOLES
6
ByLayer
62
256
370
-1
100
AcDbPolyline
90
2
70
0
43
0
10
5.38671978227
20
5.01466131563
10
5.50251815402
20
4.83551546874
0
LWPOLYLINE
5
B5
100
AcDbEntity
8
STANDOFF_HOLES
6
ByLayer
62
256
370
-1
100
AcDbPolyline
90
2
70
0
43
0
10
5.50251815402
20
4.83551546874
10
5.59344997478
20
4.64262824894
0
LWPOLYLINE
5
B6
100
AcDbEntity
8
STANDOFF_HOLES
6
ByLayer
62
256
370
-1
100
AcDbPolyline
90
2
70
0
43
0
10
5.59344997478
20
4.64262824894
10
5.65959144441
20
4.43864125102
0
LWPOLYLINE
5
B7
100
AcDbEntity
8
STANDOFF_HOLES
6
ByLayer
62
256
370
-1
100
AcDbPolyline
90
2
70
0
43
0
10
5.65959144441
20
4.43864125102
10
5.69954556566
20
4.22919326386
0
LWPOLYLINE
5
B8
100
AcDbEntity
8
STANDOFF_HOLES
6
ByLayer
62
256
370
-1
100
AcDbPolyline
90
2
70
0
43
0
10
5.69954556566
20
4.22919326386
10
5.71196614118
20
4.01557968491
0
LWPOLYLINE
5
B9
100
AcDbEntity
8
STANDOFF_HOLES
6
ByLayer
62
256
370
-1
100
AcDbPolyline
90
2
70
0
43
0
10
5.71196614118
20
4.01557968491
10
5.69954556566
20
3.80336310321
0
LWPOLYLINE
5
BA
100
AcDbEntity
8
STANDOFF_HOLES
6
ByLayer
62
256
370
-1
100
AcDbPolyline
90
2
70
0
43
0
10
5.69954556566
20
3.80336310321
10
5.65959144441
20
3.59254351876
0
LWPOLYLINE
5
BB
100
AcDbEntity
8
STANDOFF_HOLES
6
ByLayer
62
256
370
-1
100
AcDbPolyline
90
2
70
0
43
0
10
5.65959144441
20
3.59254351876
10
5.59344997478
20
3.38997891803
0
LWPOLYLINE
5
BC
100
AcDbEntity
8
STANDOFF_HOLES
6
ByLayer
62
256
370
-1
100
AcDbPolyline
90
2
70
0
43
0
10
5.59344997478
20
3.38997891803
10
5.50251815402
20
3.19704089833
0
LWPOLYLINE
5
BD
100
AcDbEntity
8
STANDOFF_HOLES
6
ByLayer
62
256
370
-1
100
AcDbPolyline
90
2
70
0
43
0
10
5.50251815402
20
3.19704089833
10
5.38671978227
20
3.01652345415
0
LWPOLYLINE
5
BE
100
AcDbEntity
8
STANDOFF_HOLES
6
ByLayer
62
256
370
-1
100
AcDbPolyline
90
2
70
0
43
0
10
5.38671978227
20
3.01652345415
10
5.25169364842
20
2.85254137737
0
LWPOLYLINE
5
BF
100
AcDbEntity
8
STANDOFF_HOLES
6
ByLayer
62
256
370
-1
100
AcDbPolyline
90
2
70
0
43
0
10
5.25169364842
20
2.85254137737
10
5.09596655537
20
2.7064662653
0
LWPOLYLINE
5
C0
100
AcDbEntity
8
STANDOFF_HOLES
6
ByLayer
62
256
370
-1
100
AcDbPolyline
90
2
70
0
43
0
10
5.09596655537
20
2.7064662653
10
4.92370409492
20
2.58106671247
0
LWPOLYLINE
5
C1
100
AcDbEntity
8
STANDOFF_HOLES
6
ByLayer
62
256
370
-1
100
AcDbPolyline
90
2
70
0
43
0
10
4.92370409492
20
2.58106671247
10
4.7363032643
20
2.4777092362
0
LWPOLYLINE
5
C2
100
AcDbEntity
8
STANDOFF_HOLES
6
ByLayer
62
256
370
-1
100
AcDbPolyline
90
2
70
0
43
0
10
4.7363032643
20
2.4777092362
10
4.53787885541
20
2.39915989103
0
LWPOLYLINE
5
C3
100
AcDbEntity
8
STANDOFF_HOLES
6
ByLayer
62
256
370
-1
100
AcDbPolyline
90
2
70
0
43
0
10
4.53787885541
20
2.39915989103
10
4.3311486629
20
2.34541613696
0
LWPOLYLINE
5
C4
100
AcDbEntity
8
STANDOFF_HOLES
6
ByLayer
62
256
370
-1
100
AcDbPolyline
90
2
70
0
43
0
10
4.3311486629
20
2.34541613696
10
4.11895748115
20
2.31923386857
0
LWPOLYLINE
5
C5
100
AcDbEntity
8
STANDOFF_HOLES
6
ByLayer
62
256
370
-1
100
AcDbPolyline
90
2
70
0
43
0
10
4.11895748115
20
2.31923386857
10
3.9053439022
20
2.31923386857
0
LWPOLYLINE
5
C6
100
AcDbEntity
8
STANDOFF_HOLES
6
ByLayer
62
256
370
-1
100
AcDbPolyline
90
2
70
0
43
0
10
3.9053439022
20
2.31923386857
10
3.69315272045
20
2.34679281425
0
LWPOLYLINE
5
C7
100
AcDbEntity
8
STANDOFF_HOLES
6
ByLayer
62
256
370
-1
100
AcDbPolyline
90
2
70
0
43
0
10
3.69315272045
20
2.34541613696
10
3.48781952518
20
2.39915989103
0
LWPOLYLINE
5
C8
100
AcDbEntity
8
STANDOFF_HOLES
6
ByLayer
62
256
370
-1
100
AcDbPolyline
90
2
70
0
43
0
10
3.48781952518
20
2.39915989103
10
3.28799811905
20
2.4777092362
0
LWPOLYLINE
5
C9
100
AcDbEntity
8
STANDOFF_HOLES
6
ByLayer
62
256
370
-1
100
AcDbPolyline
90
2
70
0
43
0
10
3.28799811905
20
2.4777092362
10
3.10196888573
20
2.58106671247
0
LWPOLYLINE
5
CA
100
AcDbEntity
8
STANDOFF_HOLES
6
ByLayer
62
256
370
-1
100
AcDbPolyline
90
2
70
0
43
0
10
3.10196888573
20
2.58106671247
10
2.92833482798
20
2.7064662653
0
LWPOLYLINE
5
CB
100
AcDbEntity
8
STANDOFF_HOLES
6
ByLayer
62
256
370
-1
100
AcDbPolyline
90
2
70
0
43
0
10
2.92833482798
20
2.7064662653
10
2.77397933223
20
2.85254137737
0
LWPOLYLINE
5
CC
100
AcDbEntity
8
STANDOFF_HOLES
6
ByLayer
62
256
370
-1
100
AcDbPolyline
90
2
70
0
43
0
10
2.77397933223
20
2.85254137737
10
2.63755620113
20
3.01652345415
0
LWPOLYLINE
5
CD
100
AcDbEntity
8
STANDOFF_HOLES
6
ByLayer
62
256
370
-1
100
AcDbPolyline
90
2
70
0
43
0
10
2.63755620113
20
3.01652345415
10
2.52180608928
20
3.19704089833
0
LWPOLYLINE
5
CE
100
AcDbEntity
8
STANDOFF_HOLES
6
ByLayer
62
256
370
-1
100
AcDbPolyline
90
2
70
0
43
0
10
2.52180608928
20
3.19704089833
10
2.43085394856
20
3.38997891803
0
LWPOLYLINE
5
CF
100
AcDbEntity
8
STANDOFF_HOLES
6
ByLayer
62
256
370
-1
100
AcDbPolyline
90
2
70
0
43
0
10
2.43085394856
20
3.38997891803
10
2.36470739894
20
3.59254351876
0
LWPOLYLINE
5
D0
100
AcDbEntity
8
STANDOFF_HOLES
6
ByLayer
62
256
370
-1
100
AcDbPolyline
90
2
70
0
43
0
10
2.36470739894
20
3.59254351876
10
2.32474565771
20
3.80336310321
0
LWPOLYLINE
5
D1
100
AcDbEntity
8
STANDOFF_HOLES
6
ByLayer
62
256
370
-1
100
AcDbPolyline
90
2
70
0
43
0
10
2.32474565771
20
3.80336310321
10
2.31234540215
20
4.01557968491
0
LWPOLYLINE
5
D2
100
AcDbEntity
8
STANDOFF_HOLES
6
ByLayer
62
256
370
-1
100
AcDbPolyline
90
2
70
0
43
0
10
2.31234540215
20
151.366175643
10
2.32474565771
20
151.578519224
0
LWPOLYLINE
5
D3
100
AcDbEntity
8
STANDOFF_HOLES
6
ByLayer
62
256
370
-1
100
AcDbPolyline
90
2
70
0
43
0
10
2.32474565771
20
151.578519224
10
2.36470739894
20
151.789338809
0
LWPOLYLINE
5
D4
100
AcDbEntity
8
STANDOFF_HOLES
6
ByLayer
62
256
370
-1
100
AcDbPolyline
90
2
70
0
43
0
10
2.36470739894
20
151.789338809
10
2.43085394856
20
151.99177641
0
LWPOLYLINE
5
D5
100
AcDbEntity
8
STANDOFF_HOLES
6
ByLayer
62
256
370
-1
100
AcDbPolyline
90
2
70
0
43
0
10
2.43085394856
20
151.99177641
10
2.52180608928
20
152.184816029
0
LWPOLYLINE
5
D6
100
AcDbEntity
8
STANDOFF_HOLES
6
ByLayer
62
256
370
-1
100
AcDbPolyline
90
2
70
0
43
0
10
2.52180608928
20
152.184816029
10
2.63755620113
20
152.365155674
0
LWPOLYLINE
5
D7
100
AcDbEntity
8
STANDOFF_HOLES
6
ByLayer
62
256
370
-1
100
AcDbPolyline
90
2
70
0
43
0
10
2.63755620113
20
152.365155674
10
2.77397933223
20
152.529239351
0
LWPOLYLINE
5
D8
100
AcDbEntity
8
STANDOFF_HOLES
6
ByLayer
62
256
370
-1
100
AcDbPolyline
90
2
70
0
43
0
10
2.77397933223
20
152.529239351
10
2.92833482798
20
152.675289063
0
LWPOLYLINE
5
D9
100
AcDbEntity
8
STANDOFF_HOLES
6
ByLayer
62
256
370
-1
100
AcDbPolyline
90
2
70
0
43
0
10
2.92833482798
20
152.675289063
10
3.10196888573
20
152.800764815
0
LWPOLYLINE
5
DA
100
AcDbEntity
8
STANDOFF_HOLES
6
ByLayer
62
256
370
-1
100
AcDbPolyline
90
2
70
0
43
0
10
3.10196888573
20
152.800764815
10
3.28799811905
20
152.904142612
0
LWPOLYLINE
5
DB
100
AcDbEntity
8
STANDOFF_HOLES
6
ByLayer
62
256
370
-1
100
AcDbPolyline
90
2
70
0
43
0
10
3.28799811905
20
152.904142612
10
3.48781952518
20
152.982374457
0
LWPOLYLINE
5
DC
100
AcDbEntity
8
STANDOFF_HOLES
6
ByLayer
62
256
370
-1
100
AcDbPolyline
90
2
70
0
43
0
10
3.48781952518
20
152.982374457
10
3.69315272045
20
153.036476351
0
LWPOLYLINE
5
DD
100
AcDbEntity
8
STANDOFF_HOLES
6
ByLayer
62
256
370
-1
100
AcDbPolyline
90
2
70
0
43
0
10
3.69315272045
20
153.036476351
10
3.9053439022
20
153.062638299
0
LWPOLYLINE
5
DE
100
AcDbEntity
8
STANDOFF_HOLES
6
ByLayer
62
256
370
-1
100
AcDbPolyline
90
2
70
0
43
0
10
3.9053439022
20
153.062638299
10
4.11895748115
20
153.062638299
0
LWPOLYLINE
5
DF
100
AcDbEntity
8
STANDOFF_HOLES
6
ByLayer
62
256
370
-1
100
AcDbPolyline
90
2
70
0
43
0
10
4.11895748115
20
153.062638299
10
4.3311486629
20
153.036476351
0
LWPOLYLINE
5
E0
100
AcDbEntity
8
STANDOFF_HOLES
6
ByLayer
62
256
370
-1
100
AcDbPolyline
90
2
70
0
43
0
10
4.3311486629
20
153.036476351
10
4.53787885541
20
152.982374457
0
LWPOLYLINE
5
E1
100
AcDbEntity
8
STANDOFF_HOLES
6
ByLayer
62
256
370
-1
100
AcDbPolyline
90
2
70
0
43
0
10
4.53787885541
20
152.982374457
10
4.7363032643
20
152.904142612
0
LWPOLYLINE
5
E2
100
AcDbEntity
8
STANDOFF_HOLES
6
ByLayer
62
256
370
-1
100
AcDbPolyline
90
2
70
0
43
0
10
4.7363032643
20
152.904142612
10
4.92370409492
20
152.800764815
0
LWPOLYLINE
5
E3
100
AcDbEntity
8
STANDOFF_HOLES
6
ByLayer
62
256
370
-1
100
AcDbPolyline
90
2
70
0
43
0
10
4.92370409492
20
152.800764815
10
5.09596655537
20
152.675289063
0
LWPOLYLINE
5
E4
100
AcDbEntity
8
STANDOFF_HOLES
6
ByLayer
62
256
370
-1
100
AcDbPolyline
90
2
70
0
43
0
10
5.09596655537
20
152.675289063
10
5.25169364842
20
152.529239351
0
LWPOLYLINE
5
E5
100
AcDbEntity
8
STANDOFF_HOLES
6
ByLayer
62
256
370
-1
100
AcDbPolyline
90
2
70
0
43
0
10
5.25169364842
20
152.529239351
10
5.38671978227
20
152.365155674
0
LWPOLYLINE
5
E6
100
AcDbEntity
8
STANDOFF_HOLES
6
ByLayer
62
256
370
-1
100
AcDbPolyline
90
2
70
0
43
0
10
5.38671978227
20
152.365155674
10
5.50251815402
20
152.184816029
0
LWPOLYLINE
5
E7
100
AcDbEntity
8
STANDOFF_HOLES
6
ByLayer
62
256
370
-1
100
AcDbPolyline
90
2
70
0
43
0
10
5.50251815402
20
152.184816029
10
5.59344997478
20
151.99177641
0
LWPOLYLINE
5
E8
100
AcDbEntity
8
STANDOFF_HOLES
6
ByLayer
62
256
370
-1
100
AcDbPolyline
90
2
70
0
43
0
10
5.59344997478
20
151.99177641
10
5.65959144441
20
151.789338809
0
LWPOLYLINE
5
E9
100
AcDbEntity
8
STANDOFF_HOLES
6
ByLayer
62
256
370
-1
100
AcDbPolyline
90
2
70
0
43
0
10
5.65959144441
20
151.789338809
10
5.69954556566
20
151.578519224
0
LWPOLYLINE
5
EA
100
AcDbEntity
8
STANDOFF_HOLES
6
ByLayer
62
256
370
-1
100
AcDbPolyline
90
2
70
0
43
0
10
5.69954556566
20
151.578519224
10
5.71196614118
20
151.366175643
0
LWPOLYLINE
5
EB
100
AcDbEntity
8
STANDOFF_HOLES
6
ByLayer
62
256
370
-1
100
AcDbPolyline
90
2
70
0
43
0
10
5.71196614118
20
151.366175643
10
5.69954556566
20
151.152562064
0
LWPOLYLINE
5
EC
100
AcDbEntity
8
STANDOFF_HOLES
6
ByLayer
62
256
370
-1
100
AcDbPolyline
90
2
70
0
43
0
10
5.69954556566
20
151.152562064
10
5.65959144441
20
150.943012477
0
LWPOLYLINE
5
ED
100
AcDbEntity
8
STANDOFF_HOLES
6
ByLayer
62
256
370
-1
100
AcDbPolyline
90
2
70
0
43
0
10
5.65959144441
20
150.943012477
10
5.59344997478
20
150.739304879
0
LWPOLYLINE
5
EE
100
AcDbEntity
8
STANDOFF_HOLES
6
ByLayer
62
256
370
-1
100
AcDbPolyline
90
2
70
0
43
0
10
5.59344997478
20
150.739304879
10
5.50251815402
20
150.546265259
0
LWPOLYLINE
5
EF
100
AcDbEntity
8
STANDOFF_HOLES
6
ByLayer
62
256
370
-1
100
AcDbPolyline
90
2
70
0
43
0
10
5.50251815402
20
150.546265259
10
5.38671978227
20
150.366941613
0
LWPOLYLINE
5
F0
100
AcDbEntity
8
STANDOFF_HOLES
6
ByLayer
62
256
370
-1
100
AcDbPolyline
90
2
70
0
43
0
10
5.38671978227
20
150.366941613
10
5.25169364842
20
150.201841938
0
LWPOLYLINE
5
F1
100
AcDbEntity
8
STANDOFF_HOLES
6
ByLayer
62
256
370
-1
100
AcDbPolyline
90
2
70
0
43
0
10
5.25169364842
20
150.201841938
10
5.09596655537
20
150.055538226
0
LWPOLYLINE
5
F2
100
AcDbEntity
8
STANDOFF_HOLES
6
ByLayer
62
256
370
-1
100
AcDbPolyline
90
2
70
0
43
0
10
5.09596655537
20
150.055538226
10
4.92370409492
20
149.930316473
0
LWPOLYLINE
5
F3
100
AcDbEntity
8
STANDOFF_HOLES
6
ByLayer
62
256
370
-1
100
AcDbPolyline
90
2
70
0
43
0
10
4.92370409492
20
149.930316473
10
4.7363032643
20
149.828208675
0
LWPOLYLINE
5
F4
100
AcDbEntity
8
STANDOFF_HOLES
6
ByLayer
62
256
370
-1
100
AcDbPolyline
90
2
70
0
43
0
10
4.7363032643
20
149.828208675
10
4.53787885541
20
149.748198832
0
LWPOLYLINE
5
F5
100
AcDbEntity
8
STANDOFF_HOLES
6
ByLayer
62
256
370
-1
100
AcDbPolyline
90
2
70
0
43
0
10
4.53787885541
20
149.748198832
10
4.3311486629
20
149.696128935
0
LWPOLYLINE
5
F6
100
AcDbEntity
8
STANDOFF_HOLES
6
ByLayer
62
256
370
-1
100
AcDbPolyline
90
2
70
0
43
0
10
4.3311486629
20
149.696128935
10
4.11895748115
20
149.668442989
0
LWPOLYLINE
5
F7
100
AcDbEntity
8
STANDOFF_HOLES
6
ByLayer
62
256
370
-1
100
AcDbPolyline
90
2
70
0
43
0
10
4.11895748115
20
149.668442989
10
3.9053439022
20
149.668442989
0
LWPOLYLINE
5
F8
100
AcDbEntity
8
STANDOFF_HOLES
6
ByLayer
62
256
370
-1
100
AcDbPolyline
90
2
70
0
43
0
10
3.9053439022
20
149.668442989
10
3.69315272045
20
149.696128935
0
LWPOLYLINE
5
F9
100
AcDbEntity
8
STANDOFF_HOLES
6
ByLayer
62
256
370
-1
100
AcDbPolyline
90
2
70
0
43
0
10
3.69315272045
20
149.696128935
10
3.48781952518
20
149.748198832
0
LWPOLYLINE
5
FA
100
AcDbEntity
8
STANDOFF_HOLES
6
ByLayer
62
256
370
-1
100
AcDbPolyline
90
2
70
0
43
0
10
3.48781952518
20
149.748198832
10
3.28799811905
20
149.828208675
0
LWPOLYLINE
5
FB
100
AcDbEntity
8
STANDOFF_HOLES
6
ByLayer
62
256
370
-1
100
AcDbPolyline
90
2
70
0
43
0
10
3.28799811905
20
149.828208675
10
3.10196888573
20
149.930316473
0
LWPOLYLINE
5
FC
100
AcDbEntity
8
STANDOFF_HOLES
6
ByLayer
62
256
370
-1
100
AcDbPolyline
90
2
70
0
43
0
10
3.10196888573
20
149.930316473
10
2.92833482798
20
150.055538226
0
LWPOLYLINE
5
FD
100
AcDbEntity
8
STANDOFF_HOLES
6
ByLayer
62
256
370
-1
100
AcDbPolyline
90
2
70
0
43
0
10
2.92833482798
20
150.055538226
10
2.77397933223
20
150.201841938
0
LWPOLYLINE
5
FE
100
AcDbEntity
8
STANDOFF_HOLES
6
ByLayer
62
256
370
-1
100
AcDbPolyline
90
2
70
0
43
0
10
2.77397933223
20
150.201841938
10
2.63755620113
20
150.366941613
0
LWPOLYLINE
5
FF
100
AcDbEntity
8
STANDOFF_HOLES
6
ByLayer
62
256
370
-1
100
AcDbPolyline
90
2
70
0
43
0
10
2.63755620113
20
150.366941613
10
2.52180608928
20
150.546265259
0
LWPOLYLINE
5
100
100
AcDbEntity
8
STANDOFF_HOLES
6
ByLayer
62
256
370
-1
100
AcDbPolyline
90
2
70
0
43
0
10
2.52180608928
20
150.546265259
10
2.43085394856
20
150.739304879
0
LWPOLYLINE
5
101
100
AcDbEntity
8
STANDOFF_HOLES
6
ByLayer
62
256
370
-1
100
AcDbPolyline
90
2
70
0
43
0
10
2.43085394856
20
150.739304879
10
2.36470739894
20
150.943012477
0
LWPOLYLINE
5
102
100
AcDbEntity
8
STANDOFF_HOLES
6
ByLayer
62
256
370
-1
100
AcDbPolyline
90
2
70
0
43
0
10
2.36470739894
20
150.943012477
10
2.32474565771
20
151.152562064
0
LWPOLYLINE
5
103
100
AcDbEntity
8
STANDOFF_HOLES
6
ByLayer
62
256
370
-1
100
AcDbPolyline
90
2
70
0
43
0
10
2.32474565771
20
151.152562064
10
2.31234540215
20
151.366175643
0
LWPOLYLINE
5
104
100
AcDbEntity
8
STANDOFF_HOLES
6
ByLayer
62
256
370
-1
100
AcDbPolyline
90
2
70
0
43
0
10
98.212462414
20
4.01557968491
10
98.225162389
20
4.22919326386
0
LWPOLYLINE
5
105
100
AcDbEntity
8
STANDOFF_HOLES
6
ByLayer
62
256
370
-1
100
AcDbPolyline
90
2
70
0
43
0
10
98.225162389
20
4.22919326386
10
98.2650403104
20
4.43864125102
0
LWPOLYLINE
5
106
100
AcDbEntity
8
STANDOFF_HOLES
6
ByLayer
62
256
370
-1
100
AcDbPolyline
90
2
70
0
43
0
10
98.2650403104
20
4.43864125102
10
98.3310801802
20
4.64262824894
0
LWPOLYLINE
5
107
100
AcDbEntity
8
STANDOFF_HOLES
6
ByLayer
62
256
370
-1
100
AcDbPolyline
90
2
70
0
43
0
10
98.3310801802
20
4.64262824894
10
98.422012001
20
4.83551546874
0
LWPOLYLINE
5
108
100
AcDbEntity
8
STANDOFF_HOLES
6
ByLayer
62
256
370
-1
100
AcDbPolyline
90
2
70
0
43
0
10
98.422012001
20
4.83551546874
10
98.5375817732
20
5.01466131563
0
LWPOLYLINE
5
109
100
AcDbEntity
8
STANDOFF_HOLES
6
ByLayer
62
256
370
-1
100
AcDbPolyline
90
2
70
0
43
0
10
98.5375817732
20
5.01466131563
10
98.6727095068
20
5.18004038965
0
LWPOLYLINE
5
10A
100
AcDbEntity
8
STANDOFF_HOLES
6
ByLayer
62
256
370
-1
100
AcDbPolyline
90
2
70
0
43
0
10
98.6727095068
20
5.18004038965
10
98.8286651994
20
5.32611550173
0
LWPOLYLINE
5
10B
100
AcDbEntity
8
STANDOFF_HOLES
6
ByLayer
62
256
370
-1
100
AcDbPolyline
90
2
70
0
43
0
10
98.8286651994
20
5.32611550173
10
99.00087686
20
5.4514896546
0
LWPOLYLINE
5
10C
100
AcDbEntity
8
STANDOFF_HOLES
6
ByLayer
62
256
370
-1
100
AcDbPolyline
90
2
70
0
43
0
10
99.00087686
20
5.4514896546
10
99.1883284905
20
5.55349585354
0
LWPOLYLINE
5
10D
100
AcDbEntity
8
STANDOFF_HOLES
6
ByLayer
62
256
370
-1
100
AcDbPolyline
90
2
70
0
43
0
10
99.1883284905
20
5.55349585354
10
99.3867020995
20
5.63342949598
0
LWPOLYLINE
5
10E
100
AcDbEntity
8
STANDOFF_HOLES
6
ByLayer
62
256
370
-1
100
AcDbPolyline
90
2
70
0
43
0
10
99.3867020995
20
5.63342949598
10
99.5932036924
20
5.6857787928
0
LWPOLYLINE
5
10F
100
AcDbEntity
8
STANDOFF_HOLES
6
ByLayer
62
256
370
-1
100
AcDbPolyline
90
2
70
0
43
0
10
99.5932036924
20
5.6857787928
10
99.8055472739
20
5.71333773847
0
LWPOLYLINE
5
110
100
AcDbEntity
8
STANDOFF_HOLES
6
ByLayer
62
256
370
-1
100
AcDbPolyline
90
2
70
0
43
0
10
99.8055472739
20
5.71333773847
10
100.019414852
20
5.71333773847
0
LWPOLYLINE
5
111
100
AcDbEntity
8
STANDOFF_HOLES
6
ByLayer
62
256
370
-1
100
AcDbPolyline
90
2
70
0
43
0
10
100.019414852
20
5.71333773847
10
100.231504434
20
5.6857787928
0
LWPOLYLINE
5
112
100
AcDbEntity
8
STANDOFF_HOLES
6
ByLayer
62
256
370
-1
100
AcDbPolyline
90
2
70
0
43
0
10
100.231504434
20
5.6857787928
10
100.43673603
20
5.63342949598
0
LWPOLYLINE
5
113
100
AcDbEntity
8
STANDOFF_HOLES
6
ByLayer
62
256
370
-1
100
AcDbPolyline
90
2
70
0
43
0
10
100.43673603
20
5.63342949598
10
100.636633636
20
5.55349585354
0
LWPOLYLINE
5
114
100
AcDbEntity
8
STANDOFF_HOLES
6
ByLayer
62
256
370
-1
100
AcDbPolyline
90
2
70
0
43
0
10
100.636633636
20
5.55349585354
10
100.822561269
20
5.4514896546
0
LWPOLYLINE
5
115
100
AcDbEntity
8
STANDOFF_HOLES
6
ByLayer
62
256
370
-1
100
AcDbPolyline
90
2
70
0
43
0
10
100.822561269
20
5.4514896546
10
100.996296927
20
5.32611550173
0
LWPOLYLINE
5
116
100
AcDbEntity
8
STANDOFF_HOLES
6
ByLayer
62
256
370
-1
100
AcDbPolyline
90
2
70
0
43
0
10
100.996296927
20
5.32611550173
10
101.150728622
20
5.18004038965
0
LWPOLYLINE
5
117
100
AcDbEntity
8
STANDOFF_HOLES
6
ByLayer
62
256
370
-1
100
AcDbPolyline
90
2
70
0
43
0
10
101.150728622
20
5.18004038965
10
101.286872354
20
5.01466131563
0
LWPOLYLINE
5
118
100
AcDbEntity
8
STANDOFF_HOLES
6
ByLayer
62
256
370
-1
100
AcDbPolyline
90
2
70
0
43
0
10
101.286872354
20
5.01466131563
10
101.402696126
20
4.83551546874
0
LWPOLYLINE
5
119
100
AcDbEntity
8
STANDOFF_HOLES
6
ByLayer
62
256
370
-1
100
AcDbPolyline
90
2
70
0
43
0
10
101.402696126
20
4.83551546874
10
101.493627947
20
4.64262824894
0
LWPOLYLINE
5
11A
100
AcDbEntity
8
STANDOFF_HOLES
6
ByLayer
62
256
370
-1
100
AcDbPolyline
90
2
70
0
43
0
10
101.493627947
20
4.64262824894
10
101.558397819
20
4.43864125102
0
LWPOLYLINE
5
11B
100
AcDbEntity
8
STANDOFF_HOLES
6
ByLayer
62
256
370
-1
100
AcDbPolyline
90
2
70
0
43
0
10
101.558397819
20
4.43864125102
10
101.599799737
20
4.22919326386
0
LWPOLYLINE
5
11C
100
AcDbEntity
8
STANDOFF_HOLES
6
ByLayer
62
256
370
-1
100
AcDbPolyline
90
2
70
0
43
0
10
101.599799737
20
4.22919326386
10
101.612245713
20
4.01557968491
0
LWPOLYLINE
5
11D
100
AcDbEntity
8
STANDOFF_HOLES
6
ByLayer
62
256
370
-1
100
AcDbPolyline
90
2
70
0
43
0
10
101.612245713
20
4.01557968491
10
101.59827574
20
3.80336310321
0
LWPOLYLINE
5
11E
100
AcDbEntity
8
STANDOFF_HOLES
6
ByLayer
62
256
370
-1
100
AcDbPolyline
90
2
70
0
43
0
10
101.599799737
20
3.80336310321
10
101.558397819
20
3.59254351876
0
LWPOLYLINE
5
11F
100
AcDbEntity
8
STANDOFF_HOLES
6
ByLayer
62
256
370
-1
100
AcDbPolyline
90
2
70
0
43
0
10
101.558397819
20
3.59254351876
10
101.493627947
20
3.38997891803
0
LWPOLYLINE
5
120
100
AcDbEntity
8
STANDOFF_HOLES
6
ByLayer
62
256
370
-1
100
AcDbPolyline
90
2
70
0
43
0
10
101.493627947
20
3.38997891803
10
101.402696126
20
3.19704089833
0
LWPOLYLINE
5
121
100
AcDbEntity
8
STANDOFF_HOLES
6
ByLayer
62
256
370
-1
100
AcDbPolyline
90
2
70
0
43
0
10
101.402696126
20
3.19704089833
10
101.286872354
20
3.01652345415
0
LWPOLYLINE
5
122
100
AcDbEntity
8
STANDOFF_HOLES
6
ByLayer
62
256
370
-1
100
AcDbPolyline
90
2
70
0
43
0
10
101.286872354
20
3.01652345415
10
101.150728622
20
2.85254137737
0
LWPOLYLINE
5
123
100
AcDbEntity
8
STANDOFF_HOLES
6
ByLayer
62
256
370
-1
100
AcDbPolyline
90
2
70
0
43
0
10
101.150728622
20
2.85254137737
10
100.996296927
20
2.7064662653
0
LWPOLYLINE
5
124
100
AcDbEntity
8
STANDOFF_HOLES
6
ByLayer
62
256
370
-1
100
AcDbPolyline
90
2
70
0
43
0
10
100.996296927
20
2.7064662653
10
100.822561269
20
2.58106671247
0
LWPOLYLINE
5
125
100
AcDbEntity
8
STANDOFF_HOLES
6
ByLayer
62
256
370
-1
100
AcDbPolyline
90
2
70
0
43
0
10
100.822561269
20
2.58106671247
10
100.636633636
20
2.4777092362
0
LWPOLYLINE
5
126
100
AcDbEntity
8
STANDOFF_HOLES
6
ByLayer
62
256
370
-1
100
AcDbPolyline
90
2
70
0
43
0
10
100.636633636
20
2.4777092362
10
100.43673603
20
2.39915989103
0
LWPOLYLINE
5
127
100
AcDbEntity
8
STANDOFF_HOLES
6
ByLayer
62
256
370
-1
100
AcDbPolyline
90
2
70
0
43
0
10
100.43673603
20
2.39915989103
10
100.231504434
20
2.34541613696
0
LWPOLYLINE
5
128
100
AcDbEntity
8
STANDOFF_HOLES
6
ByLayer
62
256
370
-1
100
AcDbPolyline
90
2
70
0
43
0
10
100.231504434
20
2.34541613696
10
100.019414852
20
2.31923386857
0
LWPOLYLINE
5
129
100
AcDbEntity
8
STANDOFF_HOLES
6
ByLayer
62
256
370
-1
100
AcDbPolyline
90
2
70
0
43
0
10
100.019414852
20
2.31923386857
10
99.8055472739
20
2.31923386857
0
LWPOLYLINE
5
12A
100
AcDbEntity
8
STANDOFF_HOLES
6
ByLayer
62
256
370
-1
100
AcDbPolyline
90
2
70
0
43
0
10
99.8055472739
20
2.31923386857
10
99.5932036924
20
2.34679281425
0
LWPOLYLINE
5
12B
100
AcDbEntity
8
STANDOFF_HOLES
6
ByLayer
62
256
370
-1
100
AcDbPolyline
90
2
70
0
43
0
10
99.5932036924
20
2.34541613696
10
99.3867020995
20
2.39915989103
0
LWPOLYLINE
5
12C
100
AcDbEntity
8
STANDOFF_HOLES
6
ByLayer
62
256
370
-1
100
AcDbPolyline
90
2
70
0
43
0
10
99.3867020995
20
2.39915989103
10
99.1883284905
20
2.4777092362
0
LWPOLYLINE
5
12D
100
AcDbEntity
8
STANDOFF_HOLES
6
ByLayer
62
256
370
-1
100
AcDbPolyline
90
2
70
0
43
0
10
99.1883284905
20
2.4777092362
10
99.00087686
20
2.58106671247
0
LWPOLYLINE
5
12E
100
AcDbEntity
8
STANDOFF_HOLES
6
ByLayer
62
256
370
-1
100
AcDbPolyline
90
2
70
0
43
0
10
99.00087686
20
2.58106671247
10
98.8286651994
20
2.7064662653
0
LWPOLYLINE
5
12F
100
AcDbEntity
8
STANDOFF_HOLES
6
ByLayer
62
256
370
-1
100
AcDbPolyline
90
2
70
0
43
0
10
98.8286651994
20
2.7064662653
10
98.6727095068
20
2.85254137737
0
LWPOLYLINE
5
130
100
AcDbEntity
8
STANDOFF_HOLES
6
ByLayer
62
256
370
-1
100
AcDbPolyline
90
2
70
0
43
0
10
98.6727095068
20
2.85254137737
10
98.5375817732
20
3.01652345415
0
LWPOLYLINE
5
131
100
AcDbEntity
8
STANDOFF_HOLES
6
ByLayer
62
256
370
-1
100
AcDbPolyline
90
2
70
0
43
0
10
98.5375817732
20
3.01652345415
10
98.422012001
20
3.19704089833
0
LWPOLYLINE
5
132
100
AcDbEntity
8
STANDOFF_HOLES
6
ByLayer
62
256
370
-1
100
AcDbPolyline
90
2
70
0
43
0
10
98.422012001
20
3.19704089833
10
98.3310801802
20
3.38997891803
0
LWPOLYLINE
5
133
100
AcDbEntity
8
STANDOFF_HOLES
6
ByLayer
62
256
370
-1
100
AcDbPolyline
90
2
70
0
43
0
10
98.3310801802
20
3.38997891803
10
98.2650403104
20
3.59254351876
0
LWPOLYLINE
5
134
100
AcDbEntity
8
STANDOFF_HOLES
6
ByLayer
62
256
370
-1
100
AcDbPolyline
90
2
70
0
43
0
10
98.2650403104
20
3.59254351876
10
98.225162389
20
3.80336310321
0
LWPOLYLINE
5
135
100
AcDbEntity
8
STANDOFF_HOLES
6
ByLayer
62
256
370
-1
100
AcDbPolyline
90
2
70
0
43
0
10
98.225162389
20
3.80336310321
10
98.212462414
20
4.01557968491
0
LWPOLYLINE
5
136
100
AcDbEntity
8
STANDOFF_HOLES
6
ByLayer
62
256
370
-1
100
AcDbPolyline
90
2
70
0
43
0
10
98.212462414
20
151.366175643
10
98.225162389
20
151.578519224
0
LWPOLYLINE
5
137
100
AcDbEntity
8
STANDOFF_HOLES
6
ByLayer
62
256
370
-1
100
AcDbPolyline
90
2
70
0
43
0
10
98.225162389
20
151.578519224
10
98.2650403104
20
151.789338809
0
LWPOLYLINE
5
138
100
AcDbEntity
8
STANDOFF_HOLES
6
ByLayer
62
256
370
-1
100
AcDbPolyline
90
2
70
0
43
0
10
98.2650403104
20
151.789338809
10
98.3310801802
20
151.99177641
0
LWPOLYLINE
5
139
100
AcDbEntity
8
STANDOFF_HOLES
6
ByLayer
62
256
370
-1
100
AcDbPolyline
90
2
70
0
43
0
10
98.3310801802
20
151.99177641
10
98.422012001
20
152.184816029
0
LWPOLYLINE
5
13A
100
AcDbEntity
8
STANDOFF_HOLES
6
ByLayer
62
256
370
-1
100
AcDbPolyline
90
2
70
0
43
0
10
98.422012001
20
152.184816029
10
98.5375817732
20
152.365155674
0
LWPOLYLINE
5
13B
100
AcDbEntity
8
STANDOFF_HOLES
6
ByLayer
62
256
370
-1
100
AcDbPolyline
90
2
70
0
43
0
10
98.5375817732
20
152.365155674
10
98.6727095068
20
152.529239351
0
LWPOLYLINE
5
13C
100
AcDbEntity
8
STANDOFF_HOLES
6
ByLayer
62
256
370
-1
100
AcDbPolyline
90
2
70
0
43
0
10
98.6727095068
20
152.529239351
10
98.8286651994
20
152.675289063
0
LWPOLYLINE
5
13D
100
AcDbEntity
8
STANDOFF_HOLES
6
ByLayer
62
256
370
-1
100
AcDbPolyline
90
2
70
0
43
0
10
98.8286651994
20
152.675289063
10
99.00087686
20
152.800764815
0
LWPOLYLINE
5
13E
100
AcDbEntity
8
STANDOFF_HOLES
6
ByLayer
62
256
370
-1
100
AcDbPolyline
90
2
70
0
43
0
10
99.00087686
20
152.800764815
10
99.1883284905
20
152.904142612
0
LWPOLYLINE
5
13F
100
AcDbEntity
8
STANDOFF_HOLES
6
ByLayer
62
256
370
-1
100
AcDbPolyline
90
2
70
0
43
0
10
99.1883284905
20
152.904142612
10
99.3867020995
20
152.982374457
0
LWPOLYLINE
5
140
100
AcDbEntity
8
STANDOFF_HOLES
6
ByLayer
62
256
370
-1
100
AcDbPolyline
90
2
70
0
43
0
10
99.3867020995
20
152.982374457
10
99.5932036924
20
153.036476351
0
LWPOLYLINE
5
141
100
AcDbEntity
8
STANDOFF_HOLES
6
ByLayer
62
256
370
-1
100
AcDbPolyline
90
2
70
0
43
0
10
99.5932036924
20
153.036476351
10
99.8055472739
20
153.062638299
0
LWPOLYLINE
5
142
100
AcDbEntity
8
STANDOFF_HOLES
6
ByLayer
62
256
370
-1
100
AcDbPolyline
90
2
70
0
43
0
10
99.8055472739
20
153.062638299
10
100.019414852
20
153.062638299
0
LWPOLYLINE
5
143
100
AcDbEntity
8
STANDOFF_HOLES
6
ByLayer
62
256
370
-1
100
AcDbPolyline
90
2
70
0
43
0
10
100.019414852
20
153.062638299
10
100.231504434
20
153.036476351
0
LWPOLYLINE
5
144
100
AcDbEntity
8
STANDOFF_HOLES
6
ByLayer
62
256
370
-1
100
AcDbPolyline
90
2
70
0
43
0
10
100.231504434
20
153.036476351
10
100.43673603
20
152.982374457
0
LWPOLYLINE
5
145
100
AcDbEntity
8
STANDOFF_HOLES
6
ByLayer
62
256
370
-1
100
AcDbPolyline
90
2
70
0
43
0
10
100.43673603
20
152.982374457
10
100.636633636
20
152.904142612
0
LWPOLYLINE
5
146
100
AcDbEntity
8
STANDOFF_HOLES
6
ByLayer
62
256
370
-1
100
AcDbPolyline
90
2
70
0
43
0
10
100.636633636
20
152.904142612
10
100.822561269
20
152.800764815
0
LWPOLYLINE
5
147
100
AcDbEntity
8
STANDOFF_HOLES
6
ByLayer
62
256
370
-1
100
AcDbPolyline
90
2
70
0
43
0
10
100.822561269
20
152.800764815
10
100.996296927
20
152.675289063
0
LWPOLYLINE
5
148
100
AcDbEntity
8
STANDOFF_HOLES
6
ByLayer
62
256
370
-1
100
AcDbPolyline
90
2
70
0
43
0
10
100.996296927
20
152.675289063
10
101.150728622
20
152.529239351
0
LWPOLYLINE
5
149
100
AcDbEntity
8
STANDOFF_HOLES
6
ByLayer
62
256
370
-1
100
AcDbPolyline
90
2
70
0
43
0
10
101.150728622
20
152.529239351
10
101.286872354
20
152.365155674
0
LWPOLYLINE
5
14A
100
AcDbEntity
8
STANDOFF_HOLES
6
ByLayer
62
256
370
-1
100
AcDbPolyline
90
2
70
0
43
0
10
101.286872354
20
152.365155674
10
101.402696126
20
152.184816029
0
LWPOLYLINE
5
14B
100
AcDbEntity
8
STANDOFF_HOLES
6
ByLayer
62
256
370
-1
100
AcDbPolyline
90
2
70
0
43
0
10
101.402696126
20
152.184816029
10
101.493627947
20
151.99177641
0
LWPOLYLINE
5
14C
100
AcDbEntity
8
STANDOFF_HOLES
6
ByLayer
62
256
370
-1
100
AcDbPolyline
90
2
70
0
43
0
10
101.493627947
20
151.99177641
10
101.558397819
20
151.789338809
0
LWPOLYLINE
5
14D
100
AcDbEntity
8
STANDOFF_HOLES
6
ByLayer
62
256
370
-1
100
AcDbPolyline
90
2
70
0
43
0
10
101.558397819
20
151.789338809
10
101.599799737
20
151.578519224
0
LWPOLYLINE
5
14E
100
AcDbEntity
8
STANDOFF_HOLES
6
ByLayer
62
256
370
-1
100
AcDbPolyline
90
2
70
0
43
0
10
101.599799737
20
151.578519224
10
101.612245713
20
151.366175643
0
LWPOLYLINE
5
14F
100
AcDbEntity
8
STANDOFF_HOLES
6
ByLayer
62
256
370
-1
100
AcDbPolyline
90
2
70
0
43
0
10
101.612245713
20
151.366175643
10
101.59827574
20
151.152562064
0
LWPOLYLINE
5
150
100
AcDbEntity
8
STANDOFF_HOLES
6
ByLayer
62
256
370
-1
100
AcDbPolyline
90
2
70
0
43
0
10
101.599799737
20
151.152562064
10
101.558397819
20
150.943012477
0
LWPOLYLINE
5
151
100
AcDbEntity
8
STANDOFF_HOLES
6
ByLayer
62
256
370
-1
100
AcDbPolyline
90
2
70
0
43
0
10
101.558397819
20
150.943012477
10
101.493627947
20
150.739304879
0
LWPOLYLINE
5
152
100
AcDbEntity
8
STANDOFF_HOLES
6
ByLayer
62
256
370
-1
100
AcDbPolyline
90
2
70
0
43
0
10
101.493627947
20
150.739304879
10
101.402696126
20
150.546265259
0
LWPOLYLINE
5
153
100
AcDbEntity
8
STANDOFF_HOLES
6
ByLayer
62
256
370
-1
100
AcDbPolyline
90
2
70
0
43
0
10
101.402696126
20
150.546265259
10
101.286872354
20
150.366941613
0
LWPOLYLINE
5
154
100
AcDbEntity
8
STANDOFF_HOLES
6
ByLayer
62
256
370
-1
100
AcDbPolyline
90
2
70
0
43
0
10
101.286872354
20
150.366941613
10
101.150728622
20
150.201841938
0
LWPOLYLINE
5
155
100
AcDbEntity
8
STANDOFF_HOLES
6
ByLayer
62
256
370
-1
100
AcDbPolyline
90
2
70
0
43
0
10
101.150728622
20
150.201841938
10
100.996296927
20
150.055538226
0
LWPOLYLINE
5
156
100
AcDbEntity
8
STANDOFF_HOLES
6
ByLayer
62
256
370
-1
100
AcDbPolyline
90
2
70
0
43
0
10
100.996296927
20
150.055538226
10
100.822561269
20
149.930316473
0
LWPOLYLINE
5
157
100
AcDbEntity
8
STANDOFF_HOLES
6
ByLayer
62
256
370
-1
100
AcDbPolyline
90
2
70
0
43
0
10
100.822561269
20
149.930316473
10
100.636633636
20
149.828208675
0
LWPOLYLINE
5
158
100
AcDbEntity
8
STANDOFF_HOLES
6
ByLayer
62
256
370
-1
100
AcDbPolyline
90
2
70
0
43
0
10
100.636633636
20
149.828208675
10
100.43673603
20
149.748198832
0
LWPOLYLINE
5
159
100
AcDbEntity
8
STANDOFF_HOLES
6
ByLayer
62
256
370
-1
100
AcDbPolyline
90
2
70
0
43
0
10
100.43673603
20
149.748198832
10
100.231504434
20
149.696128935
0
LWPOLYLINE
5
15A
100
AcDbEntity
8
STANDOFF_HOLES
6
ByLayer
62
256
370
-1
100
AcDbPolyline
90
2
70
0
43
0
10
100.231504434
20
149.696128935
10
100.019414852
20
149.668442989
0
LWPOLYLINE
5
15B
100
AcDbEntity
8
STANDOFF_HOLES
6
ByLayer
62
256
370
-1
100
AcDbPolyline
90
2
70
0
43
0
10
100.019414852
20
149.668442989
10
99.8055472739
20
149.668442989
0
LWPOLYLINE
5
15C
100
AcDbEntity
8
STANDOFF_HOLES
6
ByLayer
62
256
370
-1
100
AcDbPolyline
90
2
70
0
43
0
10
99.8055472739
20
149.668442989
10
99.5932036924
20
149.696128935
0
LWPOLYLINE
5
15D
100
AcDbEntity
8
STANDOFF_HOLES
6
ByLayer
62
256
370
-1
100
AcDbPolyline
90
2
70
0
43
0
10
99.5932036924
20
149.696128935
10
99.3867020995
20
149.748198832
0
LWPOLYLINE
5
15E
100
AcDbEntity
8
STANDOFF_HOLES
6
ByLayer
62
256
370
-1
100
AcDbPolyline
90
2
70
0
43
0
10
99.3867020995
20
149.748198832
10
99.1883284905
20
149.828208675
0
LWPOLYLINE
5
15F
100
AcDbEntity
8
STANDOFF_HOLES
6
ByLayer
62
256
370
-1
100
AcDbPolyline
90
2
70
0
43
0
10
99.1883284905
20
149.828208675
10
99.00087686
20
149.930316473
0
LWPOLYLINE
5
160
100
AcDbEntity
8
STANDOFF_HOLES
6
ByLayer
62
256
370
-1
100
AcDbPolyline
90
2
70
0
43
0
10
99.00087686
20
149.930316473
10
98.8286651994
20
150.055538226
0
LWPOLYLINE
5
161
100
AcDbEntity
8
STANDOFF_HOLES
6
ByLayer
62
256
370
-1
100
AcDbPolyline
90
2
70
0
43
0
10
98.8286651994
20
150.055538226
10
98.6727095068
20
150.201841938
0
LWPOLYLINE
5
162
100
AcDbEntity
8
STANDOFF_HOLES
6
ByLayer
62
256
370
-1
100
AcDbPolyline
90
2
70
0
43
0
10
98.6727095068
20
150.201841938
10
98.5375817732
20
150.366941613
0
LWPOLYLINE
5
163
100
AcDbEntity
8
STANDOFF_HOLES
6
ByLayer
62
256
370
-1
100
AcDbPolyline
90
2
70
0
43
0
10
98.5375817732
20
150.366941613
10
98.422012001
20
150.546265259
0
LWPOLYLINE
5
164
100
AcDbEntity
8
STANDOFF_HOLES
6
ByLayer
62
256
370
-1
100
AcDbPolyline
90
2
70
0
43
0
10
98.422012001
20
150.546265259
10
98.3310801802
20
150.739304879
0
LWPOLYLINE
5
165
100
AcDbEntity
8
STANDOFF_HOLES
6
ByLayer
62
256
370
-1
100
AcDbPolyline
90
2
70
0
43
0
10
98.3310801802
20
150.739304879
10
98.2650403104
20
150.943012477
0
LWPOLYLINE
5
166
100
AcDbEntity
8
STANDOFF_HOLES
6
ByLayer
62
256
370
-1
100
AcDbPolyline
90
2
70
0
43
0
10
98.2650403104
20
150.943012477
10
98.225162389
20
151.152562064
0
LWPOLYLINE
5
167
100
AcDbEntity
8
STANDOFF_HOLES
6
ByLayer
62
256
370
-1
100
AcDbPolyline
90
2
70
0
43
0
10
98.225162389
20
151.152562064
10
98.212462414
20
151.366175643
0
LWPOLYLINE
5
168
100
AcDbEntity
8
STANDOFF_HOLES
6
ByLayer
62
256
370
-1
100
AcDbPolyline
90
2
70
0
43
0
10
194.111243388
20
4.01557968491
10
194.125213361
20
4.22919326386
0
LWPOLYLINE
5
169
100
AcDbEntity
8
STANDOFF_HOLES
6
ByLayer
62
256
370
-1
100
AcDbPolyline
90
2
70
0
43
0
10
194.125213361
20
4.22919326386
10
194.165345282
20
4.43864125102
0
LWPOLYLINE
5
16A
100
AcDbEntity
8
STANDOFF_HOLES
6
ByLayer
62
256
370
-1
100
AcDbPolyline
90
2
70
0
43
0
10
194.165345282
20
4.43864125102
10
194.231385152
20
4.64262824894
0
LWPOLYLINE
5
16B
100
AcDbEntity
8
STANDOFF_HOLES
6
ByLayer
62
256
370
-1
100
AcDbPolyline
90
2
70
0
43
0
10
194.231385152
20
4.64262824894
10
194.322316972
20
4.83551546874
0
LWPOLYLINE
5
16C
100
AcDbEntity
8
STANDOFF_HOLES
6
ByLayer
62
256
370
-1
100
AcDbPolyline
90
2
70
0
43
0
10
194.322316972
20
4.83551546874
10
194.436616747
20
5.01466131563
0
LWPOLYLINE
5
16D
100
AcDbEntity
8
STANDOFF_HOLES
6
ByLayer
62
256
370
-1
100
AcDbPolyline
90
2
70
0
43
0
10
194.436616747
20
5.01466131563
10
194.573268478
20
5.18004038965
0
LWPOLYLINE
5
16E
100
AcDbEntity
8
STANDOFF_HOLES
6
ByLayer
62
256
370
-1
100
AcDbPolyline
90
2
70
0
43
0
10
194.573268478
20
5.18004038965
10
194.727192174
20
5.32611550173
0
LWPOLYLINE
5
16F
100
AcDbEntity
8
STANDOFF_HOLES
6
ByLayer
62
256
370
-1
100
AcDbPolyline
90
2
70
0
43
0
10
194.727192174
20
5.32611550173
10
194.901181831
20
5.4514896546
0
LWPOLYLINE
5
170
100
AcDbEntity
8
STANDOFF_HOLES
6
ByLayer
62
256
370
-1
100
AcDbPolyline
90
2
70
0
43
0
10
194.901181831
20
5.4514896546
10
195.088633462
20
5.55349585354
0
LWPOLYLINE
5
171
100
AcDbEntity
8
STANDOFF_HOLES
6
ByLayer
62
256
370
-1
100
AcDbPolyline
90
2
70
0
43
0
10
195.088633462
20
5.55349585354
10
195.286753071
20
5.63342949598
0
LWPOLYLINE
5
172
100
AcDbEntity
8
STANDOFF_HOLES
6
ByLayer
62
256
370
-1
100
AcDbPolyline
90
2
70
0
43
0
10
195.286753071
20
5.63342949598
10
195.492238666
20
5.6857787928
0
LWPOLYLINE
5
173
100
AcDbEntity
8
STANDOFF_HOLES
6
ByLayer
62
256
370
-1
100
AcDbPolyline
90
2
70
0
43
0
10
195.492238666
20
5.6857787928
10
195.704582248
20
5.71333773847
0
LWPOLYLINE
5
174
100
AcDbEntity
8
STANDOFF_HOLES
6
ByLayer
62
256
370
-1
100
AcDbPolyline
90
2
70
0
43
0
10
195.704582248
20
5.71333773847
10
195.919211825
20
5.71333773847
0
LWPOLYLINE
5
175
100
AcDbEntity
8
STANDOFF_HOLES
6
ByLayer
62
256
370
-1
100
AcDbPolyline
90
2
70
0
43
0
10
195.919211825
20
5.71333773847
10
196.130285409
20
5.6857787928
0
LWPOLYLINE
5
176
100
AcDbEntity
8
STANDOFF_HOLES
6
ByLayer
62
256
370
-1
100
AcDbPolyline
90
2
70
0
43
0
10
196.130285409
20
5.6857787928
10
196.337041001
20
5.63342949598
0
LWPOLYLINE
5
177
100
AcDbEntity
8
STANDOFF_HOLES
6
ByLayer
62
256
370
-1
100
AcDbPolyline
90
2
70
0
43
0
10
196.337041001
20
5.63342949598
10
196.53541461
20
5.55349585354
0
LWPOLYLINE
5
178
100
AcDbEntity
8
STANDOFF_HOLES
6
ByLayer
62
256
370
-1
100
AcDbPolyline
90
2
70
0
43
0
10
196.53541461
20
5.55349585354
10
196.722866241
20
5.4514896546
0
LWPOLYLINE
5
179
100
AcDbEntity
8
STANDOFF_HOLES
6
ByLayer
62
256
370
-1
100
AcDbPolyline
90
2
70
0
43
0
10
196.722866241
20
5.4514896546
10
196.896601898
20
5.32611550173
0
LWPOLYLINE
5
17A
100
AcDbEntity
8
STANDOFF_HOLES
6
ByLayer
62
256
370
-1
100
AcDbPolyline
90
2
70
0
43
0
10
196.896601898
20
5.32611550173
10
197.050779594
20
5.18004038965
0
LWPOLYLINE
5
17B
100
AcDbEntity
8
STANDOFF_HOLES
6
ByLayer
62
256
370
-1
100
AcDbPolyline
90
2
70
0
43
0
10
197.050779594
20
5.18004038965
10
197.187177326
20
5.01466131563
0
LWPOLYLINE
5
17C
100
AcDbEntity
8
STANDOFF_HOLES
6
ByLayer
62
256
370
-1
100
AcDbPolyline
90
2
70
0
43
0
10
197.187177326
20
5.01466131563
10
197.3014771
20
4.83551546874
0
LWPOLYLINE
5
17D
100
AcDbEntity
8
STANDOFF_HOLES
6
ByLayer
62
256
370
-1
100
AcDbPolyline
90
2
70
0
43
0
10
197.3014771
20
4.83551546874
10
197.39266292
20
4.64262824894
0
LWPOLYLINE
5
17E
100
AcDbEntity
8
STANDOFF_HOLES
6
ByLayer
62
256
370
-1
100
AcDbPolyline
90
2
70
0
43
0
10
197.39266292
20
4.64262824894
10
197.45895679
20
4.43864125102
0
LWPOLYLINE
5
17F
100
AcDbEntity
8
STANDOFF_HOLES
6
ByLayer
62
256
370
-1
100
AcDbPolyline
90
2
70
0
43
0
10
197.45895679
20
4.43864125102
10
197.498834711
20
4.22919326386
0
LWPOLYLINE
5
180
100
AcDbEntity
8
STANDOFF_HOLES
6
ByLayer
62
256
370
-1
100
AcDbPolyline
90
2
70
0
43
0
10
197.498834711
20
4.22919326386
10
197.512550684
20
4.01557968491
0
LWPOLYLINE
5
181
100
AcDbEntity
8
STANDOFF_HOLES
6
ByLayer
62
256
370
-1
100
AcDbPolyline
90
2
70
0
43
0
10
197.512550684
20
4.01557968491
10
197.498834711
20
3.80336310321
0
LWPOLYLINE
5
182
100
AcDbEntity
8
STANDOFF_HOLES
6
ByLayer
62
256
370
-1
100
AcDbPolyline
90
2
70
0
43
0
10
197.498834711
20
3.80336310321
10
197.45895679
20
3.59254351876
0
LWPOLYLINE
5
183
100
AcDbEntity
8
STANDOFF_HOLES
6
ByLayer
62
256
370
-1
100
AcDbPolyline
90
2
70
0
43
0
10
197.45895679
20
3.59254351876
10
197.39266292
20
3.38997891803
0
LWPOLYLINE
5
184
100
AcDbEntity
8
STANDOFF_HOLES
6
ByLayer
62
256
370
-1
100
AcDbPolyline
90
2
70
0
43
0
10
197.39266292
20
3.38997891803
10
197.3014771
20
3.19704089833
0
LWPOLYLINE
5
185
100
AcDbEntity
8
STANDOFF_HOLES
6
ByLayer
62
256
370
-1
100
AcDbPolyline
90
2
70
0
43
0
10
197.3014771
20
3.19704089833
10
197.187177326
20
3.01652345415
0
LWPOLYLINE
5
186
100
AcDbEntity
8
STANDOFF_HOLES
6
ByLayer
62
256
370
-1
100
AcDbPolyline
90
2
70
0
43
0
10
197.187177326
20
3.01652345415
10
197.050779594
20
2.85254137737
0
LWPOLYLINE
5
187
100
AcDbEntity
8
STANDOFF_HOLES
6
ByLayer
62
256
370
-1
100
AcDbPolyline
90
2
70
0
43
0
10
197.050779594
20
2.85254137737
10
196.896601898
20
2.7064662653
0
LWPOLYLINE
5
188
100
AcDbEntity
8
STANDOFF_HOLES
6
ByLayer
62
256
370
-1
100
AcDbPolyline
90
2
70
0
43
0
10
196.896601898
20
2.7064662653
10
196.722866241
20
2.58106671247
0
LWPOLYLINE
5
189
100
AcDbEntity
8
STANDOFF_HOLES
6
ByLayer
62
256
370
-1
100
AcDbPolyline
90
2
70
0
43
0
10
196.722866241
20
2.58106671247
10
196.53541461
20
2.4777092362
0
LWPOLYLINE
5
18A
100
AcDbEntity
8
STANDOFF_HOLES
6
ByLayer
62
256
370
-1
100
AcDbPolyline
90
2
70
0
43
0
10
196.53541461
20
2.4777092362
10
196.337041001
20
2.39915989103
0
LWPOLYLINE
5
18B
100
AcDbEntity
8
STANDOFF_HOLES
6
ByLayer
62
256
370
-1
100
AcDbPolyline
90
2
70
0
43
0
10
196.337041001
20
2.39915989103
10
196.130285409
20
2.34541613696
0
LWPOLYLINE
5
18C
100
AcDbEntity
8
STANDOFF_HOLES
6
ByLayer
62
256
370
-1
100
AcDbPolyline
90
2
70
0
43
0
10
196.130285409
20
2.34541613696
10
195.919211825
20
2.31923386857
0
LWPOLYLINE
5
18D
100
AcDbEntity
8
STANDOFF_HOLES
6
ByLayer
62
256
370
-1
100
AcDbPolyline
90
2
70
0
43
0
10
195.919211825
20
2.31923386857
10
195.704582248
20
2.31923386857
0
LWPOLYLINE
5
18E
100
AcDbEntity
8
STANDOFF_HOLES
6
ByLayer
62
256
370
-1
100
AcDbPolyline
90
2
70
0
43
0
10
195.704582248
20
2.31923386857
10
195.492238666
20
2.34679281425
0
LWPOLYLINE
5
18F
100
AcDbEntity
8
STANDOFF_HOLES
6
ByLayer
62
256
370
-1
100
AcDbPolyline
90
2
70
0
43
0
10
195.492238666
20
2.34541613696
10
195.286753071
20
2.39915989103
0
LWPOLYLINE
5
190
100
AcDbEntity
8
STANDOFF_HOLES
6
ByLayer
62
256
370
-1
100
AcDbPolyline
90
2
70
0
43
0
10
195.286753071
20
2.39915989103
10
195.088633462
20
2.4777092362
0
LWPOLYLINE
5
191
100
AcDbEntity
8
STANDOFF_HOLES
6
ByLayer
62
256
370
-1
100
AcDbPolyline
90
2
70
0
43
0
10
195.088633462
20
2.4777092362
10
194.901181831
20
2.58106671247
0
LWPOLYLINE
5
192
100
AcDbEntity
8
STANDOFF_HOLES
6
ByLayer
62
256
370
-1
100
AcDbPolyline
90
2
70
0
43
0
10
194.901181831
20
2.58106671247
10
194.727192174
20
2.7064662653
0
LWPOLYLINE
5
193
100
AcDbEntity
8
STANDOFF_HOLES
6
ByLayer
62
256
370
-1
100
AcDbPolyline
90
2
70
0
43
0
10
194.727192174
20
2.7064662653
10
194.573268478
20
2.85254137737
0
LWPOLYLINE
5
194
100
AcDbEntity
8
STANDOFF_HOLES
6
ByLayer
62
256
370
-1
100
AcDbPolyline
90
2
70
0
43
0
10
194.573268478
20
2.85254137737
10
194.436616747
20
3.01652345415
0
LWPOLYLINE
5
195
100
AcDbEntity
8
STANDOFF_HOLES
6
ByLayer
62
256
370
-1
100
AcDbPolyline
90
2
70
0
43
0
10
194.436616747
20
3.01652345415
10
194.322316972
20
3.19704089833
0
LWPOLYLINE
5
196
100
AcDbEntity
8
STANDOFF_HOLES
6
ByLayer
62
256
370
-1
100
AcDbPolyline
90
2
70
0
43
0
10
194.322316972
20
3.19704089833
10
194.231385152
20
3.38997891803
0
LWPOLYLINE
5
197
100
AcDbEntity
8
STANDOFF_HOLES
6
ByLayer
62
256
370
-1
100
AcDbPolyline
90
2
70
0
43
0
10
194.231385152
20
3.38997891803
10
194.165345282
20
3.59254351876
0
LWPOLYLINE
5
198
100
AcDbEntity
8
STANDOFF_HOLES
6
ByLayer
62
256
370
-1
100
AcDbPolyline
90
2
70
0
43
0
10
194.165345282
20
3.59254351876
10
194.125213361
20
3.80336310321
0
LWPOLYLINE
5
199
100
AcDbEntity
8
STANDOFF_HOLES
6
ByLayer
62
256
370
-1
100
AcDbPolyline
90
2
70
0
43
0
10
194.125213361
20
3.80336310321
10
194.111243388
20
4.01557968491
0
LWPOLYLINE
5
19A
100
AcDbEntity
8
STANDOFF_HOLES
6
ByLayer
62
256
370
-1
100
AcDbPolyline
90
2
70
0
43
0
10
195.088633462
20
152.904142612
10
195.286753071
20
152.982374457
0
LWPOLYLINE
5
19B
100
AcDbEntity
8
STANDOFF_HOLES
6
ByLayer
62
256
370
-1
100
AcDbPolyline
90
2
70
0
43
0
10
195.286753071
20
152.982374457
10
195.492238666
20
153.036476351
0
LWPOLYLINE
5
19C
100
AcDbEntity
8
STANDOFF_HOLES
6
ByLayer
62
256
370
-1
100
AcDbPolyline
90
2
70
0
43
0
10
195.492238666
20
153.036476351
10
195.704582248
20
153.062638299
0
LWPOLYLINE
5
19D
100
AcDbEntity
8
STANDOFF_HOLES
6
ByLayer
62
256
370
-1
100
AcDbPolyline
90
2
70
0
43
0
10
195.704582248
20
153.062638299
10
195.919211825
20
153.062638299
0
LWPOLYLINE
5
19E
100
AcDbEntity
8
STANDOFF_HOLES
6
ByLayer
62
256
370
-1
100
AcDbPolyline
90
2
70
0
43
0
10
195.919211825
20
153.062638299
10
196.130285409
20
153.036476351
0
LWPOLYLINE
5
19F
100
AcDbEntity
8
STANDOFF_HOLES
6
ByLayer
62
256
370
-1
100
AcDbPolyline
90
2
70
0
43
0
10
196.130285409
20
153.036476351
10
196.337041001
20
152.982374457
0
LWPOLYLINE
5
1A0
100
AcDbEntity
8
STANDOFF_HOLES
6
ByLayer
62
256
370
-1
100
AcDbPolyline
90
2
70
0
43
0
10
196.337041001
20
152.982374457
10
196.53541461
20
152.904142612
0
LWPOLYLINE
5
1A1
100
AcDbEntity
8
STANDOFF_HOLES
6
ByLayer
62
256
370
-1
100
AcDbPolyline
90
2
70
0
43
0
10
196.53541461
20
152.904142612
10
196.722866241
20
152.800764815
0
LWPOLYLINE
5
1A2
100
AcDbEntity
8
STANDOFF_HOLES
6
ByLayer
62
256
370
-1
100
AcDbPolyline
90
2
70
0
43
0
10
196.722866241
20
152.800764815
10
196.896601898
20
152.675289063
0
LWPOLYLINE
5
1A3
100
AcDbEntity
8
STANDOFF_HOLES
6
ByLayer
62
256
370
-1
100
AcDbPolyline
90
2
70
0
43
0
10
196.896601898
20
152.675289063
10
197.050779594
20
152.529239351
0
LWPOLYLINE
5
1A4
100
AcDbEntity
8
STANDOFF_HOLES
6
ByLayer
62
256
370
-1
100
AcDbPolyline
90
2
70
0
43
0
10
197.050779594
20
152.529239351
10
197.187177326
20
152.365155674
0
LWPOLYLINE
5
1A5
100
AcDbEntity
8
STANDOFF_HOLES
6
ByLayer
62
256
370
-1
100
AcDbPolyline
90
2
70
0
43
0
10
197.187177326
20
152.365155674
10
197.3014771
20
152.184816029
0
LWPOLYLINE
5
1A6
100
AcDbEntity
8
STANDOFF_HOLES
6
ByLayer
62
256
370
-1
100
AcDbPolyline
90
2
70
0
43
0
10
197.3014771
20
152.184816029
10
197.39266292
20
151.99177641
0
LWPOLYLINE
5
1A7
100
AcDbEntity
8
STANDOFF_HOLES
6
ByLayer
62
256
370
-1
100
AcDbPolyline
90
2
70
0
43
0
10
197.39266292
20
151.99177641
10
197.45895679
20
151.789338809
0
LWPOLYLINE
5
1A8
100
AcDbEntity
8
STANDOFF_HOLES
6
ByLayer
62
256
370
-1
100
AcDbPolyline
90
2
70
0
43
0
10
197.45895679
20
151.789338809
10
197.498834711
20
151.578519224
0
LWPOLYLINE
5
1A9
100
AcDbEntity
8
STANDOFF_HOLES
6
ByLayer
62
256
370
-1
100
AcDbPolyline
90
2
70
0
43
0
10
197.498834711
20
151.578519224
10
197.512550684
20
151.366175643
0
LWPOLYLINE
5
1AA
100
AcDbEntity
8
STANDOFF_HOLES
6
ByLayer
62
256
370
-1
100
AcDbPolyline
90
2
70
0
43
0
10
197.512550684
20
151.366175643
10
197.498834711
20
151.152562064
0
LWPOLYLINE
5
1AB
100
AcDbEntity
8
STANDOFF_HOLES
6
ByLayer
62
256
370
-1
100
AcDbPolyline
90
2
70
0
43
0
10
197.498834711
20
151.152562064
10
197.45895679
20
150.943012477
0
LWPOLYLINE
5
1AC
100
AcDbEntity
8
STANDOFF_HOLES
6
ByLayer
62
256
370
-1
100
AcDbPolyline
90
2
70
0
43
0
10
197.45895679
20
150.943012477
10
197.39266292
20
150.739304879
0
LWPOLYLINE
5
1AD
100
AcDbEntity
8
STANDOFF_HOLES
6
ByLayer
62
256
370
-1
100
AcDbPolyline
90
2
70
0
43
0
10
197.39266292
20
150.739304879
10
197.3014771
20
150.546265259
0
LWPOLYLINE
5
1AE
100
AcDbEntity
8
STANDOFF_HOLES
6
ByLayer
62
256
370
-1
100
AcDbPolyline
90
2
70
0
43
0
10
197.3014771
20
150.546265259
10
197.187177326
20
150.366941613
0
LWPOLYLINE
5
1AF
100
AcDbEntity
8
STANDOFF_HOLES
6
ByLayer
62
256
370
-1
100
AcDbPolyline
90
2
70
0
43
0
10
197.187177326
20
150.366941613
10
197.050779594
20
150.201841938
0
LWPOLYLINE
5
1B0
100
AcDbEntity
8
STANDOFF_HOLES
6
ByLayer
62
256
370
-1
100
AcDbPolyline
90
2
70
0
43
0
10
197.050779594
20
150.201841938
10
196.896601898
20
150.055538226
0
LWPOLYLINE
5
1B1
100
AcDbEntity
8
STANDOFF_HOLES
6
ByLayer
62
256
370
-1
100
AcDbPolyline
90
2
70
0
43
0
10
196.896601898
20
150.055538226
10
196.722866241
20
149.930316473
0
LWPOLYLINE
5
1B2
100
AcDbEntity
8
STANDOFF_HOLES
6
ByLayer
62
256
370
-1
100
AcDbPolyline
90
2
70
0
43
0
10
196.722866241
20
149.930316473
10
196.53541461
20
149.828208675
0
LWPOLYLINE
5
1B3
100
AcDbEntity
8
STANDOFF_HOLES
6
ByLayer
62
256
370
-1
100
AcDbPolyline
90
2
70
0
43
0
10
196.53541461
20
149.828208675
10
196.337041001
20
149.748198832
0
LWPOLYLINE
5
1B4
100
AcDbEntity
8
STANDOFF_HOLES
6
ByLayer
62
256
370
-1
100
AcDbPolyline
90
2
70
0
43
0
10
196.337041001
20
149.748198832
10
196.130285409
20
149.696128935
0
LWPOLYLINE
5
1B5
100
AcDbEntity
8
STANDOFF_HOLES
6
ByLayer
62
256
370
-1
100
AcDbPolyline
90
2
70
0
43
0
10
196.130285409
20
149.696128935
10
195.919211825
20
149.668442989
0
LWPOLYLINE
5
1B6
100
AcDbEntity
8
STANDOFF_HOLES
6
ByLayer
62
256
370
-1
100
AcDbPolyline
90
2
70
0
43
0
10
195.919211825
20
149.668442989
10
195.704582248
20
149.668442989
0
LWPOLYLINE
5
1B7
100
AcDbEntity
8
STANDOFF_HOLES
6
ByLayer
62
256
370
-1
100
AcDbPolyline
90
2
70
0
43
0
10
195.704582248
20
149.668442989
10
195.492238666
20
149.696128935
0
LWPOLYLINE
5
1B8
100
AcDbEntity
8
STANDOFF_HOLES
6
ByLayer
62
256
370
-1
100
AcDbPolyline
90
2
70
0
43
0
10
195.492238666
20
149.696128935
10
195.286753071
20
149.748198832
0
LWPOLYLINE
5
1B9
100
AcDbEntity
8
STANDOFF_HOLES
6
ByLayer
62
256
370
-1
100
AcDbPolyline
90
2
70
0
43
0
10
195.286753071
20
149.748198832
10
195.088633462
20
149.828208675
0
LWPOLYLINE
5
1BA
100
AcDbEntity
8
STANDOFF_HOLES
6
ByLayer
62
256
370
-1
100
AcDbPolyline
90
2
70
0
43
0
10
194.111243388
20
151.366175643
10
194.125213361
20
151.578519224
0
LWPOLYLINE
5
1BB
100
AcDbEntity
8
STANDOFF_HOLES
6
ByLayer
62
256
370
-1
100
AcDbPolyline
90
2
70
0
43
0
10
194.125213361
20
151.578519224
10
194.165345282
20
151.789338809
0
LWPOLYLINE
5
1BC
100
AcDbEntity
8
STANDOFF_HOLES
6
ByLayer
62
256
370
-1
100
AcDbPolyline
90
2
70
0
43
0
10
194.165345282
20
151.789338809
10
194.231385152
20
151.99177641
0
LWPOLYLINE
5
1BD
100
AcDbEntity
8
STANDOFF_HOLES
6
ByLayer
62
256
370
-1
100
AcDbPolyline
90
2
70
0
43
0
10
194.231385152
20
151.99177641
10
194.322316972
20
152.184816029
0
LWPOLYLINE
5
1BE
100
AcDbEntity
8
STANDOFF_HOLES
6
ByLayer
62
256
370
-1
100
AcDbPolyline
90
2
70
0
43
0
10
194.322316972
20
152.184816029
10
194.436616747
20
152.365155674
0
LWPOLYLINE
5
1BF
100
AcDbEntity
8
STANDOFF_HOLES
6
ByLayer
62
256
370
-1
100
AcDbPolyline
90
2
70
0
43
0
10
194.436616747
20
152.365155674
10
194.573268478
20
152.529239351
0
LWPOLYLINE
5
1C0
100
AcDbEntity
8
STANDOFF_HOLES
6
ByLayer
62
256
370
-1
100
AcDbPolyline
90
2
70
0
43
0
10
194.573268478
20
152.529239351
10
194.727192174
20
152.675289063
0
LWPOLYLINE
5
1C1
100
AcDbEntity
8
STANDOFF_HOLES
6
ByLayer
62
256
370
-1
100
AcDbPolyline
90
2
70
0
43
0
10
194.727192174
20
152.675289063
10
194.901181831
20
152.800764815
0
LWPOLYLINE
5
1C2
100
AcDbEntity
8
STANDOFF_HOLES
6
ByLayer
62
256
370
-1
100
AcDbPolyline
90
2
70
0
43
0
10
194.901181831
20
152.800764815
10
195.088633462
20
152.904142612
0
LWPOLYLINE
5
1C3
100
AcDbEntity
8
STANDOFF_HOLES
6
ByLayer
62
256
370
-1
100
AcDbPolyline
90
2
70
0
43
0
10
195.088633462
20
149.828208675
10
194.901181831
20
149.930316473
0
LWPOLYLINE
5
1C4
100
AcDbEntity
8
STANDOFF_HOLES
6
ByLayer
62
256
370
-1
100
AcDbPolyline
90
2
70
0
43
0
10
194.901181831
20
149.930316473
10
194.727192174
20
150.055538226
0
LWPOLYLINE
5
1C5
100
AcDbEntity
8
STANDOFF_HOLES
6
ByLayer
62
256
370
-1
100
AcDbPolyline
90
2
70
0
43
0
10
194.727192174
20
150.055538226
10
194.573268478
20
150.201841938
0
LWPOLYLINE
5
1C6
100
AcDbEntity
8
STANDOFF_HOLES
6
ByLayer
62
256
370
-1
100
AcDbPolyline
90
2
70
0
43
0
10
194.573268478
20
150.201841938
10
194.436616747
20
150.366941613
0
LWPOLYLINE
5
1C7
100
AcDbEntity
8
STANDOFF_HOLES
6
ByLayer
62
256
370
-1
100
AcDbPolyline
90
2
70
0
43
0
10
194.436616747
20
150.366941613
10
194.322316972
20
150.546265259
0
LWPOLYLINE
5
1C8
100
AcDbEntity
8
STANDOFF_HOLES
6
ByLayer
62
256
370
-1
100
AcDbPolyline
90
2
70
0
43
0
10
194.322316972
20
150.546265259
10
194.231385152
20
150.739304879
0
LWPOLYLINE
5
1C9
100
AcDbEntity
8
STANDOFF_HOLES
6
ByLayer
62
256
370
-1
100
AcDbPolyline
90
2
70
0
43
0
10
194.231385152
20
150.739304879
10
194.165345282
20
150.943012477
0
LWPOLYLINE
5
1CA
100
AcDbEntity
8
STANDOFF_HOLES
6
ByLayer
62
256
370
-1
100
AcDbPolyline
90
2
70
0
43
0
10
194.165345282
20
150.943012477
10
194.125213361
20
151.152562064
0
LWPOLYLINE
5
1CB
100
AcDbEntity
8
STANDOFF_HOLES
6
ByLayer
62
256
370
-1
100
AcDbPolyline
90
2
70
0
43
0
10
194.125213361
20
151.152562064
10
194.111243388
20
151.366175643
0
LWPOLYLINE
5
1CC
100
AcDbEntity
8
WALL_SLOTS
6
ByLayer
62
256
370
-1
100
AcDbPolyline
90
2
70
0
43
0
10
23.7917775042
20
8.01604639962
10
23.7917775042
20
11.0160344864
0
LWPOLYLINE
5
1CD
100
AcDbEntity
8
WALL_SLOTS
6
ByLayer
62
256
370
-1
100
AcDbPolyline
90
2
70
0
43
0
10
23.7917775042
20
11.0160344864
10
33.7920933926
20
11.0160344864
0
LWPOLYLINE
5
1CE
100
AcDbEntity
8
WALL_SLOTS
6
ByLayer
62
256
370
-1
100
AcDbPolyline
90
2
70
0
43
0
10
33.7920933926
20
11.0160344864
10
33.7920933926
20
8.01604639962
0
LWPOLYLINE
5
1CF
100
AcDbEntity
8
WALL_SLOTS
6
ByLayer
62
256
370
-1
100
AcDbPolyline
90
2
70
0
43
0
10
33.7920933926
20
8.01604639962
10
23.7917775042
20
8.01604639962
0
LWPOLYLINE
5
1D0
100
AcDbEntity
8
WALL_SLOTS
6
ByLayer
62
256
370
-1
100
AcDbPolyline
90
2
70
0
43
0
10
23.7917775042
20
144.365949441
10
23.7917775042
20
147.365683528
0
LWPOLYLINE
5
1D1
100
AcDbEntity
8
WALL_SLOTS
6
ByLayer
62
256
370
-1
100
AcDbPolyline
90
2
70
0
43
0
10
23.7917775042
20
147.365683528
10
33.7920933926
20
147.365683528
0
LWPOLYLINE
5
1D2
100
AcDbEntity
8
WALL_SLOTS
6
ByLayer
62
256
370
-1
100
AcDbPolyline
90
2
70
0
43
0
10
33.7920933926
20
147.365683528
10
33.7920933926
20
144.365949441
0
LWPOLYLINE
5
1D3
100
AcDbEntity
8
WALL_SLOTS
6
ByLayer
62
256
370
-1
100
AcDbPolyline
90
2
70
0
43
0
10
33.7920933926
20
144.365949441
10
23.7917775042
20
144.365949441
0
LWPOLYLINE
5
1D4
100
AcDbEntity
8
WALL_SLOTS
6
ByLayer
62
256
370
-1
100
AcDbPolyline
90
2
70
0
43
0
10
94.912246919
20
8.01604639962
10
94.912246919
20
11.0160344864
0
LWPOLYLINE
5
1D5
100
AcDbEntity
8
WALL_SLOTS
6
ByLayer
62
256
370
-1
100
AcDbPolyline
90
2
70
0
43
0
10
94.912246919
20
11.0160344864
10
104.912715207
20
11.0160344864
0
LWPOLYLINE
5
1D6
100
AcDbEntity
8
WALL_SLOTS
6
ByLayer
62
256
370
-1
100
AcDbPolyline
90
2
70
0
43
0
10
104.912715207
20
11.0160344864
10
104.912715207
20
8.01604639962
0
LWPOLYLINE
5
1D7
100
AcDbEntity
8
WALL_SLOTS
6
ByLayer
62
256
370
-1
100
AcDbPolyline
90
2
70
0
43
0
10
104.912715207
20
8.01604639962
10
94.912246919
20
8.01604639962
0
LWPOLYLINE
5
1D8
100
AcDbEntity
8
WALL_SLOTS
6
ByLayer
62
256
370
-1
100
AcDbPolyline
90
2
70
0
43
0
10
94.912246919
20
144.365949441
10
94.912246919
20
147.365683528
0
LWPOLYLINE
5
1D9
100
AcDbEntity
8
WALL_SLOTS
6
ByLayer
62
256
370
-1
100
AcDbPolyline
90
2
70
0
43
0
10
94.912246919
20
147.365683528
10
104.912715207
20
147.365683528
0
LWPOLYLINE
5
1DA
100
AcDbEntity
8
WALL_SLOTS
6
ByLayer
62
256
370
-1
100
AcDbPolyline
90
2
70
0
43
0
10
104.912715207
20
147.365683528
10
104.912715207
20
144.365949441
0
LWPOLYLINE
5
1DB
100
AcDbEntity
8
WALL_SLOTS
6
ByLayer
62
256
370
-1
100
AcDbPolyline
90
2
70
0
43
0
10
104.912715207
20
144.365949441
10
94.912246919
20
144.365949441
0
LWPOLYLINE
5
1DC
100
AcDbEntity
8
WALL_SLOTS
6
ByLayer
62
256
370
-1
100
AcDbPolyline
90
2
70
0
43
0
10
98.41236002
20
39.3526504322
10
98.41236002
20
49.3541347184
0
LWPOLYLINE
5
1DD
100
AcDbEntity
8
WALL_SLOTS
6
ByLayer
62
256
370
-1
100
AcDbPolyline
90
2
70
0
43
0
10
98.41236002
20
49.3541347184
10
101.412348107
20
49.3541347184
0
LWPOLYLINE
5
1DE
100
AcDbEntity
8
WALL_SLOTS
6
ByLayer
62
256
370
-1
100
AcDbPolyline
90
2
70
0
43
0
10
101.412348107
20
49.3541347184
10
101.412348107
20
39.3526504322
0
LWPOLYLINE
5
1DF
100
AcDbEntity
8
WALL_SLOTS
6
ByLayer
62
256
370
-1
100
AcDbPolyline
90
2
70
0
43
0
10
101.412348107
20
39.3526504322
10
98.41236002
20
39.3526504322
0
LWPOLYLINE
5
1E0
100
AcDbEntity
8
WALL_SLOTS
6
ByLayer
62
256
370
-1
100
AcDbPolyline
90
2
70
0
43
0
10
98.41236002
20
106.02751901
10
98.41236002
20
116.029003296
0
LWPOLYLINE
5
1E1
100
AcDbEntity
8
WALL_SLOTS
6
ByLayer
62
256
370
-1
100
AcDbPolyline
90
2
70
0
43
0
10
98.41236002
20
116.029003296
10
101.412348107
20
116.029003296
0
LWPOLYLINE
5
1E2
100
AcDbEntity
8
WALL_SLOTS
6
ByLayer
62
256
370
-1
100
AcDbPolyline
90
2
70
0
43
0
10
101.412348107
20
116.029003296
10
101.412348107
20
106.02751901
0
LWPOLYLINE
5
1E3
100
AcDbEntity
8
WALL_SLOTS
6
ByLayer
62
256
370
-1
100
AcDbPolyline
90
2
70
0
43
0
10
101.412348107
20
106.02751901
10
98.41236002
20
106.02751901
0
LWPOLYLINE
5
1E4
100
AcDbEntity
8
WALL_SLOTS
6
ByLayer
62
256
370
-1
100
AcDbPolyline
90
2
70
0
43
0
10
166.032868734
20
8.01604639962
10
166.032868734
20
11.0160344864
0
LWPOLYLINE
5
1E5
100
AcDbEntity
8
WALL_SLOTS
6
ByLayer
62
256
370
-1
100
AcDbPolyline
90
2
70
0
43
0
10
166.032868734
20
11.0160344864
10
176.031559025
20
11.0160344864
0
LWPOLYLINE
5
1E6
100
AcDbEntity
8
WALL_SLOTS
6
ByLayer
62
256
370
-1
100
AcDbPolyline
90
2
70
0
43
0
10
176.031559025
20
11.0160344864
10
176.031559025
20
8.01604639962
0
LWPOLYLINE
5
1E7
100
AcDbEntity
8
WALL_SLOTS
6
ByLayer
62
256
370
-1
100
AcDbPolyline
90
2
70
0
43
0
10
176.031559025
20
8.01604639962
10
166.032868734
20
8.01604639962
0
LWPOLYLINE
5
1E8
100
AcDbEntity
8
WALL_SLOTS
6
ByLayer
62
256
370
-1
100
AcDbPolyline
90
2
70
0
43
0
10
166.032868734
20
144.365949441
10
166.032868734
20
147.365683528
0
LWPOLYLINE
5
1E9
100
AcDbEntity
8
WALL_SLOTS
6
ByLayer
62
256
370
-1
100
AcDbPolyline
90
2
70
0
43
0
10
166.032868734
20
147.365683528
10
176.031559025
20
147.365683528
0
LWPOLYLINE
5
1EA
100
AcDbEntity
8
WALL_SLOTS
6
ByLayer
62
256
370
-1
100
AcDbPolyline
90
2
70
0
43
0
10
176.031559025
20
147.365683528
10
176.031559025
20
144.365949441
0
LWPOLYLINE
5
1EB
100
AcDbEntity
8
WALL_SLOTS
6
ByLayer
62
256
370
-1
100
AcDbPolyline
90
2
70
0
43
0
10
176.031559025
20
144.365949441
10
166.032868734
20
144.365949441
0
DIMENSION
5
1EC
100
AcDbEntity
8
DIMENSIONS
6
ByLayer
62
256
370
-1
100
AcDbDimension
2
*D1
10
205.574722436
20
155.365143761
30
0
11
203.062222436
21
77.6908400974
31
0
70
32
71
5
3
Standard
53
0
210
0
220
0
230
1
100
AcDbAlignedDimension
13
196.812528064
23
0.0165364342051
33
0
14
196.812528064
24
155.365143761
34
0
50
90
100
AcDbRotatedDimension
0
DIMENSION
5
1ED
100
AcDbEntity
8
DIMENSIONS
6
ByLayer
62
256
370
-1
100
AcDbDimension
2
*D2
10
199.812262151
20
-17.6948895326
30
0
11
99.9123322321
21
-15.1823895326
31
0
70
32
71
5
3
Standard
53
0
210
0
220
0
230
1
100
AcDbAlignedDimension
13
0.0124023129539
23
3.01652345415
33
0
14
199.812262151
24
3.01652345415
34
0
100
AcDbRotatedDimension
0
ENDSEC
0
SECTION
2
OBJECTS
0
DICTIONARY
5
C
330
0
100
AcDbDictionary
281
1
3
ACAD_GROUP
350
D
0
DICTIONARY
5
D
330
C
100
AcDbDictionary
281
1
0
ENDSEC
0
EOF
