999
dxfrw 0.5.11
0
SECTION
2
HEADER
9
$ACADVER
1
AC1021
9
$HANDSEED
5
20000
9
$DWGCODEPAGE
3
ANSI_1252
9
$INSBASE
10
0
20
0
30
0
9
$EXTMIN
10
0.749890000236
20
1
30
0
9
$EXTMAX
10
7.11608690263
20
17.8661362141
30
0
9
$LIMMIN
10
0
20
0
9
$LIMMAX
10
420
20
297
9
$ORTHOMODE
70
0
9
$LTSCALE
40
1
9
$TEXTSTYLE
7
STANDARD
9
$CLAYER
8
ROUTER_PATH
9
$DIMASZ
40
0.25
9
$DIMLFAC
40
1
9
$DIMSCALE
40
1
9
$DIMEXO
40
0.025
9
$DIMEXE
40
0.05
9
$DIMTXT
40
0.25
9
$DIMTSZ
40
0
9
$DIMAUNIT
70
0
9
$DIMADEC
70
2
9
$DIMLUNIT
70
2
9
$DIMSTYLE
2
Standard
9
$DIMGAP
40
0.025
9
$DIMTIH
70
0
9
$LUNITS
70
2
9
$LUPREC
70
4
9
$AUNITS
70
0
9
$AUPREC
70
2
9
$SPLINESEGS
70
8
9
$GRIDMODE
70
1
9
$SNAPSTYLE
70
0
9
$GRIDUNIT
10
0
20
0
9
$PINSBASE
10
0
20
0
30
0
9
$PLIMMIN
10
0
20
0
9
$PLIMMAX
10
0.325501
20
0.46035214
9
$INSUNITS
70
1
9
$PSVPSCALE
40
1
0
ENDSEC
0
SECTION
2
CLASSES
0
ENDSEC
0
SECTION
2
TABLES
0
TABLE
2
VPORT
5
8
330
0
100
AcDbSymbolTable
70
1
0
VPORT
5
31
330
2
100
AcDbSymbolTableRecord
100
AcDbViewportTableRecord
2
*ACTIVE
70
0
10
0
20
0
11
1
21
1
12
12.6877696
22
12.4780544
13
0
23
0
14
10
24
10
15
10
25
10
16
0
26
0
36
1
17
0
27
0
37
0
40
29.31818496
41
1.31330472103
42
50
43
0
44
0
50
0
51
0
71
0
72
100
73
1
74
3
75
0
76
1
77
0
78
0
281
0
65
1
110
0
120
0
130
0
111
1
121
0
131
0
112
0
122
1
132
0
79
0
146
0
348
10020
60
7
61
5
292
1
282
1
141
0
142
0
63
250
421
3358443
0
ENDTAB
0
TABLE
2
LTYPE
5
5
330
0
100
AcDbSymbolTable
70
4
0
LTYPE
5
14
330
5
100
AcDbSymbolTableRecord
100
AcDbLinetypeTableRecord
2
ByBlock
70
0
3

72
65
73
0
40
0
0
LTYPE
5
15
330
5
100
AcDbSymbolTableRecord
100
AcDbLinetypeTableRecord
2
ByLayer
70
0
3

72
65
73
0
40
0
0
LTYPE
5
16
330
5
100
AcDbSymbolTableRecord
100
AcDbLinetypeTableRecord
2
Continuous
70
0
3
Solid line
72
65
73
0
40
0
0
LTYPE
5
32
330
5
100
AcDbSymbolTableRecord
100
AcDbLinetypeTableRecord
2
DOT
70
0
3
Dot . . . . . . . . . . . . . . . . . . . . . .
72
65
73
2
40
6.35
49
0
74
0
49
-6.35
74
0
0
LTYPE
5
33
330
5
100
AcDbSymbolTableRecord
100
AcDbLinetypeTableRecord
2
DOT2
70
0
3
Dot (.5x) .....................................
72
65
73
2
40
3.175
49
0
74
0
49
-3.175
74
0
0
LTYPE
5
34
330
5
100
AcDbSymbolTableRecord
100
AcDbLinetypeTableRecord
2
DOTX2
70
0
3
Dot (2x) .  .  .  .  .  .  .  .  .  .  .  .  .
72
65
73
2
40
12.7
49
0
74
0
49
-12.7
74
0
0
LTYPE
5
35
330
5
100
AcDbSymbolTableRecord
100
AcDbLinetypeTableRecord
2
DASHED
70
0
3
Dot . . . . . . . . . . . . . . . . . . . . . .
72
65
73
2
40
19.05
49
12.7
74
0
49
-6.35
74
0
0
LTYPE
5
36
330
5
100
AcDbSymbolTableRecord
100
AcDbLinetypeTableRecord
2
DASHED2
70
0
3
Dashed (.5x) _ _ _ _ _ _ _ _ _ _ _ _ _ _ _ _ _
72
65
73
2
40
9.525
49
6.35
74
0
49
-3.175
74
0
0
LTYPE
5
37
330
5
100
AcDbSymbolTableRecord
100
AcDbLinetypeTableRecord
2
DASHEDX2
70
0
3
Dashed (2x) ____  ____  ____  ____  ____  ___
72
65
73
2
40
38.1
49
25.4
74
0
49
-12.7
74
0
0
LTYPE
5
38
330
5
100
AcDbSymbolTableRecord
100
AcDbLinetypeTableRecord
2
DASHDOT
70
0
3
Dash dot __ . __ . __ . __ . __ . __ . __ . __
72
65
73
4
40
25.4
49
12.7
74
0
49
-6.35
74
0
49
0
74
0
49
-6.35
74
0
0
LTYPE
5
39
330
5
100
AcDbSymbolTableRecord
100
AcDbLinetypeTableRecord
2
DASHDOT2
70
0
3
Dash dot (.5x) _._._._._._._._._._._._._._._.
72
65
73
4
40
12.7
49
6.35
74
0
49
-3.175
74
0
49
0
74
0
49
-3.175
74
0
0
LTYPE
5
3A
330
5
100
AcDbSymbolTableRecord
100
AcDbLinetypeTableRecord
2
DASHDOTX2
70
0
3
Dash dot (2x) ____  .  ____  .  ____  .  ___
72
65
73
4
40
50.8
49
25.4
74
0
49
-12.7
74
0
49
0
74
0
49
-12.7
74
0
0
LTYPE
5
3B
330
5
100
AcDbSymbolTableRecord
100
AcDbLinetypeTableRecord
2
DIVIDE
70
0
3
Divide ____ . . ____ . . ____ . . ____ . . ____
72
65
73
6
40
31.75
49
12.7
74
0
49
-6.35
74
0
49
0
74
0
49
-6.35
74
0
49
0
74
0
49
-6.35
74
0
0
LTYPE
5
3C
330
5
100
AcDbSymbolTableRecord
100
AcDbLinetypeTableRecord
2
DIVIDE2
70
0
3
Divide (.5x) __..__..__..__..__..__..__..__.._
72
65
73
6
40
15.875
49
6.35
74
0
49
-3.175
74
0
49
0
74
0
49
-3.175
74
0
49
0
74
0
49
-3.175
74
0
0
LTYPE
5
3D
330
5
100
AcDbSymbolTableRecord
100
AcDbLinetypeTableRecord
2
DIVIDEX2
70
0
3
Divide (2x) ________  .  .  ________  .  .  _
72
65
73
6
40
63.5
49
25.4
74
0
49
-12.7
74
0
49
0
74
0
49
-12.7
74
0
49
0
74
0
49
-12.7
74
0
0
LTYPE
5
3E
330
5
100
AcDbSymbolTableRecord
100
AcDbLinetypeTableRecord
2
BORDER
70
0
3
Border __ __ . __ __ . __ __ . __ __ . __ __ .
72
65
73
6
40
44.45
49
12.7
74
0
49
-6.35
74
0
49
12.7
74
0
49
-6.35
74
0
49
0
74
0
49
-6.35
74
0
0
LTYPE
5
3F
330
5
100
AcDbSymbolTableRecord
100
AcDbLinetypeTableRecord
2
BORDER2
70
0
3
Border (.5x) __.__.__.__.__.__.__.__.__.__.__.
72
65
73
6
40
22.225
49
6.35
74
0
49
-3.175
74
0
49
6.35
74
0
49
-3.175
74
0
49
0
74
0
49
-3.175
74
0
0
LTYPE
5
40
330
5
100
AcDbSymbolTableRecord
100
AcDbLinetypeTableRecord
2
BORDERX2
70
0
3
Border (2x) ____  ____  .  ____  ____  .  ___
72
65
73
6
40
88.9
49
25.4
74
0
49
-12.7
74
0
49
25.4
74
0
49
-12.7
74
0
49
0
74
0
49
-12.7
74
0
0
LTYPE
5
41
330
5
100
AcDbSymbolTableRecord
100
AcDbLinetypeTableRecord
2
CENTER
70
0
3
Center ____ _ ____ _ ____ _ ____ _ ____ _ ____
72
65
73
4
40
50.8
49
31.75
74
0
49
-6.35
74
0
49
6.35
74
0
49
-6.35
74
0
0
LTYPE
5
42
330
5
100
AcDbSymbolTableRecord
100
AcDbLinetypeTableRecord
2
CENTER2
70
0
3
Center (.5x) ___ _ ___ _ ___ _ ___ _ ___ _ ___
72
65
73
4
40
28.575
49
19.05
74
0
49
-3.175
74
0
49
3.175
74
0
49
-3.175
74
0
0
LTYPE
5
43
330
5
100
AcDbSymbolTableRecord
100
AcDbLinetypeTableRecord
2
CENTERX2
70
0
3
Center (2x) ________  __  ________  __  _____
72
65
73
4
40
101.6
49
63.5
74
0
49
-12.7
74
0
49
12.7
74
0
49
-12.7
74
0
0
ENDTAB
0
TABLE
2
LAYER
5
2
330
0
100
AcDbSymbolTable
70
1
0
LAYER
5
10
330
2
100
AcDbSymbolTableRecord
100
AcDbLayerTableRecord
2
0
70
1
62
7
6
CONTINUOUS
370
-3
390
F
0
LAYER
5
44
330
2
100
AcDbSymbolTableRecord
100
AcDbLayerTableRecord
2
BOUNDARY
70
0
62
5
6
CONTINUOUS
370
0
390
F
0
LAYER
5
45
330
2
100
AcDbSymbolTableRecord
100
AcDbLayerTableRecord
2
DIMENSIONS
70
1
62
7
6
CONTINUOUS
370
0
390
F
0
LAYER
5
46
330
2
100
AcDbSymbolTableRecord
100
AcDbLayerTableRecord
2
DOOR_SLOTS
70
1
62
2
6
CONTINUOUS
370
0
390
F
0
LAYER
5
47
330
2
100
AcDbSymbolTableRecord
100
AcDbLayerTableRecord
2
REFERENCE
70
1
62
253
420
10526884
6
CONTINUOUS
370
0
390
F
0
LAYER
5
48
330
2
100
AcDbSymbolTableRecord
100
AcDbLayerTableRecord
2
ROUTER_PATH
70
0
62
6
6
CONTINUOUS
370
0
390
F
0
LAYER
5
49
330
2
100
AcDbSymbolTableRecord
100
AcDbLayerTableRecord
2
STANDOFF_HOLES
70
1
62
3
6
CONTINUOUS
370
0
390
F
0
LAYER
5
4A
330
2
100
AcDbSymbolTableRecord
100
AcDbLayerTableRecord
2
WALL_SLOTS
70
1
62
4
6
CONTINUOUS
370
0
390
F
0
ENDTAB
0
TABLE
2
STYLE
5
3
330
0
100
AcDbSymbolTable
70
3
0
STYLE
5
4B
330
2
100
AcDbSymbolTableRecord
100
AcDbTextStyleTableRecord
2
Standard
70
0
40
0
41
1
50
0
71
0
42
1
3
txt
4

0
ENDTAB
0
TABLE
2
VIEW
5
6
330
0
100
AcDbSymbolTable
70
0
0
ENDTAB
0
TABLE
2
UCS
5
7
330
0
100
AcDbSymbolTable
70
0
0
ENDTAB
0
TABLE
2
APPID
5
9
330
0
100
AcDbSymbolTable
70
1
0
APPID
5
12
330
9
100
AcDbSymbolTableRecord
100
AcDbRegAppTableRecord
2
ACAD
70
0
0
ENDTAB
0
TABLE
2
DIMSTYLE
5
A
330
0
100
AcDbSymbolTable
70
1
100
AcDbDimStyleTable
71
1
0
DIMSTYLE
105
4C
330
A
100
AcDbSymbolTableRecord
100
AcDbDimStyleTableRecord
2
Standard
70
0
40
1
41
0.25
42
0.025
43
0.38
44
0.05
45
0
46
0
47
0
48
0
140
0.25
141
0.09
142
0
143
25.4
144
1
145
0
146
1
147
0.025
148
0
71
0
72
0
73
0
74
1
75
0
76
0
77
0
78
0
79
0
170
0
171
2
172
0
173
0
174
0
175
0
176
0
177
0
178
0
179
0
271
4
272
4
273
2
274
2
275
0
276
0
277
2
278
46
279
0
280
0
281
0
282
0
283
1
284
0
285
0
286
0
288
0
289
3
340
Standard
341

371
-2
372
-2
0
ENDTAB
0
TABLE
2
BLOCK_RECORD
5
1
330
0
100
AcDbSymbolTable
70
2
0
BLOCK_RECORD
5
1F
330
1
100
AcDbSymbolTableRecord
100
AcDbBlockTableRecord
2
*Model_Space
70
0
280
1
281
0
0
BLOCK_RECORD
5
1E
330
1
100
AcDbSymbolTableRecord
100
AcDbBlockTableRecord
2
*Paper_Space
70
0
280
1
281
0
0
ENDTAB
0
ENDSEC
0
SECTION
2
BLOCKS
0
BLOCK
5
20
330
1F
100
AcDbEntity
8
0
100
AcDbBlockBegin
2
*Model_Space
70
0
10
0
20
0
30
0
3
*Model_Space
1

0
ENDBLK
5
21
330
1F
100
AcDbEntity
8
0
100
AcDbBlockEnd
0
BLOCK
5
1C
330
1B
100
AcDbEntity
8
0
100
AcDbBlockBegin
2
*Paper_Space
70
0
10
0
20
0
30
0
3
*Paper_Space
1

0
ENDBLK
5
1D
330
1F
100
AcDbEntity
8
0
100
AcDbBlockEnd
0
ENDSEC
0
SECTION
2
ENTITIES
0
LINE
5
4D
100
AcDbEntity
8
DOOR_SLOTS
6
ByLayer
62
256
370
-1
100
AcDbLine
10
1.00053999894
20
1.3151040979
11
1.00053999894
21
1.43299586553
0
LINE
5
4E
100
AcDbEntity
8
DOOR_SLOTS
6
ByLayer
62
256
370
-1
100
AcDbLine
10
1.00053999894
20
1.43299586553
11
6.80109156552
21
1.43299586553
0
LINE
5
4F
100
AcDbEntity
8
DOOR_SLOTS
6
ByLayer
62
256
370
-1
100
AcDbLine
10
6.80109156552
20
1.43299586553
11
6.80109156552
21
1.3151040979
0
LINE
5
50
100
AcDbEntity
8
DOOR_SLOTS
6
ByLayer
62
256
370
-1
100
AcDbLine
10
6.80109156552
20
1.3151040979
11
1.00053999894
21
1.3151040979
0
LINE
5
51
100
AcDbEntity
8
DOOR_SLOTS
6
ByLayer
62
256
370
-1
100
AcDbLine
10
1.00053999894
20
1.3151040979
11
1.00053999894
21
1.3151040979
0
LINE
5
52
100
AcDbEntity
8
REFERENCE
6
ByLayer
62
256
370
-1
100
AcDbLine
10
7.11608690263
20
1.1181094862
11
7.11608690263
21
1
0
LINE
5
53
100
AcDbEntity
8
REFERENCE
6
ByLayer
62
256
370
-1
100
AcDbLine
10
6.99797717744
20
1
11
7.11608690263
21
1
0
LINE
5
54
100
AcDbEntity
8
REFERENCE
6
ByLayer
62
256
370
-1
100
AcDbLine
10
1
20
1.1181094862
11
1
21
1
0
LINE
5
55
100
AcDbEntity
8
REFERENCE
6
ByLayer
62
256
370
-1
100
AcDbLine
10
1.1181097672
20
1
11
1
21
1
0
LINE
5
56
100
AcDbEntity
8
DOOR_SLOTS
6
ByLayer
62
256
370
-1
100
AcDbLine
10
1.00053999894
20
10.3151040979
11
1.00053999894
21
10.4329958655
0
LINE
5
57
100
AcDbEntity
8
DOOR_SLOTS
6
ByLayer
62
256
370
-1
100
AcDbLine
10
1.00053999894
20
10.4329958655
11
6.80109156552
21
10.4329958655
0
LINE
5
58
100
AcDbEntity
8
REFERENCE
6
ByLayer
62
256
370
-1
100
AcDbLine
10
6.80109156552
20
10.4329958655
11
6.80109156552
21
10.3151040979
0
LINE
5
59
100
AcDbEntity
8
DOOR_SLOTS
6
ByLayer
62
256
370
-1
100
AcDbLine
10
6.80109156552
20
10.3151040979
11
1.00053999894
21
10.3151040979
0
LINE
5
5A
100
AcDbEntity
8
DOOR_SLOTS
6
ByLayer
62
256
370
-1
100
AcDbLine
10
1.00053999894
20
10.3151040979
11
1.00053999894
21
10.3151040979
0
LINE
5
5B
100
AcDbEntity
8
REFERENCE
6
ByLayer
62
256
370
-1
100
AcDbLine
10
7.11608690263
20
10.1181094862
11
7.11608690263
21
10
0
LINE
5
5C
100
AcDbEntity
8
REFERENCE
6
ByLayer
62
256
370
-1
100
AcDbLine
10
6.99797717744
20
10
11
7.11608690263
21
10
0
LINE
5
5D
100
AcDbEntity
8
REFERENCE
6
ByLayer
62
256
370
-1
100
AcDbLine
10
1
20
10.1181094862
11
1
21
10
0
LINE
5
5E
100
AcDbEntity
8
REFERENCE
6
ByLayer
62
256
370
-1
100
AcDbLine
10
1.1181097672
20
10
11
1
21
10
0
LINE
5
5F
100
AcDbEntity
8
DOOR_SLOTS
6
ByLayer
62
256
370
-1
100
AcDbLine
10
0.999890000236
20
8.43314706756
11
0.999890000236
21
8.5510368352
0
LINE
5
60
100
AcDbEntity
8
DOOR_SLOTS
6
ByLayer
62
256
370
-1
100
AcDbLine
10
0.999890000236
20
8.5510368352
11
6.80049556669
21
8.5510368352
0
LINE
5
61
100
AcDbEntity
8
DOOR_SLOTS
6
ByLayer
62
256
370
-1
100
AcDbLine
10
6.80049556669
20
8.5510368352
11
6.80049556669
21
8.43314706756
0
LINE
5
62
100
AcDbEntity
8
DOOR_SLOTS
6
ByLayer
62
256
370
-1
100
AcDbLine
10
6.80049556669
20
8.43314706756
11
0.999890000236
21
8.43314706756
0
LINE
5
63
100
AcDbEntity
8
DOOR_SLOTS
6
ByLayer
62
256
370
-1
100
AcDbLine
10
0.999890000236
20
8.43314706756
11
0.999890000236
21
8.43314706756
0
LINE
5
64
100
AcDbEntity
8
BOUNDARY
6
ByLayer
62
256
370
-1
100
AcDbLine
10
6.99797717744
20
1
11
1.1181097672
21
1
0
LINE
5
65
100
AcDbEntity
8
BOUNDARY
6
ByLayer
62
256
370
-1
100
AcDbLine
10
1.1181097672
20
1
11
1.10328979642
21
1.00092229718
0
LINE
5
66
100
AcDbEntity
8
BOUNDARY
6
ByLayer
62
256
370
-1
100
AcDbLine
10
1.10328979642
20
1.00092229718
11
1.0886898252
21
1.00368922173
0
LINE
5
67
100
AcDbEntity
8
BOUNDARY
6
ByLayer
62
256
370
-1
100
AcDbLine
10
1.0886898252
20
1.00368922173
11
1.07464985287
21
1.00830076264
0
LINE
5
68
100
AcDbEntity
8
BOUNDARY
6
ByLayer
62
256
370
-1
100
AcDbLine
10
1.07464985287
20
1.00830076264
11
1.06118987941
21
1.01459419023
0
LINE
5
69
100
AcDbEntity
8
BOUNDARY
6
ByLayer
62
256
370
-1
100
AcDbLine
10
1.06118987941
20
1.01459419023
11
1.04866990409
21
1.02256947451
0
LINE
5
6A
100
AcDbEntity
8
BOUNDARY
6
ByLayer
62
256
370
-1
100
AcDbLine
10
1.04866990409
20
1.02256947451
11
1.03720992665
21
1.03200945591
0
LINE
5
6B
100
AcDbEntity
8
BOUNDARY
6
ByLayer
62
256
370
-1
100
AcDbLine
10
1.03720992665
20
1.03200945591
11
1.02706994665
21
1.04280593463
0
LINE
5
6C
100
AcDbEntity
8
BOUNDARY
6
ByLayer
62
256
370
-1
100
AcDbLine
10
1.02706994665
20
1.04280593463
11
1.01838996378
21
1.05485021088
0
LINE
5
6D
100
AcDbEntity
8
BOUNDARY
6
ByLayer
62
256
370
-1
100
AcDbLine
10
1.01838996378
20
1.05485021088
11
1.01121997791
21
1.06781668533
0
LINE
5
6E
100
AcDbEntity
8
BOUNDARY
6
ByLayer
62
256
370
-1
100
AcDbLine
10
1.01121997791
20
1.06781668533
11
1.00574998866
21
1.08159715816
0
LINE
5
6F
100
AcDbEntity
8
BOUNDARY
6
ByLayer
62
256
370
-1
100
AcDbLine
10
1.00574998866
20
1.08159715816
11
1.00205999594
21
1.09597412983
0
LINE
5
70
100
AcDbEntity
8
BOUNDARY
6
ByLayer
62
256
370
-1
100
AcDbLine
10
1.00205999594
20
1.09597412983
11
1.00020999961
21
1.11073150074
0
LINE
5
71
100
AcDbEntity
8
BOUNDARY
6
ByLayer
62
256
370
-1
100
AcDbLine
10
1.00020999961
20
1.11073150074
11
1.00020999961
21
1.1181094862
0
LINE
5
72
100
AcDbEntity
8
BOUNDARY
6
ByLayer
62
256
370
-1
100
AcDbLine
10
1.00020999961
20
1.1181094862
11
1
21
1.1181094862
0
LINE
5
73
100
AcDbEntity
8
BOUNDARY
6
ByLayer
62
256
370
-1
100
AcDbLine
10
1
20
1.1181094862
11
1
21
8.74803644689
0
LINE
5
74
100
AcDbEntity
8
BOUNDARY
6
ByLayer
62
256
370
-1
100
AcDbLine
10
1
20
8.74803644689
11
1.00020999961
21
8.74803644689
0
LINE
5
75
100
AcDbEntity
8
BOUNDARY
6
ByLayer
62
256
370
-1
100
AcDbLine
10
1.00020999961
20
8.74803644689
11
1.00020999961
21
8.75541643236
0
LINE
5
76
100
AcDbEntity
8
BOUNDARY
6
ByLayer
62
256
370
-1
100
AcDbLine
10
1.00020999961
20
8.75541643236
11
1.00205999594
21
8.77010640339
0
LINE
5
77
100
AcDbEntity
8
BOUNDARY
6
ByLayer
62
256
370
-1
100
AcDbLine
10
1.00205999594
20
8.77010640339
11
1.00574998866
21
8.78449637504
0
LINE
5
78
100
AcDbEntity
8
BOUNDARY
6
ByLayer
62
256
370
-1
100
AcDbLine
10
1.00574998866
20
8.78449637504
11
1.01121997791
21
8.79827634787
0
LINE
5
79
100
AcDbEntity
8
BOUNDARY
6
ByLayer
62
256
370
-1
100
AcDbLine
10
1.01121997791
20
8.79827634787
11
1.01838996378
21
8.8112863222
0
LINE
5
7A
100
AcDbEntity
8
BOUNDARY
6
ByLayer
62
256
370
-1
100
AcDbLine
10
1.01838996378
20
8.8112863222
11
1.02706994665
21
8.82327629858
0
LINE
5
7B
100
AcDbEntity
8
BOUNDARY
6
ByLayer
62
256
370
-1
100
AcDbLine
10
1.02706994665
20
8.82327629858
11
1.03720992665
21
8.83413627716
0
LINE
5
7C
100
AcDbEntity
8
BOUNDARY
6
ByLayer
62
256
370
-1
100
AcDbLine
10
1.03720992665
20
8.83413627716
11
1.04866990409
21
8.84356625858
0
LINE
5
7D
100
AcDbEntity
8
BOUNDARY
6
ByLayer
62
256
370
-1
100
AcDbLine
10
1.04866990409
20
8.84356625858
11
1.06118987941
21
8.85149624295
0
LINE
5
7E
100
AcDbEntity
8
BOUNDARY
6
ByLayer
62
256
370
-1
100
AcDbLine
10
1.06118987941
20
8.85149624295
11
1.07464985287
21
8.85784623043
0
LINE
5
7F
100
AcDbEntity
8
BOUNDARY
6
ByLayer
62
256
370
-1
100
AcDbLine
10
1.07464985287
20
8.85784623043
11
1.0886898252
21
8.86239622146
0
LINE
5
80
100
AcDbEntity
8
BOUNDARY
6
ByLayer
62
256
370
-1
100
AcDbLine
10
1.0886898252
20
8.86239622146
11
1.10328979642
21
8.86516621602
0
LINE
5
81
100
AcDbEntity
8
BOUNDARY
6
ByLayer
62
256
370
-1
100
AcDbLine
10
1.10328979642
20
8.86516621602
11
1.1181097672
21
8.86613621409
0
LINE
5
82
100
AcDbEntity
8
BOUNDARY
6
ByLayer
62
256
370
-1
100
AcDbLine
10
1.1181097672
20
8.86613621409
11
6.99797717744
21
8.86613621409
0
LINE
5
83
100
AcDbEntity
8
BOUNDARY
6
ByLayer
62
256
370
-1
100
AcDbLine
10
6.99797717744
20
8.86613621409
11
7.01278814824
21
8.86516621602
0
LINE
5
84
100
AcDbEntity
8
BOUNDARY
6
ByLayer
62
256
370
-1
100
AcDbLine
10
7.01278814824
20
8.86516621602
11
7.02738271948
21
8.86239622146
0
LINE
5
85
100
AcDbEntity
8
BOUNDARY
6
ByLayer
62
256
370
-1
100
AcDbLine
10
7.02738271948
20
8.86239622146
11
7.04148849167
21
8.85784623043
0
LINE
5
86
100
AcDbEntity
8
BOUNDARY
6
ByLayer
62
256
370
-1
100
AcDbLine
10
7.04148849167
20
8.85784623043
11
7.05488916526
21
8.85149624295
0
LINE
5
87
100
AcDbEntity
8
BOUNDARY
6
ByLayer
62
256
370
-1
100
AcDbLine
10
7.05488916526
20
8.85149624295
11
7.06742164056
21
8.84356625858
0
LINE
5
88
100
AcDbEntity
8
BOUNDARY
6
ByLayer
62
256
370
-1
100
AcDbLine
10
7.06742164056
20
8.84356625858
11
7.07886911799
21
8.83413627716
0
LINE
5
89
100
AcDbEntity
8
BOUNDARY
6
ByLayer
62
256
370
-1
100
AcDbLine
10
7.07886911799
20
8.83413627716
11
7.089014498
21
8.82327629858
0
LINE
5
8A
100
AcDbEntity
8
BOUNDARY
6
ByLayer
62
256
370
-1
100
AcDbLine
10
7.089014498
20
8.82327629858
11
7.09769508088
21
8.8112863222
0
LINE
5
8B
100
AcDbEntity
8
BOUNDARY
6
ByLayer
62
256
370
-1
100
AcDbLine
10
7.09769508088
20
8.8112863222
11
7.10485646677
21
8.79827634787
0
LINE
5
8C
100
AcDbEntity
8
BOUNDARY
6
ByLayer
62
256
370
-1
100
AcDbLine
10
7.10485646677
20
8.79827634787
11
7.11033603597
21
8.78449637504
0
LINE
5
8D
100
AcDbEntity
8
BOUNDARY
6
ByLayer
62
256
370
-1
100
AcDbLine
10
7.11033603597
20
8.78449637504
11
7.1140252787
21
8.77010640339
0
LINE
5
8E
100
AcDbEntity
8
BOUNDARY
6
ByLayer
62
256
370
-1
100
AcDbLine
10
7.1140252787
20
8.77010640339
11
7.11586988906
21
8.75541643236
0
LINE
5
8F
100
AcDbEntity
8
BOUNDARY
6
ByLayer
62
256
370
-1
100
AcDbLine
10
7.11586988906
20
8.75541643236
11
7.11586988906
21
8.74803644689
0
LINE
5
90
100
AcDbEntity
8
BOUNDARY
6
ByLayer
62
256
370
-1
100
AcDbLine
10
7.11586988906
20
8.74803644689
11
7.11608690263
21
8.74803644689
0
LINE
5
91
100
AcDbEntity
8
BOUNDARY
6
ByLayer
62
256
370
-1
100
AcDbLine
10
7.11608690263
20
8.74803644689
11
7.11608690263
21
1.1181094862
0
LINE
5
92
100
AcDbEntity
8
BOUNDARY
6
ByLayer
62
256
370
-1
100
AcDbLine
10
7.11608690263
20
1.1181094862
11
7.11586988906
21
1.1181094862
0
LINE
5
93
100
AcDbEntity
8
BOUNDARY
6
ByLayer
62
256
370
-1
100
AcDbLine
10
7.11586988906
20
1.1181094862
11
7.11586988906
21
1.11073150074
0
LINE
5
94
100
AcDbEntity
8
BOUNDARY
6
ByLayer
62
256
370
-1
100
AcDbLine
10
7.11586988906
20
1.11073150074
11
7.1140252787
21
1.09597412983
0
LINE
5
95
100
AcDbEntity
8
BOUNDARY
6
ByLayer
62
256
370
-1
100
AcDbLine
10
7.1140252787
20
1.09597412983
11
7.11033603597
21
1.08159715816
0
LINE
5
96
100
AcDbEntity
8
BOUNDARY
6
ByLayer
62
256
370
-1
100
AcDbLine
10
7.11033603597
20
1.08159715816
11
7.10485646677
21
1.06781668533
0
LINE
5
97
100
AcDbEntity
8
BOUNDARY
6
ByLayer
62
256
370
-1
100
AcDbLine
10
7.10485646677
20
1.06781668533
11
7.09769508088
21
1.05485021088
0
LINE
5
98
100
AcDbEntity
8
BOUNDARY
6
ByLayer
62
256
370
-1
100
AcDbLine
10
7.09769508088
20
1.05485021088
11
7.089014498
21
1.04280593463
0
LINE
5
99
100
AcDbEntity
8
BOUNDARY
6
ByLayer
62
256
370
-1
100
AcDbLine
10
7.089014498
20
1.04280593463
11
7.07886911799
21
1.03200945591
0
LINE
5
9A
100
AcDbEntity
8
BOUNDARY
6
ByLayer
62
256
370
-1
100
AcDbLine
10
7.07886911799
20
1.03200945591
11
7.06742164056
21
1.02256947451
0
LINE
5
9B
100
AcDbEntity
8
BOUNDARY
6
ByLayer
62
256
370
-1
100
AcDbLine
10
7.06742164056
20
1.02256947451
11
7.05488916526
21
1.01459419023
0
LINE
5
9C
100
AcDbEntity
8
BOUNDARY
6
ByLayer
62
256
370
-1
100
AcDbLine
10
7.05488916526
20
1.01459419023
11
7.04148849167
21
1.00830076264
0
LINE
5
9D
100
AcDbEntity
8
BOUNDARY
6
ByLayer
62
256
370
-1
100
AcDbLine
10
7.04148849167
20
1.00830076264
11
7.02738271948
21
1.00368922173
0
LINE
5
9E
100
AcDbEntity
8
BOUNDARY
6
ByLayer
62
256
370
-1
100
AcDbLine
10
7.02738271948
20
1.00368922173
11
7.01278814824
21
1.00092229718
0
LINE
5
9F
100
AcDbEntity
8
BOUNDARY
6
ByLayer
62
256
370
-1
100
AcDbLine
10
7.01278814824
20
1.00092229718
11
6.99797717744
21
1
0
LINE
5
A0
100
AcDbEntity
8
STANDOFF_HOLES
6
ByLayer
62
256
370
-1
100
AcDbLine
10
6.95864425497
20
1.09054894052
11
6.95023427154
21
1.09103713956
0
LINE
5
A1
100
AcDbEntity
8
STANDOFF_HOLES
6
ByLayer
62
256
370
-1
100
AcDbLine
10
6.95023427154
20
1.09103713956
11
6.9419882878
21
1.09261043646
0
LINE
5
A2
100
AcDbEntity
8
STANDOFF_HOLES
6
ByLayer
62
256
370
-1
100
AcDbLine
10
6.9419882878
20
1.09261043646
11
6.93395730363
21
1.09521463132
0
LINE
5
A3
100
AcDbEntity
8
STANDOFF_HOLES
6
ByLayer
62
256
370
-1
100
AcDbLine
10
6.93395730363
20
1.09521463132
11
6.9263633186
21
1.09879542426
0
LINE
5
A4
100
AcDbEntity
8
STANDOFF_HOLES
6
ByLayer
62
256
370
-1
100
AcDbLine
10
6.9263633186
20
1.09879542426
11
6.9193103325
21
1.10335251528
0
LINE
5
A5
100
AcDbEntity
8
STANDOFF_HOLES
6
ByLayer
62
256
370
-1
100
AcDbLine
10
6.9193103325
20
1.10335251528
11
6.91279934533
21
1.1087235047
0
LINE
5
A6
100
AcDbEntity
8
STANDOFF_HOLES
6
ByLayer
62
256
370
-1
100
AcDbLine
10
6.91279934533
20
1.1087235047
11
6.90704835667
21
1.11480049272
0
LINE
5
A7
100
AcDbEntity
8
STANDOFF_HOLES
6
ByLayer
62
256
370
-1
100
AcDbLine
10
6.90704835667
20
1.11480049272
11
6.9021123664
21
1.12163647924
0
LINE
5
A8
100
AcDbEntity
8
STANDOFF_HOLES
6
ByLayer
62
256
370
-1
100
AcDbLine
10
6.9021123664
20
1.12163647924
11
6.89809637431
21
1.12896046481
0
LINE
5
A9
100
AcDbEntity
8
STANDOFF_HOLES
6
ByLayer
62
256
370
-1
100
AcDbLine
10
6.89809637431
20
1.12896046481
11
6.89494938052
21
1.1368274493
0
LINE
5
AA
100
AcDbEntity
8
STANDOFF_HOLES
6
ByLayer
62
256
370
-1
100
AcDbLine
10
6.89494938052
20
1.1368274493
11
6.89288838458
21
1.14491143337
0
LINE
5
AB
100
AcDbEntity
8
STANDOFF_HOLES
6
ByLayer
62
256
370
-1
100
AcDbLine
10
6.89288838458
20
1.14491143337
11
6.89180338672
21
1.1532654169
0
LINE
5
AC
100
AcDbEntity
8
STANDOFF_HOLES
6
ByLayer
62
256
370
-1
100
AcDbLine
10
6.89180338672
20
1.1532654169
11
6.89180338672
21
1.16167540032
0
LINE
5
AD
100
AcDbEntity
8
STANDOFF_HOLES
6
ByLayer
62
256
370
-1
100
AcDbLine
10
6.89180338672
20
1.16167540032
11
6.89288838458
21
1.17002938386
0
LINE
5
AE
100
AcDbEntity
8
STANDOFF_HOLES
6
ByLayer
62
256
370
-1
100
AcDbLine
10
6.89288838458
20
1.17002938386
11
6.89494938052
21
1.17816836781
0
LINE
5
AF
100
AcDbEntity
8
STANDOFF_HOLES
6
ByLayer
62
256
370
-1
100
AcDbLine
10
6.89494938052
20
1.17816836781
11
6.89809637431
21
1.18598035242
0
LINE
5
B0
100
AcDbEntity
8
STANDOFF_HOLES
6
ByLayer
62
256
370
-1
100
AcDbLine
10
6.89809637431
20
1.18598035242
11
6.9021123664
21
1.19335833787
0
LINE
5
B1
100
AcDbEntity
8
STANDOFF_HOLES
6
ByLayer
62
256
370
-1
100
AcDbLine
10
6.9021123664
20
1.19335833787
11
6.90704835667
21
1.2001403245
0
LINE
5
B2
100
AcDbEntity
8
STANDOFF_HOLES
6
ByLayer
62
256
370
-1
100
AcDbLine
10
6.90704835667
20
1.2001403245
11
6.91279934533
21
1.20627131242
0
LINE
5
B3
100
AcDbEntity
8
STANDOFF_HOLES
6
ByLayer
62
256
370
-1
100
AcDbLine
10
6.91279934533
20
1.20627131242
11
6.9193103325
21
1.21158730194
0
LINE
5
B4
100
AcDbEntity
8
STANDOFF_HOLES
6
ByLayer
62
256
370
-1
100
AcDbLine
10
6.9193103325
20
1.21158730194
11
6.9263633186
21
1.21614629296
0
LINE
5
B5
100
AcDbEntity
8
STANDOFF_HOLES
6
ByLayer
62
256
370
-1
100
AcDbLine
10
6.9263633186
20
1.21614629296
11
6.93395730363
21
1.2197262859
0
LINE
5
B6
100
AcDbEntity
8
STANDOFF_HOLES
6
ByLayer
62
256
370
-1
100
AcDbLine
10
6.93395730363
20
1.2197262859
11
6.9419882878
21
1.22233028077
0
LINE
5
B7
100
AcDbEntity
8
STANDOFF_HOLES
6
ByLayer
62
256
370
-1
100
AcDbLine
10
6.9419882878
20
1.22233028077
11
6.95023427154
21
1.22390327767
0
LINE
5
B8
100
AcDbEntity
8
STANDOFF_HOLES
6
ByLayer
62
256
370
-1
100
AcDbLine
10
6.95023427154
20
1.22390327767
11
6.95864425497
21
1.2243922767
0
LINE
5
B9
100
AcDbEntity
8
STANDOFF_HOLES
6
ByLayer
62
256
370
-1
100
AcDbLine
10
6.95864425497
20
1.2243922767
11
6.9669992385
21
1.22390327767
0
LINE
5
BA
100
AcDbEntity
8
STANDOFF_HOLES
6
ByLayer
62
256
370
-1
100
AcDbLine
10
6.9669992385
20
1.22390327767
11
6.97529922214
21
1.22233028077
0
LINE
5
BB
100
AcDbEntity
8
STANDOFF_HOLES
6
ByLayer
62
256
370
-1
100
AcDbLine
10
6.97529922214
20
1.22233028077
11
6.98327420642
21
1.2197262859
0
LINE
5
BC
100
AcDbEntity
8
STANDOFF_HOLES
6
ByLayer
62
256
370
-1
100
AcDbLine
10
6.98327420642
20
1.2197262859
11
6.99087019145
21
1.21614629296
0
LINE
5
BD
100
AcDbEntity
8
STANDOFF_HOLES
6
ByLayer
62
256
370
-1
100
AcDbLine
10
6.99087019145
20
1.21614629296
11
6.99797717744
21
1.21158730194
0
LINE
5
BE
100
AcDbEntity
8
STANDOFF_HOLES
6
ByLayer
62
256
370
-1
100
AcDbLine
10
6.99797717744
20
1.21158730194
11
7.00443316471
21
1.20627131242
0
LINE
5
BF
100
AcDbEntity
8
STANDOFF_HOLES
6
ByLayer
62
256
370
-1
100
AcDbLine
10
7.00443316471
20
1.20627131242
11
7.01018415338
21
1.2001403245
0
LINE
5
C0
100
AcDbEntity
8
STANDOFF_HOLES
6
ByLayer
62
256
370
-1
100
AcDbLine
10
7.01018415338
20
1.2001403245
11
7.01512114365
21
1.19335833787
0
LINE
5
C1
100
AcDbEntity
8
STANDOFF_HOLES
6
ByLayer
62
256
370
-1
100
AcDbLine
10
7.01512114365
20
1.19335833787
11
7.01919033563
21
1.18598035242
0
LINE
5
C2
100
AcDbEntity
8
STANDOFF_HOLES
6
ByLayer
62
256
370
-1
100
AcDbLine
10
7.01919033563
20
1.18598035242
11
7.02228282953
21
1.17816836781
0
LINE
5
C3
100
AcDbEntity
8
STANDOFF_HOLES
6
ByLayer
62
256
370
-1
100
AcDbLine
10
7.02228282953
20
1.17816836781
11
7.02439872536
21
1.17002938386
0
LINE
5
C4
100
AcDbEntity
8
STANDOFF_HOLES
6
ByLayer
62
256
370
-1
100
AcDbLine
10
7.02439872536
20
1.17002938386
11
7.02542952333
21
1.16167540032
0
LINE
5
C5
100
AcDbEntity
8
STANDOFF_HOLES
6
ByLayer
62
256
370
-1
100
AcDbLine
10
7.02542952333
20
1.16167540032
11
7.02542952333
21
1.1532654169
0
LINE
5
C6
100
AcDbEntity
8
STANDOFF_HOLES
6
ByLayer
62
256
370
-1
100
AcDbLine
10
7.02542952333
20
1.1532654169
11
7.02434452547
21
1.14491143337
0
LINE
5
C7
100
AcDbEntity
8
STANDOFF_HOLES
6
ByLayer
62
256
370
-1
100
AcDbLine
10
7.02439872536
20
1.14491143337
11
7.02228282953
21
1.1368274493
0
LINE
5
C8
100
AcDbEntity
8
STANDOFF_HOLES
6
ByLayer
62
256
370
-1
100
AcDbLine
10
7.02228282953
20
1.1368274493
11
7.01919033563
21
1.12896046481
0
LINE
5
C9
100
AcDbEntity
8
STANDOFF_HOLES
6
ByLayer
62
256
370
-1
100
AcDbLine
10
7.01919033563
20
1.12896046481
11
7.01512114365
21
1.12163647924
0
LINE
5
CA
100
AcDbEntity
8
STANDOFF_HOLES
6
ByLayer
62
256
370
-1
100
AcDbLine
10
7.01512114365
20
1.12163647924
11
7.01018415338
21
1.11480049272
0
LINE
5
CB
100
AcDbEntity
8
STANDOFF_HOLES
6
ByLayer
62
256
370
-1
100
AcDbLine
10
7.01018415338
20
1.11480049272
11
7.00443316471
21
1.1087235047
0
LINE
5
CC
100
AcDbEntity
8
STANDOFF_HOLES
6
ByLayer
62
256
370
-1
100
AcDbLine
10
7.00443316471
20
1.1087235047
11
6.99797717744
21
1.10335251528
0
LINE
5
CD
100
AcDbEntity
8
STANDOFF_HOLES
6
ByLayer
62
256
370
-1
100
AcDbLine
10
6.99797717744
20
1.10335251528
11
6.99087019145
21
1.09879542426
0
LINE
5
CE
100
AcDbEntity
8
STANDOFF_HOLES
6
ByLayer
62
256
370
-1
100
AcDbLine
10
6.99087019145
20
1.09879542426
11
6.98327420642
21
1.09521463132
0
LINE
5
CF
100
AcDbEntity
8
STANDOFF_HOLES
6
ByLayer
62
256
370
-1
100
AcDbLine
10
6.98327420642
20
1.09521463132
11
6.97529922214
21
1.09261043646
0
LINE
5
D0
100
AcDbEntity
8
STANDOFF_HOLES
6
ByLayer
62
256
370
-1
100
AcDbLine
10
6.97529922214
20
1.09261043646
11
6.9669992385
21
1.09103713956
0
LINE
5
D1
100
AcDbEntity
8
STANDOFF_HOLES
6
ByLayer
62
256
370
-1
100
AcDbLine
10
6.9669992385
20
1.09103713956
11
6.95864425497
21
1.09054894052
0
LINE
5
D2
100
AcDbEntity
8
STANDOFF_HOLES
6
ByLayer
62
256
370
-1
100
AcDbLine
10
1.15743968968
20
1.09054894052
11
1.14907970618
21
1.09103713956
0
LINE
5
D3
100
AcDbEntity
8
STANDOFF_HOLES
6
ByLayer
62
256
370
-1
100
AcDbLine
10
1.14907970618
20
1.09103713956
11
1.14077972252
21
1.09261043646
0
LINE
5
D4
100
AcDbEntity
8
STANDOFF_HOLES
6
ByLayer
62
256
370
-1
100
AcDbLine
10
1.14077972252
20
1.09261043646
11
1.13280973823
21
1.09521463132
0
LINE
5
D5
100
AcDbEntity
8
STANDOFF_HOLES
6
ByLayer
62
256
370
-1
100
AcDbLine
10
1.13280973823
20
1.09521463132
11
1.12520975323
21
1.09879542426
0
LINE
5
D6
100
AcDbEntity
8
STANDOFF_HOLES
6
ByLayer
62
256
370
-1
100
AcDbLine
10
1.12520975323
20
1.09879542426
11
1.1181097672
21
1.10335251528
0
LINE
5
D7
100
AcDbEntity
8
STANDOFF_HOLES
6
ByLayer
62
256
370
-1
100
AcDbLine
10
1.1181097672
20
1.10335251528
11
1.11164977992
21
1.1087235047
0
LINE
5
D8
100
AcDbEntity
8
STANDOFF_HOLES
6
ByLayer
62
256
370
-1
100
AcDbLine
10
1.11164977992
20
1.1087235047
11
1.10589979126
21
1.11480049272
0
LINE
5
D9
100
AcDbEntity
8
STANDOFF_HOLES
6
ByLayer
62
256
370
-1
100
AcDbLine
10
1.10589979126
20
1.11480049272
11
1.10095980102
21
1.12163647924
0
LINE
5
DA
100
AcDbEntity
8
STANDOFF_HOLES
6
ByLayer
62
256
370
-1
100
AcDbLine
10
1.10095980102
20
1.12163647924
11
1.09688980902
21
1.12896046481
0
LINE
5
DB
100
AcDbEntity
8
STANDOFF_HOLES
6
ByLayer
62
256
370
-1
100
AcDbLine
10
1.09688980902
20
1.12896046481
11
1.09380981512
21
1.1368274493
0
LINE
5
DC
100
AcDbEntity
8
STANDOFF_HOLES
6
ByLayer
62
256
370
-1
100
AcDbLine
10
1.09380981512
20
1.1368274493
11
1.09167981929
21
1.14491143337
0
LINE
5
DD
100
AcDbEntity
8
STANDOFF_HOLES
6
ByLayer
62
256
370
-1
100
AcDbLine
10
1.09167981929
20
1.14491143337
11
1.09064982134
21
1.1532654169
0
LINE
5
DE
100
AcDbEntity
8
STANDOFF_HOLES
6
ByLayer
62
256
370
-1
100
AcDbLine
10
1.09064982134
20
1.1532654169
11
1.09064982134
21
1.16167540032
0
LINE
5
DF
100
AcDbEntity
8
STANDOFF_HOLES
6
ByLayer
62
256
370
-1
100
AcDbLine
10
1.09064982134
20
1.16167540032
11
1.09167981929
21
1.17002938386
0
LINE
5
E0
100
AcDbEntity
8
STANDOFF_HOLES
6
ByLayer
62
256
370
-1
100
AcDbLine
10
1.09167981929
20
1.17002938386
11
1.09380981512
21
1.17816836781
0
LINE
5
E1
100
AcDbEntity
8
STANDOFF_HOLES
6
ByLayer
62
256
370
-1
100
AcDbLine
10
1.09380981512
20
1.17816836781
11
1.09688980902
21
1.18598035242
0
LINE
5
E2
100
AcDbEntity
8
STANDOFF_HOLES
6
ByLayer
62
256
370
-1
100
AcDbLine
10
1.09688980902
20
1.18598035242
11
1.10095980102
21
1.19335833787
0
LINE
5
E3
100
AcDbEntity
8
STANDOFF_HOLES
6
ByLayer
62
256
370
-1
100
AcDbLine
10
1.10095980102
20
1.19335833787
11
1.10589979126
21
1.2001403245
0
LINE
5
E4
100
AcDbEntity
8
STANDOFF_HOLES
6
ByLayer
62
256
370
-1
100
AcDbLine
10
1.10589979126
20
1.2001403245
11
1.11164977992
21
1.20627131242
0
LINE
5
E5
100
AcDbEntity
8
STANDOFF_HOLES
6
ByLayer
62
256
370
-1
100
AcDbLine
10
1.11164977992
20
1.20627131242
11
1.1181097672
21
1.21158730194
0
LINE
5
E6
100
AcDbEntity
8
STANDOFF_HOLES
6
ByLayer
62
256
370
-1
100
AcDbLine
10
1.1181097672
20
1.21158730194
11
1.12520975323
21
1.21614629296
0
LINE
5
E7
100
AcDbEntity
8
STANDOFF_HOLES
6
ByLayer
62
256
370
-1
100
AcDbLine
10
1.12520975323
20
1.21614629296
11
1.13280973823
21
1.2197262859
0
LINE
5
E8
100
AcDbEntity
8
STANDOFF_HOLES
6
ByLayer
62
256
370
-1
100
AcDbLine
10
1.13280973823
20
1.2197262859
11
1.14077972252
21
1.22233028077
0
LINE
5
E9
100
AcDbEntity
8
STANDOFF_HOLES
6
ByLayer
62
256
370
-1
100
AcDbLine
10
1.14077972252
20
1.22233028077
11
1.14907970618
21
1.22390327767
0
LINE
5
EA
100
AcDbEntity
8
STANDOFF_HOLES
6
ByLayer
62
256
370
-1
100
AcDbLine
10
1.14907970618
20
1.22390327767
11
1.15743968968
21
1.2243922767
0
LINE
5
EB
100
AcDbEntity
8
STANDOFF_HOLES
6
ByLayer
62
256
370
-1
100
AcDbLine
10
1.15743968968
20
1.2243922767
11
1.16584967311
21
1.22390327767
0
LINE
5
EC
100
AcDbEntity
8
STANDOFF_HOLES
6
ByLayer
62
256
370
-1
100
AcDbLine
10
1.16584967311
20
1.22390327767
11
1.17409965685
21
1.22233028077
0
LINE
5
ED
100
AcDbEntity
8
STANDOFF_HOLES
6
ByLayer
62
256
370
-1
100
AcDbLine
10
1.17409965685
20
1.22233028077
11
1.18211964102
21
1.2197262859
0
LINE
5
EE
100
AcDbEntity
8
STANDOFF_HOLES
6
ByLayer
62
256
370
-1
100
AcDbLine
10
1.18211964102
20
1.2197262859
11
1.18971962606
21
1.21614629296
0
LINE
5
EF
100
AcDbEntity
8
STANDOFF_HOLES
6
ByLayer
62
256
370
-1
100
AcDbLine
10
1.18971962606
20
1.21614629296
11
1.19677961213
21
1.21158730194
0
LINE
5
F0
100
AcDbEntity
8
STANDOFF_HOLES
6
ByLayer
62
256
370
-1
100
AcDbLine
10
1.19677961213
20
1.21158730194
11
1.20327959933
21
1.20627131242
0
LINE
5
F1
100
AcDbEntity
8
STANDOFF_HOLES
6
ByLayer
62
256
370
-1
100
AcDbLine
10
1.20327959933
20
1.20627131242
11
1.20903958799
21
1.2001403245
0
LINE
5
F2
100
AcDbEntity
8
STANDOFF_HOLES
6
ByLayer
62
256
370
-1
100
AcDbLine
10
1.20903958799
20
1.2001403245
11
1.21396957827
21
1.19335833787
0
LINE
5
F3
100
AcDbEntity
8
STANDOFF_HOLES
6
ByLayer
62
256
370
-1
100
AcDbLine
10
1.21396957827
20
1.19335833787
11
1.21798957031
21
1.18598035242
0
LINE
5
F4
100
AcDbEntity
8
STANDOFF_HOLES
6
ByLayer
62
256
370
-1
100
AcDbLine
10
1.21798957031
20
1.18598035242
11
1.22113956413
21
1.17816836781
0
LINE
5
F5
100
AcDbEntity
8
STANDOFF_HOLES
6
ByLayer
62
256
370
-1
100
AcDbLine
10
1.22113956413
20
1.17816836781
11
1.22318956008
21
1.17002938386
0
LINE
5
F6
100
AcDbEntity
8
STANDOFF_HOLES
6
ByLayer
62
256
370
-1
100
AcDbLine
10
1.22318956008
20
1.17002938386
11
1.22427955795
21
1.16167540032
0
LINE
5
F7
100
AcDbEntity
8
STANDOFF_HOLES
6
ByLayer
62
256
370
-1
100
AcDbLine
10
1.22427955795
20
1.16167540032
11
1.22427955795
21
1.1532654169
0
LINE
5
F8
100
AcDbEntity
8
STANDOFF_HOLES
6
ByLayer
62
256
370
-1
100
AcDbLine
10
1.22427955795
20
1.1532654169
11
1.22318956008
21
1.14491143337
0
LINE
5
F9
100
AcDbEntity
8
STANDOFF_HOLES
6
ByLayer
62
256
370
-1
100
AcDbLine
10
1.22318956008
20
1.14491143337
11
1.22113956413
21
1.1368274493
0
LINE
5
FA
100
AcDbEntity
8
STANDOFF_HOLES
6
ByLayer
62
256
370
-1
100
AcDbLine
10
1.22113956413
20
1.1368274493
11
1.21798957031
21
1.12896046481
0
LINE
5
FB
100
AcDbEntity
8
STANDOFF_HOLES
6
ByLayer
62
256
370
-1
100
AcDbLine
10
1.21798957031
20
1.12896046481
11
1.21396957827
21
1.12163647924
0
LINE
5
FC
100
AcDbEntity
8
STANDOFF_HOLES
6
ByLayer
62
256
370
-1
100
AcDbLine
10
1.21396957827
20
1.12163647924
11
1.20903958799
21
1.11480049272
0
LINE
5
FD
100
AcDbEntity
8
STANDOFF_HOLES
6
ByLayer
62
256
370
-1
100
AcDbLine
10
1.20903958799
20
1.11480049272
11
1.20327959933
21
1.1087235047
0
LINE
5
FE
100
AcDbEntity
8
STANDOFF_HOLES
6
ByLayer
62
256
370
-1
100
AcDbLine
10
1.20327959933
20
1.1087235047
11
1.19677961213
21
1.10335251528
0
LINE
5
FF
100
AcDbEntity
8
STANDOFF_HOLES
6
ByLayer
62
256
370
-1
100
AcDbLine
10
1.19677961213
20
1.10335251528
11
1.18971962606
21
1.09879542426
0
LINE
5
100
100
AcDbEntity
8
STANDOFF_HOLES
6
ByLayer
62
256
370
-1
100
AcDbLine
10
1.18971962606
20
1.09879542426
11
1.18211964102
21
1.09521463132
0
LINE
5
101
100
AcDbEntity
8
STANDOFF_HOLES
6
ByLayer
62
256
370
-1
100
AcDbLine
10
1.18211964102
20
1.09521463132
11
1.17409965685
21
1.09261043646
0
LINE
5
102
100
AcDbEntity
8
STANDOFF_HOLES
6
ByLayer
62
256
370
-1
100
AcDbLine
10
1.17409965685
20
1.09261043646
11
1.16584967311
21
1.09103713956
0
LINE
5
103
100
AcDbEntity
8
STANDOFF_HOLES
6
ByLayer
62
256
370
-1
100
AcDbLine
10
1.16584967311
20
1.09103713956
11
1.15743968968
21
1.09054894052
0
LINE
5
104
100
AcDbEntity
8
STANDOFF_HOLES
6
ByLayer
62
256
370
-1
100
AcDbLine
10
6.95864425497
20
4.86614409846
11
6.95023427154
21
4.86664409748
0
LINE
5
105
100
AcDbEntity
8
STANDOFF_HOLES
6
ByLayer
62
256
370
-1
100
AcDbLine
10
6.95023427154
20
4.86664409748
11
6.9419882878
21
4.86821409439
0
LINE
5
106
100
AcDbEntity
8
STANDOFF_HOLES
6
ByLayer
62
256
370
-1
100
AcDbLine
10
6.9419882878
20
4.86821409439
11
6.93395730363
21
4.87081408926
0
LINE
5
107
100
AcDbEntity
8
STANDOFF_HOLES
6
ByLayer
62
256
370
-1
100
AcDbLine
10
6.93395730363
20
4.87081408926
11
6.9263633186
21
4.8743940822
0
LINE
5
108
100
AcDbEntity
8
STANDOFF_HOLES
6
ByLayer
62
256
370
-1
100
AcDbLine
10
6.9263633186
20
4.8743940822
11
6.9193103325
21
4.87894407324
0
LINE
5
109
100
AcDbEntity
8
STANDOFF_HOLES
6
ByLayer
62
256
370
-1
100
AcDbLine
10
6.9193103325
20
4.87894407324
11
6.91279934533
21
4.88426406275
0
LINE
5
10A
100
AcDbEntity
8
STANDOFF_HOLES
6
ByLayer
62
256
370
-1
100
AcDbLine
10
6.91279934533
20
4.88426406275
11
6.90704835667
21
4.89040405065
0
LINE
5
10B
100
AcDbEntity
8
STANDOFF_HOLES
6
ByLayer
62
256
370
-1
100
AcDbLine
10
6.90704835667
20
4.89040405065
11
6.9021123664
21
4.89718403728
0
LINE
5
10C
100
AcDbEntity
8
STANDOFF_HOLES
6
ByLayer
62
256
370
-1
100
AcDbLine
10
6.9021123664
20
4.89718403728
11
6.89809637431
21
4.90456402274
0
LINE
5
10D
100
AcDbEntity
8
STANDOFF_HOLES
6
ByLayer
62
256
370
-1
100
AcDbLine
10
6.89809637431
20
4.90456402274
11
6.89494938052
21
4.91237400734
0
LINE
5
10E
100
AcDbEntity
8
STANDOFF_HOLES
6
ByLayer
62
256
370
-1
100
AcDbLine
10
6.89494938052
20
4.91237400734
11
6.89288838458
21
4.92050399131
0
LINE
5
10F
100
AcDbEntity
8
STANDOFF_HOLES
6
ByLayer
62
256
370
-1
100
AcDbLine
10
6.89288838458
20
4.92050399131
11
6.89180338672
21
4.92886397484
0
LINE
5
110
100
AcDbEntity
8
STANDOFF_HOLES
6
ByLayer
62
256
370
-1
100
AcDbLine
10
6.89180338672
20
4.92886397484
11
6.89180338672
21
4.93728395823
0
LINE
5
111
100
AcDbEntity
8
STANDOFF_HOLES
6
ByLayer
62
256
370
-1
100
AcDbLine
10
6.89180338672
20
4.93728395823
11
6.89288838458
21
4.94563394177
0
LINE
5
112
100
AcDbEntity
8
STANDOFF_HOLES
6
ByLayer
62
256
370
-1
100
AcDbLine
10
6.89288838458
20
4.94563394177
11
6.89494938052
21
4.95371392587
0
LINE
5
113
100
AcDbEntity
8
STANDOFF_HOLES
6
ByLayer
62
256
370
-1
100
AcDbLine
10
6.89494938052
20
4.95371392587
11
6.89809637431
21
4.96158391035
0
LINE
5
114
100
AcDbEntity
8
STANDOFF_HOLES
6
ByLayer
62
256
370
-1
100
AcDbLine
10
6.89809637431
20
4.96158391035
11
6.9021123664
21
4.9689038959
0
LINE
5
115
100
AcDbEntity
8
STANDOFF_HOLES
6
ByLayer
62
256
370
-1
100
AcDbLine
10
6.9021123664
20
4.9689038959
11
6.90704835667
21
4.97574388244
0
LINE
5
116
100
AcDbEntity
8
STANDOFF_HOLES
6
ByLayer
62
256
370
-1
100
AcDbLine
10
6.90704835667
20
4.97574388244
11
6.91279934533
21
4.98182387043
0
LINE
5
117
100
AcDbEntity
8
STANDOFF_HOLES
6
ByLayer
62
256
370
-1
100
AcDbLine
10
6.91279934533
20
4.98182387043
11
6.9193103325
21
4.98718385988
0
LINE
5
118
100
AcDbEntity
8
STANDOFF_HOLES
6
ByLayer
62
256
370
-1
100
AcDbLine
10
6.9193103325
20
4.98718385988
11
6.9263633186
21
4.9917438509
0
LINE
5
119
100
AcDbEntity
8
STANDOFF_HOLES
6
ByLayer
62
256
370
-1
100
AcDbLine
10
6.9263633186
20
4.9917438509
11
6.93395730363
21
4.99532384386
0
LINE
5
11A
100
AcDbEntity
8
STANDOFF_HOLES
6
ByLayer
62
256
370
-1
100
AcDbLine
10
6.93395730363
20
4.99532384386
11
6.9419882878
21
4.99787383882
0
LINE
5
11B
100
AcDbEntity
8
STANDOFF_HOLES
6
ByLayer
62
256
370
-1
100
AcDbLine
10
6.9419882878
20
4.99787383882
11
6.95023427154
21
4.99950383559
0
LINE
5
11C
100
AcDbEntity
8
STANDOFF_HOLES
6
ByLayer
62
256
370
-1
100
AcDbLine
10
6.95023427154
20
4.99950383559
11
6.95864425497
21
4.99999383465
0
LINE
5
11D
100
AcDbEntity
8
STANDOFF_HOLES
6
ByLayer
62
256
370
-1
100
AcDbLine
10
6.95864425497
20
4.99999383465
11
6.9669992385
21
4.99944383571
0
LINE
5
11E
100
AcDbEntity
8
STANDOFF_HOLES
6
ByLayer
62
256
370
-1
100
AcDbLine
10
6.9669992385
20
4.99950383559
11
6.97529922214
21
4.99787383882
0
LINE
5
11F
100
AcDbEntity
8
STANDOFF_HOLES
6
ByLayer
62
256
370
-1
100
AcDbLine
10
6.97529922214
20
4.99787383882
11
6.98327420642
21
4.99532384386
0
LINE
5
120
100
AcDbEntity
8
STANDOFF_HOLES
6
ByLayer
62
256
370
-1
100
AcDbLine
10
6.98327420642
20
4.99532384386
11
6.99087019145
21
4.9917438509
0
LINE
5
121
100
AcDbEntity
8
STANDOFF_HOLES
6
ByLayer
62
256
370
-1
100
AcDbLine
10
6.99087019145
20
4.9917438509
11
6.99797717744
21
4.98718385988
0
LINE
5
122
100
AcDbEntity
8
STANDOFF_HOLES
6
ByLayer
62
256
370
-1
100
AcDbLine
10
6.99797717744
20
4.98718385988
11
7.00443316471
21
4.98182387043
0
LINE
5
123
100
AcDbEntity
8
STANDOFF_HOLES
6
ByLayer
62
256
370
-1
100
AcDbLine
10
7.00443316471
20
4.98182387043
11
7.01018415338
21
4.97574388244
0
LINE
5
124
100
AcDbEntity
8
STANDOFF_HOLES
6
ByLayer
62
256
370
-1
100
AcDbLine
10
7.01018415338
20
4.97574388244
11
7.01512114365
21
4.9689038959
0
LINE
5
125
100
AcDbEntity
8
STANDOFF_HOLES
6
ByLayer
62
256
370
-1
100
AcDbLine
10
7.01512114365
20
4.9689038959
11
7.01919033563
21
4.96158391035
0
LINE
5
126
100
AcDbEntity
8
STANDOFF_HOLES
6
ByLayer
62
256
370
-1
100
AcDbLine
10
7.01919033563
20
4.96158391035
11
7.02228282953
21
4.95371392587
0
LINE
5
127
100
AcDbEntity
8
STANDOFF_HOLES
6
ByLayer
62
256
370
-1
100
AcDbLine
10
7.02228282953
20
4.95371392587
11
7.02439872536
21
4.94563394177
0
LINE
5
128
100
AcDbEntity
8
STANDOFF_HOLES
6
ByLayer
62
256
370
-1
100
AcDbLine
10
7.02439872536
20
4.94563394177
11
7.02542952333
21
4.93728395823
0
LINE
5
129
100
AcDbEntity
8
STANDOFF_HOLES
6
ByLayer
62
256
370
-1
100
AcDbLine
10
7.02542952333
20
4.93728395823
11
7.02542952333
21
4.92886397484
0
LINE
5
12A
100
AcDbEntity
8
STANDOFF_HOLES
6
ByLayer
62
256
370
-1
100
AcDbLine
10
7.02542952333
20
4.92886397484
11
7.02434452547
21
4.92050399131
0
LINE
5
12B
100
AcDbEntity
8
STANDOFF_HOLES
6
ByLayer
62
256
370
-1
100
AcDbLine
10
7.02439872536
20
4.92050399131
11
7.02228282953
21
4.91237400734
0
LINE
5
12C
100
AcDbEntity
8
STANDOFF_HOLES
6
ByLayer
62
256
370
-1
100
AcDbLine
10
7.02228282953
20
4.91237400734
11
7.01919033563
21
4.90456402274
0
LINE
5
12D
100
AcDbEntity
8
STANDOFF_HOLES
6
ByLayer
62
256
370
-1
100
AcDbLine
10
7.01919033563
20
4.90456402274
11
7.01512114365
21
4.89718403728
0
LINE
5
12E
100
AcDbEntity
8
STANDOFF_HOLES
6
ByLayer
62
256
370
-1
100
AcDbLine
10
7.01512114365
20
4.89718403728
11
7.01018415338
21
4.89040405065
0
LINE
5
12F
100
AcDbEntity
8
STANDOFF_HOLES
6
ByLayer
62
256
370
-1
100
AcDbLine
10
7.01018415338
20
4.89040405065
11
7.00443316471
21
4.88426406275
0
LINE
5
130
100
AcDbEntity
8
STANDOFF_HOLES
6
ByLayer
62
256
370
-1
100
AcDbLine
10
7.00443316471
20
4.88426406275
11
6.99797717744
21
4.87894407324
0
LINE
5
131
100
AcDbEntity
8
STANDOFF_HOLES
6
ByLayer
62
256
370
-1
100
AcDbLine
10
6.99797717744
20
4.87894407324
11
6.99087019145
21
4.8743940822
0
LINE
5
132
100
AcDbEntity
8
STANDOFF_HOLES
6
ByLayer
62
256
370
-1
100
AcDbLine
10
6.99087019145
20
4.8743940822
11
6.98327420642
21
4.87081408926
0
LINE
5
133
100
AcDbEntity
8
STANDOFF_HOLES
6
ByLayer
62
256
370
-1
100
AcDbLine
10
6.98327420642
20
4.87081408926
11
6.97529922214
21
4.86821409439
0
LINE
5
134
100
AcDbEntity
8
STANDOFF_HOLES
6
ByLayer
62
256
370
-1
100
AcDbLine
10
6.97529922214
20
4.86821409439
11
6.9669992385
21
4.86664409748
0
LINE
5
135
100
AcDbEntity
8
STANDOFF_HOLES
6
ByLayer
62
256
370
-1
100
AcDbLine
10
6.9669992385
20
4.86664409748
11
6.95864425497
21
4.86614409846
0
LINE
5
136
100
AcDbEntity
8
STANDOFF_HOLES
6
ByLayer
62
256
370
-1
100
AcDbLine
10
1.15743968968
20
4.86614409846
11
1.14907970618
21
4.86664409748
0
LINE
5
137
100
AcDbEntity
8
STANDOFF_HOLES
6
ByLayer
62
256
370
-1
100
AcDbLine
10
1.14907970618
20
4.86664409748
11
1.14077972252
21
4.86821409439
0
LINE
5
138
100
AcDbEntity
8
STANDOFF_HOLES
6
ByLayer
62
256
370
-1
100
AcDbLine
10
1.14077972252
20
4.86821409439
11
1.13280973823
21
4.87081408926
0
LINE
5
139
100
AcDbEntity
8
STANDOFF_HOLES
6
ByLayer
62
256
370
-1
100
AcDbLine
10
1.13280973823
20
4.87081408926
11
1.12520975323
21
4.8743940822
0
LINE
5
13A
100
AcDbEntity
8
STANDOFF_HOLES
6
ByLayer
62
256
370
-1
100
AcDbLine
10
1.12520975323
20
4.8743940822
11
1.1181097672
21
4.87894407324
0
LINE
5
13B
100
AcDbEntity
8
STANDOFF_HOLES
6
ByLayer
62
256
370
-1
100
AcDbLine
10
1.1181097672
20
4.87894407324
11
1.11164977992
21
4.88426406275
0
LINE
5
13C
100
AcDbEntity
8
STANDOFF_HOLES
6
ByLayer
62
256
370
-1
100
AcDbLine
10
1.11164977992
20
4.88426406275
11
1.10589979126
21
4.89040405065
0
LINE
5
13D
100
AcDbEntity
8
STANDOFF_HOLES
6
ByLayer
62
256
370
-1
100
AcDbLine
10
1.10589979126
20
4.89040405065
11
1.10095980102
21
4.89718403728
0
LINE
5
13E
100
AcDbEntity
8
STANDOFF_HOLES
6
ByLayer
62
256
370
-1
100
AcDbLine
10
1.10095980102
20
4.89718403728
11
1.09688980902
21
4.90456402274
0
LINE
5
13F
100
AcDbEntity
8
STANDOFF_HOLES
6
ByLayer
62
256
370
-1
100
AcDbLine
10
1.09688980902
20
4.90456402274
11
1.09380981512
21
4.91237400734
0
LINE
5
140
100
AcDbEntity
8
STANDOFF_HOLES
6
ByLayer
62
256
370
-1
100
AcDbLine
10
1.09380981512
20
4.91237400734
11
1.09167981929
21
4.92050399131
0
LINE
5
141
100
AcDbEntity
8
STANDOFF_HOLES
6
ByLayer
62
256
370
-1
100
AcDbLine
10
1.09167981929
20
4.92050399131
11
1.09064982134
21
4.92886397484
0
LINE
5
142
100
AcDbEntity
8
STANDOFF_HOLES
6
ByLayer
62
256
370
-1
100
AcDbLine
10
1.09064982134
20
4.92886397484
11
1.09064982134
21
4.93728395823
0
LINE
5
143
100
AcDbEntity
8
STANDOFF_HOLES
6
ByLayer
62
256
370
-1
100
AcDbLine
10
1.09064982134
20
4.93728395823
11
1.09167981929
21
4.94563394177
0
LINE
5
144
100
AcDbEntity
8
STANDOFF_HOLES
6
ByLayer
62
256
370
-1
100
AcDbLine
10
1.09167981929
20
4.94563394177
11
1.09380981512
21
4.95371392587
0
LINE
5
145
100
AcDbEntity
8
STANDOFF_HOLES
6
ByLayer
62
256
370
-1
100
AcDbLine
10
1.09380981512
20
4.95371392587
11
1.09688980902
21
4.96158391035
0
LINE
5
146
100
AcDbEntity
8
STANDOFF_HOLES
6
ByLayer
62
256
370
-1
100
AcDbLine
10
1.09688980902
20
4.96158391035
11
1.10095980102
21
4.9689038959
0
LINE
5
147
100
AcDbEntity
8
STANDOFF_HOLES
6
ByLayer
62
256
370
-1
100
AcDbLine
10
1.10095980102
20
4.9689038959
11
1.10589979126
21
4.97574388244
0
LINE
5
148
100
AcDbEntity
8
STANDOFF_HOLES
6
ByLayer
62
256
370
-1
100
AcDbLine
10
1.10589979126
20
4.97574388244
11
1.11164977992
21
4.98182387043
0
LINE
5
149
100
AcDbEntity
8
STANDOFF_HOLES
6
ByLayer
62
256
370
-1
100
AcDbLine
10
1.11164977992
20
4.98182387043
11
1.1181097672
21
4.98718385988
0
LINE
5
14A
100
AcDbEntity
8
STANDOFF_HOLES
6
ByLayer
62
256
370
-1
100
AcDbLine
10
1.1181097672
20
4.98718385988
11
1.12520975323
21
4.9917438509
0
LINE
5
14B
100
AcDbEntity
8
STANDOFF_HOLES
6
ByLayer
62
256
370
-1
100
AcDbLine
10
1.12520975323
20
4.9917438509
11
1.13280973823
21
4.99532384386
0
LINE
5
14C
100
AcDbEntity
8
STANDOFF_HOLES
6
ByLayer
62
256
370
-1
100
AcDbLine
10
1.13280973823
20
4.99532384386
11
1.14077972252
21
4.99787383882
0
LINE
5
14D
100
AcDbEntity
8
STANDOFF_HOLES
6
ByLayer
62
256
370
-1
100
AcDbLine
10
1.14077972252
20
4.99787383882
11
1.14907970618
21
4.99950383559
0
LINE
5
14E
100
AcDbEntity
8
STANDOFF_HOLES
6
ByLayer
62
256
370
-1
100
AcDbLine
10
1.14907970618
20
4.99950383559
11
1.15743968968
21
4.99999383465
0
LINE
5
14F
100
AcDbEntity
8
STANDOFF_HOLES
6
ByLayer
62
256
370
-1
100
AcDbLine
10
1.15743968968
20
4.99999383465
11
1.16584967311
21
4.99944383571
0
LINE
5
150
100
AcDbEntity
8
STANDOFF_HOLES
6
ByLayer
62
256
370
-1
100
AcDbLine
10
1.16584967311
20
4.99950383559
11
1.17409965685
21
4.99787383882
0
LINE
5
151
100
AcDbEntity
8
STANDOFF_HOLES
6
ByLayer
62
256
370
-1
100
AcDbLine
10
1.17409965685
20
4.99787383882
11
1.18211964102
21
4.99532384386
0
LINE
5
152
100
AcDbEntity
8
STANDOFF_HOLES
6
ByLayer
62
256
370
-1
100
AcDbLine
10
1.18211964102
20
4.99532384386
11
1.18971962606
21
4.9917438509
0
LINE
5
153
100
AcDbEntity
8
STANDOFF_HOLES
6
ByLayer
62
256
370
-1
100
AcDbLine
10
1.18971962606
20
4.9917438509
11
1.19677961213
21
4.98718385988
0
LINE
5
154
100
AcDbEntity
8
STANDOFF_HOLES
6
ByLayer
62
256
370
-1
100
AcDbLine
10
1.19677961213
20
4.98718385988
11
1.20327959933
21
4.98182387043
0
LINE
5
155
100
AcDbEntity
8
STANDOFF_HOLES
6
ByLayer
62
256
370
-1
100
AcDbLine
10
1.20327959933
20
4.98182387043
11
1.20903958799
21
4.97574388244
0
LINE
5
156
100
AcDbEntity
8
STANDOFF_HOLES
6
ByLayer
62
256
370
-1
100
AcDbLine
10
1.20903958799
20
4.97574388244
11
1.21396957827
21
4.9689038959
0
LINE
5
157
100
AcDbEntity
8
STANDOFF_HOLES
6
ByLayer
62
256
370
-1
100
AcDbLine
10
1.21396957827
20
4.9689038959
11
1.21798957031
21
4.96158391035
0
LINE
5
158
100
AcDbEntity
8
STANDOFF_HOLES
6
ByLayer
62
256
370
-1
100
AcDbLine
10
1.21798957031
20
4.96158391035
11
1.22113956413
21
4.95371392587
0
LINE
5
159
100
AcDbEntity
8
STANDOFF_HOLES
6
ByLayer
62
256
370
-1
100
AcDbLine
10
1.22113956413
20
4.95371392587
11
1.22318956008
21
4.94563394177
0
LINE
5
15A
100
AcDbEntity
8
STANDOFF_HOLES
6
ByLayer
62
256
370
-1
100
AcDbLine
10
1.22318956008
20
4.94563394177
11
1.22427955795
21
4.93728395823
0
LINE
5
15B
100
AcDbEntity
8
STANDOFF_HOLES
6
ByLayer
62
256
370
-1
100
AcDbLine
10
1.22427955795
20
4.93728395823
11
1.22427955795
21
4.92886397484
0
LINE
5
15C
100
AcDbEntity
8
STANDOFF_HOLES
6
ByLayer
62
256
370
-1
100
AcDbLine
10
1.22427955795
20
4.92886397484
11
1.22318956008
21
4.92050399131
0
LINE
5
15D
100
AcDbEntity
8
STANDOFF_HOLES
6
ByLayer
62
256
370
-1
100
AcDbLine
10
1.22318956008
20
4.92050399131
11
1.22113956413
21
4.91237400734
0
LINE
5
15E
100
AcDbEntity
8
STANDOFF_HOLES
6
ByLayer
62
256
370
-1
100
AcDbLine
10
1.22113956413
20
4.91237400734
11
1.21798957031
21
4.90456402274
0
LINE
5
15F
100
AcDbEntity
8
STANDOFF_HOLES
6
ByLayer
62
256
370
-1
100
AcDbLine
10
1.21798957031
20
4.90456402274
11
1.21396957827
21
4.89718403728
0
LINE
5
160
100
AcDbEntity
8
STANDOFF_HOLES
6
ByLayer
62
256
370
-1
100
AcDbLine
10
1.21396957827
20
4.89718403728
11
1.20903958799
21
4.89040405065
0
LINE
5
161
100
AcDbEntity
8
STANDOFF_HOLES
6
ByLayer
62
256
370
-1
100
AcDbLine
10
1.20903958799
20
4.89040405065
11
1.20327959933
21
4.88426406275
0
LINE
5
162
100
AcDbEntity
8
STANDOFF_HOLES
6
ByLayer
62
256
370
-1
100
AcDbLine
10
1.20327959933
20
4.88426406275
11
1.19677961213
21
4.87894407324
0
LINE
5
163
100
AcDbEntity
8
STANDOFF_HOLES
6
ByLayer
62
256
370
-1
100
AcDbLine
10
1.19677961213
20
4.87894407324
11
1.18971962606
21
4.8743940822
0
LINE
5
164
100
AcDbEntity
8
STANDOFF_HOLES
6
ByLayer
62
256
370
-1
100
AcDbLine
10
1.18971962606
20
4.8743940822
11
1.18211964102
21
4.87081408926
0
LINE
5
165
100
AcDbEntity
8
STANDOFF_HOLES
6
ByLayer
62
256
370
-1
100
AcDbLine
10
1.18211964102
20
4.87081408926
11
1.17409965685
21
4.86821409439
0
LINE
5
166
100
AcDbEntity
8
STANDOFF_HOLES
6
ByLayer
62
256
370
-1
100
AcDbLine
10
1.17409965685
20
4.86821409439
11
1.16584967311
21
4.86664409748
0
LINE
5
167
100
AcDbEntity
8
STANDOFF_HOLES
6
ByLayer
62
256
370
-1
100
AcDbLine
10
1.16584967311
20
4.86664409748
11
1.15743968968
21
4.86614409846
0
LINE
5
168
100
AcDbEntity
8
STANDOFF_HOLES
6
ByLayer
62
256
370
-1
100
AcDbLine
10
6.95864425497
20
8.6416866565
11
6.95023427154
21
8.64223665543
0
LINE
5
169
100
AcDbEntity
8
STANDOFF_HOLES
6
ByLayer
62
256
370
-1
100
AcDbLine
10
6.95023427154
20
8.64223665543
11
6.9419882878
21
8.64381665232
0
LINE
5
16A
100
AcDbEntity
8
STANDOFF_HOLES
6
ByLayer
62
256
370
-1
100
AcDbLine
10
6.9419882878
20
8.64381665232
11
6.93395730363
21
8.6464166472
0
LINE
5
16B
100
AcDbEntity
8
STANDOFF_HOLES
6
ByLayer
62
256
370
-1
100
AcDbLine
10
6.93395730363
20
8.6464166472
11
6.9263633186
21
8.64999664012
0
LINE
5
16C
100
AcDbEntity
8
STANDOFF_HOLES
6
ByLayer
62
256
370
-1
100
AcDbLine
10
6.9263633186
20
8.64999664012
11
6.9193103325
21
8.65449663126
0
LINE
5
16D
100
AcDbEntity
8
STANDOFF_HOLES
6
ByLayer
62
256
370
-1
100
AcDbLine
10
6.9193103325
20
8.65449663126
11
6.91279934533
21
8.65987662067
0
LINE
5
16E
100
AcDbEntity
8
STANDOFF_HOLES
6
ByLayer
62
256
370
-1
100
AcDbLine
10
6.91279934533
20
8.65987662067
11
6.90704835667
21
8.6659366087
0
LINE
5
16F
100
AcDbEntity
8
STANDOFF_HOLES
6
ByLayer
62
256
370
-1
100
AcDbLine
10
6.90704835667
20
8.6659366087
11
6.9021123664
21
8.6727865952
0
LINE
5
170
100
AcDbEntity
8
STANDOFF_HOLES
6
ByLayer
62
256
370
-1
100
AcDbLine
10
6.9021123664
20
8.6727865952
11
6.89809637431
21
8.68016658067
0
LINE
5
171
100
AcDbEntity
8
STANDOFF_HOLES
6
ByLayer
62
256
370
-1
100
AcDbLine
10
6.89809637431
20
8.68016658067
11
6.89494938052
21
8.68796656527
0
LINE
5
172
100
AcDbEntity
8
STANDOFF_HOLES
6
ByLayer
62
256
370
-1
100
AcDbLine
10
6.89494938052
20
8.68796656527
11
6.89288838458
21
8.69605654933
0
LINE
5
173
100
AcDbEntity
8
STANDOFF_HOLES
6
ByLayer
62
256
370
-1
100
AcDbLine
10
6.89288838458
20
8.69605654933
11
6.89180338672
21
8.70441653287
0
LINE
5
174
100
AcDbEntity
8
STANDOFF_HOLES
6
ByLayer
62
256
370
-1
100
AcDbLine
10
6.89180338672
20
8.70441653287
11
6.89180338672
21
8.71286651622
0
LINE
5
175
100
AcDbEntity
8
STANDOFF_HOLES
6
ByLayer
62
256
370
-1
100
AcDbLine
10
6.89180338672
20
8.71286651622
11
6.89288838458
21
8.72117649984
0
LINE
5
176
100
AcDbEntity
8
STANDOFF_HOLES
6
ByLayer
62
256
370
-1
100
AcDbLine
10
6.89288838458
20
8.72117649984
11
6.89494938052
21
8.72931648378
0
LINE
5
177
100
AcDbEntity
8
STANDOFF_HOLES
6
ByLayer
62
256
370
-1
100
AcDbLine
10
6.89494938052
20
8.72931648378
11
6.89809637431
21
8.73712646839
0
LINE
5
178
100
AcDbEntity
8
STANDOFF_HOLES
6
ByLayer
62
256
370
-1
100
AcDbLine
10
6.89809637431
20
8.73712646839
11
6.9021123664
21
8.74450645386
0
LINE
5
179
100
AcDbEntity
8
STANDOFF_HOLES
6
ByLayer
62
256
370
-1
100
AcDbLine
10
6.9021123664
20
8.74450645386
11
6.90704835667
21
8.75134644035
0
LINE
5
17A
100
AcDbEntity
8
STANDOFF_HOLES
6
ByLayer
62
256
370
-1
100
AcDbLine
10
6.90704835667
20
8.75134644035
11
6.91279934533
21
8.75741642839
0
LINE
5
17B
100
AcDbEntity
8
STANDOFF_HOLES
6
ByLayer
62
256
370
-1
100
AcDbLine
10
6.91279934533
20
8.75741642839
11
6.9193103325
21
8.76278641783
0
LINE
5
17C
100
AcDbEntity
8
STANDOFF_HOLES
6
ByLayer
62
256
370
-1
100
AcDbLine
10
6.9193103325
20
8.76278641783
11
6.9263633186
21
8.76728640894
0
LINE
5
17D
100
AcDbEntity
8
STANDOFF_HOLES
6
ByLayer
62
256
370
-1
100
AcDbLine
10
6.9263633186
20
8.76728640894
11
6.93395730363
21
8.77087640185
0
LINE
5
17E
100
AcDbEntity
8
STANDOFF_HOLES
6
ByLayer
62
256
370
-1
100
AcDbLine
10
6.93395730363
20
8.77087640185
11
6.9419882878
21
8.77348639673
0
LINE
5
17F
100
AcDbEntity
8
STANDOFF_HOLES
6
ByLayer
62
256
370
-1
100
AcDbLine
10
6.9419882878
20
8.77348639673
11
6.95023427154
21
8.77505639362
0
LINE
5
180
100
AcDbEntity
8
STANDOFF_HOLES
6
ByLayer
62
256
370
-1
100
AcDbLine
10
6.95023427154
20
8.77505639362
11
6.95864425497
21
8.77559639256
0
LINE
5
181
100
AcDbEntity
8
STANDOFF_HOLES
6
ByLayer
62
256
370
-1
100
AcDbLine
10
6.95864425497
20
8.77559639256
11
6.9669992385
21
8.77505639362
0
LINE
5
182
100
AcDbEntity
8
STANDOFF_HOLES
6
ByLayer
62
256
370
-1
100
AcDbLine
10
6.9669992385
20
8.77505639362
11
6.97529922214
21
8.77348639673
0
LINE
5
183
100
AcDbEntity
8
STANDOFF_HOLES
6
ByLayer
62
256
370
-1
100
AcDbLine
10
6.97529922214
20
8.77348639673
11
6.98327420642
21
8.77087640185
0
LINE
5
184
100
AcDbEntity
8
STANDOFF_HOLES
6
ByLayer
62
256
370
-1
100
AcDbLine
10
6.98327420642
20
8.77087640185
11
6.99087019145
21
8.76728640894
0
LINE
5
185
100
AcDbEntity
8
STANDOFF_HOLES
6
ByLayer
62
256
370
-1
100
AcDbLine
10
6.99087019145
20
8.76728640894
11
6.99797717744
21
8.76278641783
0
LINE
5
186
100
AcDbEntity
8
STANDOFF_HOLES
6
ByLayer
62
256
370
-1
100
AcDbLine
10
6.99797717744
20
8.76278641783
11
7.00443316471
21
8.75741642839
0
LINE
5
187
100
AcDbEntity
8
STANDOFF_HOLES
6
ByLayer
62
256
370
-1
100
AcDbLine
10
7.00443316471
20
8.75741642839
11
7.01018415338
21
8.75134644035
0
LINE
5
188
100
AcDbEntity
8
STANDOFF_HOLES
6
ByLayer
62
256
370
-1
100
AcDbLine
10
7.01018415338
20
8.75134644035
11
7.01512114365
21
8.74450645386
0
LINE
5
189
100
AcDbEntity
8
STANDOFF_HOLES
6
ByLayer
62
256
370
-1
100
AcDbLine
10
7.01512114365
20
8.74450645386
11
7.01919033563
21
8.73712646839
0
LINE
5
18A
100
AcDbEntity
8
STANDOFF_HOLES
6
ByLayer
62
256
370
-1
100
AcDbLine
10
7.01919033563
20
8.73712646839
11
7.02228282953
21
8.72931648378
0
LINE
5
18B
100
AcDbEntity
8
STANDOFF_HOLES
6
ByLayer
62
256
370
-1
100
AcDbLine
10
7.02228282953
20
8.72931648378
11
7.02439872536
21
8.72117649984
0
LINE
5
18C
100
AcDbEntity
8
STANDOFF_HOLES
6
ByLayer
62
256
370
-1
100
AcDbLine
10
7.02439872536
20
8.72117649984
11
7.02542952333
21
8.71286651622
0
LINE
5
18D
100
AcDbEntity
8
STANDOFF_HOLES
6
ByLayer
62
256
370
-1
100
AcDbLine
10
7.02542952333
20
8.71286651622
11
7.02542952333
21
8.70441653287
0
LINE
5
18E
100
AcDbEntity
8
STANDOFF_HOLES
6
ByLayer
62
256
370
-1
100
AcDbLine
10
7.02542952333
20
8.70441653287
11
7.02434452547
21
8.69605654933
0
LINE
5
18F
100
AcDbEntity
8
STANDOFF_HOLES
6
ByLayer
62
256
370
-1
100
AcDbLine
10
7.02439872536
20
8.69605654933
11
7.02228282953
21
8.68796656527
0
LINE
5
190
100
AcDbEntity
8
STANDOFF_HOLES
6
ByLayer
62
256
370
-1
100
AcDbLine
10
7.02228282953
20
8.68796656527
11
7.01919033563
21
8.68016658067
0
LINE
5
191
100
AcDbEntity
8
STANDOFF_HOLES
6
ByLayer
62
256
370
-1
100
AcDbLine
10
7.01919033563
20
8.68016658067
11
7.01512114365
21
8.6727865952
0
LINE
5
192
100
AcDbEntity
8
STANDOFF_HOLES
6
ByLayer
62
256
370
-1
100
AcDbLine
10
7.01512114365
20
8.6727865952
11
7.01018415338
21
8.6659366087
0
LINE
5
193
100
AcDbEntity
8
STANDOFF_HOLES
6
ByLayer
62
256
370
-1
100
AcDbLine
10
7.01018415338
20
8.6659366087
11
7.00443316471
21
8.65987662067
0
LINE
5
194
100
AcDbEntity
8
STANDOFF_HOLES
6
ByLayer
62
256
370
-1
100
AcDbLine
10
7.00443316471
20
8.65987662067
11
6.99797717744
21
8.65449663126
0
LINE
5
195
100
AcDbEntity
8
STANDOFF_HOLES
6
ByLayer
62
256
370
-1
100
AcDbLine
10
6.99797717744
20
8.65449663126
11
6.99087019145
21
8.64999664012
0
LINE
5
196
100
AcDbEntity
8
STANDOFF_HOLES
6
ByLayer
62
256
370
-1
100
AcDbLine
10
6.99087019145
20
8.64999664012
11
6.98327420642
21
8.6464166472
0
LINE
5
197
100
AcDbEntity
8
STANDOFF_HOLES
6
ByLayer
62
256
370
-1
100
AcDbLine
10
6.98327420642
20
8.6464166472
11
6.97529922214
21
8.64381665232
0
LINE
5
198
100
AcDbEntity
8
STANDOFF_HOLES
6
ByLayer
62
256
370
-1
100
AcDbLine
10
6.97529922214
20
8.64381665232
11
6.9669992385
21
8.64223665543
0
LINE
5
199
100
AcDbEntity
8
STANDOFF_HOLES
6
ByLayer
62
256
370
-1
100
AcDbLine
10
6.9669992385
20
8.64223665543
11
6.95864425497
21
8.6416866565
0
LINE
5
19A
100
AcDbEntity
8
STANDOFF_HOLES
6
ByLayer
62
256
370
-1
100
AcDbLine
10
1.09688980902
20
8.68016658067
11
1.09380981512
21
8.68796656527
0
LINE
5
19B
100
AcDbEntity
8
STANDOFF_HOLES
6
ByLayer
62
256
370
-1
100
AcDbLine
10
1.09380981512
20
8.68796656527
11
1.09167981929
21
8.69605654933
0
LINE
5
19C
100
AcDbEntity
8
STANDOFF_HOLES
6
ByLayer
62
256
370
-1
100
AcDbLine
10
1.09167981929
20
8.69605654933
11
1.09064982134
21
8.70441653287
0
LINE
5
19D
100
AcDbEntity
8
STANDOFF_HOLES
6
ByLayer
62
256
370
-1
100
AcDbLine
10
1.09064982134
20
8.70441653287
11
1.09064982134
21
8.71286651622
0
LINE
5
19E
100
AcDbEntity
8
STANDOFF_HOLES
6
ByLayer
62
256
370
-1
100
AcDbLine
10
1.09064982134
20
8.71286651622
11
1.09167981929
21
8.72117649984
0
LINE
5
19F
100
AcDbEntity
8
STANDOFF_HOLES
6
ByLayer
62
256
370
-1
100
AcDbLine
10
1.09167981929
20
8.72117649984
11
1.09380981512
21
8.72931648378
0
LINE
5
1A0
100
AcDbEntity
8
STANDOFF_HOLES
6
ByLayer
62
256
370
-1
100
AcDbLine
10
1.09380981512
20
8.72931648378
11
1.09688980902
21
8.73712646839
0
LINE
5
1A1
100
AcDbEntity
8
STANDOFF_HOLES
6
ByLayer
62
256
370
-1
100
AcDbLine
10
1.09688980902
20
8.73712646839
11
1.10095980102
21
8.74450645386
0
LINE
5
1A2
100
AcDbEntity
8
STANDOFF_HOLES
6
ByLayer
62
256
370
-1
100
AcDbLine
10
1.10095980102
20
8.74450645386
11
1.10589979126
21
8.75134644035
0
LINE
5
1A3
100
AcDbEntity
8
STANDOFF_HOLES
6
ByLayer
62
256
370
-1
100
AcDbLine
10
1.10589979126
20
8.75134644035
11
1.11164977992
21
8.75741642839
0
LINE
5
1A4
100
AcDbEntity
8
STANDOFF_HOLES
6
ByLayer
62
256
370
-1
100
AcDbLine
10
1.11164977992
20
8.75741642839
11
1.1181097672
21
8.76278641783
0
LINE
5
1A5
100
AcDbEntity
8
STANDOFF_HOLES
6
ByLayer
62
256
370
-1
100
AcDbLine
10
1.1181097672
20
8.76278641783
11
1.12520975323
21
8.76728640894
0
LINE
5
1A6
100
AcDbEntity
8
STANDOFF_HOLES
6
ByLayer
62
256
370
-1
100
AcDbLine
10
1.12520975323
20
8.76728640894
11
1.13280973823
21
8.77087640185
0
LINE
5
1A7
100
AcDbEntity
8
STANDOFF_HOLES
6
ByLayer
62
256
370
-1
100
AcDbLine
10
1.13280973823
20
8.77087640185
11
1.14077972252
21
8.77348639673
0
LINE
5
1A8
100
AcDbEntity
8
STANDOFF_HOLES
6
ByLayer
62
256
370
-1
100
AcDbLine
10
1.14077972252
20
8.77348639673
11
1.14907970618
21
8.77505639362
0
LINE
5
1A9
100
AcDbEntity
8
STANDOFF_HOLES
6
ByLayer
62
256
370
-1
100
AcDbLine
10
1.14907970618
20
8.77505639362
11
1.15743968968
21
8.77559639256
0
LINE
5
1AA
100
AcDbEntity
8
STANDOFF_HOLES
6
ByLayer
62
256
370
-1
100
AcDbLine
10
1.15743968968
20
8.77559639256
11
1.16584967311
21
8.77505639362
0
LINE
5
1AB
100
AcDbEntity
8
STANDOFF_HOLES
6
ByLayer
62
256
370
-1
100
AcDbLine
10
1.16584967311
20
8.77505639362
11
1.17409965685
21
8.77348639673
0
LINE
5
1AC
100
AcDbEntity
8
STANDOFF_HOLES
6
ByLayer
62
256
370
-1
100
AcDbLine
10
1.17409965685
20
8.77348639673
11
1.18211964102
21
8.77087640185
0
LINE
5
1AD
100
AcDbEntity
8
STANDOFF_HOLES
6
ByLayer
62
256
370
-1
100
AcDbLine
10
1.18211964102
20
8.77087640185
11
1.18971962606
21
8.76728640894
0
LINE
5
1AE
100
AcDbEntity
8
STANDOFF_HOLES
6
ByLayer
62
256
370
-1
100
AcDbLine
10
1.18971962606
20
8.76728640894
11
1.19677961213
21
8.76278641783
0
LINE
5
1AF
100
AcDbEntity
8
STANDOFF_HOLES
6
ByLayer
62
256
370
-1
100
AcDbLine
10
1.19677961213
20
8.76278641783
11
1.20327959933
21
8.75741642839
0
LINE
5
1B0
100
AcDbEntity
8
STANDOFF_HOLES
6
ByLayer
62
256
370
-1
100
AcDbLine
10
1.20327959933
20
8.75741642839
11
1.20903958799
21
8.75134644035
0
LINE
5
1B1
100
AcDbEntity
8
STANDOFF_HOLES
6
ByLayer
62
256
370
-1
100
AcDbLine
10
1.20903958799
20
8.75134644035
11
1.21396957827
21
8.74450645386
0
LINE
5
1B2
100
AcDbEntity
8
STANDOFF_HOLES
6
ByLayer
62
256
370
-1
100
AcDbLine
10
1.21396957827
20
8.74450645386
11
1.21798957031
21
8.73712646839
0
LINE
5
1B3
100
AcDbEntity
8
STANDOFF_HOLES
6
ByLayer
62
256
370
-1
100
AcDbLine
10
1.21798957031
20
8.73712646839
11
1.22113956413
21
8.72931648378
0
LINE
5
1B4
100
AcDbEntity
8
STANDOFF_HOLES
6
ByLayer
62
256
370
-1
100
AcDbLine
10
1.22113956413
20
8.72931648378
11
1.22318956008
21
8.72117649984
0
LINE
5
1B5
100
AcDbEntity
8
STANDOFF_HOLES
6
ByLayer
62
256
370
-1
100
AcDbLine
10
1.22318956008
20
8.72117649984
11
1.22427955795
21
8.71286651622
0
LINE
5
1B6
100
AcDbEntity
8
STANDOFF_HOLES
6
ByLayer
62
256
370
-1
100
AcDbLine
10
1.22427955795
20
8.71286651622
11
1.22427955795
21
8.70441653287
0
LINE
5
1B7
100
AcDbEntity
8
STANDOFF_HOLES
6
ByLayer
62
256
370
-1
100
AcDbLine
10
1.22427955795
20
8.70441653287
11
1.22318956008
21
8.69605654933
0
LINE
5
1B8
100
AcDbEntity
8
STANDOFF_HOLES
6
ByLayer
62
256
370
-1
100
AcDbLine
10
1.22318956008
20
8.69605654933
11
1.22113956413
21
8.68796656527
0
LINE
5
1B9
100
AcDbEntity
8
STANDOFF_HOLES
6
ByLayer
62
256
370
-1
100
AcDbLine
10
1.22113956413
20
8.68796656527
11
1.21798957031
21
8.68016658067
0
LINE
5
1BA
100
AcDbEntity
8
STANDOFF_HOLES
6
ByLayer
62
256
370
-1
100
AcDbLine
10
1.15743968968
20
8.6416866565
11
1.14907970618
21
8.64223665543
0
LINE
5
1BB
100
AcDbEntity
8
STANDOFF_HOLES
6
ByLayer
62
256
370
-1
100
AcDbLine
10
1.14907970618
20
8.64223665543
11
1.14077972252
21
8.64381665232
0
LINE
5
1BC
100
AcDbEntity
8
STANDOFF_HOLES
6
ByLayer
62
256
370
-1
100
AcDbLine
10
1.14077972252
20
8.64381665232
11
1.13280973823
21
8.6464166472
0
LINE
5
1BD
100
AcDbEntity
8
STANDOFF_HOLES
6
ByLayer
62
256
370
-1
100
AcDbLine
10
1.13280973823
20
8.6464166472
11
1.12520975323
21
8.64999664012
0
LINE
5
1BE
100
AcDbEntity
8
STANDOFF_HOLES
6
ByLayer
62
256
370
-1
100
AcDbLine
10
1.12520975323
20
8.64999664012
11
1.1181097672
21
8.65449663126
0
LINE
5
1BF
100
AcDbEntity
8
STANDOFF_HOLES
6
ByLayer
62
256
370
-1
100
AcDbLine
10
1.1181097672
20
8.65449663126
11
1.11164977992
21
8.65987662067
0
LINE
5
1C0
100
AcDbEntity
8
STANDOFF_HOLES
6
ByLayer
62
256
370
-1
100
AcDbLine
10
1.11164977992
20
8.65987662067
11
1.10589979126
21
8.6659366087
0
LINE
5
1C1
100
AcDbEntity
8
STANDOFF_HOLES
6
ByLayer
62
256
370
-1
100
AcDbLine
10
1.10589979126
20
8.6659366087
11
1.10095980102
21
8.6727865952
0
LINE
5
1C2
100
AcDbEntity
8
STANDOFF_HOLES
6
ByLayer
62
256
370
-1
100
AcDbLine
10
1.10095980102
20
8.6727865952
11
1.09688980902
21
8.68016658067
0
LINE
5
1C3
100
AcDbEntity
8
STANDOFF_HOLES
6
ByLayer
62
256
370
-1
100
AcDbLine
10
1.21798957031
20
8.68016658067
11
1.21396957827
21
8.6727865952
0
LINE
5
1C4
100
AcDbEntity
8
STANDOFF_HOLES
6
ByLayer
62
256
370
-1
100
AcDbLine
10
1.21396957827
20
8.6727865952
11
1.20903958799
21
8.6659366087
0
LINE
5
1C5
100
AcDbEntity
8
STANDOFF_HOLES
6
ByLayer
62
256
370
-1
100
AcDbLine
10
1.20903958799
20
8.6659366087
11
1.20327959933
21
8.65987662067
0
LINE
5
1C6
100
AcDbEntity
8
STANDOFF_HOLES
6
ByLayer
62
256
370
-1
100
AcDbLine
10
1.20327959933
20
8.65987662067
11
1.19677961213
21
8.65449663126
0
LINE
5
1C7
100
AcDbEntity
8
STANDOFF_HOLES
6
ByLayer
62
256
370
-1
100
AcDbLine
10
1.19677961213
20
8.65449663126
11
1.18971962606
21
8.64999664012
0
LINE
5
1C8
100
AcDbEntity
8
STANDOFF_HOLES
6
ByLayer
62
256
370
-1
100
AcDbLine
10
1.18971962606
20
8.64999664012
11
1.18211964102
21
8.6464166472
0
LINE
5
1C9
100
AcDbEntity
8
STANDOFF_HOLES
6
ByLayer
62
256
370
-1
100
AcDbLine
10
1.18211964102
20
8.6464166472
11
1.17409965685
21
8.64381665232
0
LINE
5
1CA
100
AcDbEntity
8
STANDOFF_HOLES
6
ByLayer
62
256
370
-1
100
AcDbLine
10
1.17409965685
20
8.64381665232
11
1.16584967311
21
8.64223665543
0
LINE
5
1CB
100
AcDbEntity
8
STANDOFF_HOLES
6
ByLayer
62
256
370
-1
100
AcDbLine
10
1.16584967311
20
8.64223665543
11
1.15743968968
21
8.6416866565
0
LINE
5
1CC
100
AcDbEntity
8
WALL_SLOTS
6
ByLayer
62
256
370
-1
100
AcDbLine
10
6.80114556541
20
1.93619587367
11
6.68303579822
21
1.93619587367
0
LINE
5
1CD
100
AcDbEntity
8
WALL_SLOTS
6
ByLayer
62
256
370
-1
100
AcDbLine
10
6.68303579822
20
1.93619587367
11
6.68303579822
21
2.32990909762
0
LINE
5
1CE
100
AcDbEntity
8
WALL_SLOTS
6
ByLayer
62
256
370
-1
100
AcDbLine
10
6.68303579822
20
2.32990909762
11
6.80114556541
21
2.32990909762
0
LINE
5
1CF
100
AcDbEntity
8
WALL_SLOTS
6
ByLayer
62
256
370
-1
100
AcDbLine
10
6.80114556541
20
2.32990909762
11
6.80114556541
21
1.93619587367
0
LINE
5
1D0
100
AcDbEntity
8
WALL_SLOTS
6
ByLayer
62
256
370
-1
100
AcDbLine
10
1.43303914646
20
1.93619587367
11
1.31493937925
21
1.93619587367
0
LINE
5
1D1
100
AcDbEntity
8
WALL_SLOTS
6
ByLayer
62
256
370
-1
100
AcDbLine
10
1.31493937925
20
1.93619587367
11
1.31493937925
21
2.32990909762
0
LINE
5
1D2
100
AcDbEntity
8
WALL_SLOTS
6
ByLayer
62
256
370
-1
100
AcDbLine
10
1.31493937925
20
2.32990909762
11
1.43303914646
21
2.32990909762
0
LINE
5
1D3
100
AcDbEntity
8
WALL_SLOTS
6
ByLayer
62
256
370
-1
100
AcDbLine
10
1.43303914646
20
2.32990909762
11
1.43303914646
21
1.93619587367
0
LINE
5
1D4
100
AcDbEntity
8
WALL_SLOTS
6
ByLayer
62
256
370
-1
100
AcDbLine
10
6.80114556541
20
4.73621435457
11
6.68303579822
21
4.73621435457
0
LINE
5
1D5
100
AcDbEntity
8
WALL_SLOTS
6
ByLayer
62
256
370
-1
100
AcDbLine
10
6.68303579822
20
4.73621435457
11
6.68303579822
21
5.1299335785
0
LINE
5
1D6
100
AcDbEntity
8
WALL_SLOTS
6
ByLayer
62
256
370
-1
100
AcDbLine
10
6.68303579822
20
5.1299335785
11
6.80114556541
21
5.1299335785
0
LINE
5
1D7
100
AcDbEntity
8
WALL_SLOTS
6
ByLayer
62
256
370
-1
100
AcDbLine
10
6.80114556541
20
5.1299335785
11
6.80114556541
21
4.73621435457
0
LINE
5
1D8
100
AcDbEntity
8
WALL_SLOTS
6
ByLayer
62
256
370
-1
100
AcDbLine
10
1.43303914646
20
4.73621435457
11
1.31493937925
21
4.73621435457
0
LINE
5
1D9
100
AcDbEntity
8
WALL_SLOTS
6
ByLayer
62
256
370
-1
100
AcDbLine
10
1.31493937925
20
4.73621435457
11
1.31493937925
21
5.1299335785
0
LINE
5
1DA
100
AcDbEntity
8
WALL_SLOTS
6
ByLayer
62
256
370
-1
100
AcDbLine
10
1.31493937925
20
5.1299335785
11
1.43303914646
21
5.1299335785
0
LINE
5
1DB
100
AcDbEntity
8
WALL_SLOTS
6
ByLayer
62
256
370
-1
100
AcDbLine
10
1.43303914646
20
5.1299335785
11
1.43303914646
21
4.73621435457
0
LINE
5
1DC
100
AcDbEntity
8
WALL_SLOTS
6
ByLayer
62
256
370
-1
100
AcDbLine
10
5.5674209972
20
4.87401408295
11
5.17366177333
21
4.87401408295
0
LINE
5
1DD
100
AcDbEntity
8
WALL_SLOTS
6
ByLayer
62
256
370
-1
100
AcDbLine
10
5.17366177333
20
4.87401408295
11
5.17366177333
21
4.99212385016
0
LINE
5
1DE
100
AcDbEntity
8
WALL_SLOTS
6
ByLayer
62
256
370
-1
100
AcDbLine
10
5.17366177333
20
4.99212385016
11
5.5674209972
21
4.99212385016
0
LINE
5
1DF
100
AcDbEntity
8
WALL_SLOTS
6
ByLayer
62
256
370
-1
100
AcDbLine
10
5.5674209972
20
4.99212385016
11
5.5674209972
21
4.87401408295
0
LINE
5
1E0
100
AcDbEntity
8
WALL_SLOTS
6
ByLayer
62
256
370
-1
100
AcDbLine
10
2.9424261713
20
4.87401408295
11
2.54866694744
21
4.87401408295
0
LINE
5
1E1
100
AcDbEntity
8
WALL_SLOTS
6
ByLayer
62
256
370
-1
100
AcDbLine
10
2.54866694744
20
4.87401408295
11
2.54866694744
21
4.99212385016
0
LINE
5
1E2
100
AcDbEntity
8
WALL_SLOTS
6
ByLayer
62
256
370
-1
100
AcDbLine
10
2.54866694744
20
4.99212385016
11
2.9424261713
21
4.99212385016
0
LINE
5
1E3
100
AcDbEntity
8
WALL_SLOTS
6
ByLayer
62
256
370
-1
100
AcDbLine
10
2.9424261713
20
4.99212385016
11
2.9424261713
21
4.87401408295
0
LINE
5
1E4
100
AcDbEntity
8
WALL_SLOTS
6
ByLayer
62
256
370
-1
100
AcDbLine
10
6.80114556541
20
7.53623883547
11
6.68303579822
21
7.53623883547
0
LINE
5
1E5
100
AcDbEntity
8
WALL_SLOTS
6
ByLayer
62
256
370
-1
100
AcDbLine
10
6.68303579822
20
7.53623883547
11
6.68303579822
21
7.92988805953
0
LINE
5
1E6
100
AcDbEntity
8
REFERENCE
6
ByLayer
62
256
370
-1
100
AcDbLine
10
6.68303579822
20
7.92988805953
11
6.80114556541
21
7.92988805953
0
LINE
5
1E7
100
AcDbEntity
8
WALL_SLOTS
6
ByLayer
62
256
370
-1
100
AcDbLine
10
6.80114556541
20
7.92988805953
11
6.80114556541
21
7.53623883547
0
LINE
5
1E8
100
AcDbEntity
8
WALL_SLOTS
6
ByLayer
62
256
370
-1
100
AcDbLine
10
1.43303914646
20
7.53623883547
11
1.31493937925
21
7.53623883547
0
LINE
5
1E9
100
AcDbEntity
8
WALL_SLOTS
6
ByLayer
62
256
370
-1
100
AcDbLine
10
1.31493937925
20
7.53623883547
11
1.31493937925
21
7.92988805953
0
LINE
5
1EA
100
AcDbEntity
8
WALL_SLOTS
6
ByLayer
62
256
370
-1
100
AcDbLine
10
1.31493937925
20
7.92988805953
11
1.43303914646
21
7.92988805953
0
LINE
5
1EB
100
AcDbEntity
8
WALL_SLOTS
6
ByLayer
62
256
370
-1
100
AcDbLine
10
1.43303914646
20
7.92988805953
11
1.43303914646
21
7.53623883547
0
LINE
5
1EC
100
AcDbEntity
8
BOUNDARY
6
ByLayer
62
256
370
-1
100
AcDbLine
10
6.99797717744
20
10
11
1.1181097672
21
10
0
LINE
5
1ED
100
AcDbEntity
8
BOUNDARY
6
ByLayer
62
256
370
-1
100
AcDbLine
10
1.1181097672
20
10
11
1.10328979642
21
10.0009222972
0
LINE
5
1EE
100
AcDbEntity
8
BOUNDARY
6
ByLayer
62
256
370
-1
100
AcDbLine
10
1.10328979642
20
10.0009222972
11
1.0886898252
21
10.0036892217
0
LINE
5
1EF
100
AcDbEntity
8
BOUNDARY
6
ByLayer
62
256
370
-1
100
AcDbLine
10
1.0886898252
20
10.0036892217
11
1.07464985287
21
10.0083007626
0
LINE
5
1F0
100
AcDbEntity
8
BOUNDARY
6
ByLayer
62
256
370
-1
100
AcDbLine
10
1.07464985287
20
10.0083007626
11
1.06118987941
21
10.0145941902
0
LINE
5
1F1
100
AcDbEntity
8
BOUNDARY
6
ByLayer
62
256
370
-1
100
AcDbLine
10
1.06118987941
20
10.0145941902
11
1.04866990409
21
10.0225694745
0
LINE
5
1F2
100
AcDbEntity
8
BOUNDARY
6
ByLayer
62
256
370
-1
100
AcDbLine
10
1.04866990409
20
10.0225694745
11
1.03720992665
21
10.0320094559
0
LINE
5
1F3
100
AcDbEntity
8
BOUNDARY
6
ByLayer
62
256
370
-1
100
AcDbLine
10
1.03720992665
20
10.0320094559
11
1.02706994665
21
10.0428059346
0
LINE
5
1F4
100
AcDbEntity
8
BOUNDARY
6
ByLayer
62
256
370
-1
100
AcDbLine
10
1.02706994665
20
10.0428059346
11
1.01838996378
21
10.0548502109
0
LINE
5
1F5
100
AcDbEntity
8
BOUNDARY
6
ByLayer
62
256
370
-1
100
AcDbLine
10
1.01838996378
20
10.0548502109
11
1.01121997791
21
10.0678166853
0
LINE
5
1F6
100
AcDbEntity
8
BOUNDARY
6
ByLayer
62
256
370
-1
100
AcDbLine
10
1.01121997791
20
10.0678166853
11
1.00574998866
21
10.0815971582
0
LINE
5
1F7
100
AcDbEntity
8
BOUNDARY
6
ByLayer
62
256
370
-1
100
AcDbLine
10
1.00574998866
20
10.0815971582
11
1.00205999594
21
10.0959741298
0
LINE
5
1F8
100
AcDbEntity
8
BOUNDARY
6
ByLayer
62
256
370
-1
100
AcDbLine
10
1.00205999594
20
10.0959741298
11
1.00020999961
21
10.1107315007
0
LINE
5
1F9
100
AcDbEntity
8
BOUNDARY
6
ByLayer
62
256
370
-1
100
AcDbLine
10
1.00020999961
20
10.1107315007
11
1.00020999961
21
10.1181094862
0
LINE
5
1FA
100
AcDbEntity
8
BOUNDARY
6
ByLayer
62
256
370
-1
100
AcDbLine
10
1.00020999961
20
10.1181094862
11
1
21
10.1181094862
0
LINE
5
1FB
100
AcDbEntity
8
BOUNDARY
6
ByLayer
62
256
370
-1
100
AcDbLine
10
1
20
10.1181094862
11
1
21
17.7480364469
0
LINE
5
1FC
100
AcDbEntity
8
BOUNDARY
6
ByLayer
62
256
370
-1
100
AcDbLine
10
1
20
17.7480364469
11
1.00020999961
21
17.7480364469
0
LINE
5
1FD
100
AcDbEntity
8
BOUNDARY
6
ByLayer
62
256
370
-1
100
AcDbLine
10
1.00020999961
20
17.7480364469
11
1.00020999961
21
17.7554164324
0
LINE
5
1FE
100
AcDbEntity
8
BOUNDARY
6
ByLayer
62
256
370
-1
100
AcDbLine
10
1.00020999961
20
17.7554164324
11
1.00205999594
21
17.7701064034
0
LINE
5
1FF
100
AcDbEntity
8
BOUNDARY
6
ByLayer
62
256
370
-1
100
AcDbLine
10
1.00205999594
20
17.7701064034
11
1.00574998866
21
17.784496375
0
LINE
5
200
100
AcDbEntity
8
BOUNDARY
6
ByLayer
62
256
370
-1
100
AcDbLine
10
1.00574998866
20
17.784496375
11
1.01121997791
21
17.7982763479
0
LINE
5
201
100
AcDbEntity
8
BOUNDARY
6
ByLayer
62
256
370
-1
100
AcDbLine
10
1.01121997791
20
17.7982763479
11
1.01838996378
21
17.8112863222
0
LINE
5
202
100
AcDbEntity
8
BOUNDARY
6
ByLayer
62
256
370
-1
100
AcDbLine
10
1.01838996378
20
17.8112863222
11
1.02706994665
21
17.8232762986
0
LINE
5
203
100
AcDbEntity
8
BOUNDARY
6
ByLayer
62
256
370
-1
100
AcDbLine
10
1.02706994665
20
17.8232762986
11
1.03720992665
21
17.8341362772
0
LINE
5
204
100
AcDbEntity
8
BOUNDARY
6
ByLayer
62
256
370
-1
100
AcDbLine
10
1.03720992665
20
17.8341362772
11
1.04866990409
21
17.8435662586
0
LINE
5
205
100
AcDbEntity
8
BOUNDARY
6
ByLayer
62
256
370
-1
100
AcDbLine
10
1.04866990409
20
17.8435662586
11
1.06118987941
21
17.851496243
0
LINE
5
206
100
AcDbEntity
8
BOUNDARY
6
ByLayer
62
256
370
-1
100
AcDbLine
10
1.06118987941
20
17.851496243
11
1.07464985287
21
17.8578462304
0
LINE
5
207
100
AcDbEntity
8
BOUNDARY
6
ByLayer
62
256
370
-1
100
AcDbLine
10
1.07464985287
20
17.8578462304
11
1.0886898252
21
17.8623962215
0
LINE
5
208
100
AcDbEntity
8
BOUNDARY
6
ByLayer
62
256
370
-1
100
AcDbLine
10
1.0886898252
20
17.8623962215
11
1.10328979642
21
17.865166216
0
LINE
5
209
100
AcDbEntity
8
BOUNDARY
6
ByLayer
62
256
370
-1
100
AcDbLine
10
1.10328979642
20
17.865166216
11
1.1181097672
21
17.8661362141
0
LINE
5
20A
100
AcDbEntity
8
BOUNDARY
6
ByLayer
62
256
370
-1
100
AcDbLine
10
1.1181097672
20
17.8661362141
11
6.99797717744
21
17.8661362141
0
LINE
5
20B
100
AcDbEntity
8
BOUNDARY
6
ByLayer
62
256
370
-1
100
AcDbLine
10
6.99797717744
20
17.8661362141
11
7.01278814824
21
17.865166216
0
LINE
5
20C
100
AcDbEntity
8
BOUNDARY
6
ByLayer
62
256
370
-1
100
AcDbLine
10
7.01278814824
20
17.865166216
11
7.02738271948
21
17.8623962215
0
LINE
5
20D
100
AcDbEntity
8
BOUNDARY
6
ByLayer
62
256
370
-1
100
AcDbLine
10
7.02738271948
20
17.8623962215
11
7.04148849167
21
17.8578462304
0
LINE
5
20E
100
AcDbEntity
8
BOUNDARY
6
ByLayer
62
256
370
-1
100
AcDbLine
10
7.04148849167
20
17.8578462304
11
7.05488916526
21
17.851496243
0
LINE
5
20F
100
AcDbEntity
8
BOUNDARY
6
ByLayer
62
256
370
-1
100
AcDbLine
10
7.05488916526
20
17.851496243
11
7.06742164056
21
17.8435662586
0
LINE
5
210
100
AcDbEntity
8
BOUNDARY
6
ByLayer
62
256
370
-1
100
AcDbLine
10
7.06742164056
20
17.8435662586
11
7.07886911799
21
17.8341362772
0
LINE
5
211
100
AcDbEntity
8
BOUNDARY
6
ByLayer
62
256
370
-1
100
AcDbLine
10
7.07886911799
20
17.8341362772
11
7.089014498
21
17.8232762986
0
LINE
5
212
100
AcDbEntity
8
BOUNDARY
6
ByLayer
62
256
370
-1
100
AcDbLine
10
7.089014498
20
17.8232762986
11
7.09769508088
21
17.8112863222
0
LINE
5
213
100
AcDbEntity
8
BOUNDARY
6
ByLayer
62
256
370
-1
100
AcDbLine
10
7.09769508088
20
17.8112863222
11
7.10485646677
21
17.7982763479
0
LINE
5
214
100
AcDbEntity
8
BOUNDARY
6
ByLayer
62
256
370
-1
100
AcDbLine
10
7.10485646677
20
17.7982763479
11
7.11033603597
21
17.784496375
0
LINE
5
215
100
AcDbEntity
8
BOUNDARY
6
ByLayer
62
256
370
-1
100
AcDbLine
10
7.11033603597
20
17.784496375
11
7.1140252787
21
17.7701064034
0
LINE
5
216
100
AcDbEntity
8
BOUNDARY
6
ByLayer
62
256
370
-1
100
AcDbLine
10
7.1140252787
20
17.7701064034
11
7.11586988906
21
17.7554164324
0
LINE
5
217
100
AcDbEntity
8
BOUNDARY
6
ByLayer
62
256
370
-1
100
AcDbLine
10
7.11586988906
20
17.7554164324
11
7.11586988906
21
17.7480364469
0
LINE
5
218
100
AcDbEntity
8
BOUNDARY
6
ByLayer
62
256
370
-1
100
AcDbLine
10
7.11586988906
20
17.7480364469
11
7.11608690263
21
17.7480364469
0
LINE
5
219
100
AcDbEntity
8
BOUNDARY
6
ByLayer
62
256
370
-1
100
AcDbLine
10
7.11608690263
20
17.7480364469
11
7.11608690263
21
10.1181094862
0
LINE
5
21A
100
AcDbEntity
8
BOUNDARY
6
ByLayer
62
256
370
-1
100
AcDbLine
10
7.11608690263
20
10.1181094862
11
7.11586988906
21
10.1181094862
0
LINE
5
21B
100
AcDbEntity
8
BOUNDARY
6
ByLayer
62
256
370
-1
100
AcDbLine
10
7.11586988906
20
10.1181094862
11
7.11586988906
21
10.1107315007
0
LINE
5
21C
100
AcDbEntity
8
BOUNDARY
6
ByLayer
62
256
370
-1
100
AcDbLine
10
7.11586988906
20
10.1107315007
11
7.1140252787
21
10.0959741298
0
LINE
5
21D
100
AcDbEntity
8
BOUNDARY
6
ByLayer
62
256
370
-1
100
AcDbLine
10
7.1140252787
20
10.0959741298
11
7.11033603597
21
10.0815971582
0
LINE
5
21E
100
AcDbEntity
8
BOUNDARY
6
ByLayer
62
256
370
-1
100
AcDbLine
10
7.11033603597
20
10.0815971582
11
7.10485646677
21
10.0678166853
0
LINE
5
21F
100
AcDbEntity
8
BOUNDARY
6
ByLayer
62
256
370
-1
100
AcDbLine
10
7.10485646677
20
10.0678166853
11
7.09769508088
21
10.0548502109
0
LINE
5
220
100
AcDbEntity
8
BOUNDARY
6
ByLayer
62
256
370
-1
100
AcDbLine
10
7.09769508088
20
10.0548502109
11
7.089014498
21
10.0428059346
0
LINE
5
221
100
AcDbEntity
8
BOUNDARY
6
ByLayer
62
256
370
-1
100
AcDbLine
10
7.089014498
20
10.0428059346
11
7.07886911799
21
10.0320094559
0
LINE
5
222
100
AcDbEntity
8
BOUNDARY
6
ByLayer
62
256
370
-1
100
AcDbLine
10
7.07886911799
20
10.0320094559
11
7.06742164056
21
10.0225694745
0
LINE
5
223
100
AcDbEntity
8
BOUNDARY
6
ByLayer
62
256
370
-1
100
AcDbLine
10
7.06742164056
20
10.0225694745
11
7.05488916526
21
10.0145941902
0
LINE
5
224
100
AcDbEntity
8
BOUNDARY
6
ByLayer
62
256
370
-1
100
AcDbLine
10
7.05488916526
20
10.0145941902
11
7.04148849167
21
10.0083007626
0
LINE
5
225
100
AcDbEntity
8
BOUNDARY
6
ByLayer
62
256
370
-1
100
AcDbLine
10
7.04148849167
20
10.0083007626
11
7.02738271948
21
10.0036892217
0
LINE
5
226
100
AcDbEntity
8
BOUNDARY
6
ByLayer
62
256
370
-1
100
AcDbLine
10
7.02738271948
20
10.0036892217
11
7.01278814824
21
10.0009222972
0
LINE
5
227
100
AcDbEntity
8
BOUNDARY
6
ByLayer
62
256
370
-1
100
AcDbLine
10
7.01278814824
20
10.0009222972
11
6.99797717744
21
10
0
LINE
5
228
100
AcDbEntity
8
DOOR_SLOTS
6
ByLayer
62
256
370
-1
100
AcDbLine
10
0.999890000236
20
17.4331470676
11
0.999890000236
21
17.5510368352
0
LINE
5
229
100
AcDbEntity
8
DOOR_SLOTS
6
ByLayer
62
256
370
-1
100
AcDbLine
10
0.999890000236
20
17.5510368352
11
6.80049556669
21
17.5510368352
0
LINE
5
22A
100
AcDbEntity
8
DOOR_SLOTS
6
ByLayer
62
256
370
-1
100
AcDbLine
10
6.80049556669
20
17.5510368352
11
6.80049556669
21
17.4331470676
0
LINE
5
22B
100
AcDbEntity
8
DOOR_SLOTS
6
ByLayer
62
256
370
-1
100
AcDbLine
10
6.80049556669
20
17.4331470676
11
0.999890000236
21
17.4331470676
0
LINE
5
22C
100
AcDbEntity
8
DOOR_SLOTS
6
ByLayer
62
256
370
-1
100
AcDbLine
10
0.999890000236
20
17.4331470676
11
0.999890000236
21
17.4331470676
0
LINE
5
22D
100
AcDbEntity
8
STANDOFF_HOLES
6
ByLayer
62
256
370
-1
100
AcDbLine
10
6.95864425497
20
10.0905489405
11
6.95023427154
21
10.0910371396
0
LINE
5
22E
100
AcDbEntity
8
STANDOFF_HOLES
6
ByLayer
62
256
370
-1
100
AcDbLine
10
6.95023427154
20
10.0910371396
11
6.9419882878
21
10.0926104365
0
LINE
5
22F
100
AcDbEntity
8
STANDOFF_HOLES
6
ByLayer
62
256
370
-1
100
AcDbLine
10
6.9419882878
20
10.0926104365
11
6.93395730363
21
10.0952146313
0
LINE
5
230
100
AcDbEntity
8
STANDOFF_HOLES
6
ByLayer
62
256
370
-1
100
AcDbLine
10
6.93395730363
20
10.0952146313
11
6.9263633186
21
10.0987954243
0
LINE
5
231
100
AcDbEntity
8
STANDOFF_HOLES
6
ByLayer
62
256
370
-1
100
AcDbLine
10
6.9263633186
20
10.0987954243
11
6.9193103325
21
10.1033525153
0
LINE
5
232
100
AcDbEntity
8
STANDOFF_HOLES
6
ByLayer
62
256
370
-1
100
AcDbLine
10
6.9193103325
20
10.1033525153
11
6.91279934533
21
10.1087235047
0
LINE
5
233
100
AcDbEntity
8
STANDOFF_HOLES
6
ByLayer
62
256
370
-1
100
AcDbLine
10
6.91279934533
20
10.1087235047
11
6.90704835667
21
10.1148004927
0
LINE
5
234
100
AcDbEntity
8
STANDOFF_HOLES
6
ByLayer
62
256
370
-1
100
AcDbLine
10
6.90704835667
20
10.1148004927
11
6.9021123664
21
10.1216364792
0
LINE
5
235
100
AcDbEntity
8
STANDOFF_HOLES
6
ByLayer
62
256
370
-1
100
AcDbLine
10
6.9021123664
20
10.1216364792
11
6.89809637431
21
10.1289604648
0
LINE
5
236
100
AcDbEntity
8
STANDOFF_HOLES
6
ByLayer
62
256
370
-1
100
AcDbLine
10
6.89809637431
20
10.1289604648
11
6.89494938052
21
10.1368274493
0
LINE
5
237
100
AcDbEntity
8
STANDOFF_HOLES
6
ByLayer
62
256
370
-1
100
AcDbLine
10
6.89494938052
20
10.1368274493
11
6.89288838458
21
10.1449114334
0
LINE
5
238
100
AcDbEntity
8
STANDOFF_HOLES
6
ByLayer
62
256
370
-1
100
AcDbLine
10
6.89288838458
20
10.1449114334
11
6.89180338672
21
10.1532654169
0
LINE
5
239
100
AcDbEntity
8
STANDOFF_HOLES
6
ByLayer
62
256
370
-1
100
AcDbLine
10
6.89180338672
20
10.1532654169
11
6.89180338672
21
10.1616754003
0
LINE
5
23A
100
AcDbEntity
8
STANDOFF_HOLES
6
ByLayer
62
256
370
-1
100
AcDbLine
10
6.89180338672
20
10.1616754003
11
6.89288838458
21
10.1700293839
0
LINE
5
23B
100
AcDbEntity
8
STANDOFF_HOLES
6
ByLayer
62
256
370
-1
100
AcDbLine
10
6.89288838458
20
10.1700293839
11
6.89494938052
21
10.1781683678
0
LINE
5
23C
100
AcDbEntity
8
STANDOFF_HOLES
6
ByLayer
62
256
370
-1
100
AcDbLine
10
6.89494938052
20
10.1781683678
11
6.89809637431
21
10.1859803524
0
LINE
5
23D
100
AcDbEntity
8
STANDOFF_HOLES
6
ByLayer
62
256
370
-1
100
AcDbLine
10
6.89809637431
20
10.1859803524
11
6.9021123664
21
10.1933583379
0
LINE
5
23E
100
AcDbEntity
8
STANDOFF_HOLES
6
ByLayer
62
256
370
-1
100
AcDbLine
10
6.9021123664
20
10.1933583379
11
6.90704835667
21
10.2001403245
0
LINE
5
23F
100
AcDbEntity
8
STANDOFF_HOLES
6
ByLayer
62
256
370
-1
100
AcDbLine
10
6.90704835667
20
10.2001403245
11
6.91279934533
21
10.2062713124
0
LINE
5
240
100
AcDbEntity
8
STANDOFF_HOLES
6
ByLayer
62
256
370
-1
100
AcDbLine
10
6.91279934533
20
10.2062713124
11
6.9193103325
21
10.2115873019
0
LINE
5
241
100
AcDbEntity
8
STANDOFF_HOLES
6
ByLayer
62
256
370
-1
100
AcDbLine
10
6.9193103325
20
10.2115873019
11
6.9263633186
21
10.216146293
0
LINE
5
242
100
AcDbEntity
8
STANDOFF_HOLES
6
ByLayer
62
256
370
-1
100
AcDbLine
10
6.9263633186
20
10.216146293
11
6.93395730363
21
10.2197262859
0
LINE
5
243
100
AcDbEntity
8
STANDOFF_HOLES
6
ByLayer
62
256
370
-1
100
AcDbLine
10
6.93395730363
20
10.2197262859
11
6.9419882878
21
10.2223302808
0
LINE
5
244
100
AcDbEntity
8
STANDOFF_HOLES
6
ByLayer
62
256
370
-1
100
AcDbLine
10
6.9419882878
20
10.2223302808
11
6.95023427154
21
10.2239032777
0
LINE
5
245
100
AcDbEntity
8
STANDOFF_HOLES
6
ByLayer
62
256
370
-1
100
AcDbLine
10
6.95023427154
20
10.2239032777
11
6.95864425497
21
10.2243922767
0
LINE
5
246
100
AcDbEntity
8
STANDOFF_HOLES
6
ByLayer
62
256
370
-1
100
AcDbLine
10
6.95864425497
20
10.2243922767
11
6.9669992385
21
10.2239032777
0
LINE
5
247
100
AcDbEntity
8
STANDOFF_HOLES
6
ByLayer
62
256
370
-1
100
AcDbLine
10
6.9669992385
20
10.2239032777
11
6.97529922214
21
10.2223302808
0
LINE
5
248
100
AcDbEntity
8
STANDOFF_HOLES
6
ByLayer
62
256
370
-1
100
AcDbLine
10
6.97529922214
20
10.2223302808
11
6.98327420642
21
10.2197262859
0
LINE
5
249
100
AcDbEntity
8
STANDOFF_HOLES
6
ByLayer
62
256
370
-1
100
AcDbLine
10
6.98327420642
20
10.2197262859
11
6.99087019145
21
10.216146293
0
LINE
5
24A
100
AcDbEntity
8
STANDOFF_HOLES
6
ByLayer
62
256
370
-1
100
AcDbLine
10
6.99087019145
20
10.216146293
11
6.99797717744
21
10.2115873019
0
LINE
5
24B
100
AcDbEntity
8
STANDOFF_HOLES
6
ByLayer
62
256
370
-1
100
AcDbLine
10
6.99797717744
20
10.2115873019
11
7.00443316471
21
10.2062713124
0
LINE
5
24C
100
AcDbEntity
8
STANDOFF_HOLES
6
ByLayer
62
256
370
-1
100
AcDbLine
10
7.00443316471
20
10.2062713124
11
7.01018415338
21
10.2001403245
0
LINE
5
24D
100
AcDbEntity
8
STANDOFF_HOLES
6
ByLayer
62
256
370
-1
100
AcDbLine
10
7.01018415338
20
10.2001403245
11
7.01512114365
21
10.1933583379
0
LINE
5
24E
100
AcDbEntity
8
STANDOFF_HOLES
6
ByLayer
62
256
370
-1
100
AcDbLine
10
7.01512114365
20
10.1933583379
11
7.01919033563
21
10.1859803524
0
LINE
5
24F
100
AcDbEntity
8
STANDOFF_HOLES
6
ByLayer
62
256
370
-1
100
AcDbLine
10
7.01919033563
20
10.1859803524
11
7.02228282953
21
10.1781683678
0
LINE
5
250
100
AcDbEntity
8
STANDOFF_HOLES
6
ByLayer
62
256
370
-1
100
AcDbLine
10
7.02228282953
20
10.1781683678
11
7.02439872536
21
10.1700293839
0
LINE
5
251
100
AcDbEntity
8
STANDOFF_HOLES
6
ByLayer
62
256
370
-1
100
AcDbLine
10
7.02439872536
20
10.1700293839
11
7.02542952333
21
10.1616754003
0
LINE
5
252
100
AcDbEntity
8
STANDOFF_HOLES
6
ByLayer
62
256
370
-1
100
AcDbLine
10
7.02542952333
20
10.1616754003
11
7.02542952333
21
10.1532654169
0
LINE
5
253
100
AcDbEntity
8
STANDOFF_HOLES
6
ByLayer
62
256
370
-1
100
AcDbLine
10
7.02542952333
20
10.1532654169
11
7.02434452547
21
10.1449114334
0
LINE
5
254
100
AcDbEntity
8
STANDOFF_HOLES
6
ByLayer
62
256
370
-1
100
AcDbLine
10
7.02439872536
20
10.1449114334
11
7.02228282953
21
10.1368274493
0
LINE
5
255
100
AcDbEntity
8
STANDOFF_HOLES
6
ByLayer
62
256
370
-1
100
AcDbLine
10
7.02228282953
20
10.1368274493
11
7.01919033563
21
10.1289604648
0
LINE
5
256
100
AcDbEntity
8
STANDOFF_HOLES
6
ByLayer
62
256
370
-1
100
AcDbLine
10
7.01919033563
20
10.1289604648
11
7.01512114365
21
10.1216364792
0
LINE
5
257
100
AcDbEntity
8
STANDOFF_HOLES
6
ByLayer
62
256
370
-1
100
AcDbLine
10
7.01512114365
20
10.1216364792
11
7.01018415338
21
10.1148004927
0
LINE
5
258
100
AcDbEntity
8
STANDOFF_HOLES
6
ByLayer
62
256
370
-1
100
AcDbLine
10
7.01018415338
20
10.1148004927
11
7.00443316471
21
10.1087235047
0
LINE
5
259
100
AcDbEntity
8
STANDOFF_HOLES
6
ByLayer
62
256
370
-1
100
AcDbLine
10
7.00443316471
20
10.1087235047
11
6.99797717744
21
10.1033525153
0
LINE
5
25A
100
AcDbEntity
8
STANDOFF_HOLES
6
ByLayer
62
256
370
-1
100
AcDbLine
10
6.99797717744
20
10.1033525153
11
6.99087019145
21
10.0987954243
0
LINE
5
25B
100
AcDbEntity
8
STANDOFF_HOLES
6
ByLayer
62
256
370
-1
100
AcDbLine
10
6.99087019145
20
10.0987954243
11
6.98327420642
21
10.0952146313
0
LINE
5
25C
100
AcDbEntity
8
STANDOFF_HOLES
6
ByLayer
62
256
370
-1
100
AcDbLine
10
6.98327420642
20
10.0952146313
11
6.97529922214
21
10.0926104365
0
LINE
5
25D
100
AcDbEntity
8
STANDOFF_HOLES
6
ByLayer
62
256
370
-1
100
AcDbLine
10
6.97529922214
20
10.0926104365
11
6.9669992385
21
10.0910371396
0
LINE
5
25E
100
AcDbEntity
8
STANDOFF_HOLES
6
ByLayer
62
256
370
-1
100
AcDbLine
10
6.9669992385
20
10.0910371396
11
6.95864425497
21
10.0905489405
0
LINE
5
25F
100
AcDbEntity
8
STANDOFF_HOLES
6
ByLayer
62
256
370
-1
100
AcDbLine
10
1.15743968968
20
10.0905489405
11
1.14907970618
21
10.0910371396
0
LINE
5
260
100
AcDbEntity
8
STANDOFF_HOLES
6
ByLayer
62
256
370
-1
100
AcDbLine
10
1.14907970618
20
10.0910371396
11
1.14077972252
21
10.0926104365
0
LINE
5
261
100
AcDbEntity
8
STANDOFF_HOLES
6
ByLayer
62
256
370
-1
100
AcDbLine
10
1.14077972252
20
10.0926104365
11
1.13280973823
21
10.0952146313
0
LINE
5
262
100
AcDbEntity
8
STANDOFF_HOLES
6
ByLayer
62
256
370
-1
100
AcDbLine
10
1.13280973823
20
10.0952146313
11
1.12520975323
21
10.0987954243
0
LINE
5
263
100
AcDbEntity
8
STANDOFF_HOLES
6
ByLayer
62
256
370
-1
100
AcDbLine
10
1.12520975323
20
10.0987954243
11
1.1181097672
21
10.1033525153
0
LINE
5
264
100
AcDbEntity
8
STANDOFF_HOLES
6
ByLayer
62
256
370
-1
100
AcDbLine
10
1.1181097672
20
10.1033525153
11
1.11164977992
21
10.1087235047
0
LINE
5
265
100
AcDbEntity
8
STANDOFF_HOLES
6
ByLayer
62
256
370
-1
100
AcDbLine
10
1.11164977992
20
10.1087235047
11
1.10589979126
21
10.1148004927
0
LINE
5
266
100
AcDbEntity
8
STANDOFF_HOLES
6
ByLayer
62
256
370
-1
100
AcDbLine
10
1.10589979126
20
10.1148004927
11
1.10095980102
21
10.1216364792
0
LINE
5
267
100
AcDbEntity
8
STANDOFF_HOLES
6
ByLayer
62
256
370
-1
100
AcDbLine
10
1.10095980102
20
10.1216364792
11
1.09688980902
21
10.1289604648
0
LINE
5
268
100
AcDbEntity
8
STANDOFF_HOLES
6
ByLayer
62
256
370
-1
100
AcDbLine
10
1.09688980902
20
10.1289604648
11
1.09380981512
21
10.1368274493
0
LINE
5
269
100
AcDbEntity
8
STANDOFF_HOLES
6
ByLayer
62
256
370
-1
100
AcDbLine
10
1.09380981512
20
10.1368274493
11
1.09167981929
21
10.1449114334
0
LINE
5
26A
100
AcDbEntity
8
STANDOFF_HOLES
6
ByLayer
62
256
370
-1
100
AcDbLine
10
1.09167981929
20
10.1449114334
11
1.09064982134
21
10.1532654169
0
LINE
5
26B
100
AcDbEntity
8
STANDOFF_HOLES
6
ByLayer
62
256
370
-1
100
AcDbLine
10
1.09064982134
20
10.1532654169
11
1.09064982134
21
10.1616754003
0
LINE
5
26C
100
AcDbEntity
8
STANDOFF_HOLES
6
ByLayer
62
256
370
-1
100
AcDbLine
10
1.09064982134
20
10.1616754003
11
1.09167981929
21
10.1700293839
0
LINE
5
26D
100
AcDbEntity
8
STANDOFF_HOLES
6
ByLayer
62
256
370
-1
100
AcDbLine
10
1.09167981929
20
10.1700293839
11
1.09380981512
21
10.1781683678
0
LINE
5
26E
100
AcDbEntity
8
STANDOFF_HOLES
6
ByLayer
62
256
370
-1
100
AcDbLine
10
1.09380981512
20
10.1781683678
11
1.09688980902
21
10.1859803524
0
LINE
5
26F
100
AcDbEntity
8
STANDOFF_HOLES
6
ByLayer
62
256
370
-1
100
AcDbLine
10
1.09688980902
20
10.1859803524
11
1.10095980102
21
10.1933583379
0
LINE
5
270
100
AcDbEntity
8
STANDOFF_HOLES
6
ByLayer
62
256
370
-1
100
AcDbLine
10
1.10095980102
20
10.1933583379
11
1.10589979126
21
10.2001403245
0
LINE
5
271
100
AcDbEntity
8
STANDOFF_HOLES
6
ByLayer
62
256
370
-1
100
AcDbLine
10
1.10589979126
20
10.2001403245
11
1.11164977992
21
10.2062713124
0
LINE
5
272
100
AcDbEntity
8
STANDOFF_HOLES
6
ByLayer
62
256
370
-1
100
AcDbLine
10
1.11164977992
20
10.2062713124
11
1.1181097672
21
10.2115873019
0
LINE
5
273
100
AcDbEntity
8
STANDOFF_HOLES
6
ByLayer
62
256
370
-1
100
AcDbLine
10
1.1181097672
20
10.2115873019
11
1.12520975323
21
10.216146293
0
LINE
5
274
100
AcDbEntity
8
STANDOFF_HOLES
6
ByLayer
62
256
370
-1
100
AcDbLine
10
1.12520975323
20
10.216146293
11
1.13280973823
21
10.2197262859
0
LINE
5
275
100
AcDbEntity
8
STANDOFF_HOLES
6
ByLayer
62
256
370
-1
100
AcDbLine
10
1.13280973823
20
10.2197262859
11
1.14077972252
21
10.2223302808
0
LINE
5
276
100
AcDbEntity
8
STANDOFF_HOLES
6
ByLayer
62
256
370
-1
100
AcDbLine
10
1.14077972252
20
10.2223302808
11
1.14907970618
21
10.2239032777
0
LINE
5
277
100
AcDbEntity
8
STANDOFF_HOLES
6
ByLayer
62
256
370
-1
100
AcDbLine
10
1.14907970618
20
10.2239032777
11
1.15743968968
21
10.2243922767
0
LINE
5
278
100
AcDbEntity
8
STANDOFF_HOLES
6
ByLayer
62
256
370
-1
100
AcDbLine
10
1.15743968968
20
10.2243922767
11
1.16584967311
21
10.2239032777
0
LINE
5
279
100
AcDbEntity
8
STANDOFF_HOLES
6
ByLayer
62
256
370
-1
100
AcDbLine
10
1.16584967311
20
10.2239032777
11
1.17409965685
21
10.2223302808
0
LINE
5
27A
100
AcDbEntity
8
STANDOFF_HOLES
6
ByLayer
62
256
370
-1
100
AcDbLine
10
1.17409965685
20
10.2223302808
11
1.18211964102
21
10.2197262859
0
LINE
5
27B
100
AcDbEntity
8
STANDOFF_HOLES
6
ByLayer
62
256
370
-1
100
AcDbLine
10
1.18211964102
20
10.2197262859
11
1.18971962606
21
10.216146293
0
LINE
5
27C
100
AcDbEntity
8
STANDOFF_HOLES
6
ByLayer
62
256
370
-1
100
AcDbLine
10
1.18971962606
20
10.216146293
11
1.19677961213
21
10.2115873019
0
LINE
5
27D
100
AcDbEntity
8
STANDOFF_HOLES
6
ByLayer
62
256
370
-1
100
AcDbLine
10
1.19677961213
20
10.2115873019
11
1.20327959933
21
10.2062713124
0
LINE
5
27E
100
AcDbEntity
8
STANDOFF_HOLES
6
ByLayer
62
256
370
-1
100
AcDbLine
10
1.20327959933
20
10.2062713124
11
1.20903958799
21
10.2001403245
0
LINE
5
27F
100
AcDbEntity
8
STANDOFF_HOLES
6
ByLayer
62
256
370
-1
100
AcDbLine
10
1.20903958799
20
10.2001403245
11
1.21396957827
21
10.1933583379
0
LINE
5
280
100
AcDbEntity
8
STANDOFF_HOLES
6
ByLayer
62
256
370
-1
100
AcDbLine
10
1.21396957827
20
10.1933583379
11
1.21798957031
21
10.1859803524
0
LINE
5
281
100
AcDbEntity
8
STANDOFF_HOLES
6
ByLayer
62
256
370
-1
100
AcDbLine
10
1.21798957031
20
10.1859803524
11
1.22113956413
21
10.1781683678
0
LINE
5
282
100
AcDbEntity
8
STANDOFF_HOLES
6
ByLayer
62
256
370
-1
100
AcDbLine
10
1.22113956413
20
10.1781683678
11
1.22318956008
21
10.1700293839
0
LINE
5
283
100
AcDbEntity
8
STANDOFF_HOLES
6
ByLayer
62
256
370
-1
100
AcDbLine
10
1.22318956008
20
10.1700293839
11
1.22427955795
21
10.1616754003
0
LINE
5
284
100
AcDbEntity
8
STANDOFF_HOLES
6
ByLayer
62
256
370
-1
100
AcDbLine
10
1.22427955795
20
10.1616754003
11
1.22427955795
21
10.1532654169
0
LINE
5
285
100
AcDbEntity
8
STANDOFF_HOLES
6
ByLayer
62
256
370
-1
100
AcDbLine
10
1.22427955795
20
10.1532654169
11
1.22318956008
21
10.1449114334
0
LINE
5
286
100
AcDbEntity
8
STANDOFF_HOLES
6
ByLayer
62
256
370
-1
100
AcDbLine
10
1.22318956008
20
10.1449114334
11
1.22113956413
21
10.1368274493
0
LINE
5
287
100
AcDbEntity
8
STANDOFF_HOLES
6
ByLayer
62
256
370
-1
100
AcDbLine
10
1.22113956413
20
10.1368274493
11
1.21798957031
21
10.1289604648
0
LINE
5
288
100
AcDbEntity
8
STANDOFF_HOLES
6
ByLayer
62
256
370
-1
100
AcDbLine
10
1.21798957031
20
10.1289604648
11
1.21396957827
21
10.1216364792
0
LINE
5
289
100
AcDbEntity
8
STANDOFF_HOLES
6
ByLayer
62
256
370
-1
100
AcDbLine
10
1.21396957827
20
10.1216364792
11
1.20903958799
21
10.1148004927
0
LINE
5
28A
100
AcDbEntity
8
STANDOFF_HOLES
6
ByLayer
62
256
370
-1
100
AcDbLine
10
1.20903958799
20
10.1148004927
11
1.20327959933
21
10.1087235047
0
LINE
5
28B
100
AcDbEntity
8
STANDOFF_HOLES
6
ByLayer
62
256
370
-1
100
AcDbLine
10
1.20327959933
20
10.1087235047
11
1.19677961213
21
10.1033525153
0
LINE
5
28C
100
AcDbEntity
8
STANDOFF_HOLES
6
ByLayer
62
256
370
-1
100
AcDbLine
10
1.19677961213
20
10.1033525153
11
1.18971962606
21
10.0987954243
0
LINE
5
28D
100
AcDbEntity
8
STANDOFF_HOLES
6
ByLayer
62
256
370
-1
100
AcDbLine
10
1.18971962606
20
10.0987954243
11
1.18211964102
21
10.0952146313
0
LINE
5
28E
100
AcDbEntity
8
STANDOFF_HOLES
6
ByLayer
62
256
370
-1
100
AcDbLine
10
1.18211964102
20
10.0952146313
11
1.17409965685
21
10.0926104365
0
LINE
5
28F
100
AcDbEntity
8
STANDOFF_HOLES
6
ByLayer
62
256
370
-1
100
AcDbLine
10
1.17409965685
20
10.0926104365
11
1.16584967311
21
10.0910371396
0
LINE
5
290
100
AcDbEntity
8
STANDOFF_HOLES
6
ByLayer
62
256
370
-1
100
AcDbLine
10
1.16584967311
20
10.0910371396
11
1.15743968968
21
10.0905489405
0
LINE
5
291
100
AcDbEntity
8
STANDOFF_HOLES
6
ByLayer
62
256
370
-1
100
AcDbLine
10
6.95864425497
20
13.8661440985
11
6.95023427154
21
13.8666440975
0
LINE
5
292
100
AcDbEntity
8
STANDOFF_HOLES
6
ByLayer
62
256
370
-1
100
AcDbLine
10
6.95023427154
20
13.8666440975
11
6.9419882878
21
13.8682140944
0
LINE
5
293
100
AcDbEntity
8
STANDOFF_HOLES
6
ByLayer
62
256
370
-1
100
AcDbLine
10
6.9419882878
20
13.8682140944
11
6.93395730363
21
13.8708140893
0
LINE
5
294
100
AcDbEntity
8
STANDOFF_HOLES
6
ByLayer
62
256
370
-1
100
AcDbLine
10
6.93395730363
20
13.8708140893
11
6.9263633186
21
13.8743940822
0
LINE
5
295
100
AcDbEntity
8
STANDOFF_HOLES
6
ByLayer
62
256
370
-1
100
AcDbLine
10
6.9263633186
20
13.8743940822
11
6.9193103325
21
13.8789440732
0
LINE
5
296
100
AcDbEntity
8
STANDOFF_HOLES
6
ByLayer
62
256
370
-1
100
AcDbLine
10
6.9193103325
20
13.8789440732
11
6.91279934533
21
13.8842640628
0
LINE
5
297
100
AcDbEntity
8
STANDOFF_HOLES
6
ByLayer
62
256
370
-1
100
AcDbLine
10
6.91279934533
20
13.8842640628
11
6.90704835667
21
13.8904040507
0
LINE
5
298
100
AcDbEntity
8
STANDOFF_HOLES
6
ByLayer
62
256
370
-1
100
AcDbLine
10
6.90704835667
20
13.8904040507
11
6.9021123664
21
13.8971840373
0
LINE
5
299
100
AcDbEntity
8
STANDOFF_HOLES
6
ByLayer
62
256
370
-1
100
AcDbLine
10
6.9021123664
20
13.8971840373
11
6.89809637431
21
13.9045640227
0
LINE
5
29A
100
AcDbEntity
8
STANDOFF_HOLES
6
ByLayer
62
256
370
-1
100
AcDbLine
10
6.89809637431
20
13.9045640227
11
6.89494938052
21
13.9123740073
0
LINE
5
29B
100
AcDbEntity
8
STANDOFF_HOLES
6
ByLayer
62
256
370
-1
100
AcDbLine
10
6.89494938052
20
13.9123740073
11
6.89288838458
21
13.9205039913
0
LINE
5
29C
100
AcDbEntity
8
STANDOFF_HOLES
6
ByLayer
62
256
370
-1
100
AcDbLine
10
6.89288838458
20
13.9205039913
11
6.89180338672
21
13.9288639748
0
LINE
5
29D
100
AcDbEntity
8
STANDOFF_HOLES
6
ByLayer
62
256
370
-1
100
AcDbLine
10
6.89180338672
20
13.9288639748
11
6.89180338672
21
13.9372839582
0
LINE
5
29E
100
AcDbEntity
8
STANDOFF_HOLES
6
ByLayer
62
256
370
-1
100
AcDbLine
10
6.89180338672
20
13.9372839582
11
6.89288838458
21
13.9456339418
0
LINE
5
29F
100
AcDbEntity
8
STANDOFF_HOLES
6
ByLayer
62
256
370
-1
100
AcDbLine
10
6.89288838458
20
13.9456339418
11
6.89494938052
21
13.9537139259
0
LINE
5
2A0
100
AcDbEntity
8
STANDOFF_HOLES
6
ByLayer
62
256
370
-1
100
AcDbLine
10
6.89494938052
20
13.9537139259
11
6.89809637431
21
13.9615839104
0
LINE
5
2A1
100
AcDbEntity
8
STANDOFF_HOLES
6
ByLayer
62
256
370
-1
100
AcDbLine
10
6.89809637431
20
13.9615839104
11
6.9021123664
21
13.9689038959
0
LINE
5
2A2
100
AcDbEntity
8
STANDOFF_HOLES
6
ByLayer
62
256
370
-1
100
AcDbLine
10
6.9021123664
20
13.9689038959
11
6.90704835667
21
13.9757438824
0
LINE
5
2A3
100
AcDbEntity
8
STANDOFF_HOLES
6
ByLayer
62
256
370
-1
100
AcDbLine
10
6.90704835667
20
13.9757438824
11
6.91279934533
21
13.9818238704
0
LINE
5
2A4
100
AcDbEntity
8
STANDOFF_HOLES
6
ByLayer
62
256
370
-1
100
AcDbLine
10
6.91279934533
20
13.9818238704
11
6.9193103325
21
13.9871838599
0
LINE
5
2A5
100
AcDbEntity
8
STANDOFF_HOLES
6
ByLayer
62
256
370
-1
100
AcDbLine
10
6.9193103325
20
13.9871838599
11
6.9263633186
21
13.9917438509
0
LINE
5
2A6
100
AcDbEntity
8
STANDOFF_HOLES
6
ByLayer
62
256
370
-1
100
AcDbLine
10
6.9263633186
20
13.9917438509
11
6.93395730363
21
13.9953238439
0
LINE
5
2A7
100
AcDbEntity
8
STANDOFF_HOLES
6
ByLayer
62
256
370
-1
100
AcDbLine
10
6.93395730363
20
13.9953238439
11
6.9419882878
21
13.9978738388
0
LINE
5
2A8
100
AcDbEntity
8
STANDOFF_HOLES
6
ByLayer
62
256
370
-1
100
AcDbLine
10
6.9419882878
20
13.9978738388
11
6.95023427154
21
13.9995038356
0
LINE
5
2A9
100
AcDbEntity
8
STANDOFF_HOLES
6
ByLayer
62
256
370
-1
100
AcDbLine
10
6.95023427154
20
13.9995038356
11
6.95864425497
21
13.9999938347
0
LINE
5
2AA
100
AcDbEntity
8
STANDOFF_HOLES
6
ByLayer
62
256
370
-1
100
AcDbLine
10
6.95864425497
20
13.9999938347
11
6.9669992385
21
13.9994438357
0
LINE
5
2AB
100
AcDbEntity
8
STANDOFF_HOLES
6
ByLayer
62
256
370
-1
100
AcDbLine
10
6.9669992385
20
13.9995038356
11
6.97529922214
21
13.9978738388
0
LINE
5
2AC
100
AcDbEntity
8
STANDOFF_HOLES
6
ByLayer
62
256
370
-1
100
AcDbLine
10
6.97529922214
20
13.9978738388
11
6.98327420642
21
13.9953238439
0
LINE
5
2AD
100
AcDbEntity
8
STANDOFF_HOLES
6
ByLayer
62
256
370
-1
100
AcDbLine
10
6.98327420642
20
13.9953238439
11
6.99087019145
21
13.9917438509
0
LINE
5
2AE
100
AcDbEntity
8
STANDOFF_HOLES
6
ByLayer
62
256
370
-1
100
AcDbLine
10
6.99087019145
20
13.9917438509
11
6.99797717744
21
13.9871838599
0
LINE
5
2AF
100
AcDbEntity
8
STANDOFF_HOLES
6
ByLayer
62
256
370
-1
100
AcDbLine
10
6.99797717744
20
13.9871838599
11
7.00443316471
21
13.9818238704
0
LINE
5
2B0
100
AcDbEntity
8
STANDOFF_HOLES
6
ByLayer
62
256
370
-1
100
AcDbLine
10
7.00443316471
20
13.9818238704
11
7.01018415338
21
13.9757438824
0
LINE
5
2B1
100
AcDbEntity
8
STANDOFF_HOLES
6
ByLayer
62
256
370
-1
100
AcDbLine
10
7.01018415338
20
13.9757438824
11
7.01512114365
21
13.9689038959
0
LINE
5
2B2
100
AcDbEntity
8
STANDOFF_HOLES
6
ByLayer
62
256
370
-1
100
AcDbLine
10
7.01512114365
20
13.9689038959
11
7.01919033563
21
13.9615839104
0
LINE
5
2B3
100
AcDbEntity
8
STANDOFF_HOLES
6
ByLayer
62
256
370
-1
100
AcDbLine
10
7.01919033563
20
13.9615839104
11
7.02228282953
21
13.9537139259
0
LINE
5
2B4
100
AcDbEntity
8
STANDOFF_HOLES
6
ByLayer
62
256
370
-1
100
AcDbLine
10
7.02228282953
20
13.9537139259
11
7.02439872536
21
13.9456339418
0
LINE
5
2B5
100
AcDbEntity
8
STANDOFF_HOLES
6
ByLayer
62
256
370
-1
100
AcDbLine
10
7.02439872536
20
13.9456339418
11
7.02542952333
21
13.9372839582
0
LINE
5
2B6
100
AcDbEntity
8
STANDOFF_HOLES
6
ByLayer
62
256
370
-1
100
AcDbLine
10
7.02542952333
20
13.9372839582
11
7.02542952333
21
13.9288639748
0
LINE
5
2B7
100
AcDbEntity
8
STANDOFF_HOLES
6
ByLayer
62
256
370
-1
100
AcDbLine
10
7.02542952333
20
13.9288639748
11
7.02434452547
21
13.9205039913
0
LINE
5
2B8
100
AcDbEntity
8
STANDOFF_HOLES
6
ByLayer
62
256
370
-1
100
AcDbLine
10
7.02439872536
20
13.9205039913
11
7.02228282953
21
13.9123740073
0
LINE
5
2B9
100
AcDbEntity
8
STANDOFF_HOLES
6
ByLayer
62
256
370
-1
100
AcDbLine
10
7.02228282953
20
13.9123740073
11
7.01919033563
21
13.9045640227
0
LINE
5
2BA
100
AcDbEntity
8
STANDOFF_HOLES
6
ByLayer
62
256
370
-1
100
AcDbLine
10
7.01919033563
20
13.9045640227
11
7.01512114365
21
13.8971840373
0
LINE
5
2BB
100
AcDbEntity
8
STANDOFF_HOLES
6
ByLayer
62
256
370
-1
100
AcDbLine
10
7.01512114365
20
13.8971840373
11
7.01018415338
21
13.8904040507
0
LINE
5
2BC
100
AcDbEntity
8
STANDOFF_HOLES
6
ByLayer
62
256
370
-1
100
AcDbLine
10
7.01018415338
20
13.8904040507
11
7.00443316471
21
13.8842640628
0
LINE
5
2BD
100
AcDbEntity
8
STANDOFF_HOLES
6
ByLayer
62
256
370
-1
100
AcDbLine
10
7.00443316471
20
13.8842640628
11
6.99797717744
21
13.8789440732
0
LINE
5
2BE
100
AcDbEntity
8
STANDOFF_HOLES
6
ByLayer
62
256
370
-1
100
AcDbLine
10
6.99797717744
20
13.8789440732
11
6.99087019145
21
13.8743940822
0
LINE
5
2BF
100
AcDbEntity
8
STANDOFF_HOLES
6
ByLayer
62
256
370
-1
100
AcDbLine
10
6.99087019145
20
13.8743940822
11
6.98327420642
21
13.8708140893
0
LINE
5
2C0
100
AcDbEntity
8
STANDOFF_HOLES
6
ByLayer
62
256
370
-1
100
AcDbLine
10
6.98327420642
20
13.8708140893
11
6.97529922214
21
13.8682140944
0
LINE
5
2C1
100
AcDbEntity
8
STANDOFF_HOLES
6
ByLayer
62
256
370
-1
100
AcDbLine
10
6.97529922214
20
13.8682140944
11
6.9669992385
21
13.8666440975
0
LINE
5
2C2
100
AcDbEntity
8
STANDOFF_HOLES
6
ByLayer
62
256
370
-1
100
AcDbLine
10
6.9669992385
20
13.8666440975
11
6.95864425497
21
13.8661440985
0
LINE
5
2C3
100
AcDbEntity
8
STANDOFF_HOLES
6
ByLayer
62
256
370
-1
100
AcDbLine
10
1.15743968968
20
13.8661440985
11
1.14907970618
21
13.8666440975
0
LINE
5
2C4
100
AcDbEntity
8
STANDOFF_HOLES
6
ByLayer
62
256
370
-1
100
AcDbLine
10
1.14907970618
20
13.8666440975
11
1.14077972252
21
13.8682140944
0
LINE
5
2C5
100
AcDbEntity
8
STANDOFF_HOLES
6
ByLayer
62
256
370
-1
100
AcDbLine
10
1.14077972252
20
13.8682140944
11
1.13280973823
21
13.8708140893
0
LINE
5
2C6
100
AcDbEntity
8
STANDOFF_HOLES
6
ByLayer
62
256
370
-1
100
AcDbLine
10
1.13280973823
20
13.8708140893
11
1.12520975323
21
13.8743940822
0
LINE
5
2C7
100
AcDbEntity
8
STANDOFF_HOLES
6
ByLayer
62
256
370
-1
100
AcDbLine
10
1.12520975323
20
13.8743940822
11
1.1181097672
21
13.8789440732
0
LINE
5
2C8
100
AcDbEntity
8
STANDOFF_HOLES
6
ByLayer
62
256
370
-1
100
AcDbLine
10
1.1181097672
20
13.8789440732
11
1.11164977992
21
13.8842640628
0
LINE
5
2C9
100
AcDbEntity
8
STANDOFF_HOLES
6
ByLayer
62
256
370
-1
100
AcDbLine
10
1.11164977992
20
13.8842640628
11
1.10589979126
21
13.8904040507
0
LINE
5
2CA
100
AcDbEntity
8
STANDOFF_HOLES
6
ByLayer
62
256
370
-1
100
AcDbLine
10
1.10589979126
20
13.8904040507
11
1.10095980102
21
13.8971840373
0
LINE
5
2CB
100
AcDbEntity
8
STANDOFF_HOLES
6
ByLayer
62
256
370
-1
100
AcDbLine
10
1.10095980102
20
13.8971840373
11
1.09688980902
21
13.9045640227
0
LINE
5
2CC
100
AcDbEntity
8
STANDOFF_HOLES
6
ByLayer
62
256
370
-1
100
AcDbLine
10
1.09688980902
20
13.9045640227
11
1.09380981512
21
13.9123740073
0
LINE
5
2CD
100
AcDbEntity
8
STANDOFF_HOLES
6
ByLayer
62
256
370
-1
100
AcDbLine
10
1.09380981512
20
13.9123740073
11
1.09167981929
21
13.9205039913
0
LINE
5
2CE
100
AcDbEntity
8
STANDOFF_HOLES
6
ByLayer
62
256
370
-1
100
AcDbLine
10
1.09167981929
20
13.9205039913
11
1.09064982134
21
13.9288639748
0
LINE
5
2CF
100
AcDbEntity
8
STANDOFF_HOLES
6
ByLayer
62
256
370
-1
100
AcDbLine
10
1.09064982134
20
13.9288639748
11
1.09064982134
21
13.9372839582
0
LINE
5
2D0
100
AcDbEntity
8
STANDOFF_HOLES
6
ByLayer
62
256
370
-1
100
AcDbLine
10
1.09064982134
20
13.9372839582
11
1.09167981929
21
13.9456339418
0
LINE
5
2D1
100
AcDbEntity
8
STANDOFF_HOLES
6
ByLayer
62
256
370
-1
100
AcDbLine
10
1.09167981929
20
13.9456339418
11
1.09380981512
21
13.9537139259
0
LINE
5
2D2
100
AcDbEntity
8
STANDOFF_HOLES
6
ByLayer
62
256
370
-1
100
AcDbLine
10
1.09380981512
20
13.9537139259
11
1.09688980902
21
13.9615839104
0
LINE
5
2D3
100
AcDbEntity
8
STANDOFF_HOLES
6
ByLayer
62
256
370
-1
100
AcDbLine
10
1.09688980902
20
13.9615839104
11
1.10095980102
21
13.9689038959
0
LINE
5
2D4
100
AcDbEntity
8
STANDOFF_HOLES
6
ByLayer
62
256
370
-1
100
AcDbLine
10
1.10095980102
20
13.9689038959
11
1.10589979126
21
13.9757438824
0
LINE
5
2D5
100
AcDbEntity
8
STANDOFF_HOLES
6
ByLayer
62
256
370
-1
100
AcDbLine
10
1.10589979126
20
13.9757438824
11
1.11164977992
21
13.9818238704
0
LINE
5
2D6
100
AcDbEntity
8
STANDOFF_HOLES
6
ByLayer
62
256
370
-1
100
AcDbLine
10
1.11164977992
20
13.9818238704
11
1.1181097672
21
13.9871838599
0
LINE
5
2D7
100
AcDbEntity
8
STANDOFF_HOLES
6
ByLayer
62
256
370
-1
100
AcDbLine
10
1.1181097672
20
13.9871838599
11
1.12520975323
21
13.9917438509
0
LINE
5
2D8
100
AcDbEntity
8
STANDOFF_HOLES
6
ByLayer
62
256
370
-1
100
AcDbLine
10
1.12520975323
20
13.9917438509
11
1.13280973823
21
13.9953238439
0
LINE
5
2D9
100
AcDbEntity
8
STANDOFF_HOLES
6
ByLayer
62
256
370
-1
100
AcDbLine
10
1.13280973823
20
13.9953238439
11
1.14077972252
21
13.9978738388
0
LINE
5
2DA
100
AcDbEntity
8
STANDOFF_HOLES
6
ByLayer
62
256
370
-1
100
AcDbLine
10
1.14077972252
20
13.9978738388
11
1.14907970618
21
13.9995038356
0
LINE
5
2DB
100
AcDbEntity
8
STANDOFF_HOLES
6
ByLayer
62
256
370
-1
100
AcDbLine
10
1.14907970618
20
13.9995038356
11
1.15743968968
21
13.9999938347
0
LINE
5
2DC
100
AcDbEntity
8
STANDOFF_HOLES
6
ByLayer
62
256
370
-1
100
AcDbLine
10
1.15743968968
20
13.9999938347
11
1.16584967311
21
13.9994438357
0
LINE
5
2DD
100
AcDbEntity
8
STANDOFF_HOLES
6
ByLayer
62
256
370
-1
100
AcDbLine
10
1.16584967311
20
13.9995038356
11
1.17409965685
21
13.9978738388
0
LINE
5
2DE
100
AcDbEntity
8
STANDOFF_HOLES
6
ByLayer
62
256
370
-1
100
AcDbLine
10
1.17409965685
20
13.9978738388
11
1.18211964102
21
13.9953238439
0
LINE
5
2DF
100
AcDbEntity
8
STANDOFF_HOLES
6
ByLayer
62
256
370
-1
100
AcDbLine
10
1.18211964102
20
13.9953238439
11
1.18971962606
21
13.9917438509
0
LINE
5
2E0
100
AcDbEntity
8
STANDOFF_HOLES
6
ByLayer
62
256
370
-1
100
AcDbLine
10
1.18971962606
20
13.9917438509
11
1.19677961213
21
13.9871838599
0
LINE
5
2E1
100
AcDbEntity
8
STANDOFF_HOLES
6
ByLayer
62
256
370
-1
100
AcDbLine
10
1.19677961213
20
13.9871838599
11
1.20327959933
21
13.9818238704
0
LINE
5
2E2
100
AcDbEntity
8
STANDOFF_HOLES
6
ByLayer
62
256
370
-1
100
AcDbLine
10
1.20327959933
20
13.9818238704
11
1.20903958799
21
13.9757438824
0
LINE
5
2E3
100
AcDbEntity
8
STANDOFF_HOLES
6
ByLayer
62
256
370
-1
100
AcDbLine
10
1.20903958799
20
13.9757438824
11
1.21396957827
21
13.9689038959
0
LINE
5
2E4
100
AcDbEntity
8
STANDOFF_HOLES
6
ByLayer
62
256
370
-1
100
AcDbLine
10
1.21396957827
20
13.9689038959
11
1.21798957031
21
13.9615839104
0
LINE
5
2E5
100
AcDbEntity
8
STANDOFF_HOLES
6
ByLayer
62
256
370
-1
100
AcDbLine
10
1.21798957031
20
13.9615839104
11
1.22113956413
21
13.9537139259
0
LINE
5
2E6
100
AcDbEntity
8
STANDOFF_HOLES
6
ByLayer
62
256
370
-1
100
AcDbLine
10
1.22113956413
20
13.9537139259
11
1.22318956008
21
13.9456339418
0
LINE
5
2E7
100
AcDbEntity
8
STANDOFF_HOLES
6
ByLayer
62
256
370
-1
100
AcDbLine
10
1.22318956008
20
13.9456339418
11
1.22427955795
21
13.9372839582
0
LINE
5
2E8
100
AcDbEntity
8
STANDOFF_HOLES
6
ByLayer
62
256
370
-1
100
AcDbLine
10
1.22427955795
20
13.9372839582
11
1.22427955795
21
13.9288639748
0
LINE
5
2E9
100
AcDbEntity
8
STANDOFF_HOLES
6
ByLayer
62
256
370
-1
100
AcDbLine
10
1.22427955795
20
13.9288639748
11
1.22318956008
21
13.9205039913
0
LINE
5
2EA
100
AcDbEntity
8
STANDOFF_HOLES
6
ByLayer
62
256
370
-1
100
AcDbLine
10
1.22318956008
20
13.9205039913
11
1.22113956413
21
13.9123740073
0
LINE
5
2EB
100
AcDbEntity
8
STANDOFF_HOLES
6
ByLayer
62
256
370
-1
100
AcDbLine
10
1.22113956413
20
13.9123740073
11
1.21798957031
21
13.9045640227
0
LINE
5
2EC
100
AcDbEntity
8
STANDOFF_HOLES
6
ByLayer
62
256
370
-1
100
AcDbLine
10
1.21798957031
20
13.9045640227
11
1.21396957827
21
13.8971840373
0
LINE
5
2ED
100
AcDbEntity
8
STANDOFF_HOLES
6
ByLayer
62
256
370
-1
100
AcDbLine
10
1.21396957827
20
13.8971840373
11
1.20903958799
21
13.8904040507
0
LINE
5
2EE
100
AcDbEntity
8
STANDOFF_HOLES
6
ByLayer
62
256
370
-1
100
AcDbLine
10
1.20903958799
20
13.8904040507
11
1.20327959933
21
13.8842640628
0
LINE
5
2EF
100
AcDbEntity
8
STANDOFF_HOLES
6
ByLayer
62
256
370
-1
100
AcDbLine
10
1.20327959933
20
13.8842640628
11
1.19677961213
21
13.8789440732
0
LINE
5
2F0
100
AcDbEntity
8
STANDOFF_HOLES
6
ByLayer
62
256
370
-1
100
AcDbLine
10
1.19677961213
20
13.8789440732
11
1.18971962606
21
13.8743940822
0
LINE
5
2F1
100
AcDbEntity
8
STANDOFF_HOLES
6
ByLayer
62
256
370
-1
100
AcDbLine
10
1.18971962606
20
13.8743940822
11
1.18211964102
21
13.8708140893
0
LINE
5
2F2
100
AcDbEntity
8
STANDOFF_HOLES
6
ByLayer
62
256
370
-1
100
AcDbLine
10
1.18211964102
20
13.8708140893
11
1.17409965685
21
13.8682140944
0
LINE
5
2F3
100
AcDbEntity
8
STANDOFF_HOLES
6
ByLayer
62
256
370
-1
100
AcDbLine
10
1.17409965685
20
13.8682140944
11
1.16584967311
21
13.8666440975
0
LINE
5
2F4
100
AcDbEntity
8
STANDOFF_HOLES
6
ByLayer
62
256
370
-1
100
AcDbLine
10
1.16584967311
20
13.8666440975
11
1.15743968968
21
13.8661440985
0
LINE
5
2F5
100
AcDbEntity
8
STANDOFF_HOLES
6
ByLayer
62
256
370
-1
100
AcDbLine
10
6.95864425497
20
17.6416866565
11
6.95023427154
21
17.6422366554
0
LINE
5
2F6
100
AcDbEntity
8
STANDOFF_HOLES
6
ByLayer
62
256
370
-1
100
AcDbLine
10
6.95023427154
20
17.6422366554
11
6.9419882878
21
17.6438166523
0
LINE
5
2F7
100
AcDbEntity
8
STANDOFF_HOLES
6
ByLayer
62
256
370
-1
100
AcDbLine
10
6.9419882878
20
17.6438166523
11
6.93395730363
21
17.6464166472
0
LINE
5
2F8
100
AcDbEntity
8
STANDOFF_HOLES
6
ByLayer
62
256
370
-1
100
AcDbLine
10
6.93395730363
20
17.6464166472
11
6.9263633186
21
17.6499966401
0
LINE
5
2F9
100
AcDbEntity
8
STANDOFF_HOLES
6
ByLayer
62
256
370
-1
100
AcDbLine
10
6.9263633186
20
17.6499966401
11
6.9193103325
21
17.6544966313
0
LINE
5
2FA
100
AcDbEntity
8
STANDOFF_HOLES
6
ByLayer
62
256
370
-1
100
AcDbLine
10
6.9193103325
20
17.6544966313
11
6.91279934533
21
17.6598766207
0
LINE
5
2FB
100
AcDbEntity
8
STANDOFF_HOLES
6
ByLayer
62
256
370
-1
100
AcDbLine
10
6.91279934533
20
17.6598766207
11
6.90704835667
21
17.6659366087
0
LINE
5
2FC
100
AcDbEntity
8
STANDOFF_HOLES
6
ByLayer
62
256
370
-1
100
AcDbLine
10
6.90704835667
20
17.6659366087
11
6.9021123664
21
17.6727865952
0
LINE
5
2FD
100
AcDbEntity
8
STANDOFF_HOLES
6
ByLayer
62
256
370
-1
100
AcDbLine
10
6.9021123664
20
17.6727865952
11
6.89809637431
21
17.6801665807
0
LINE
5
2FE
100
AcDbEntity
8
STANDOFF_HOLES
6
ByLayer
62
256
370
-1
100
AcDbLine
10
6.89809637431
20
17.6801665807
11
6.89494938052
21
17.6879665653
0
LINE
5
2FF
100
AcDbEntity
8
STANDOFF_HOLES
6
ByLayer
62
256
370
-1
100
AcDbLine
10
6.89494938052
20
17.6879665653
11
6.89288838458
21
17.6960565493
0
LINE
5
300
100
AcDbEntity
8
STANDOFF_HOLES
6
ByLayer
62
256
370
-1
100
AcDbLine
10
6.89288838458
20
17.6960565493
11
6.89180338672
21
17.7044165329
0
LINE
5
301
100
AcDbEntity
8
STANDOFF_HOLES
6
ByLayer
62
256
370
-1
100
AcDbLine
10
6.89180338672
20
17.7044165329
11
6.89180338672
21
17.7128665162
0
LINE
5
302
100
AcDbEntity
8
STANDOFF_HOLES
6
ByLayer
62
256
370
-1
100
AcDbLine
10
6.89180338672
20
17.7128665162
11
6.89288838458
21
17.7211764998
0
LINE
5
303
100
AcDbEntity
8
STANDOFF_HOLES
6
ByLayer
62
256
370
-1
100
AcDbLine
10
6.89288838458
20
17.7211764998
11
6.89494938052
21
17.7293164838
0
LINE
5
304
100
AcDbEntity
8
STANDOFF_HOLES
6
ByLayer
62
256
370
-1
100
AcDbLine
10
6.89494938052
20
17.7293164838
11
6.89809637431
21
17.7371264684
0
LINE
5
305
100
AcDbEntity
8
STANDOFF_HOLES
6
ByLayer
62
256
370
-1
100
AcDbLine
10
6.89809637431
20
17.7371264684
11
6.9021123664
21
17.7445064539
0
LINE
5
306
100
AcDbEntity
8
STANDOFF_HOLES
6
ByLayer
62
256
370
-1
100
AcDbLine
10
6.9021123664
20
17.7445064539
11
6.90704835667
21
17.7513464404
0
LINE
5
307
100
AcDbEntity
8
STANDOFF_HOLES
6
ByLayer
62
256
370
-1
100
AcDbLine
10
6.90704835667
20
17.7513464404
11
6.91279934533
21
17.7574164284
0
LINE
5
308
100
AcDbEntity
8
STANDOFF_HOLES
6
ByLayer
62
256
370
-1
100
AcDbLine
10
6.91279934533
20
17.7574164284
11
6.9193103325
21
17.7627864178
0
LINE
5
309
100
AcDbEntity
8
STANDOFF_HOLES
6
ByLayer
62
256
370
-1
100
AcDbLine
10
6.9193103325
20
17.7627864178
11
6.9263633186
21
17.7672864089
0
LINE
5
30A
100
AcDbEntity
8
STANDOFF_HOLES
6
ByLayer
62
256
370
-1
100
AcDbLine
10
6.9263633186
20
17.7672864089
11
6.93395730363
21
17.7708764019
0
LINE
5
30B
100
AcDbEntity
8
STANDOFF_HOLES
6
ByLayer
62
256
370
-1
100
AcDbLine
10
6.93395730363
20
17.7708764019
11
6.9419882878
21
17.7734863967
0
LINE
5
30C
100
AcDbEntity
8
STANDOFF_HOLES
6
ByLayer
62
256
370
-1
100
AcDbLine
10
6.9419882878
20
17.7734863967
11
6.95023427154
21
17.7750563936
0
LINE
5
30D
100
AcDbEntity
8
STANDOFF_HOLES
6
ByLayer
62
256
370
-1
100
AcDbLine
10
6.95023427154
20
17.7750563936
11
6.95864425497
21
17.7755963926
0
LINE
5
30E
100
AcDbEntity
8
STANDOFF_HOLES
6
ByLayer
62
256
370
-1
100
AcDbLine
10
6.95864425497
20
17.7755963926
11
6.9669992385
21
17.7750563936
0
LINE
5
30F
100
AcDbEntity
8
STANDOFF_HOLES
6
ByLayer
62
256
370
-1
100
AcDbLine
10
6.9669992385
20
17.7750563936
11
6.97529922214
21
17.7734863967
0
LINE
5
310
100
AcDbEntity
8
STANDOFF_HOLES
6
ByLayer
62
256
370
-1
100
AcDbLine
10
6.97529922214
20
17.7734863967
11
6.98327420642
21
17.7708764019
0
LINE
5
311
100
AcDbEntity
8
STANDOFF_HOLES
6
ByLayer
62
256
370
-1
100
AcDbLine
10
6.98327420642
20
17.7708764019
11
6.99087019145
21
17.7672864089
0
LINE
5
312
100
AcDbEntity
8
STANDOFF_HOLES
6
ByLayer
62
256
370
-1
100
AcDbLine
10
6.99087019145
20
17.7672864089
11
6.99797717744
21
17.7627864178
0
LINE
5
313
100
AcDbEntity
8
STANDOFF_HOLES
6
ByLayer
62
256
370
-1
100
AcDbLine
10
6.99797717744
20
17.7627864178
11
7.00443316471
21
17.7574164284
0
LINE
5
314
100
AcDbEntity
8
STANDOFF_HOLES
6
ByLayer
62
256
370
-1
100
AcDbLine
10
7.00443316471
20
17.7574164284
11
7.01018415338
21
17.7513464404
0
LINE
5
315
100
AcDbEntity
8
STANDOFF_HOLES
6
ByLayer
62
256
370
-1
100
AcDbLine
10
7.01018415338
20
17.7513464404
11
7.01512114365
21
17.7445064539
0
LINE
5
316
100
AcDbEntity
8
STANDOFF_HOLES
6
ByLayer
62
256
370
-1
100
AcDbLine
10
7.01512114365
20
17.7445064539
11
7.01919033563
21
17.7371264684
0
LINE
5
317
100
AcDbEntity
8
STANDOFF_HOLES
6
ByLayer
62
256
370
-1
100
AcDbLine
10
7.01919033563
20
17.7371264684
11
7.02228282953
21
17.7293164838
0
LINE
5
318
100
AcDbEntity
8
STANDOFF_HOLES
6
ByLayer
62
256
370
-1
100
AcDbLine
10
7.02228282953
20
17.7293164838
11
7.02439872536
21
17.7211764998
0
LINE
5
319
100
AcDbEntity
8
STANDOFF_HOLES
6
ByLayer
62
256
370
-1
100
AcDbLine
10
7.02439872536
20
17.7211764998
11
7.02542952333
21
17.7128665162
0
LINE
5
31A
100
AcDbEntity
8
STANDOFF_HOLES
6
ByLayer
62
256
370
-1
100
AcDbLine
10
7.02542952333
20
17.7128665162
11
7.02542952333
21
17.7044165329
0
LINE
5
31B
100
AcDbEntity
8
STANDOFF_HOLES
6
ByLayer
62
256
370
-1
100
AcDbLine
10
7.02542952333
20
17.7044165329
11
7.02434452547
21
17.6960565493
0
LINE
5
31C
100
AcDbEntity
8
STANDOFF_HOLES
6
ByLayer
62
256
370
-1
100
AcDbLine
10
7.02439872536
20
17.6960565493
11
7.02228282953
21
17.6879665653
0
LINE
5
31D
100
AcDbEntity
8
STANDOFF_HOLES
6
ByLayer
62
256
370
-1
100
AcDbLine
10
7.02228282953
20
17.6879665653
11
7.01919033563
21
17.6801665807
0
LINE
5
31E
100
AcDbEntity
8
STANDOFF_HOLES
6
ByLayer
62
256
370
-1
100
AcDbLine
10
7.01919033563
20
17.6801665807
11
7.01512114365
21
17.6727865952
0
LINE
5
31F
100
AcDbEntity
8
STANDOFF_HOLES
6
ByLayer
62
256
370
-1
100
AcDbLine
10
7.01512114365
20
17.6727865952
11
7.01018415338
21
17.6659366087
0
LINE
5
320
100
AcDbEntity
8
STANDOFF_HOLES
6
ByLayer
62
256
370
-1
100
AcDbLine
10
7.01018415338
20
17.6659366087
11
7.00443316471
21
17.6598766207
0
LINE
5
321
100
AcDbEntity
8
STANDOFF_HOLES
6
ByLayer
62
256
370
-1
100
AcDbLine
10
7.00443316471
20
17.6598766207
11
6.99797717744
21
17.6544966313
0
LINE
5
322
100
AcDbEntity
8
STANDOFF_HOLES
6
ByLayer
62
256
370
-1
100
AcDbLine
10
6.99797717744
20
17.6544966313
11
6.99087019145
21
17.6499966401
0
LINE
5
323
100
AcDbEntity
8
STANDOFF_HOLES
6
ByLayer
62
256
370
-1
100
AcDbLine
10
6.99087019145
20
17.6499966401
11
6.98327420642
21
17.6464166472
0
LINE
5
324
100
AcDbEntity
8
STANDOFF_HOLES
6
ByLayer
62
256
370
-1
100
AcDbLine
10
6.98327420642
20
17.6464166472
11
6.97529922214
21
17.6438166523
0
LINE
5
325
100
AcDbEntity
8
STANDOFF_HOLES
6
ByLayer
62
256
370
-1
100
AcDbLine
10
6.97529922214
20
17.6438166523
11
6.9669992385
21
17.6422366554
0
LINE
5
326
100
AcDbEntity
8
STANDOFF_HOLES
6
ByLayer
62
256
370
-1
100
AcDbLine
10
6.9669992385
20
17.6422366554
11
6.95864425497
21
17.6416866565
0
LINE
5
327
100
AcDbEntity
8
STANDOFF_HOLES
6
ByLayer
62
256
370
-1
100
AcDbLine
10
1.09688980902
20
17.6801665807
11
1.09380981512
21
17.6879665653
0
LINE
5
328
100
AcDbEntity
8
STANDOFF_HOLES
6
ByLayer
62
256
370
-1
100
AcDbLine
10
1.09380981512
20
17.6879665653
11
1.09167981929
21
17.6960565493
0
LINE
5
329
100
AcDbEntity
8
STANDOFF_HOLES
6
ByLayer
62
256
370
-1
100
AcDbLine
10
1.09167981929
20
17.6960565493
11
1.09064982134
21
17.7044165329
0
LINE
5
32A
100
AcDbEntity
8
STANDOFF_HOLES
6
ByLayer
62
256
370
-1
100
AcDbLine
10
1.09064982134
20
17.7044165329
11
1.09064982134
21
17.7128665162
0
LINE
5
32B
100
AcDbEntity
8
STANDOFF_HOLES
6
ByLayer
62
256
370
-1
100
AcDbLine
10
1.09064982134
20
17.7128665162
11
1.09167981929
21
17.7211764998
0
LINE
5
32C
100
AcDbEntity
8
STANDOFF_HOLES
6
ByLayer
62
256
370
-1
100
AcDbLine
10
1.09167981929
20
17.7211764998
11
1.09380981512
21
17.7293164838
0
LINE
5
32D
100
AcDbEntity
8
STANDOFF_HOLES
6
ByLayer
62
256
370
-1
100
AcDbLine
10
1.09380981512
20
17.7293164838
11
1.09688980902
21
17.7371264684
0
LINE
5
32E
100
AcDbEntity
8
STANDOFF_HOLES
6
ByLayer
62
256
370
-1
100
AcDbLine
10
1.09688980902
20
17.7371264684
11
1.10095980102
21
17.7445064539
0
LINE
5
32F
100
AcDbEntity
8
STANDOFF_HOLES
6
ByLayer
62
256
370
-1
100
AcDbLine
10
1.10095980102
20
17.7445064539
11
1.10589979126
21
17.7513464404
0
LINE
5
330
100
AcDbEntity
8
STANDOFF_HOLES
6
ByLayer
62
256
370
-1
100
AcDbLine
10
1.10589979126
20
17.7513464404
11
1.11164977992
21
17.7574164284
0
LINE
5
331
100
AcDbEntity
8
STANDOFF_HOLES
6
ByLayer
62
256
370
-1
100
AcDbLine
10
1.11164977992
20
17.7574164284
11
1.1181097672
21
17.7627864178
0
LINE
5
332
100
AcDbEntity
8
STANDOFF_HOLES
6
ByLayer
62
256
370
-1
100
AcDbLine
10
1.1181097672
20
17.7627864178
11
1.12520975323
21
17.7672864089
0
LINE
5
333
100
AcDbEntity
8
STANDOFF_HOLES
6
ByLayer
62
256
370
-1
100
AcDbLine
10
1.12520975323
20
17.7672864089
11
1.13280973823
21
17.7708764019
0
LINE
5
334
100
AcDbEntity
8
STANDOFF_HOLES
6
ByLayer
62
256
370
-1
100
AcDbLine
10
1.13280973823
20
17.7708764019
11
1.14077972252
21
17.7734863967
0
LINE
5
335
100
AcDbEntity
8
STANDOFF_HOLES
6
ByLayer
62
256
370
-1
100
AcDbLine
10
1.14077972252
20
17.7734863967
11
1.14907970618
21
17.7750563936
0
LINE
5
336
100
AcDbEntity
8
STANDOFF_HOLES
6
ByLayer
62
256
370
-1
100
AcDbLine
10
1.14907970618
20
17.7750563936
11
1.15743968968
21
17.7755963926
0
LINE
5
337
100
AcDbEntity
8
STANDOFF_HOLES
6
ByLayer
62
256
370
-1
100
AcDbLine
10
1.15743968968
20
17.7755963926
11
1.16584967311
21
17.7750563936
0
LINE
5
338
100
AcDbEntity
8
STANDOFF_HOLES
6
ByLayer
62
256
370
-1
100
AcDbLine
10
1.16584967311
20
17.7750563936
11
1.17409965685
21
17.7734863967
0
LINE
5
339
100
AcDbEntity
8
STANDOFF_HOLES
6
ByLayer
62
256
370
-1
100
AcDbLine
10
1.17409965685
20
17.7734863967
11
1.18211964102
21
17.7708764019
0
LINE
5
33A
100
AcDbEntity
8
STANDOFF_HOLES
6
ByLayer
62
256
370
-1
100
AcDbLine
10
1.18211964102
20
17.7708764019
11
1.18971962606
21
17.7672864089
0
LINE
5
33B
100
AcDbEntity
8
STANDOFF_HOLES
6
ByLayer
62
256
370
-1
100
AcDbLine
10
1.18971962606
20
17.7672864089
11
1.19677961213
21
17.7627864178
0
LINE
5
33C
100
AcDbEntity
8
STANDOFF_HOLES
6
ByLayer
62
256
370
-1
100
AcDbLine
10
1.19677961213
20
17.7627864178
11
1.20327959933
21
17.7574164284
0
LINE
5
33D
100
AcDbEntity
8
STANDOFF_HOLES
6
ByLayer
62
256
370
-1
100
AcDbLine
10
1.20327959933
20
17.7574164284
11
1.20903958799
21
17.7513464404
0
LINE
5
33E
100
AcDbEntity
8
STANDOFF_HOLES
6
ByLayer
62
256
370
-1
100
AcDbLine
10
1.20903958799
20
17.7513464404
11
1.21396957827
21
17.7445064539
0
LINE
5
33F
100
AcDbEntity
8
STANDOFF_HOLES
6
ByLayer
62
256
370
-1
100
AcDbLine
10
1.21396957827
20
17.7445064539
11
1.21798957031
21
17.7371264684
0
LINE
5
340
100
AcDbEntity
8
STANDOFF_HOLES
6
ByLayer
62
256
370
-1
100
AcDbLine
10
1.21798957031
20
17.7371264684
11
1.22113956413
21
17.7293164838
0
LINE
5
341
100
AcDbEntity
8
STANDOFF_HOLES
6
ByLayer
62
256
370
-1
100
AcDbLine
10
1.22113956413
20
17.7293164838
11
1.22318956008
21
17.7211764998
0
LINE
5
342
100
AcDbEntity
8
STANDOFF_HOLES
6
ByLayer
62
256
370
-1
100
AcDbLine
10
1.22318956008
20
17.7211764998
11
1.22427955795
21
17.7128665162
0
LINE
5
343
100
AcDbEntity
8
STANDOFF_HOLES
6
ByLayer
62
256
370
-1
100
AcDbLine
10
1.22427955795
20
17.7128665162
11
1.22427955795
21
17.7044165329
0
LINE
5
344
100
AcDbEntity
8
STANDOFF_HOLES
6
ByLayer
62
256
370
-1
100
AcDbLine
10
1.22427955795
20
17.7044165329
11
1.22318956008
21
17.6960565493
0
LINE
5
345
100
AcDbEntity
8
STANDOFF_HOLES
6
ByLayer
62
256
370
-1
100
AcDbLine
10
1.22318956008
20
17.6960565493
11
1.22113956413
21
17.6879665653
0
LINE
5
346
100
AcDbEntity
8
STANDOFF_HOLES
6
ByLayer
62
256
370
-1
100
AcDbLine
10
1.22113956413
20
17.6879665653
11
1.21798957031
21
17.6801665807
0
LINE
5
347
100
AcDbEntity
8
STANDOFF_HOLES
6
ByLayer
62
256
370
-1
100
AcDbLine
10
1.15743968968
20
17.6416866565
11
1.14907970618
21
17.6422366554
0
LINE
5
348
100
AcDbEntity
8
STANDOFF_HOLES
6
ByLayer
62
256
370
-1
100
AcDbLine
10
1.14907970618
20
17.6422366554
11
1.14077972252
21
17.6438166523
0
LINE
5
349
100
AcDbEntity
8
STANDOFF_HOLES
6
ByLayer
62
256
370
-1
100
AcDbLine
10
1.14077972252
20
17.6438166523
11
1.13280973823
21
17.6464166472
0
LINE
5
34A
100
AcDbEntity
8
STANDOFF_HOLES
6
ByLayer
62
256
370
-1
100
AcDbLine
10
1.13280973823
20
17.6464166472
11
1.12520975323
21
17.6499966401
0
LINE
5
34B
100
AcDbEntity
8
STANDOFF_HOLES
6
ByLayer
62
256
370
-1
100
AcDbLine
10
1.12520975323
20
17.6499966401
11
1.1181097672
21
17.6544966313
0
LINE
5
34C
100
AcDbEntity
8
STANDOFF_HOLES
6
ByLayer
62
256
370
-1
100
AcDbLine
10
1.1181097672
20
17.6544966313
11
1.11164977992
21
17.6598766207
0
LINE
5
34D
100
AcDbEntity
8
STANDOFF_HOLES
6
ByLayer
62
256
370
-1
100
AcDbLine
10
1.11164977992
20
17.6598766207
11
1.10589979126
21
17.6659366087
0
LINE
5
34E
100
AcDbEntity
8
STANDOFF_HOLES
6
ByLayer
62
256
370
-1
100
AcDbLine
10
1.10589979126
20
17.6659366087
11
1.10095980102
21
17.6727865952
0
LINE
5
34F
100
AcDbEntity
8
STANDOFF_HOLES
6
ByLayer
62
256
370
-1
100
AcDbLine
10
1.10095980102
20
17.6727865952
11
1.09688980902
21
17.6801665807
0
LINE
5
350
100
AcDbEntity
8
STANDOFF_HOLES
6
ByLayer
62
256
370
-1
100
AcDbLine
10
1.21798957031
20
17.6801665807
11
1.21396957827
21
17.6727865952
0
LINE
5
351
100
AcDbEntity
8
STANDOFF_HOLES
6
ByLayer
62
256
370
-1
100
AcDbLine
10
1.21396957827
20
17.6727865952
11
1.20903958799
21
17.6659366087
0
LINE
5
352
100
AcDbEntity
8
STANDOFF_HOLES
6
ByLayer
62
256
370
-1
100
AcDbLine
10
1.20903958799
20
17.6659366087
11
1.20327959933
21
17.6598766207
0
LINE
5
353
100
AcDbEntity
8
STANDOFF_HOLES
6
ByLayer
62
256
370
-1
100
AcDbLine
10
1.20327959933
20
17.6598766207
11
1.19677961213
21
17.6544966313
0
LINE
5
354
100
AcDbEntity
8
STANDOFF_HOLES
6
ByLayer
62
256
370
-1
100
AcDbLine
10
1.19677961213
20
17.6544966313
11
1.18971962606
21
17.6499966401
0
LINE
5
355
100
AcDbEntity
8
STANDOFF_HOLES
6
ByLayer
62
256
370
-1
100
AcDbLine
10
1.18971962606
20
17.6499966401
11
1.18211964102
21
17.6464166472
0
LINE
5
356
100
AcDbEntity
8
STANDOFF_HOLES
6
ByLayer
62
256
370
-1
100
AcDbLine
10
1.18211964102
20
17.6464166472
11
1.17409965685
21
17.6438166523
0
LINE
5
357
100
AcDbEntity
8
STANDOFF_HOLES
6
ByLayer
62
256
370
-1
100
AcDbLine
10
1.17409965685
20
17.6438166523
11
1.16584967311
21
17.6422366554
0
LINE
5
358
100
AcDbEntity
8
STANDOFF_HOLES
6
ByLayer
62
256
370
-1
100
AcDbLine
10
1.16584967311
20
17.6422366554
11
1.15743968968
21
17.6416866565
0
LINE
5
359
100
AcDbEntity
8
WALL_SLOTS
6
ByLayer
62
256
370
-1
100
AcDbLine
10
6.80114556541
20
10.9361958737
11
6.68303579822
21
10.9361958737
0
LINE
5
35A
100
AcDbEntity
8
WALL_SLOTS
6
ByLayer
62
256
370
-1
100
AcDbLine
10
6.68303579822
20
10.9361958737
11
6.68303579822
21
11.3299090976
0
LINE
5
35B
100
AcDbEntity
8
WALL_SLOTS
6
ByLayer
62
256
370
-1
100
AcDbLine
10
6.68303579822
20
11.3299090976
11
6.80114556541
21
11.3299090976
0
LINE
5
35C
100
AcDbEntity
8
WALL_SLOTS
6
ByLayer
62
256
370
-1
100
AcDbLine
10
6.80114556541
20
11.3299090976
11
6.80114556541
21
10.9361958737
0
LINE
5
35D
100
AcDbEntity
8
WALL_SLOTS
6
ByLayer
62
256
370
-1
100
AcDbLine
10
1.43303914646
20
10.9361958737
11
1.31493937925
21
10.9361958737
0
LINE
5
35E
100
AcDbEntity
8
WALL_SLOTS
6
ByLayer
62
256
370
-1
100
AcDbLine
10
1.31493937925
20
10.9361958737
11
1.31493937925
21
11.3299090976
0
LINE
5
35F
100
AcDbEntity
8
WALL_SLOTS
6
ByLayer
62
256
370
-1
100
AcDbLine
10
1.31493937925
20
11.3299090976
11
1.43303914646
21
11.3299090976
0
LINE
5
360
100
AcDbEntity
8
WALL_SLOTS
6
ByLayer
62
256
370
-1
100
AcDbLine
10
1.43303914646
20
11.3299090976
11
1.43303914646
21
10.9361958737
0
LINE
5
361
100
AcDbEntity
8
WALL_SLOTS
6
ByLayer
62
256
370
-1
100
AcDbLine
10
6.80114556541
20
13.7362143546
11
6.68303579822
21
13.7362143546
0
LINE
5
362
100
AcDbEntity
8
WALL_SLOTS
6
ByLayer
62
256
370
-1
100
AcDbLine
10
6.68303579822
20
13.7362143546
11
6.68303579822
21
14.1299335785
0
LINE
5
363
100
AcDbEntity
8
WALL_SLOTS
6
ByLayer
62
256
370
-1
100
AcDbLine
10
6.68303579822
20
14.1299335785
11
6.80114556541
21
14.1299335785
0
LINE
5
364
100
AcDbEntity
8
WALL_SLOTS
6
ByLayer
62
256
370
-1
100
AcDbLine
10
6.80114556541
20
14.1299335785
11
6.80114556541
21
13.7362143546
0
LINE
5
365
100
AcDbEntity
8
WALL_SLOTS
6
ByLayer
62
256
370
-1
100
AcDbLine
10
1.43303914646
20
13.7362143546
11
1.31493937925
21
13.7362143546
0
LINE
5
366
100
AcDbEntity
8
WALL_SLOTS
6
ByLayer
62
256
370
-1
100
AcDbLine
10
1.31493937925
20
13.7362143546
11
1.31493937925
21
14.1299335785
0
LINE
5
367
100
AcDbEntity
8
WALL_SLOTS
6
ByLayer
62
256
370
-1
100
AcDbLine
10
1.31493937925
20
14.1299335785
11
1.43303914646
21
14.1299335785
0
LINE
5
368
100
AcDbEntity
8
WALL_SLOTS
6
ByLayer
62
256
370
-1
100
AcDbLine
10
1.43303914646
20
14.1299335785
11
1.43303914646
21
13.7362143546
0
LINE
5
369
100
AcDbEntity
8
WALL_SLOTS
6
ByLayer
62
256
370
-1
100
AcDbLine
10
5.5674209972
20
13.874014083
11
5.17366177333
21
13.874014083
0
LINE
5
36A
100
AcDbEntity
8
WALL_SLOTS
6
ByLayer
62
256
370
-1
100
AcDbLine
10
5.17366177333
20
13.874014083
11
5.17366177333
21
13.9921238502
0
LINE
5
36B
100
AcDbEntity
8
WALL_SLOTS
6
ByLayer
62
256
370
-1
100
AcDbLine
10
5.17366177333
20
13.9921238502
11
5.5674209972
21
13.9921238502
0
LINE
5
36C
100
AcDbEntity
8
WALL_SLOTS
6
ByLayer
62
256
370
-1
100
AcDbLine
10
5.5674209972
20
13.9921238502
11
5.5674209972
21
13.874014083
0
LINE
5
36D
100
AcDbEntity
8
WALL_SLOTS
6
ByLayer
62
256
370
-1
100
AcDbLine
10
2.9424261713
20
13.874014083
11
2.54866694744
21
13.874014083
0
LINE
5
36E
100
AcDbEntity
8
WALL_SLOTS
6
ByLayer
62
256
370
-1
100
AcDbLine
10
2.54866694744
20
13.874014083
11
2.54866694744
21
13.9921238502
0
LINE
5
36F
100
AcDbEntity
8
WALL_SLOTS
6
ByLayer
62
256
370
-1
100
AcDbLine
10
2.54866694744
20
13.9921238502
11
2.9424261713
21
13.9921238502
0
LINE
5
370
100
AcDbEntity
8
WALL_SLOTS
6
ByLayer
62
256
370
-1
100
AcDbLine
10
2.9424261713
20
13.9921238502
11
2.9424261713
21
13.874014083
0
LINE
5
371
100
AcDbEntity
8
WALL_SLOTS
6
ByLayer
62
256
370
-1
100
AcDbLine
10
6.80114556541
20
16.5362388355
11
6.68303579822
21
16.5362388355
0
LINE
5
372
100
AcDbEntity
8
WALL_SLOTS
6
ByLayer
62
256
370
-1
100
AcDbLine
10
6.68303579822
20
16.5362388355
11
6.68303579822
21
16.9298880595
0
LINE
5
373
100
AcDbEntity
8
WALL_SLOTS
6
ByLayer
62
256
370
-1
100
AcDbLine
10
6.68303579822
20
16.9298880595
11
6.80114556541
21
16.9298880595
0
LINE
5
374
100
AcDbEntity
8
WALL_SLOTS
6
ByLayer
62
256
370
-1
100
AcDbLine
10
6.80114556541
20
16.9298880595
11
6.80114556541
21
16.5362388355
0
LINE
5
375
100
AcDbEntity
8
WALL_SLOTS
6
ByLayer
62
256
370
-1
100
AcDbLine
10
1.43303914646
20
16.5362388355
11
1.31493937925
21
16.5362388355
0
LINE
5
376
100
AcDbEntity
8
WALL_SLOTS
6
ByLayer
62
256
370
-1
100
AcDbLine
10
1.31493937925
20
16.5362388355
11
1.31493937925
21
16.9298880595
0
LINE
5
377
100
AcDbEntity
8
WALL_SLOTS
6
ByLayer
62
256
370
-1
100
AcDbLine
10
1.31493937925
20
16.9298880595
11
1.43303914646
21
16.9298880595
0
LINE
5
378
100
AcDbEntity
8
WALL_SLOTS
6
ByLayer
62
256
370
-1
100
AcDbLine
10
1.43303914646
20
16.9298880595
11
1.43303914646
21
16.5362388355
0
LINE
5
379
100
AcDbEntity
8
REFERENCE
6
ByLayer
62
256
370
-1
100
AcDbLine
10
0.999890000236
20
17.4920919514
11
0.749890000236
21
17.4920919514
0
LINE
5
37A
100
AcDbEntity
8
REFERENCE
6
ByLayer
62
256
370
-1
100
AcDbLine
10
1.00053999894
20
10.3740499817
11
0.750539998937
21
10.3740499817
0
LINE
5
37B
100
AcDbEntity
8
REFERENCE
6
ByLayer
62
256
370
-1
100
AcDbLine
10
0.999890000236
20
8.49209195138
11
0.749890000236
21
8.49209195138
0
LINE
5
37C
100
AcDbEntity
8
REFERENCE
6
ByLayer
62
256
370
-1
100
AcDbLine
10
1.00053999894
20
1.37404998171
11
0.750539998937
21
1.37404998171
0
LINE
5
37D
100
AcDbEntity
8
ROUTER_PATH
6
ByLayer
62
256
370
-1
100
AcDbLine
10
0.750539998937
20
1.37404998171
11
6.80109156552
21
1.37404998171
0
LINE
5
37E
100
AcDbEntity
8
ROUTER_PATH
6
ByLayer
62
256
370
-1
100
AcDbLine
10
6.80049556669
20
8.49209195138
11
0.749890000236
21
8.49209195138
0
LINE
5
37F
100
AcDbEntity
8
ROUTER_PATH
6
ByLayer
62
256
370
-1
100
AcDbLine
10
0.750539998937
20
10.3740499817
11
6.80109156552
21
10.3740499817
0
LINE
5
380
100
AcDbEntity
8
ROUTER_PATH
6
ByLayer
62
256
370
-1
100
AcDbLine
10
0.749890000236
20
17.4920919514
11
6.80049556669
21
17.4920919514
0
ENDSEC
0
SECTION
2
OBJECTS
0
DICTIONARY
5
C
330
0
100
AcDbDictionary
281
1
3
ACAD_GROUP
350
D
0
DICTIONARY
5
D
330
C
100
AcDbDictionary
281
1
0
ENDSEC
0
EOF
